<svg width="123" height="106" viewBox="0 0 123 106" fill="none" xmlns="http://www.w3.org/2000/svg">
<g clip-path="url(#clip0_2042_7134)">
<path d="M120.598 30.8869L96.1477 46.9369C85.3477 30.4369 62.9977 25.7869 46.4977 36.5869C29.9978 47.3869 25.3478 69.7369 36.1478 86.2369L11.5478 102.287C-8.10223 72.2869 0.297768 31.7869 30.4478 12.1369C60.4477 -7.66307 100.948 0.886927 120.598 30.8869Z" fill="#FFF15D"/>
<path d="M29.8489 11.2364C60.4489 -8.71359 101.549 -0.163592 121.499 30.2864C121.799 30.7364 121.649 31.3364 121.199 31.6364L96.5989 47.8364C96.1489 48.1364 95.5489 47.9864 95.2489 47.5364C84.7489 31.4864 63.1489 26.9864 46.9489 37.4864C30.8989 47.9864 26.3989 69.5864 36.8989 85.7864C37.1989 86.2364 37.0489 86.8364 36.5989 87.1364L12.1489 103.036C11.6989 103.336 11.0989 103.186 10.7989 102.736C-9.15109 72.2864 -0.601092 31.1864 29.8489 11.2364ZM119.249 30.5864C99.7489 1.63641 60.2989 -6.31359 31.0489 12.8864C1.64891 32.0864 -6.75109 71.3864 11.8489 100.786L34.6489 85.7864C24.1489 68.8364 29.0989 46.6364 45.8989 35.6864C62.5489 24.7364 85.0489 29.2364 96.2989 45.5864L119.249 30.5864Z" fill="#0C3ACF"/>
<path d="M36.1501 86.236C38.7001 90.136 35.2501 96.736 28.5001 101.236C21.7501 105.586 14.2502 106.186 11.7002 102.286C9.15016 98.386 12.6002 91.786 19.3502 87.286C26.1001 82.786 33.6001 82.336 36.1501 86.236Z" fill="#FF85C8"/>
<path d="M18.7494 86.3859C26.0994 81.5859 34.0494 81.2859 36.8994 85.6359C39.7494 89.9859 36.2994 97.1859 28.9494 101.986C21.5994 106.786 13.6494 107.086 10.7994 102.736C7.94944 98.3859 11.3994 91.1859 18.7494 86.3859ZM27.8994 100.336C34.0494 96.2859 37.4994 90.1359 35.2494 86.6859C33.1494 83.3859 26.0994 83.9859 19.7994 88.0359C13.6494 92.0859 10.1994 98.2359 12.4494 101.686C14.6994 104.986 21.7494 104.386 27.8994 100.336Z" fill="#0C3ACF"/>
<path d="M120.599 30.8867C123.149 34.7867 119.699 41.3867 112.949 45.8867C106.199 50.2367 98.6994 50.8367 96.1494 46.9367C93.5994 43.0367 97.0494 36.4367 103.799 31.9367C110.549 27.5867 118.049 26.9867 120.599 30.8867Z" fill="#FF85C8"/>
<path d="M103.35 31.0363C110.7 26.2363 118.65 25.9363 121.5 30.2863C124.35 34.6363 120.9 41.8363 113.55 46.6363C106.2 51.4363 98.2497 51.7363 95.3997 47.3863C92.3997 43.0363 95.9997 35.8363 103.35 31.0363ZM112.35 44.9863C118.5 40.9363 121.95 34.7863 119.7 31.3363C117.6 28.0363 110.55 28.6363 104.25 32.6863C98.0997 36.7363 94.6497 42.8863 96.8997 46.3363C99.1497 49.6363 106.2 49.0363 112.35 44.9863Z" fill="#0C3ACF"/>
</g>
<defs>
<clipPath id="clip0_2042_7134">
<rect width="122.4" height="105.45" fill="white" transform="translate(0 0.435547)"/>
</clipPath>
</defs>
</svg>
