<svg width="122" height="89" viewBox="0 0 122 89" fill="none" xmlns="http://www.w3.org/2000/svg">
<g clip-path="url(#clip0_2042_7118)">
<path d="M102.638 11.6411C79.3051 -1.87385 41.4376 -1.87385 18.2326 11.6411C-4.97244 25.156 -4.84494 46.9584 18.4876 60.4734C41.8201 73.9883 79.6875 73.9883 102.893 60.4734C126.225 46.9584 126.098 25.156 102.638 11.6411Z" fill="#FFF15D"/>
<path d="M60.8175 71.4386C45.39 71.4386 29.9625 67.9961 18.105 61.2386C6.5025 54.6087 0 45.5562 0 35.9937C0 26.4313 6.375 17.5063 17.85 10.8764C41.31 -2.76608 79.56 -2.76608 103.147 10.8764C114.75 17.6338 121.125 26.5588 121.125 36.1212C121.125 45.6837 114.877 54.6087 103.402 61.2386C91.6725 68.1236 76.245 71.4386 60.8175 71.4386ZM60.435 2.3339C45.2625 2.3339 30.2175 5.64888 18.7425 12.2789C7.7775 18.6538 1.785 27.0688 1.785 35.8662C1.785 44.7912 7.905 53.2062 18.9975 59.7086C42.075 73.0961 79.56 73.0961 102.51 59.7086C113.475 53.3337 119.467 44.9187 119.467 36.1212C119.467 27.1963 113.347 18.7813 102.255 12.2789C90.6525 5.64888 75.48 2.3339 60.435 2.3339Z" fill="#0C3ACF"/>
<path d="M120.233 36.2477V53.4602C120.233 62.2576 114.368 71.0551 102.893 77.685C79.6876 91.2 41.8201 91.2 18.4876 77.685C6.75762 70.9276 0.765118 62.0026 0.892618 53.0777V35.8652C0.892618 44.7902 6.75762 53.7152 18.4876 60.4726C41.8201 73.9876 79.6876 73.9876 102.893 60.4726C114.495 53.8427 120.233 45.0452 120.233 36.2477Z" fill="#FF85C8"/>
<path d="M60.69 88.6503C45.2625 88.6503 29.835 85.2079 17.9775 78.4504C6.375 71.6929 0 62.6405 0 53.078V35.8656C0 35.4831 0.3825 35.1006 0.8925 35.1006C1.4025 35.1006 1.785 35.4831 1.785 35.9931C1.785 44.918 7.905 53.4605 18.9975 59.8355C42.075 73.2229 79.56 73.2229 102.51 59.8355C113.347 53.4605 119.467 45.173 119.467 36.2481C119.467 35.7381 119.85 35.3556 120.36 35.3556C120.87 35.3556 121.252 35.7381 121.252 36.2481V53.4605C121.252 62.8955 114.877 71.8204 103.53 78.4504C91.545 85.2079 76.1175 88.6503 60.69 88.6503ZM1.785 44.408V53.078C1.785 62.003 7.905 70.5454 18.9975 76.9204C42.075 90.3078 79.56 90.3078 102.51 76.9204C113.347 70.5454 119.467 62.258 119.467 53.333V44.5355C116.917 50.783 111.435 56.5205 103.402 61.1105C79.9425 74.7529 41.6925 74.7529 18.105 61.1105C9.945 56.5205 4.335 50.6555 1.785 44.408Z" fill="#0C3ACF"/>
<path d="M86.9542 52.95C87.0817 53.0775 87.3367 53.205 87.4642 53.3325C87.7192 53.5875 87.9742 53.715 88.2292 53.97C72.0367 62.3849 47.0467 62.0024 31.4917 53.0775C15.8092 44.025 15.1717 29.4901 29.5792 20.1826C29.9617 20.3101 30.3442 20.4376 30.7267 20.5651C30.9817 20.6926 31.1092 20.8201 31.3642 20.8201C31.4917 20.9476 31.6192 20.9476 31.7467 21.0751C18.2317 29.8726 18.7417 43.3875 33.4042 51.8025C47.9392 60.2174 71.2717 60.4724 86.3167 52.695C86.5717 52.695 86.6992 52.8225 86.9542 52.95Z" fill="#0C3ACF"/>
<path d="M68.34 16.6139C70.2525 17.7614 70.2525 19.5464 68.34 20.6939L59.16 26.1764C57.2475 27.3238 54.06 27.3238 52.1475 26.1764L50.49 25.2839C48.5775 24.1364 48.5775 22.3514 50.49 21.2039L59.7975 15.8489C61.71 14.7014 64.8975 14.7014 66.81 15.8489L68.34 16.6139Z" fill="#0C3ACF"/>
<path d="M93.7136 31.2756C95.6261 32.4231 95.6261 34.2081 93.7136 35.3556L84.4061 40.7105C82.4936 41.858 79.3061 41.858 77.3936 40.7105L75.7361 39.818C73.8236 38.6705 73.8236 36.8856 75.7361 35.7381L85.0436 30.3831C86.9561 29.2356 90.1436 29.2356 92.0561 30.3831L93.7136 31.2756Z" fill="#0C3ACF"/>
</g>
<defs>
<clipPath id="clip0_2042_7118">
<rect width="121.125" height="87.9746" fill="white" transform="translate(0 0.674805)"/>
</clipPath>
</defs>
</svg>
