<svg width="86" height="86" viewBox="0 0 86 86" fill="none" xmlns="http://www.w3.org/2000/svg">
<g clip-path="url(#clip0_2167_2632)">
<path d="M25.2962 84.9258L84.9248 84.9258L84.9248 25.2972L25.2962 25.2972L25.2962 84.9258Z" fill="#FF85C8"/>
<path d="M84.9735 86H25.3449C24.7589 86 24.3193 85.5605 24.3193 84.9745V25.3459C24.3193 24.7598 24.7589 24.3203 25.3449 24.3203H84.9735C85.5595 24.3203 85.9991 24.7598 85.9991 25.3459V84.9745C85.9991 85.5605 85.5595 86 84.9735 86ZM26.2239 83.9489H83.9479V26.2249H26.2239V83.9489Z" fill="#0C3ACF"/>
<path d="M84.9743 25.3457L60.654 1.02539H1.02539L25.3457 25.3457H84.9743Z" fill="#FFF15D"/>
<path d="M84.974 26.2249H25.3454C25.0523 26.2249 24.9058 26.0784 24.6128 25.9319L0.292554 1.61158C-0.000461293 1.46508 -0.146969 1.02555 0.146046 0.586031C0.292554 0.293015 0.585569 0 1.02509 0H60.6537C60.9467 0 61.0932 0.146508 61.3862 0.293015L85.7065 24.6133C85.9995 24.9063 85.9995 25.3458 85.853 25.6388C85.7065 26.0784 85.4135 26.2249 84.974 26.2249ZM25.6384 24.3203H82.4834L60.2142 1.9046H3.36921L25.6384 24.3203Z" fill="#0C3ACF"/>
<path d="M79.8467 25.3462H80.2862C80.1397 25.1997 79.9932 25.1997 79.8467 25.3462Z" fill="#0C3ACF"/>
<path d="M8.64355 2.34398C8.64355 2.637 8.79006 2.93001 9.08308 3.07652C9.22958 3.22303 9.37609 3.22303 9.66911 3.22303C10.2551 3.22303 10.6947 2.78351 10.6947 2.34398V0.878906H8.79006L8.64355 2.34398Z" fill="#0C3ACF"/>
<path d="M32.2316 5.12761C31.7921 5.42062 31.7921 6.00665 32.0851 6.44617L32.2316 6.59268C32.5246 6.8857 33.1106 6.8857 33.4036 6.59268L40.143 1.1719L40.2895 1.02539H37.3593L32.2316 5.12761Z" fill="#0C3ACF"/>
<path d="M25.0528 1.46494C25.1993 1.61144 25.3458 1.61144 25.4923 1.61144C25.9318 1.75795 26.5179 1.46494 26.6644 0.878906H24.7598C24.7598 1.17192 24.9063 1.31843 25.0528 1.46494Z" fill="#0C3ACF"/>
<path d="M60.6536 6.73919C60.8001 6.8857 61.0931 7.0322 61.3861 6.8857C61.9721 6.73919 62.2651 6.29967 62.1186 5.71364L61.2396 1.75793L60.507 1.02539H59.1885L60.214 6.15316C60.3605 6.44617 60.507 6.59268 60.6536 6.73919Z" fill="#0C3ACF"/>
<path d="M54.5008 4.24839C54.3543 3.66236 53.9147 3.36934 53.3287 3.51585L45.7103 4.98093C45.1243 5.12743 44.8313 5.56696 44.9778 6.15299C44.9778 6.446 45.1243 6.59251 45.2708 6.73902C45.4173 6.88553 45.7103 7.03203 46.0033 6.88553L53.6217 5.42045C54.2077 5.27394 54.6473 4.83442 54.5008 4.24839Z" fill="#0C3ACF"/>
<path d="M58.8958 11.8679L59.0423 8.20524C59.0423 7.61921 58.6028 7.17969 58.1633 7.17969C57.5772 7.17969 57.1377 7.61921 57.1377 8.05873L56.9912 11.7214C56.9912 12.0144 57.1377 12.3075 57.2842 12.454C57.4307 12.6005 57.5772 12.6005 57.8703 12.6005C58.4563 12.8935 58.8958 12.454 58.8958 11.8679Z" fill="#0C3ACF"/>
<path d="M3.66227 1.75738L2.63672 2.63642L3.95529 3.95499L4.98084 3.07595C5.42036 2.78293 5.42036 2.05039 5.12735 1.75738C4.68783 1.31785 4.1018 1.31785 3.66227 1.75738Z" fill="#0C3ACF"/>
<path d="M16.2619 10.2545L17.4339 4.39416C17.5804 3.80813 17.1409 3.3686 16.7014 3.2221C16.1154 3.07559 15.6758 3.51511 15.5293 3.95464L14.3573 9.81494C14.2108 10.108 14.3573 10.5475 14.6503 10.694C14.7968 10.8405 14.9433 10.8405 15.0898 10.8405C15.5293 10.987 16.1154 10.694 16.2619 10.2545Z" fill="#0C3ACF"/>
<path d="M27.6896 8.05683C27.6896 7.4708 27.2501 7.03127 26.8105 7.03127L21.6828 6.88477C21.0967 6.88477 20.6572 7.32429 20.6572 7.76381C20.6572 8.05683 20.8037 8.34984 20.9502 8.49635C21.2433 8.64286 21.3898 8.78937 21.6828 8.78937L26.8105 8.93587C27.2501 8.93587 27.6896 8.64286 27.6896 8.05683Z" fill="#0C3ACF"/>
<path d="M42.1938 3.66287C41.7543 3.36985 41.1683 3.66287 40.8753 4.10239L38.2381 9.81619C38.0916 10.2557 38.2381 10.6952 38.5312 10.9883L38.6777 11.1348C39.1172 11.4278 39.7032 11.1348 39.9962 10.6952L42.6334 4.98144C42.9264 4.54192 42.7799 3.95588 42.1938 3.66287Z" fill="#0C3ACF"/>
<path d="M65.7815 6.15234C65.635 6.29885 65.635 6.44536 65.635 6.59187L64.4629 12.8917H66.3675L67.393 7.76393L65.7815 6.15234Z" fill="#0C3ACF"/>
<path d="M46.8822 12.7463C46.8822 12.1602 46.4426 11.7207 45.8566 11.7207C45.2706 11.7207 44.8311 12.1602 44.8311 12.7463H46.8822Z" fill="#0C3ACF"/>
<path d="M69.5907 12.893H71.7883L71.0557 11.2814L70.1767 10.4023C70.0302 10.4023 69.7372 10.4023 69.5907 10.5489C69.1511 10.8419 68.8581 11.4279 69.1512 11.8674L69.5907 12.893Z" fill="#0C3ACF"/>
<path d="M10.6946 7.9105C10.5481 7.32447 10.1086 7.03145 9.52258 7.17796C9.08306 7.32447 8.79004 7.9105 8.93655 8.35002L9.08306 9.08256L11.8667 11.8662L10.6946 7.9105Z" fill="#0C3ACF"/>
<path d="M36.7728 12.8927C36.6263 12.5997 36.3332 12.4532 36.0402 12.4532L29.7404 12.0137C29.3009 12.0137 28.7148 12.3067 28.7148 12.8927H36.7728Z" fill="#0C3ACF"/>
<path d="M67.2468 20.5101C67.2468 19.9241 66.9538 19.4845 66.3677 19.4845L57.7238 18.459C57.1378 18.459 56.6982 18.752 56.6982 19.338C56.6982 19.631 56.8448 20.0706 56.9913 20.2171C57.1378 20.3636 57.2843 20.3636 57.4308 20.3636L66.0747 21.3891C66.6608 21.3891 67.2468 20.9496 67.2468 20.5101Z" fill="#0C3ACF"/>
<path d="M51.2774 13.6251L50.1053 19.4854C49.9588 19.7785 50.1053 20.218 50.3983 20.3645C50.5449 20.511 50.6914 20.511 50.8379 20.511C51.4239 20.6575 51.8634 20.218 52.0099 19.7785L53.182 13.9182C53.3285 13.3321 52.889 12.8926 52.4494 12.7461H52.3029C51.7169 12.8926 51.2774 13.1856 51.2774 13.6251Z" fill="#0C3ACF"/>
<path d="M66.6604 24.9062L65.3418 25.1993H67.6859C67.3929 25.0528 66.9534 24.9062 66.6604 24.9062Z" fill="#0C3ACF"/>
<path d="M55.6722 24.1731C55.8187 23.7335 55.5257 23.1475 55.0862 23.001C54.6467 22.8545 54.0606 23.1475 53.9141 23.587L53.4746 25.1986H55.5257L55.6722 24.1731Z" fill="#0C3ACF"/>
<path d="M17.141 14.5039L15.0898 14.9434L16.7014 16.555L17.5805 16.4085C18.1665 16.262 18.4595 15.8225 18.313 15.2364C18.1665 14.7969 17.5805 14.5039 17.141 14.5039Z" fill="#0C3ACF"/>
<path d="M26.0782 16.2619C25.7852 15.8223 25.1992 15.6758 24.7597 15.9688L19.3389 19.3385L20.8039 20.8036L25.7852 17.7269C26.2247 17.4339 26.3712 16.7014 26.0782 16.2619Z" fill="#0C3ACF"/>
<path d="M30.9132 24.4659C31.2062 24.9054 31.7922 25.052 32.2318 24.7589L39.8502 19.9242C40.2897 19.6312 40.4362 19.0451 40.1432 18.6056C39.8502 18.1661 39.2641 18.0196 38.8246 18.3126L31.2062 23.1474C30.7667 23.4404 30.6202 24.0264 30.9132 24.4659Z" fill="#0C3ACF"/>
<path d="M26.0781 25.3448H27.2502C26.9572 25.0517 26.3711 25.0517 26.0781 25.3448Z" fill="#0C3ACF"/>
<path d="M65.1954 14.3576C65.7815 14.5041 66.221 14.0646 66.3675 13.6251L66.514 13.0391H64.4629V13.1856C64.4629 13.4786 64.6094 13.9181 64.7559 14.0646C64.9024 14.2111 65.0489 14.2111 65.1954 14.3576Z" fill="#0C3ACF"/>
<path d="M45.4169 22.1226C45.5634 22.2691 45.8564 22.2691 46.0029 22.2691C46.589 22.2691 47.0285 21.8296 47.0285 21.2435V12.7461H45.1239V21.2435C44.9774 21.6831 45.1239 21.9761 45.4169 22.1226Z" fill="#0C3ACF"/>
<path d="M72.228 18.3133C72.521 18.6064 72.9605 18.6064 73.2535 18.4598C73.5465 18.3133 73.6931 18.0203 73.6931 17.8738V17.4343V17.2878L71.642 13.0391H69.4443L71.935 18.0203C72.0815 18.0203 72.0815 18.1668 72.228 18.3133Z" fill="#0C3ACF"/>
<path d="M29.5939 13.9181L35.8937 14.3577C36.4797 14.3577 36.9192 14.0646 36.9192 13.4786C36.9192 13.1856 36.9192 13.0391 36.7727 12.8926H28.8613C28.8613 13.1856 29.0078 13.4786 29.1543 13.7716C29.3008 13.9181 29.4474 13.9181 29.5939 13.9181Z" fill="#0C3ACF"/>
<path d="M73.2531 24.7606C73.3996 24.9071 73.5461 24.9071 73.6926 24.9071C73.8391 24.9071 74.1321 24.9071 74.2786 24.7606L80.4319 21.2444C80.5784 21.2444 80.5784 21.0979 80.5784 21.0979L79.2599 19.7793L73.6926 23.0025L73.3996 23.149C72.96 23.442 72.8135 24.028 73.1065 24.4675C73.1065 24.6141 73.2531 24.614 73.2531 24.7606Z" fill="#0C3ACF"/>
<path d="M25.3457 84.9743L1.02539 60.654V1.02539L25.3457 25.3457V84.9743Z" fill="#32F0F0"/>
<path d="M25.3458 85.9995C25.0528 85.9995 24.9063 85.853 24.6133 85.7065L0.293015 61.3863C0.146508 61.0932 0 60.9467 0 60.6537V1.02509C0 0.585569 0.293015 0.292554 0.586031 0.146046C1.02555 -0.146969 1.46508 -0.000461292 1.61158 0.292554L25.9319 24.6128C26.0784 24.7593 26.2249 25.0524 26.2249 25.3454V84.974C26.2249 85.4135 25.9319 85.7065 25.6388 85.853C25.4923 85.853 25.4923 85.9995 25.3458 85.9995ZM1.9046 60.2142L24.3203 82.6299V25.6384L1.9046 3.36922V60.2142Z" fill="#0C3ACF"/>
<path d="M22.8555 32.9631C23.002 33.8422 23.588 34.2817 24.3205 34.5747V31.3516C23.4415 31.4981 22.8555 31.7911 22.8555 32.9631Z" fill="#0C3ACF"/>
<path d="M16.409 56.4055C15.5299 59.7752 16.5555 66.5145 21.0972 66.5145C21.2437 66.5145 21.5368 66.368 21.5368 66.2215C21.8298 65.782 21.9763 65.3424 22.1228 64.9029C22.8553 64.6099 23.2948 64.0239 23.4414 63.2913C23.8809 60.9472 21.0972 59.1891 21.8298 56.6985C22.2693 55.3799 23.1483 54.9404 24.1739 54.5009V48.9336C22.5623 49.5196 20.9507 50.5452 19.7787 51.4242C18.1671 52.7428 16.8485 54.3544 16.409 56.4055Z" fill="#0C3ACF"/>
<path d="M18.1666 39.9959C17.8736 39.8494 17.5805 39.8494 17.2875 39.8494C15.0899 39.4099 12.3063 39.7029 10.6947 41.461C10.1087 42.1936 9.66913 43.2191 9.66913 44.0982C9.81564 45.4167 10.8412 46.4423 10.4017 47.7608C10.1087 48.9329 8.49707 49.2259 8.49707 50.5445C8.49707 51.277 9.0831 51.8631 9.66913 52.1561C11.4272 53.0351 13.4783 51.8631 14.3574 50.398C14.9434 49.2259 15.0899 47.9073 14.9434 46.7353C14.9434 46.5888 14.5039 44.5377 14.5039 44.5377C15.0899 44.2447 15.8225 45.4167 16.262 45.7097C17.5805 46.7353 19.3386 46.4423 20.3642 45.1237C20.5107 44.8307 20.6572 44.5377 20.8037 44.2447C20.8037 43.6586 20.6572 42.9261 20.5107 42.3401C19.9247 41.3145 19.1921 40.4355 18.1666 39.9959Z" fill="#0C3ACF"/>
<path d="M20.6578 23.7345C20.3647 22.5624 19.6322 21.3904 18.6066 20.8043C17.7276 18.0207 12.5998 18.7532 13.0394 22.4159C13.1859 23.295 13.7719 23.881 14.2114 24.6135C15.3835 26.0786 16.116 26.9577 15.53 29.0088C14.944 30.9134 14.3579 32.3785 15.53 33.99C16.409 35.1621 18.1671 38.0922 19.7787 37.3597C21.8298 36.6272 20.8043 34.283 20.2182 32.9645C19.0462 29.8878 21.2438 26.9577 20.6578 23.7345Z" fill="#0C3ACF"/>
<path d="M4.54143 47.7614C6.00651 47.6149 6.59254 46.2964 6.73905 44.9778C6.88556 44.0988 6.59254 43.2197 6.29953 42.4872C6.15302 41.9011 5.86 41.3151 5.7135 40.7291C5.42048 39.4105 6.00651 38.5315 6.44603 37.3594C6.73905 36.6269 6.59254 36.1873 6.59254 35.3083C6.44603 34.5758 7.03207 33.6967 6.73905 32.9642C6.00651 31.4991 3.8089 32.3781 2.78334 32.8177C2.49033 32.9642 2.19731 32.9642 1.9043 33.1107V39.1175C2.0508 39.85 2.0508 40.5826 1.9043 41.3151V46.1499C2.49033 47.1754 3.51588 47.908 4.54143 47.7614Z" fill="#0C3ACF"/>
<path d="M3.51588 28.4218C4.39493 28.5683 5.42048 28.4218 6.15302 27.6892C6.59254 27.2497 6.88556 26.6637 6.88556 25.9311C6.88556 24.9056 5.42048 24.3195 6.29953 23.4405C6.88556 22.8545 7.7646 22.708 8.20413 21.8289C8.79016 21.0964 8.93666 20.2173 8.79016 19.3383C8.64365 18.0197 7.7646 16.8477 6.44603 17.4337C6.00651 17.5802 5.7135 18.0197 5.27397 18.1662C3.9554 18.7523 2.92985 17.8732 1.9043 16.8477V27.8357C2.49033 27.9822 2.92985 28.2753 3.51588 28.4218Z" fill="#0C3ACF"/>
<path d="M6.59254 10.548C7.03206 10.1085 7.32508 9.52246 7.6181 9.08294L1.9043 3.36914V6.15279C2.34382 6.00628 2.49033 5.85977 2.92985 5.71326L3.22287 5.27374C3.36937 5.71326 3.66239 6.29929 3.8089 6.73882C3.8089 7.03183 2.78334 7.61786 2.63684 7.76437C2.34382 8.05739 2.19731 8.20389 1.9043 8.49691V11.8666C2.34382 12.1596 2.92985 12.4526 3.36937 12.4526C4.83445 12.4526 5.86 11.5736 6.59254 10.548Z" fill="#0C3ACF"/>
<path d="M22.5625 72.3741C21.9765 71.6416 21.0975 71.202 20.3649 71.202C20.3649 71.0555 20.2184 71.0555 20.0719 71.0555C18.1673 70.7625 16.8487 72.8136 16.1162 74.4252C16.1162 74.4252 16.1162 74.4252 16.1162 74.5717L21.0975 79.553C21.83 77.0623 24.4671 74.7182 22.5625 72.3741Z" fill="#0C3ACF"/>
<path d="M24.3205 82.6291V81.7501C23.881 81.4571 23.295 81.1641 22.8555 81.1641L24.3205 82.6291Z" fill="#0C3ACF"/>
<path d="M2.92983 58.6023C2.92983 58.7488 3.07634 58.8953 3.22284 58.8953C4.83443 59.0418 6.2995 57.4302 5.71347 55.8186C5.42046 55.2326 4.98093 54.6466 4.2484 54.5001C3.36935 54.3536 2.4903 55.0861 2.05078 54.7931V59.4813C2.3438 59.1883 2.63681 58.8953 2.92983 58.6023Z" fill="#0C3ACF"/>
<path d="M1.61158 0.292554C1.46508 -0.000461292 1.02555 -0.146969 0.586031 0.146046C0.293015 0.292554 0 0.585569 0 1.02509V60.6537C0 60.9467 0.146508 61.0932 0.293015 61.3863L24.6133 85.7065C24.7598 85.853 25.0528 85.9995 25.3458 85.9995C25.4923 85.9995 25.6388 85.9995 25.7854 85.853C26.2249 85.7065 26.3714 85.4135 26.3714 84.974V25.3454C26.3714 25.0524 26.2249 24.9058 26.0784 24.6128L1.61158 0.292554ZM24.3203 34.5754V48.9331V54.5004V81.7508V82.6299L22.8552 81.1648L21.0971 79.4067L16.1158 74.4254L2.05111 60.3607V59.4817V54.7934V46.296V41.4612V39.2636V33.2568V27.836V16.8479V11.8667V8.49698V6.15286V3.36922L7.76491 9.08301L24.3203 25.6384V31.2057V34.5754Z" fill="#0C3ACF"/>
</g>
<defs>
<clipPath id="clip0_2167_2632">
<rect width="86" height="86" fill="white"/>
</clipPath>
</defs>
</svg>
