<svg width="318" height="552" viewBox="0 0 318 552" fill="none" xmlns="http://www.w3.org/2000/svg">
<path d="M125.217 240.589L133.964 230.666C139.624 233.095 145.507 235.775 151.543 238.678C144.526 245.493 137.202 252.67 136.56 253.464C135.821 254.301 145.738 247.111 154.944 240.284C163.865 244.666 173.358 249.439 183.478 254.464L168.523 271.202L186.043 255.734C194.546 259.949 203.523 264.192 213.044 268.491C213.392 268.631 213.643 268.812 213.922 268.924L205.229 283.155L216.585 270.152C262.586 291.815 258.994 309.06 214.741 304.841L213.031 293.965L212.97 304.617C201.412 303.385 187.178 300.756 170.448 296.481C164.007 294.791 158.027 292.961 152.367 290.937L154.772 277.26L149.969 290.057C148.199 289.429 146.526 288.759 144.853 288.089L145.905 275.164L142.623 287.195C121.197 278.289 105.865 267.294 95.0227 256.804L97.2628 238.289L89.4205 251.001C74.5377 234.443 70.6267 220.582 70.6267 220.582C90.3582 215.949 109.834 220.434 131.818 229.564L125.217 240.589Z" fill="url(#paint0_linear_2167_2687)"/>
<path d="M5.48128 172.808C25.5507 189.745 46.6664 205.483 68.7449 219.827C87.6593 232.176 107.23 243.494 127.288 253.793C143.193 261.944 159.447 269.426 176.008 276.14C187.202 280.705 198.535 284.922 210.064 288.65C213.354 289.726 216.672 290.731 219.99 291.737C221.44 292.156 222.973 292.77 224.507 292.98C224.577 293.008 224.646 293.036 224.716 293.064C225.232 293.189 225.72 292.172 225.232 291.976C221.273 290.956 217.37 289.797 213.494 288.568C202.802 285.175 192.277 281.363 181.794 277.245C165.804 270.921 150.094 263.899 134.635 256.251C114.994 246.523 95.9397 235.736 77.3874 224.098C55.3784 210.186 34.1369 194.963 13.9697 178.473C11.3635 176.296 8.7293 174.19 6.15098 171.944C5.67714 171.511 5.04921 172.473 5.48128 172.808Z" fill="#001AAF"/>
<path d="M169.484 248.21C174.056 250.526 178.586 252.746 183.186 254.993C183.228 254.686 183.201 254.351 183.243 254.045C178.862 258.922 174.551 263.828 170.199 268.636C169.585 269.361 168.901 270.058 168.287 270.783C167.981 271.145 168.064 272.149 168.622 271.564C173.741 267.063 178.86 262.562 183.938 257.963C184.691 257.294 185.416 256.695 186.1 255.998C185.933 256.012 185.835 256.054 185.64 256.137C194.91 260.659 204.235 265.042 213.519 269.327C213.533 269.09 213.505 268.756 213.519 268.519C210.645 273.272 207.701 277.997 204.826 282.75C204.589 283.14 204.797 284.033 205.286 283.419C209.039 279.099 212.819 274.709 216.642 270.416C216.474 270.43 216.377 270.472 216.182 270.556C223.402 273.933 230.484 277.66 237.034 282.306C240.937 285.083 245.076 288.278 247.542 292.42C248.949 294.763 249.659 297.636 247.692 299.921C245.292 302.681 240.956 303.613 237.498 304.169C229.982 305.364 222.202 304.998 214.729 304.269C214.84 304.394 214.91 304.422 215.021 304.548C214.451 300.922 213.882 297.297 213.312 293.671C213.187 292.974 212.503 293.671 212.503 294.075C212.459 297.617 212.485 301.186 212.442 304.728C212.623 304.477 212.805 304.226 213.028 304.073C197.357 302.406 181.784 299.08 166.644 294.875C161.848 293.52 157.178 292.054 152.494 290.42C152.578 290.616 152.592 290.783 152.675 290.978C153.444 286.433 154.241 281.818 155.08 277.301C155.164 276.688 154.579 276.534 154.327 277.161C152.694 281.441 151.13 285.749 149.525 289.959C149.748 289.805 149.943 289.722 150.096 289.541C148.396 288.94 146.653 288.242 144.98 287.572C145.022 287.67 145.106 287.865 145.148 287.963C145.498 283.654 145.849 279.346 146.2 275.038C146.242 274.327 145.531 274.689 145.335 275.177C144.218 279.178 143.17 283.207 142.053 287.208C142.276 287.055 142.499 286.902 142.68 286.651C129.632 281.262 117.171 274.41 106.007 265.732C103.735 263.932 101.491 262.063 99.2752 260.124C98.2577 259.231 97.3101 258.366 96.3903 257.431C95.8747 256.901 95.4006 256.873 95.359 256.371C95.3038 255.297 95.639 254.057 95.7511 252.969C95.9612 251.031 96.2411 249.121 96.4512 247.183C96.8431 244.186 97.1653 241.16 97.5572 238.163C97.5853 237.689 97.1112 237.66 96.9019 237.981C94.3204 242.204 91.6691 246.4 89.0597 250.693C89.2549 250.61 89.4222 250.596 89.6872 250.54C82.19 242.198 75.5022 232.644 71.5616 222.087C71.3388 221.432 71.0882 220.846 70.9351 220.219C70.8234 220.498 70.6838 220.846 70.5024 221.097C79.3293 219.052 88.4063 218.805 97.371 220.051C97.845 220.079 98.1941 219.005 97.6504 218.949C88.5881 217.746 79.4414 217.964 70.5169 220.051C70.1543 220.149 70.0286 220.664 70.0842 220.929C70.6549 222.937 71.4487 224.792 72.3122 226.675C74.5824 231.71 77.3965 236.396 80.6012 240.915C83.1648 244.611 85.9796 248.084 89.0175 251.404C89.1707 251.627 89.4915 251.432 89.645 251.251C92.2266 247.028 94.8778 242.832 97.4872 238.539C97.2782 238.455 97.0411 238.441 96.832 238.357C96.1459 244.311 95.3621 250.306 94.6759 256.259C94.6897 256.426 94.5781 256.705 94.5919 256.873C94.7309 257.737 96.2642 258.756 96.9192 259.342C99.0375 261.323 101.281 263.192 103.525 265.062C108.473 269.066 113.728 272.707 119.192 276.029C126.607 280.536 134.371 284.374 142.359 287.655C142.708 287.794 142.945 287.404 142.987 287.097C144.104 283.096 145.152 279.067 146.269 275.066C146.004 275.122 145.74 275.177 145.405 275.205C145.054 279.513 144.703 283.821 144.353 288.13C144.367 288.297 144.38 288.464 144.52 288.52C146.193 289.19 147.935 289.888 149.636 290.489C149.915 290.6 150.166 290.377 150.208 290.071C151.841 285.791 153.405 281.483 155.01 277.273C154.773 277.259 154.495 277.148 154.258 277.134C153.489 281.679 152.692 286.293 151.853 290.81C151.797 290.95 151.825 291.284 152.034 291.368C167.926 296.925 184.558 300.838 201.19 303.537C205.052 304.194 208.9 304.684 212.776 305.104C213.083 305.146 213.348 304.686 213.362 304.449C213.406 300.908 213.38 297.339 213.423 293.797C213.13 293.922 212.838 294.048 212.614 294.201C213.184 297.826 213.754 301.452 214.324 305.077C214.338 305.245 214.449 305.37 214.617 305.356C221.783 306.043 229.159 306.409 236.354 305.409C240.286 304.881 244.762 304.005 247.803 301.26C254.345 295.226 245.203 286.953 240.561 283.395C233.356 277.759 225.118 273.488 216.879 269.622C216.74 269.566 216.545 269.649 216.419 269.761C212.666 274.081 208.885 278.471 205.063 282.764C205.216 282.987 205.369 283.21 205.523 283.433C208.397 278.68 211.342 273.955 214.216 269.202C214.37 269.021 214.496 268.505 214.217 268.393C204.863 264.08 195.538 259.698 186.337 255.203C186.198 255.148 186.003 255.231 185.877 255.343C180.758 259.844 175.639 264.345 170.561 268.943C169.808 269.612 169.082 270.211 168.399 270.908C168.524 271.201 168.65 271.494 168.733 271.689C173.114 266.811 177.425 261.906 181.777 257.097C182.391 256.373 183.074 255.676 183.688 254.951C183.87 254.7 184.135 254.24 183.745 254.003C179.145 251.756 174.642 249.467 170.042 247.22C169.512 246.927 169.094 247.972 169.484 248.21Z" fill="#001AAF"/>
<path d="M146.188 243.568C144.067 245.63 142.045 247.651 139.924 249.714C138.836 250.815 137.678 251.888 136.66 253.016C136.507 253.198 135.962 253.95 136.213 254.132C136.394 254.285 136.771 253.951 136.897 253.839C138.333 252.878 139.77 251.917 141.165 250.858C143.871 248.949 146.507 247.012 149.171 245.006C149.394 244.852 149.506 244.573 149.617 244.295C149.645 244.225 149.645 243.821 149.422 243.974C145.74 246.705 141.988 249.408 138.236 252.111C137.79 252.417 137.441 252.682 137.023 252.919C136.925 252.961 136.799 253.072 136.799 253.072C136.646 253.253 136.632 253.895 136.632 253.895C136.729 253.853 136.757 253.783 136.785 253.714C137.776 252.654 138.836 251.623 139.896 250.592C141.947 248.502 144.039 246.509 146.159 244.446C146.313 244.265 146.592 243.164 146.188 243.568Z" fill="#001AAF"/>
<path d="M127.522 236.251C126.811 237.421 126.071 238.662 125.429 239.861C125.345 240.07 125.22 240.181 125.136 240.39C125.052 240.6 124.871 240.85 124.955 241.046C125.038 241.241 125.261 241.088 125.317 240.948C126.336 239.819 127.284 238.663 128.303 237.534C128.456 237.353 128.582 237.241 128.735 237.06C128.889 236.879 129.028 236.53 128.973 236.265C128.917 236 128.666 236.223 128.54 236.335C127.522 237.464 126.573 238.62 125.555 239.749C125.401 239.93 125.276 240.042 125.122 240.223C125.206 240.418 125.289 240.614 125.373 240.809C126.085 239.638 126.824 238.397 127.466 237.199C127.55 236.99 127.676 236.878 127.759 236.669C127.815 236.53 128.052 236.139 127.899 235.916C127.829 235.888 127.55 236.181 127.522 236.251Z" fill="#001AAF"/>
<path d="M162.773 229.827L156.881 245.746C172.495 249.17 187.734 250.098 202.054 249.283L204.865 231.967L205.303 249.047C207.883 248.867 210.42 248.59 212.888 248.284L215.822 236.518L215.189 247.993C231.183 245.825 245.518 241.538 257.233 236.12L257.839 222.693L261.347 234.128C278.641 225.283 289.006 214.148 288.439 204.862C287.471 189.106 273.43 189.629 253.755 192.505L246.217 210.92L249.962 193.089C234.094 195.549 215.06 198.844 196.392 196.38L193.053 208.955L193.59 195.905C191.986 195.667 190.481 195.387 188.933 195.01C187.358 194.703 185.713 194.367 184.137 194.06L180.688 204.083L180.554 193.514C168.759 191.863 156.378 192.08 144.414 193.273L139.633 217.726L138.237 193.953C107.491 197.814 81.7614 207.324 81.7614 207.324C104.994 227.469 129.988 239.18 154.218 244.922L162.773 229.827Z" fill="url(#paint1_linear_2167_2687)"/>
<path d="M263.926 205.883C263.801 205.994 263.675 206.106 263.424 206.329C262.894 206.844 262.322 207.262 261.722 207.75C259.505 209.45 257.148 211.094 254.777 212.571C251.025 214.87 247.05 216.917 243.02 218.7C237.595 221.137 232.03 223.114 226.369 224.729C219.257 226.733 211.964 228.18 204.629 229.124C195.691 230.235 186.726 230.607 177.775 230.338C166.899 230.025 156.122 228.863 145.415 226.919C132.658 224.64 120.125 221.399 107.829 217.364C93.0801 212.588 78.6799 206.738 64.6287 200.22C47.8732 192.376 31.6062 183.514 15.7857 173.941C11.4926 171.332 7.22735 168.652 2.96213 165.973C2.78096 165.82 2.19484 166.879 2.44574 167.061C18.8095 177.498 35.6896 187.253 53.0861 195.92C67.5692 203.177 82.4988 209.724 97.7776 215.197C110.519 219.735 123.54 223.576 136.812 226.385C147.854 228.705 159.077 230.37 170.357 231.087C179.67 231.663 189.068 231.626 198.438 230.85C206.232 230.17 213.943 228.892 221.474 227.055C227.581 225.538 233.522 223.631 239.295 221.333C243.73 219.551 248.068 217.406 252.252 215.038C255.083 213.422 257.803 211.68 260.341 209.785C261.485 208.949 262.824 208.029 263.814 206.97C263.842 206.901 263.912 206.929 263.94 206.859C263.982 206.552 264.331 205.479 263.926 205.883Z" fill="#001AAF"/>
<path d="M162.438 229.856C160.483 235.139 158.501 240.492 156.546 245.775C156.518 245.845 156.448 246.222 156.588 246.277C171.407 249.464 186.674 250.726 201.831 249.841C202.096 249.786 202.291 249.298 202.347 249.159C203.284 243.387 204.221 237.615 205.158 231.843C204.935 231.996 204.712 232.149 204.488 232.303C204.625 238.019 204.762 243.736 204.926 249.383C204.968 249.481 204.982 249.648 205.079 249.606C207.589 249.398 210.127 249.121 212.665 248.843C212.93 248.787 213.097 248.369 213.181 248.16C214.173 244.27 215.095 240.353 216.115 236.394C215.892 236.547 215.669 236.7 215.445 236.853C215.22 240.646 215.037 244.536 214.812 248.328C214.784 248.398 214.868 248.593 214.965 248.551C229.425 246.579 243.802 242.793 257.079 236.707C257.372 236.582 257.47 236.135 257.484 235.898C257.653 231.437 257.851 226.905 258.09 222.472C257.839 222.695 257.658 222.946 257.407 223.168C258.562 226.948 259.787 230.755 260.914 234.603C260.956 234.701 260.998 234.799 261.124 234.687C269.687 230.272 278.46 224.727 284.18 216.908C288.268 211.346 290.196 204.515 287.09 197.933C283.608 190.471 274.28 190.132 267.169 190.519C264.589 190.699 261.982 190.949 259.444 191.226C258.078 191.407 256.642 191.559 255.247 191.81C254.55 191.935 253.797 191.795 253.378 192.436C252.611 193.746 252.178 195.433 251.522 196.869C249.581 201.511 247.711 206.181 245.77 210.823C245.938 210.809 246.105 210.795 246.37 210.74C247.628 204.773 248.858 198.876 250.116 192.909C250.143 192.839 250.116 192.504 249.948 192.518C236.339 194.589 222.646 196.869 208.815 196.667C204.632 196.609 200.533 196.342 196.378 195.81C196.141 195.796 195.945 196.284 195.918 196.353C194.814 200.522 193.683 204.76 192.579 208.928C192.774 208.845 192.997 208.691 193.193 208.608C193.404 204.244 193.587 199.95 193.729 195.558C193.757 195.488 193.743 195.321 193.645 195.362C190.467 194.817 187.372 194.062 184.193 193.517C183.886 193.475 183.719 193.893 183.635 194.102C182.462 197.434 181.289 200.766 180.186 204.126C180.381 204.042 180.604 203.889 180.8 203.805C180.746 200.306 180.692 196.806 180.666 193.237C180.652 193.069 180.68 192.999 180.512 193.013C168.55 191.376 156.406 191.607 144.372 192.772C144.107 192.828 143.94 193.246 143.856 193.455C142.458 200.579 141.06 207.703 139.663 214.828C139.481 215.887 139.257 216.849 139.075 217.909C139.299 217.755 139.522 217.602 139.745 217.449C139.372 210.505 138.901 203.603 138.528 196.659C138.445 195.655 138.432 194.679 138.348 193.675C138.307 193.578 138.293 193.411 138.195 193.452C120.222 195.716 102.303 199.862 85.0944 205.668C83.9508 206.099 82.7655 206.433 81.622 206.865C81.3291 206.99 81.0499 207.687 81.2728 207.939C97.8578 222.266 116.898 233.695 137.642 240.872C142.911 242.659 148.334 244.265 153.73 245.537C153.869 245.593 154.05 245.342 154.176 245.23C157.023 240.143 159.87 235.055 162.745 229.897C163.01 229.438 162.815 228.712 162.438 229.451C159.591 234.539 156.744 239.627 153.869 244.784C153.995 244.673 154.12 244.561 154.316 244.478C133.934 239.629 114.613 230.919 97.3854 219.003C92.0192 215.236 86.7647 211.19 81.859 206.879C81.7194 207.228 81.6495 207.604 81.5099 207.953C93.4752 203.525 106.053 200.394 118.575 197.807C125.004 196.499 131.418 195.429 137.985 194.582C137.944 194.484 137.874 194.456 137.832 194.358C138.205 201.302 138.676 208.204 139.049 215.148C139.132 216.152 139.145 217.128 139.229 218.132C139.284 218.801 139.814 217.881 139.898 217.672C141.296 210.548 142.694 203.424 144.092 196.3C144.273 195.24 144.497 194.278 144.679 193.219C144.497 193.469 144.316 193.72 144.163 193.901C156.196 192.736 168.312 192.575 180.303 194.143C180.261 194.045 180.191 194.017 180.149 193.919C180.203 197.419 180.257 200.919 180.283 204.488C180.297 205.06 180.841 204.307 180.897 204.168C182.07 200.836 183.243 197.504 184.346 194.145C184.193 194.326 183.969 194.479 183.788 194.73C185.74 195.107 187.622 195.457 189.546 195.904C190.438 196.1 191.4 196.323 192.32 196.449C192.725 196.449 193.087 196.352 193.171 196.547C193.324 196.77 193.1 197.732 193.086 197.969C193.058 198.848 192.988 199.629 192.96 200.507C192.833 203.449 192.678 206.46 192.551 209.402C192.564 209.974 193.081 209.291 193.164 209.082C194.268 204.914 195.4 200.675 196.503 196.507C196.35 196.688 196.196 196.869 196.043 197.051C210.208 198.842 224.514 197.455 238.597 195.413C242.293 194.871 245.918 194.301 249.543 193.731C249.502 193.633 249.488 193.466 249.376 193.341C248.119 199.307 246.889 205.205 245.631 211.172C245.477 211.757 246.091 211.437 246.23 211.088C248.757 204.983 251.242 198.779 253.769 192.673C253.643 192.785 253.49 192.966 253.364 193.078C257.757 192.411 262.121 191.813 266.513 191.55C270.069 191.357 273.805 191.317 277.277 192.141C280.023 192.756 282.686 193.985 284.581 196.119C286.741 198.602 287.59 201.935 287.755 205.155C288.115 211.123 284.013 216.517 279.995 220.489C277.164 223.318 273.997 225.77 270.65 228.069C268.767 229.337 266.842 230.507 264.848 231.65C263.913 232.165 262.84 232.625 261.947 233.238C261.849 233.279 261.208 233.669 261.319 233.795C261.25 233.767 261.305 233.628 261.236 233.6C260.79 233.098 260.651 231.829 260.498 231.201C260.094 229.988 259.718 228.705 259.315 227.492C258.772 225.818 258.298 224.173 257.755 222.499C257.574 221.942 257.058 223.029 257.072 223.196C256.902 227.658 256.705 232.189 256.466 236.623C256.577 236.344 256.759 236.093 256.87 235.814C243.594 241.901 229.384 245.672 214.924 247.645C214.966 247.743 215.036 247.771 215.077 247.868C215.302 244.076 215.486 240.186 215.711 236.393C215.725 235.752 215.125 236.644 215.041 236.853C214.049 240.743 213.127 244.66 212.107 248.62C212.289 248.369 212.47 248.118 212.623 247.937C210.086 248.214 207.548 248.492 205.038 248.7C205.08 248.797 205.15 248.825 205.191 248.923C205.055 243.206 204.918 237.49 204.754 231.843C204.768 231.201 204.098 232.065 204.084 232.302C203.147 238.074 202.21 243.846 201.273 249.618C201.454 249.367 201.636 249.116 201.789 248.935C186.661 249.75 171.505 248.613 156.713 245.357C156.727 245.525 156.741 245.692 156.755 245.859C158.71 240.576 160.692 235.223 162.647 229.939C163.344 229.005 162.633 229.368 162.438 229.856Z" fill="#001AAF"/>
<path d="M51.106 257.002L37.5632 265.571L52.2058 260.517C54.9619 269.79 56.2673 280.262 55.0763 291.917L41.4542 291.799L54.7124 294.845C54.1107 298.972 53.3139 303.183 52.029 307.602C49.1935 317.709 45.1591 327.579 40.4835 337.03L25.7328 335.084L39.5902 338.856C37.0362 343.818 34.3707 348.655 31.4822 353.241L20.873 350.447L30.1426 355.373C22.5516 367.458 14.1387 378.162 6.15901 386.775L0.945714 384.039L5.16851 387.834C-11.4045 405.38 -25.937 413.39 -27.4523 404.452C-28.1614 400.366 -27.6704 394.496 -26.3702 387.414L-17.2223 384.769L-25.5316 383.301C-23.6026 373.64 -20.5295 362.333 -17.3168 350.679L9.81908 344.725L-16.3949 347.166C-13.7689 337.783 -11.1848 328.303 -8.97742 319.562L20.8357 313.386L-7.13303 311.727C-6.0152 306.917 -5.17637 302.4 -4.63061 298.413C-4.029 294.286 -3.12027 289.393 -2.08579 283.983L9.84932 284.073L-1.47073 280.833C4.72065 251.444 15.9789 210.82 15.9789 210.82C15.9789 210.82 40.7892 227.229 51.106 257.002Z" fill="url(#paint2_linear_2167_2687)"/>
<path d="M-152.682 53.9619C-148.166 57.6311 -143.72 61.2724 -139.232 65.0114C-128.278 74.01 -117.393 82.9808 -106.536 92.0212C-93.0026 103.266 -79.5393 114.483 -66.1318 125.839C-53.7418 136.303 -41.3796 146.836 -29.2686 157.592C-21.7427 164.246 -13.9519 170.845 -7.23508 178.308C-2.19052 183.888 2.42157 189.941 6.42002 196.315C12.2297 205.437 16.9097 215.157 20.4182 225.379C24.8596 238.32 27.1952 251.874 27.6206 265.552C28.1836 282.925 25.5398 300.227 20.7909 316.929C14.5195 338.844 4.58184 359.614 -7.25148 379.058C-10.6564 384.731 -14.3122 390.223 -18.0098 395.617C-18.3725 396.119 -17.9407 396.858 -17.522 396.217C-3.69452 376.034 8.40472 354.513 16.8098 331.511C23.1346 314.309 27.2707 296.31 28.2837 278.032C29.0717 263.545 27.7962 248.96 24.1362 234.876C21.2835 223.623 16.9806 212.759 11.3248 202.648C7.13171 195.144 2.29704 188.031 -3.23503 181.447C-8.54413 175.114 -14.5368 169.478 -20.655 163.954C-31.874 153.798 -43.3023 143.962 -54.8283 134.169C-68.4587 122.561 -82.1867 110.996 -95.9706 99.5697C-107.915 89.6084 -119.887 79.7169 -131.859 69.8254C-138.368 64.468 -144.807 59.1386 -151.343 53.851C-151.636 53.572 -151.956 53.3627 -152.179 53.1116C-152.416 52.6932 -152.974 53.6829 -152.682 53.9619Z" fill="#001AAF"/>
<path d="M51.0352 256.571C46.4884 259.441 42.0392 262.27 37.4923 265.14C37.2692 265.293 36.9201 266.366 37.5058 266.116C41.2711 264.793 45.0363 263.47 48.8992 262.106C49.7499 261.799 50.6005 261.493 51.4512 261.187C51.5488 261.145 51.9393 260.978 52.009 261.006L52.1066 260.964C51.8278 260.852 52.3011 262.498 52.315 262.665C53.5119 266.946 54.2766 271.297 54.7484 275.773C55.2617 281.155 55.245 286.648 54.7125 292.016C54.8938 291.765 55.0752 291.514 55.2287 291.333C50.7112 291.303 46.124 291.245 41.6065 291.215C41.2021 291.215 40.8112 292.19 41.1877 292.26C45.621 293.308 50.0543 294.356 54.4459 295.307C54.4041 295.209 54.3902 295.042 54.2788 294.916C52.2219 309.541 46.6516 323.649 40.1615 336.821C40.2871 336.71 40.4406 336.529 40.6358 336.445C35.7282 335.774 30.7927 335.172 25.8851 334.5C25.5087 334.43 25.0899 335.475 25.4663 335.545C30.0529 336.816 34.7371 338.046 39.3237 339.317C39.3378 339.08 39.2543 338.885 39.2683 338.648C36.7701 343.471 34.1325 348.238 31.2858 352.921C31.481 352.838 31.6066 352.726 31.7739 352.712C28.2607 351.79 24.7476 350.868 21.1647 349.918C20.7186 349.821 20.258 350.768 20.6483 351.006C23.7149 352.638 26.8513 354.299 29.9179 355.932C29.932 355.695 29.9043 355.36 29.9183 355.123C22.8855 366.218 15.0025 376.811 6.06027 386.413C6.15789 386.372 6.32523 386.358 6.45077 386.246C4.72231 385.311 2.9659 384.446 1.23744 383.511C0.847155 383.274 0.386598 384.222 0.679264 384.501C2.1008 385.798 3.45261 387.067 4.90206 388.295C4.94405 387.988 5.05571 387.71 5.0977 387.403C1.41479 391.347 -2.49107 395.04 -6.61991 398.482C-9.7444 401.032 -13.0083 403.526 -16.5925 405.406C-20.0792 407.245 -26.2292 409.473 -27.1327 403.853C-28.0223 398.401 -26.9876 392.588 -26.0507 387.22C-26.2321 387.471 -26.3159 387.68 -26.4973 387.931C-23.4712 387.04 -20.4452 386.149 -17.3494 385.286C-16.9868 385.189 -16.6238 384.283 -17.1676 384.227C-19.9699 383.751 -22.7443 383.206 -25.4769 382.759C-25.3933 382.954 -25.3794 383.121 -25.2959 383.316C-23.0735 372.317 -20.0285 361.484 -17.0812 350.694C-17.2346 350.875 -17.3881 351.056 -17.4719 351.265C-9.56533 349.499 -1.5891 347.76 6.28952 346.063C7.44691 345.798 8.50668 345.576 9.66408 345.311C10.0266 345.214 10.3478 344.21 9.84587 344.252C2.19083 344.987 -5.4363 345.652 -13.0913 346.388C-14.1929 346.513 -15.2665 346.568 -16.3681 346.693C-16.2845 346.888 -16.2707 347.055 -16.1871 347.251C-13.6449 338.077 -11.0748 328.834 -8.76965 319.647C-8.92312 319.828 -9.07655 320.01 -9.16031 320.219C-0.445088 318.452 8.22834 316.588 16.9436 314.822C18.1707 314.585 19.4257 314.279 20.6528 314.043C21.0154 313.945 21.3783 313.039 20.8346 312.983C12.6782 312.547 4.54969 312.041 -3.67642 311.577C-4.86153 311.507 -5.97697 311.464 -7.16208 311.394C-7.07852 311.589 -7.06467 311.756 -6.98111 311.952C-4.91296 302.75 -3.76501 293.423 -1.83626 284.166C-1.98973 284.347 -2.14316 284.528 -2.36633 284.682C1.57951 284.725 5.62295 284.727 9.56878 284.771C9.90343 284.743 10.364 283.796 9.98759 283.726C6.22354 282.622 2.45951 281.519 -1.33245 280.485C-1.3186 280.653 -1.23505 280.848 -1.22119 281.015C1.30855 268.844 4.31235 256.701 7.35792 244.656C9.74685 235.26 12.2334 225.822 14.7617 216.481C15.2506 214.655 15.7116 212.898 16.2702 211.1C16.0471 211.253 15.8936 211.434 15.6425 211.657C18.8204 213.82 21.8308 216.401 24.646 219.066C31.2519 225.19 37.1602 232.248 41.9388 239.905C45.4357 245.512 48.291 251.509 50.4909 257.728C50.6719 258.286 51.3695 257.352 51.2024 256.962C45.1597 239.739 33.6366 224.285 19.3228 212.97C18.2775 212.147 17.2322 211.324 16.159 210.57C15.9081 210.389 15.615 210.918 15.5313 211.128C14.1344 216.23 12.7097 221.402 11.3825 226.532C8.37914 237.867 5.47335 249.159 2.77669 260.535C1.15588 267.408 -0.436995 274.211 -1.89048 281.071C-1.94632 281.21 -1.98828 281.517 -1.77918 281.6C1.98487 282.704 5.74889 283.807 9.54086 284.841C9.68046 284.492 9.82007 284.144 9.95967 283.795C6.01384 283.752 1.97039 283.75 -1.97544 283.706C-2.21246 283.692 -2.44971 284.082 -2.50555 284.221C-4.33666 293.437 -5.58224 302.806 -7.65038 312.007C-7.73414 312.216 -7.70643 312.551 -7.46941 312.565C0.687007 313.001 8.81549 313.507 17.0416 313.971C18.2267 314.042 19.3421 314.084 20.5272 314.154C20.5971 313.778 20.667 313.402 20.709 313.095C11.9938 314.861 3.32036 316.725 -5.39487 318.492C-6.62196 318.728 -7.87698 319.034 -9.10408 319.271C-9.29933 319.354 -9.48072 319.605 -9.49478 319.842C-11.8279 329.099 -14.3701 338.272 -16.9122 347.445C-16.9681 347.585 -16.9683 347.989 -16.7313 348.003C-9.07621 347.268 -1.4491 346.603 6.20595 345.867C7.30751 345.742 8.38116 345.687 9.48271 345.562C9.55261 345.186 9.62252 344.809 9.66451 344.503C1.75797 346.27 -6.21826 348.008 -14.0969 349.706C-15.2543 349.97 -16.3141 350.192 -17.4715 350.457C-17.6667 350.54 -17.8481 350.791 -17.8621 351.028C-20.8095 361.819 -23.8544 372.651 -26.0768 383.651C-26.0909 383.888 -26.105 384.125 -25.8959 384.208C-23.0936 384.684 -20.3192 385.229 -17.5866 385.677C-17.5167 385.3 -17.4468 384.924 -17.4048 384.617C-20.4309 385.508 -23.457 386.399 -26.5527 387.262C-26.8177 387.317 -26.9572 387.666 -26.9992 387.972C-27.922 393.103 -28.7613 398.429 -28.2619 403.644C-28.0259 405.679 -27.5948 408.036 -25.3783 408.762C-23.1617 409.488 -20.6097 408.569 -18.5317 407.622C-14.8918 406.007 -11.6141 403.68 -8.5175 401.2C-3.64948 397.326 0.814428 393.048 5.12504 388.546C5.2785 388.365 5.54364 387.905 5.32068 387.654C3.89915 386.357 2.54729 385.087 1.09783 383.859C0.888529 384.18 0.748965 384.528 0.53966 384.849C2.26812 385.784 4.02449 386.649 5.75295 387.584C5.89235 387.64 6.01786 387.529 6.1434 387.417C15.1135 377.745 23.0942 367.111 30.1829 355.876C30.3363 355.695 30.4621 355.179 30.1832 355.068C27.1166 353.435 23.9803 351.774 20.9137 350.141C20.7741 350.49 20.5647 350.81 20.3972 351.229C23.9104 352.151 27.4235 353.073 31.0064 354.022C31.2155 354.106 31.369 353.925 31.4945 353.814C34.3691 349.06 37.1044 344.252 39.6584 339.289C39.7142 339.15 39.812 338.704 39.6029 338.62C35.0163 337.349 30.3321 336.119 25.7455 334.848C25.6059 335.197 25.4663 335.545 25.3267 335.894C30.2343 336.566 35.1698 337.168 40.0774 337.839C40.3144 337.853 40.4261 337.575 40.5517 337.463C47.1952 324.109 52.7516 309.834 54.8225 294.972C54.8504 294.902 54.7948 294.637 54.6554 294.582C50.222 293.534 45.7887 292.486 41.3972 291.535C41.2576 291.884 41.118 292.232 40.9784 292.581C45.4959 292.611 50.083 292.669 54.6005 292.699C54.9073 292.741 55.1027 292.253 55.1168 292.016C56.1539 281.351 55.2669 270.642 52.1627 260.42C52.1488 260.253 51.9815 260.267 51.8142 260.281C46.9333 261.965 42.0245 263.72 37.2133 265.432C37.2411 265.767 37.1991 266.074 37.2268 266.408C41.7736 263.538 46.2228 260.71 50.7697 257.84C51.495 257.241 51.6768 256.181 51.0352 256.571Z" fill="#001AAF"/>
<path d="M106.064 318.896L120.025 309.282C127.171 323.549 131.849 338.122 134.533 352.22L118.397 359.183L135.103 355.441C135.548 357.965 135.923 360.461 136.2 362.999L125.517 368.668L136.45 365.202C138.283 381.223 137.606 396.239 135.215 408.87L122.358 412.698L134.307 413.359C129.975 432.25 121.742 445.129 112.553 446.867C96.9914 449.774 94.1399 436.094 92.1281 416.28L108.099 404.479L91.7116 412.474C90.1859 396.494 88.7594 377.238 81.8524 359.751L93.2888 353.412L80.794 357.143C80.1673 355.678 79.5127 354.284 78.7884 352.861C78.064 351.439 77.3676 349.946 76.6992 348.384L85.5558 342.63L75.2786 345.065C70.7945 334.048 67.9701 321.916 66.1495 310.106L88.6866 299.479L65.302 303.943C61.5109 273.224 64.4665 245.856 64.4665 245.856C89.7084 263.409 107.182 284.806 118.646 306.869L106.064 318.896Z" fill="url(#paint3_linear_2167_2687)"/>
<path d="M108.215 422.966C108.745 422.046 109.206 421.098 109.597 420.122C110.727 417.501 111.719 414.825 112.57 412.092C113.869 407.841 114.959 403.505 115.644 399.169C116.707 393.285 117.226 387.346 117.41 381.434C117.637 374.003 117.264 366.655 116.347 359.251C115.236 350.313 113.428 341.5 110.993 332.84C108.07 322.367 104.227 312.173 99.7697 302.299C94.4494 290.543 88.2504 279.162 81.382 268.242C73.0786 255.047 63.9104 242.397 54.0866 230.373C42.312 215.95 29.6865 202.238 16.4054 189.153C12.8099 185.609 9.18649 182.136 5.56304 178.662C5.20069 178.355 4.64249 179.345 4.93515 179.624C18.9691 192.849 32.4868 206.757 45.084 221.347C55.6327 233.58 65.5537 246.371 74.61 259.705C82.1754 270.905 89.1411 282.593 95.1026 294.768C100.117 304.865 104.49 315.352 107.942 326.118C110.838 335.043 113.106 344.121 114.649 353.394C115.928 361.105 116.608 368.899 116.645 376.679C116.726 382.94 116.332 389.172 115.465 395.376C114.779 400.117 113.885 404.773 112.586 409.429C111.734 412.566 110.7 415.549 109.528 418.477C108.969 419.871 108.369 421.167 107.699 422.436C107.643 422.575 107.755 422.296 107.671 422.505C107.601 422.882 107.866 423.635 108.215 422.966Z" fill="#001AAF"/>
<path d="M106.106 319.398C110.792 316.179 115.479 312.961 120.067 309.784C119.97 309.826 119.83 309.77 119.733 309.812C126.447 323.34 131.319 337.829 134.198 352.652C134.31 352.373 134.449 352.024 134.631 351.773C129.262 354.071 123.892 356.369 118.495 358.737C118.203 358.862 117.881 359.866 118.244 359.768C121.549 358.989 124.923 358.238 128.2 357.529C130.083 357.069 131.937 356.68 133.82 356.221C133.987 356.207 134.671 355.914 134.88 355.998C134.81 355.97 134.907 357.142 134.949 357.239C135.032 357.839 135.157 358.536 135.241 359.136C135.421 360.502 135.672 361.896 135.852 363.263C135.964 362.984 136.145 362.733 136.257 362.454C132.673 364.335 129.158 366.243 125.574 368.124C125.281 368.249 124.862 369.295 125.392 369.183C129.004 368.042 132.685 366.928 136.325 365.717C136.255 365.689 136.144 365.564 136.074 365.536C137.712 380.023 137.551 394.761 134.895 409.065C135.076 408.814 135.16 408.605 135.342 408.354C131.033 409.621 126.793 410.915 122.484 412.182C122.219 412.238 121.829 413.213 122.233 413.214C126.193 413.425 130.152 413.636 134.182 413.875C134.14 413.777 134.056 413.582 134.014 413.484C132.533 420.009 130.411 426.519 127.298 432.471C124.996 436.807 122.121 441.155 118.007 443.956C114.339 446.45 109.36 447.367 105.081 446.138C100.731 444.881 98.0558 441.06 96.4684 436.946C93.8923 430.252 93.2825 422.89 92.533 415.876C92.4214 416.155 92.3376 416.364 92.1562 416.615C97.4565 412.671 102.826 408.756 108.127 404.813C108.35 404.66 108.699 403.586 108.183 403.865C102.744 406.539 97.2351 409.186 91.796 411.86C91.8657 411.888 91.9772 412.013 92.0469 412.041C90.7431 398.335 89.5649 384.517 86.03 371.13C84.9863 367.072 83.6777 363.07 82.1459 359.221C82.0342 359.499 81.8946 359.848 81.7132 360.099C85.5486 357.995 89.3142 355.864 93.1496 353.76C93.4425 353.635 93.8613 352.59 93.3314 352.701C90.4727 353.578 87.6418 354.385 84.7831 355.262C84.03 355.527 83.2352 355.694 82.4822 355.958C82.1196 356.056 81.4083 356.418 81.004 356.417C80.8646 356.362 79.8898 353.949 79.6809 353.461C78.8173 351.578 77.8562 349.737 77.0206 347.785C76.9089 348.064 76.7972 348.342 76.6855 348.621C79.6284 346.726 82.5993 344.762 85.5422 342.867C85.6677 342.756 86.1283 341.808 85.6961 341.877C84.3434 342.225 83.0187 342.503 81.6661 342.851C79.7835 343.311 77.8452 343.909 75.9488 344.201C75.8511 344.243 75.5583 344.368 75.4886 344.34C75.4189 344.312 75.2937 343.615 75.2102 343.42C75.0292 342.862 74.7506 342.346 74.5696 341.788C73.8037 339.864 73.1354 337.897 72.5648 335.889C71.2841 331.817 70.1707 327.731 69.1828 323.534C68.1255 318.905 67.2633 314.191 66.5685 309.464C66.4569 309.743 66.3172 310.092 66.1358 310.343C72.7185 307.237 79.3011 304.131 85.8558 301.094C86.832 300.677 87.7385 300.231 88.7427 299.743C88.9379 299.66 89.4264 298.642 88.9941 298.712C82.1614 300.019 75.3288 301.326 68.5658 302.661C67.6036 302.842 66.5718 302.995 65.5817 303.245C65.6235 303.343 65.6932 303.371 65.8046 303.496C63.6106 285.551 63.2432 267.285 64.6465 249.244C64.7448 247.989 64.8151 246.804 64.983 245.577C64.8016 245.828 64.5505 246.051 64.3692 246.302C82.3911 258.859 98.0831 274.609 110.148 292.95C113.228 297.58 115.986 302.406 118.549 307.315C118.661 307.036 118.73 306.66 118.842 306.381C114.56 310.409 110.347 314.464 106.092 318.422C105.813 318.714 105.632 319.774 106.106 319.398C110.388 315.37 114.601 311.315 118.856 307.357C119.107 307.134 119.344 306.744 119.149 306.423C109.454 287.818 96.2164 271.192 80.3841 257.408C75.4783 253.098 70.2935 249.079 64.8994 245.382C64.6486 245.2 64.3414 245.967 64.2856 246.107C62.9128 258.822 62.9064 271.761 63.4857 284.449C63.7612 291.03 64.3435 297.654 65.0932 304.263C65.1349 304.361 65.1488 304.528 65.3161 304.514C72.1488 303.207 78.9815 301.9 85.7445 300.564C86.7067 300.384 87.7385 300.231 88.7286 299.98C88.7985 299.604 88.9381 299.255 88.9801 298.949C82.3975 302.055 75.8149 305.161 69.2602 308.197C68.284 308.615 67.3774 309.06 66.3733 309.548C66.0804 309.673 65.885 310.161 65.9406 310.426C67.8031 322.334 70.5021 334.173 75.0698 345.386C75.1115 345.483 75.1533 345.581 75.2509 345.539C78.6534 344.718 82.0559 343.897 85.5281 343.104C85.5701 342.797 85.64 342.421 85.682 342.114C82.7391 344.009 79.7683 345.974 76.8254 347.868C76.6022 348.022 76.4068 348.51 76.4903 348.705C77.8134 351.661 79.262 354.506 80.5851 357.463C80.6269 357.561 80.6967 357.589 80.864 357.575C85.0057 356.322 89.217 355.097 93.3587 353.844C93.4286 353.468 93.4706 353.161 93.5405 352.785C89.7051 354.888 85.9395 357.019 82.1041 359.123C81.8809 359.276 81.5461 359.708 81.6715 360.001C86.9492 373.277 89.1033 387.486 90.5463 401.653C90.9488 405.292 91.2537 408.974 91.5866 412.585C91.6004 412.752 91.7119 412.878 91.9071 412.794C97.3462 410.12 102.855 407.473 108.294 404.799C108.336 404.492 108.308 404.158 108.35 403.851C104.821 406.401 101.334 409.048 97.8056 411.598C96.09 412.852 94.3744 414.106 92.6588 415.36C91.9335 415.959 91.9332 416.364 92.0164 417.368C92.3078 420.073 92.5993 422.778 92.9884 425.441C93.6693 430.001 94.5314 434.714 96.4395 439.037C97.8043 442.091 99.8943 444.951 103.017 446.444C106.279 447.993 110.35 447.926 113.739 446.937C116.765 446.047 119.331 444.082 121.507 441.88C128.859 434.229 132.49 423.146 134.823 413.081C134.879 412.941 134.824 412.676 134.656 412.69C130.697 412.479 126.667 412.24 122.708 412.029C122.638 412.405 122.498 412.754 122.456 413.06C126.765 411.794 131.004 410.499 135.313 409.233C135.578 409.177 135.676 408.731 135.76 408.522C138.444 394.148 138.591 379.243 136.953 364.755C136.939 364.588 136.897 364.49 136.632 364.546C133.02 365.688 129.339 366.801 125.699 368.012C125.629 368.389 125.587 368.696 125.517 369.072C129.102 367.191 132.616 365.283 136.201 363.403C136.424 363.249 136.661 362.859 136.605 362.594C136.258 360.028 135.911 357.463 135.466 354.939C135.494 354.869 135.382 354.744 135.285 354.785C129.693 356.023 124.171 357.29 118.579 358.528C118.509 358.904 118.37 359.253 118.328 359.559C123.697 357.261 129.066 354.964 134.463 352.596C134.756 352.471 134.951 351.983 134.896 351.718C131.975 336.797 127.102 322.308 120.347 308.683C120.305 308.585 120.11 308.669 120.012 308.71C115.326 311.929 110.639 315.147 106.051 318.324C105.744 318.686 105.562 319.746 106.106 319.398Z" fill="#001AAF"/>
<path d="M84.4421 200.635L90.3892 185.788L88.0531 201.111C97.6732 202.133 108.2 201.497 119.412 198.142L116.756 184.784L122.271 197.265C126.204 195.929 130.248 194.314 134.292 192.294C143.678 187.642 152.702 181.874 161.071 175.52L156.463 161.379L162.689 174.308C167.125 170.908 171.309 167.327 175.355 163.689L170.661 153.802L177.238 162.017C187.686 152.29 196.712 142.075 203.646 132.639L200.024 127.952L204.553 131.384C218.771 111.843 223.938 96.1184 214.847 96.1975C210.706 96.2373 205.044 97.8518 198.28 100.4L197.314 109.881L194.334 101.974C185.241 105.692 174.642 110.748 163.764 116.096L162.969 143.926L160.528 117.712C151.784 121.974 142.984 126.376 134.769 130.122L134.224 160.56L127.49 133.354C122.999 135.276 118.76 136.974 114.827 138.311C110.894 139.648 106.223 141.416 101.105 143.491L103.427 155.26L98.1061 144.716C70.3539 156.247 32.5732 174.842 32.5732 174.842C32.5732 174.842 53.2959 196.004 84.4421 200.635Z" fill="url(#paint4_linear_2167_2687)"/>
<path d="M-145.538 45.4195C-141.078 49.2281 -136.521 52.995 -132.033 56.734C-121.204 65.8441 -110.347 74.8845 -99.4616 83.8553C-86.1098 94.9466 -72.7021 105.899 -59.2665 116.781C-47.3083 126.505 -35.2246 136.118 -22.9594 145.479C-16.0185 150.767 -9.03574 156.153 -1.39716 160.507C5.50261 164.484 12.7931 167.89 20.293 170.57C30.5393 174.27 41.1904 176.758 52.0374 177.948C65.5335 179.391 79.1979 178.798 92.5007 176.281C109.29 173.139 125.439 167.151 140.557 159.295C160.193 149.043 178.131 135.764 194.493 120.965C199.194 116.701 203.881 112.269 208.359 107.754C208.736 107.419 208.652 106.416 208.094 107.001C191.299 123.891 172.9 139.331 152.426 151.674C136.958 161.008 120.363 168.515 102.876 172.996C89.0846 176.531 74.8341 178.183 60.6265 177.506C49.1936 176.971 37.7753 174.985 26.776 171.55C18.5788 168.994 10.5214 165.686 2.93852 161.597C-3.72444 158.038 -9.89907 153.866 -15.9341 149.345C-27.4886 140.834 -38.6803 131.821 -49.8302 122.906C-63.2937 112.094 -76.6317 101.17 -89.872 90.2041C-101.593 80.494 -113.314 70.7839 -125.008 61.004C-131.377 55.7025 -137.677 50.4289 -143.948 45.0857C-144.241 44.8067 -144.561 44.5974 -144.784 44.3463C-145.342 44.1229 -145.9 45.1126 -145.538 45.4195Z" fill="#001AAF"/>
<path d="M84.7633 200.844C86.7457 195.895 88.728 190.947 90.7104 185.998C90.4734 185.984 90.1946 185.872 89.9576 185.858C89.2021 190.975 88.3769 196.064 87.6214 201.18C87.6073 201.417 87.5654 201.724 87.8721 201.766C98.4403 202.845 109.135 201.791 119.399 198.784C119.691 198.659 119.929 198.268 119.873 198.003C118.997 193.527 118.121 189.051 117.217 184.645C116.966 184.868 116.645 185.063 116.394 185.286C118.218 189.414 120.015 193.611 121.909 197.767C121.951 197.865 122.132 198.019 122.257 197.907C136.384 193.132 149.327 185.051 161.253 176.078C161.504 175.855 161.713 175.534 161.588 175.242C160.084 170.514 158.483 165.828 156.98 161.101C156.729 161.324 156.45 161.617 156.199 161.84C158.274 166.149 160.349 170.458 162.425 174.768C162.55 175.061 162.843 174.935 162.968 174.824C167.306 171.466 171.561 167.913 175.634 164.206C175.857 164.052 175.927 163.676 175.871 163.411C174.283 160.106 172.765 156.828 171.177 153.523C170.898 153.816 170.717 154.067 170.438 154.359C172.654 157.107 174.799 159.827 177.015 162.575C177.196 162.729 177.391 162.645 177.517 162.534C187.184 153.545 196.14 143.706 204.023 133.113C204.177 132.932 204.247 132.556 204.093 132.332C202.853 130.784 201.683 129.264 200.471 127.646C200.261 127.966 200.052 128.287 199.773 128.58C201.25 129.738 202.825 130.854 204.303 132.012C204.554 132.193 204.777 132.04 204.93 131.859C208.195 127.343 211.307 122.604 214 117.697C216.052 113.99 217.922 110.128 219.039 106.127C220.129 102.196 220.815 95.8382 215.057 95.8771C209.396 95.8743 203.65 98.1023 198.421 100.052C198.128 100.177 198.016 100.456 197.974 100.763C197.666 103.955 197.316 107.051 197.007 110.243C197.3 110.118 197.551 109.895 197.844 109.77C196.883 107.12 195.853 104.442 194.864 101.863C194.823 101.765 194.641 101.611 194.516 101.723C184.084 105.956 173.917 110.943 163.848 115.888C163.653 115.971 163.513 116.32 163.527 116.487C163.258 124.629 163.017 132.702 162.748 140.845C162.706 141.96 162.705 143.173 162.663 144.289C162.956 144.163 163.249 144.038 163.541 143.913C162.806 136.258 162.141 128.631 161.406 120.976C161.281 119.874 161.225 118.8 161.101 117.699C161.045 117.434 160.836 117.35 160.613 117.503C152.064 121.682 143.487 125.93 134.854 129.914C134.659 129.997 134.519 130.346 134.533 130.513C134.361 139.422 134.217 148.262 134.046 157.172C134.017 158.454 134.016 159.667 133.988 160.95C134.281 160.825 134.574 160.699 134.866 160.574C132.863 152.654 130.956 144.691 128.953 136.771C128.688 135.613 128.396 134.526 128.132 133.368C128.118 133.201 127.964 132.978 127.769 133.061C119.081 136.78 110.156 139.675 101.384 143.198C101.091 143.324 100.882 143.644 100.91 143.979C101.675 147.925 102.467 151.802 103.232 155.748C103.483 155.525 103.804 155.33 104.055 155.107C102.314 151.579 100.545 148.12 98.7343 144.564C98.6925 144.466 98.5113 144.312 98.3858 144.424C86.6296 148.936 75.3333 154.117 64.0369 159.298C55.1811 163.434 46.3252 167.571 37.4832 171.875C35.7957 172.655 34.15 173.533 32.4626 174.313C32.1697 174.438 31.9463 174.996 32.239 175.275C34.9286 178.051 38.0645 180.52 41.1866 182.822C48.6155 188.305 56.7419 192.855 65.371 196.15C71.4629 198.509 77.8061 200.241 84.289 201.22C84.8328 201.276 85.1819 200.203 84.5684 200.119C66.5834 197.363 49.4099 188.947 35.7518 177.005C34.8041 176.14 33.7867 175.247 32.9366 174.341C32.8946 174.647 32.755 174.996 32.7131 175.303C37.4409 172.99 42.2384 170.706 46.9662 168.394C57.4677 163.38 68.1087 158.421 78.7635 153.63C85.1926 150.706 91.6636 147.878 98.1484 145.219C98.009 145.163 97.8696 145.107 97.7999 145.079C99.541 148.607 101.31 152.066 103.121 155.623C103.372 156.208 104.041 155.344 103.944 154.982C103.179 151.035 102.386 147.159 101.621 143.213C101.44 143.463 101.328 143.742 101.147 143.993C109.849 140.442 118.844 137.574 127.532 133.856C127.42 133.73 127.281 133.674 127.169 133.549C129.173 141.469 131.08 149.432 133.083 157.352C133.348 158.51 133.64 159.598 133.904 160.755C134.057 161.382 134.783 160.783 134.783 160.379C134.955 151.469 135.098 142.63 135.27 133.72C135.299 132.438 135.299 131.224 135.328 129.942C135.244 130.151 135.091 130.332 135.007 130.541C143.709 126.586 152.217 122.309 160.766 118.131C160.626 118.075 160.417 117.991 160.278 117.935C161.013 125.59 161.678 133.218 162.414 140.873C162.539 141.974 162.594 143.048 162.719 144.149C162.774 144.819 163.597 144.178 163.597 143.773C163.866 135.631 164.107 127.558 164.376 119.415C164.419 118.3 164.419 117.087 164.462 115.972C164.378 116.181 164.224 116.362 164.141 116.571C174.182 111.696 184.251 106.751 194.613 102.49C194.474 102.434 194.334 102.378 194.265 102.35C195.225 105 196.256 107.677 197.244 110.257C197.495 110.843 198.067 110.021 198.081 109.784C198.39 106.591 198.74 103.496 199.048 100.303C198.867 100.554 198.713 100.735 198.601 101.014C203.273 99.2454 208.252 97.519 213.258 96.9359C215.265 96.7696 217.678 96.6035 218.694 98.7094C219.739 100.746 219.124 103.492 218.524 105.597C217.546 109.25 215.885 112.79 214.071 116.108C211.238 121.363 208.042 126.311 204.498 131.12C204.694 131.036 204.931 131.05 205.126 130.967C203.648 129.809 202.073 128.692 200.596 127.534C200.094 127.172 199.634 128.119 199.898 128.468C201.139 130.016 202.309 131.537 203.521 133.155C203.535 132.918 203.549 132.681 203.591 132.374C195.806 142.925 186.878 152.694 177.239 161.613C177.406 161.599 177.573 161.585 177.741 161.572C175.525 158.824 173.379 156.104 171.164 153.356C170.787 152.882 170.229 153.871 170.424 154.192C172.012 157.497 173.53 160.775 175.118 164.08C175.23 163.801 175.244 163.564 175.355 163.285C171.282 166.992 167.028 170.545 162.69 173.904C162.857 173.89 163.094 173.904 163.234 173.96C161.158 169.65 159.083 165.341 157.008 161.031C156.687 160.418 156.059 161.379 156.226 161.77C157.73 166.497 159.331 171.183 160.835 175.91C160.946 175.632 161.058 175.353 161.17 175.074C149.369 183.936 136.496 192.044 122.467 196.778C122.606 196.834 122.746 196.889 122.816 196.917C120.991 192.789 119.195 188.592 117.3 184.436C117.05 183.85 116.38 184.714 116.477 185.077C117.354 189.553 118.23 194.029 119.134 198.435C119.315 198.184 119.427 197.906 119.608 197.655C109.442 200.62 98.8453 201.632 88.3468 200.581C88.4303 200.776 88.5139 200.972 88.5974 201.167C89.3529 196.05 90.1781 190.961 90.9335 185.845C91.0175 185.231 90.432 185.078 90.1807 185.705C88.1983 190.654 86.216 195.602 84.2336 200.551C83.815 201.192 84.512 201.472 84.7633 200.844Z" fill="#001AAF"/>
<path d="M46.7303 221.282C59.4381 237.615 69.331 250.88 69.331 250.88C64.4413 242.288 56.2759 231.981 46.7303 221.282Z" fill="#001AAF"/>
<path d="M-23.2392 144.156C-46.4435 122.728 -101.076 74.9601 -145.256 36.6367L-157.729 51.6192C-108.096 88.2442 -1.2089 171.342 19.9317 221.142C19.9317 221.142 7.65333 182.333 -23.9131 153.511C-23.9131 153.511 17.7029 188.947 46.702 221.351C33.6459 204.474 17.3984 184.457 5.81784 172.377C5.81784 172.377 52.703 182.342 77.7471 177.167C77.7471 177.167 18.6122 182.841 -23.2392 144.156Z" fill="#001AAF"/>
<path d="M-65.3649 267.292L-56.9532 259.014C-52.0604 261.54 -47.0145 264.29 -41.8152 267.262C-48.5246 272.906 -55.4154 278.8 -56.0989 279.497C-56.7825 280.194 -47.5215 274.44 -38.9438 268.978C-31.2635 273.43 -23.179 278.286 -14.509 283.296L-28.8214 297.218L-12.2788 284.594C-4.98869 288.808 2.69165 293.26 10.874 297.67C11.1528 297.782 11.4037 297.963 11.6825 298.075L3.11543 310.173L14.0103 299.331C53.5136 321.464 49.2395 336.576 10.1886 330.073L9.31498 320.34L8.58521 329.835C-1.60618 328.017 -14.0696 324.804 -28.6933 319.917C-34.3393 318.06 -39.4971 315.994 -44.4597 313.844L-41.5118 301.841L-46.5925 312.909C-48.098 312.225 -49.6035 311.541 -51.0114 310.815L-49.2628 299.383L-52.9769 309.866C-71.5025 300.585 -84.3804 289.926 -93.3965 279.924L-90.2652 263.627L-98.0647 274.415C-110.243 258.778 -112.9 246.228 -112.9 246.228C-95.0793 243.337 -78.0994 248.602 -59.0859 258.079L-65.3649 267.292Z" fill="url(#paint5_linear_2167_2687)"/>
<path d="M-167.547 199.506C-150.795 215.842 -132.984 231.146 -114.294 245.266C-98.2931 257.418 -81.623 268.706 -64.4225 279.075C-50.8043 287.28 -36.8234 294.983 -22.4935 302.018C-12.8334 306.777 -3.03376 311.188 6.97524 315.278C9.83298 316.423 12.6907 317.568 15.6043 318.573C16.8868 319.006 18.225 319.704 19.4937 319.969C19.5634 319.997 19.6331 320.025 19.6331 320.025C20.0513 320.193 20.5815 319.273 20.1633 319.105C16.7339 317.974 13.2907 316.676 9.94503 315.335C0.646895 311.692 -8.48368 307.63 -17.5026 303.289C-31.3586 296.687 -44.8657 289.416 -58.0798 281.615C-74.904 271.721 -91.2258 260.977 -106.906 249.439C-125.597 235.723 -143.506 220.865 -160.327 204.906C-162.487 202.827 -164.717 200.721 -166.877 198.642C-167.239 198.335 -167.839 199.227 -167.547 199.506Z" fill="#001AAF"/>
<path d="M-26.5387 276.78C-22.6079 279.082 -18.6771 281.385 -14.8161 283.659C-14.7741 283.353 -14.76 283.116 -14.7181 282.809C-18.8612 286.892 -23.074 290.947 -27.217 295.031C-27.8448 295.588 -28.4307 296.243 -29.0584 296.801C-29.3374 297.093 -29.3657 297.972 -28.7938 297.554C-23.9816 293.819 -19.1277 290.183 -14.3155 286.448C-13.6181 285.919 -12.9207 285.389 -12.2233 284.86C-12.3209 284.902 -12.4882 284.915 -12.5858 284.957C-4.65461 289.59 3.36037 294.014 11.3754 298.438C11.3894 298.201 11.4035 297.964 11.4176 297.727C8.58512 301.769 5.68296 305.783 2.85053 309.825C2.64122 310.146 2.73848 310.913 3.24064 310.467C6.88157 306.83 10.4945 303.262 14.1355 299.625C14.0379 299.666 13.8705 299.68 13.7729 299.722C19.9897 303.183 26.067 306.992 31.5583 311.457C34.8475 314.15 38.3735 317.261 40.3096 321.11C41.3961 323.244 41.8828 325.865 39.9856 327.774C37.6839 330.088 33.7517 330.616 30.6423 330.907C23.9215 331.531 17.0062 330.621 10.3838 329.586C10.4256 329.684 10.5371 329.809 10.6068 329.837C10.3017 326.56 10.0663 323.312 9.73324 320.105C9.64989 319.505 8.95249 320.034 8.98021 320.369C8.76949 323.52 8.46115 326.713 8.25043 329.864C8.40389 329.683 8.65495 329.46 8.80841 329.279C-5.00782 326.818 -18.642 322.893 -31.8018 318.188C-35.97 316.68 -40.0127 315.06 -44.0971 313.343C-44.0833 313.511 -44.0694 313.678 -43.9858 313.873C-43.0357 309.886 -41.988 305.857 -41.0379 301.87C-40.9121 301.354 -41.4698 301.131 -41.6931 301.688C-43.4099 305.368 -45.0571 309.076 -46.7739 312.756C-46.5786 312.673 -46.3834 312.589 -46.2578 312.478C-47.7633 311.794 -49.1991 311.138 -50.6767 310.384C-50.6349 310.482 -50.6211 310.649 -50.5793 310.747C-50.0197 306.927 -49.3904 303.134 -48.8307 299.314C-48.7468 298.701 -49.4301 298.993 -49.5697 299.342C-50.7985 302.813 -52.0551 306.354 -53.2838 309.825C-53.0606 309.672 -52.8654 309.588 -52.7119 309.407C-63.9611 303.768 -74.6379 296.903 -83.9895 288.547C-85.9546 286.789 -87.8221 284.989 -89.5919 283.148C-90.4002 282.339 -91.2502 281.432 -92.0306 280.553C-92.4765 280.051 -92.8529 279.981 -92.8945 279.479C-92.908 278.503 -92.4612 277.388 -92.3353 276.468C-91.9998 274.823 -91.7062 273.08 -91.3707 271.435C-90.8814 268.8 -90.3642 266.095 -89.8052 263.488C-89.7073 263.042 -90.1814 263.014 -90.3907 263.335C-92.958 266.917 -95.595 270.471 -98.1902 274.123C-98.0228 274.109 -97.8276 274.025 -97.6603 274.011C-103.805 266.131 -109.127 257.204 -111.98 247.568C-112.161 247.011 -112.342 246.453 -112.426 245.853C-112.537 246.132 -112.719 246.383 -112.831 246.662C-104.882 245.397 -96.7678 245.736 -88.849 247.371C-88.4029 247.469 -88.012 246.493 -88.5278 246.367C-96.5163 244.704 -104.631 244.365 -112.677 245.672C-113.011 245.7 -113.207 246.187 -113.081 246.48C-112.734 248.237 -112.079 250.036 -111.467 251.738C-109.74 256.312 -107.553 260.747 -105.018 264.917C-102.984 268.32 -100.657 271.598 -98.2044 274.764C-98.0512 274.987 -97.7304 274.792 -97.6745 274.653C-95.1072 271.071 -92.4703 267.517 -89.875 263.865C-90.0841 263.781 -90.2932 263.697 -90.4606 263.711C-91.4392 268.981 -92.4876 274.223 -93.4662 279.493C-93.522 279.632 -93.6058 279.842 -93.5919 280.009C-93.4947 280.776 -92.1985 281.78 -91.6829 282.31C-89.941 284.221 -88.0735 286.021 -86.1782 287.751C-81.9833 291.615 -77.579 295.159 -72.9237 298.48C-66.6238 302.945 -59.9331 306.838 -53.0749 310.313C-52.7961 310.425 -52.5171 310.132 -52.503 309.895C-51.2743 306.424 -50.0177 302.883 -48.789 299.412C-49.026 299.398 -49.2909 299.454 -49.5279 299.439C-50.0876 303.26 -50.7169 307.052 -51.2765 310.872C-51.3324 311.011 -51.2488 311.206 -51.1791 311.234C-49.6736 311.918 -48.2657 312.644 -46.7602 313.328C-46.5511 313.412 -46.3 313.189 -46.2442 313.049C-44.5274 309.369 -42.8803 305.661 -41.1635 301.981C-41.3726 301.897 -41.6096 301.883 -41.8187 301.8C-42.7688 305.787 -43.8165 309.816 -44.7666 313.803C-44.8224 313.942 -44.8365 314.179 -44.6554 314.333C-30.8827 320.335 -16.3285 324.79 -1.75979 328.2C1.6419 328.996 5.00178 329.695 8.38961 330.324C8.69633 330.366 8.93357 329.976 8.94763 329.739C9.15835 326.588 9.46669 323.395 9.67741 320.244C9.41246 320.3 9.1893 320.453 8.92436 320.509C9.22947 323.785 9.46486 327.034 9.79789 330.241C9.81175 330.408 9.85355 330.506 10.0209 330.492C16.3783 331.583 22.8753 332.325 29.3451 331.924C32.8309 331.703 36.9025 331.231 39.7759 328.904C45.9691 323.943 38.3741 316.048 34.5136 312.56C28.4372 307.133 21.44 302.793 14.3032 298.802C14.1638 298.746 13.9965 298.76 13.9407 298.899C10.2997 302.537 6.6867 306.104 3.04577 309.742C3.19904 309.965 3.28259 310.16 3.43586 310.383C6.26829 306.341 9.17044 302.327 12.0029 298.285C12.1563 298.104 12.3239 297.686 12.0451 297.574C4.03008 293.15 -3.98494 288.726 -11.9162 284.093C-12.0556 284.037 -12.1532 284.079 -12.2787 284.191C-17.0909 287.925 -21.9449 291.562 -26.7571 295.296C-27.4545 295.825 -28.1519 296.355 -28.8493 296.884C-28.7936 297.149 -28.6404 297.372 -28.5847 297.637C-24.4416 293.554 -20.2289 289.499 -16.0858 285.416C-15.4581 284.858 -14.8721 284.203 -14.2444 283.646C-14.0909 283.465 -13.8258 283.005 -14.1464 282.795C-18.0771 280.493 -22.0079 278.19 -25.869 275.916C-26.4266 275.692 -26.9289 276.543 -26.5387 276.78Z" fill="#001AAF"/>
<path d="M-31.3971 260.031L-37.6364 273.79C-23.9604 277.812 -10.5063 279.562 2.25135 279.819L5.8423 264.595L5.15145 279.849C7.4102 279.864 9.6969 279.809 11.9418 279.657L15.2374 269.41L13.9217 279.56C28.2695 278.675 41.2658 275.712 52.0178 271.688L53.3901 259.781L55.7971 270.128C71.6815 263.387 81.6275 254.106 81.7153 245.81C81.8617 231.714 69.3969 231.331 51.6886 232.731L43.803 248.58L48.2028 232.952C33.9804 234.13 16.8715 235.851 0.420518 232.496L-3.34959 243.523L-2.04713 231.993C-3.45521 231.672 -4.76564 231.308 -6.1458 230.917C-7.52595 230.526 -8.97585 230.107 -10.3839 229.786L-14.0831 238.415L-13.5486 229.003C-23.9071 226.795 -35.0054 226.232 -45.63 226.506L-51.3992 247.975L-51.1376 226.726C-78.6757 228.232 -102.131 235.094 -102.131 235.094C-82.802 254.484 -61.2939 266.416 -40.09 273.05L-31.3971 260.031Z" fill="url(#paint6_linear_2167_2687)"/>
<path d="M59.992 245.117C59.8665 245.229 59.7688 245.27 59.5178 245.493C58.9459 245.911 58.4717 246.288 57.9277 246.636C55.8216 248.057 53.7016 249.311 51.4702 250.439C47.9836 252.278 44.3716 253.824 40.6063 255.146C35.6696 256.97 30.5937 258.334 25.3924 259.405C18.9362 260.782 12.3965 261.56 5.85708 261.933C-2.16033 262.361 -10.1634 262.148 -18.0826 261.322C-27.7307 260.369 -37.211 258.593 -46.6353 256.274C-57.7882 253.424 -68.7734 249.752 -79.5074 245.452C-92.3044 240.245 -104.766 234.201 -116.81 227.517C-131.223 219.478 -145.133 210.59 -158.556 201.088C-162.208 198.493 -165.859 195.897 -169.455 193.163C-169.636 193.009 -170.167 193.929 -169.985 194.083C-156.09 204.421 -141.705 214.147 -126.86 222.924C-114.427 230.251 -101.603 237.005 -88.3877 242.784C-77.3055 247.628 -65.972 251.844 -54.3731 255.197C-44.712 257.934 -34.8275 260.114 -24.8729 261.513C-16.5914 262.647 -8.2259 263.167 0.0841779 263.018C7.01389 262.882 13.9717 262.272 20.8183 261.132C26.2984 260.173 31.7507 258.879 36.9941 257.097C41.094 255.746 45.0407 254.173 48.862 252.306C51.456 251.08 53.9664 249.66 56.3654 248.113C57.4533 247.416 58.6387 246.678 59.6152 245.856C59.6431 245.786 59.7128 245.814 59.7407 245.744C59.9778 245.759 60.3686 244.783 59.992 245.117Z" fill="#001AAF"/>
<path d="M-31.6633 260.088C-33.7431 264.674 -35.8229 269.26 -37.9026 273.847C-37.9306 273.916 -38.0702 274.265 -37.9029 274.251C-24.9518 278.064 -11.442 280.078 2.08255 280.238C2.31957 280.252 2.48709 279.834 2.57085 279.625C3.80036 274.537 4.93227 269.49 6.16179 264.401C5.93862 264.555 5.74336 264.638 5.5202 264.791C5.2667 269.866 5.0132 274.942 4.8294 280.045C4.80147 280.114 4.81533 280.282 4.98266 280.268C7.24141 280.283 9.52811 280.228 11.773 280.076C12.01 280.09 12.1775 279.672 12.2613 279.463C13.3924 276.033 14.4259 272.646 15.5569 269.216C15.3338 269.37 15.1385 269.453 14.9153 269.606C14.4535 272.98 14.0615 276.382 13.5997 279.756C13.5717 279.826 13.5856 279.993 13.7529 279.979C26.7203 279.107 39.6885 276.618 51.9466 272.065C52.2115 272.009 52.3791 271.591 52.3931 271.354C52.8413 267.408 53.2894 263.463 53.7655 259.447C53.5423 259.601 53.3609 259.852 53.1378 260.005C53.9308 263.477 54.7517 266.879 55.5448 270.352C55.5865 270.449 55.6562 270.477 55.7539 270.435C63.6612 267.051 71.7224 262.677 77.3726 256.043C81.3626 251.332 83.4989 245.394 81.1455 239.355C78.5276 232.564 70.232 231.667 63.888 231.553C61.5596 231.51 59.2729 231.564 56.9583 231.689C55.7174 231.758 54.4764 231.827 53.2075 231.966C52.5382 232.021 51.883 231.839 51.4923 232.411C50.711 233.554 50.2222 234.976 49.622 236.272C47.6262 240.245 45.6722 244.315 43.6763 248.288C43.8437 248.274 44.011 248.26 44.1783 248.246C45.631 243.005 47.1255 237.86 48.5782 232.619C48.6061 232.549 48.648 232.242 48.4807 232.256C36.2662 233.268 23.9261 234.391 11.7126 233.381C8.01785 233.114 4.3651 232.541 0.768168 231.828C0.628767 231.772 0.363593 232.232 0.335673 232.302C-0.907103 236.01 -2.19162 239.62 -3.43439 243.329C-3.23915 243.245 -3.04392 243.162 -2.84868 243.078C-2.42846 239.202 -1.96644 235.424 -1.54621 231.548C-1.51829 231.478 -1.56009 231.381 -1.62979 231.353C-4.44595 230.71 -7.15043 229.788 -9.96659 229.145C-10.1757 229.062 -10.4129 229.452 -10.4687 229.591C-11.7111 232.491 -12.9535 235.39 -14.1679 238.22C-13.9727 238.137 -13.7774 238.053 -13.5822 237.97C-13.3715 234.819 -13.1887 231.737 -13.0477 228.558C-13.0198 228.489 -13.0615 228.391 -13.2009 228.335C-23.7268 226.141 -34.5601 225.522 -45.2824 225.837C-45.5195 225.823 -45.687 226.241 -45.7707 226.451C-47.4749 232.724 -49.1512 238.928 -50.8553 245.201C-51.1207 246.066 -51.3443 247.027 -51.6096 247.892C-51.3864 247.739 -51.1912 247.655 -50.968 247.502C-50.9091 241.297 -50.7806 235.121 -50.7497 228.986C-50.7213 228.107 -50.7627 227.201 -50.7344 226.323C-50.7065 226.253 -50.7203 226.086 -50.8876 226.099C-67.0201 226.998 -83.1813 229.583 -98.8831 233.646C-99.9707 233.939 -100.961 234.189 -102.049 234.481C-102.313 234.537 -102.634 235.136 -102.411 235.388C-88.6009 249.17 -72.363 260.528 -54.4083 268.205C-49.8639 270.187 -45.1381 271.919 -40.3703 273.343C-40.2309 273.399 -40.0774 273.218 -39.9519 273.107C-37.0775 268.758 -34.2031 264.409 -31.3286 260.06C-31.0914 259.67 -31.2166 258.973 -31.5655 259.642C-34.4399 263.991 -37.3143 268.339 -40.1887 272.688C-40.0632 272.577 -39.9655 272.535 -39.7703 272.451C-57.5866 266.851 -74.23 257.919 -88.7109 246.214C-93.2963 242.517 -97.6306 238.597 -101.811 234.496C-101.923 234.774 -102.063 235.123 -102.174 235.402C-91.2834 232.242 -79.8631 230.184 -68.6662 228.684C-62.8655 227.934 -57.051 227.351 -51.2506 227.005C-51.2924 226.908 -51.3621 226.88 -51.4039 226.782C-51.4627 232.987 -51.5913 239.164 -51.6222 245.298C-51.6506 246.177 -51.6092 247.083 -51.6375 247.962C-51.6239 248.533 -51.0797 247.781 -50.9959 247.571C-49.2918 241.298 -47.6155 235.094 -45.9113 228.821C-45.646 227.956 -45.4225 226.994 -45.1571 226.13C-45.3106 226.311 -45.4919 226.562 -45.6454 226.743C-34.9231 226.428 -24.0897 227.047 -13.5639 229.241C-13.6057 229.144 -13.6754 229.116 -13.7172 229.018C-13.9279 232.169 -14.1107 235.25 -14.2517 238.429C-14.3078 238.973 -13.7218 238.318 -13.666 238.179C-12.4236 235.279 -11.1812 232.38 -9.96678 229.55C-10.1203 229.731 -10.3434 229.884 -10.469 229.996C-8.78209 230.429 -7.09519 230.862 -5.43623 231.365C-4.6416 231.602 -3.77726 231.867 -2.95471 232.035C-2.64798 232.077 -2.28541 231.98 -2.20185 232.175C-2.04859 232.398 -2.31394 233.262 -2.328 233.499C-2.39811 234.28 -2.51 234.963 -2.5801 235.744C-2.90209 238.365 -3.1544 241.014 -3.47639 243.635C-3.53244 244.179 -2.97444 243.594 -2.89068 243.385C-1.64791 239.677 -0.363346 236.066 0.879423 232.358C0.725957 232.539 0.600429 232.65 0.446964 232.832C12.9525 235.334 25.6966 235.019 38.3851 234.036C41.634 233.8 44.9804 233.523 48.2571 233.218C48.2154 233.12 48.1736 233.023 48.1597 232.855C46.7071 238.097 45.2126 243.241 43.7599 248.483C43.6342 248.999 44.1502 248.72 44.2619 248.442C46.8579 243.173 49.4818 237.834 52.1475 232.592C52.022 232.704 51.8965 232.815 51.7709 232.927C55.689 232.636 59.6071 232.345 63.553 232.389C66.7598 232.46 70.0085 232.629 73.1173 233.551C75.5012 234.263 77.829 235.519 79.3478 237.584C81.0895 239.899 81.6457 242.953 81.6443 245.783C81.544 251.082 77.6098 255.653 73.8018 258.9C71.0957 261.213 68.0969 263.247 65.0426 265.016C63.2713 266.005 61.528 266.925 59.7149 267.816C58.8084 268.262 57.8602 268.61 57.0234 269.084C56.9257 269.125 56.3121 269.446 56.4515 269.502C56.3818 269.474 56.4376 269.334 56.3679 269.306C55.9917 268.832 55.9644 267.689 55.881 267.089C55.6167 265.932 55.3244 264.844 55.0601 263.687C54.6983 262.167 54.3366 260.647 53.9748 259.127C53.8356 258.667 53.3332 259.517 53.3471 259.684C52.899 263.63 52.4508 267.575 51.9748 271.591C52.1561 271.34 52.2399 271.131 52.4212 270.88C40.2328 275.461 27.3623 277.909 14.3949 278.781C14.4367 278.878 14.5064 278.906 14.5482 279.004C15.01 275.63 15.4021 272.228 15.8639 268.854C15.9199 268.31 15.306 269.035 15.2223 269.244C14.0912 272.673 13.0577 276.061 11.9266 279.49C12.0801 279.309 12.2615 279.058 12.4149 278.877C10.17 279.029 7.9113 279.014 5.62463 279.069C5.66642 279.167 5.7361 279.194 5.77788 279.292C6.03138 274.217 6.28492 269.142 6.46873 264.039C6.52477 263.495 5.9109 264.22 5.82713 264.429C4.59762 269.518 3.46575 274.564 2.23623 279.653C2.38969 279.472 2.57107 279.221 2.72453 279.04C-10.7721 278.81 -24.1425 276.851 -37.0936 273.038C-37.0797 273.206 -37.0658 273.373 -37.0938 273.443C-35.014 268.856 -32.9342 264.27 -30.8544 259.684C-30.8124 259.377 -31.3982 259.628 -31.6633 260.088Z" fill="#001AAF"/>
<path d="M-99.1449 229.255L-92.9339 216.375L-95.9941 229.87C-87.5175 231.324 -78.1061 231.454 -67.9127 229.229L-69.4544 217.125L-65.3748 228.547C-61.777 227.642 -58.1373 226.431 -54.358 224.871C-45.7255 221.292 -37.3435 216.723 -29.4772 211.624L-32.7334 198.753L-27.9429 210.621C-23.8563 207.89 -19.8532 204.964 -15.9895 201.982L-19.5404 192.876L-14.2181 200.589C-4.30063 192.591 4.36215 184.09 11.0866 176.187L8.16078 171.78L11.9795 175.17C25.7773 158.696 31.417 145.021 23.3303 144.613C19.6773 144.444 14.504 145.445 8.35428 147.268L6.9558 155.606L4.84007 148.368C-3.52705 151.083 -13.2472 154.954 -23.1905 158.979L-25.6986 183.615L-26.3144 160.316C-34.3332 163.574 -42.4497 166.875 -49.9663 169.687L-52.378 196.708L-56.6741 172.096C-60.8019 173.516 -64.7066 174.783 -68.2346 175.716C-71.8323 176.62 -76.0996 177.984 -80.7573 179.516L-79.4101 190.085L-83.4766 180.449C-108.885 188.955 -143.568 203.048 -143.568 203.048C-143.568 203.048 -126.54 223.134 -99.1449 229.255Z" fill="url(#paint7_linear_2167_2687)"/>
<path d="M-293.685 76.8299C-289.978 80.4987 -286.173 84.1258 -282.438 87.7249C-273.394 96.4438 -264.279 105.191 -255.165 113.937C-244.002 124.637 -232.783 135.198 -221.495 145.786C-211.418 155.161 -201.342 164.535 -191.057 173.589C-185.204 178.765 -179.35 183.941 -172.855 188.322C-167.001 192.285 -160.714 195.774 -154.246 198.607C-145.394 202.558 -136.026 205.421 -126.518 207.126C-114.653 209.21 -102.495 209.551 -90.4759 208.218C-75.3887 206.497 -60.6489 202.21 -46.7308 196.137C-28.615 188.269 -11.8781 177.583 3.66035 165.446C8.15174 161.907 12.5038 158.312 16.8419 154.55C17.1906 154.285 17.1492 153.378 16.6471 153.824C0.647574 167.717 -16.7038 180.341 -35.6152 189.994C-49.8686 197.307 -65.1389 202.918 -80.9377 205.811C-93.4178 208.091 -106.176 208.642 -118.766 207.158C-128.971 205.982 -138.883 203.467 -148.488 199.781C-155.626 197.003 -162.554 193.5 -169.021 189.453C-174.708 185.881 -179.935 181.765 -184.98 177.399C-194.666 169.07 -204.073 160.449 -213.452 151.757C-224.727 141.336 -235.876 130.804 -246.997 120.202C-256.836 110.841 -266.578 101.439 -276.389 92.0084C-281.699 86.8887 -286.939 81.7969 -292.248 76.6772C-292.471 76.4261 -292.722 76.2447 -292.945 75.9937C-293.405 75.7285 -293.977 76.5508 -293.685 76.8299Z" fill="#001AAF"/>
<path d="M-98.7959 229.393C-96.7581 225.113 -94.6506 220.862 -92.5848 216.513C-92.7939 216.429 -93.0031 216.345 -93.2401 216.331C-94.2462 220.862 -95.2942 225.295 -96.3003 229.826C-96.3841 230.035 -96.3284 230.3 -96.0914 230.314C-86.7226 231.964 -77.2133 231.648 -67.9124 229.631C-67.6474 229.576 -67.4381 229.255 -67.4659 228.92C-67.9658 224.919 -68.4657 220.917 -69.0075 216.817C-69.2306 216.97 -69.5514 217.166 -69.7746 217.319C-68.3822 221.112 -67.0874 224.947 -65.695 228.74C-65.6532 228.838 -65.5417 228.963 -65.3744 228.949C-52.4755 225.623 -40.5093 219.174 -29.3792 211.985C-29.1561 211.832 -28.9467 211.511 -29.0721 211.218C-30.1714 206.895 -31.229 202.67 -32.3283 198.347C-32.5794 198.57 -32.8305 198.793 -33.0537 198.946C-31.4801 202.893 -29.9065 206.84 -28.2632 210.814C-28.2076 211.079 -27.9426 211.024 -27.7195 210.87C-23.6328 208.139 -19.6576 205.283 -15.766 202.232C-15.5429 202.078 -15.4312 201.8 -15.5565 201.507C-16.7541 198.439 -17.9099 195.468 -19.1074 192.4C-19.3585 192.623 -19.5399 192.874 -19.791 193.097C-17.9936 195.677 -16.266 198.23 -14.4686 200.81C-14.3571 200.936 -14.0922 200.88 -13.9667 200.768C-4.77457 193.369 3.74863 185.217 11.4635 176.256C11.617 176.074 11.7287 175.796 11.5755 175.572C10.6141 174.136 9.58303 172.671 8.6496 171.165C8.46822 171.416 8.18924 171.709 8.00786 171.959C9.24821 173.103 10.5165 174.178 11.8265 175.349C12.0077 175.503 12.203 175.419 12.3564 175.238C15.5791 171.433 18.6207 167.475 21.2998 163.21C23.365 160.074 25.2489 156.784 26.5055 153.243C27.7063 149.842 28.7548 144.195 23.638 143.844C18.5908 143.521 13.3335 145.136 8.56429 146.542C8.29934 146.597 8.11797 146.848 8.10391 147.085C7.62845 149.888 7.15301 152.69 6.70547 155.422C6.99834 155.297 7.22149 155.144 7.51436 155.019C6.77658 152.62 6.06671 150.152 5.39863 147.781C5.35685 147.683 5.24537 147.558 5.07805 147.572C-4.43261 150.718 -13.7902 154.492 -23.0502 158.224C-23.2454 158.308 -23.3571 158.586 -23.413 158.726C-24.1277 165.962 -24.8841 173.1 -25.5988 180.336C-25.683 181.354 -25.7671 182.372 -25.9489 183.431C-25.684 183.376 -25.3911 183.25 -25.1959 183.167C-25.3598 176.307 -25.5237 169.447 -25.6458 162.685C-25.6593 161.708 -25.6727 160.732 -25.6862 159.756C-25.6721 159.519 -25.9509 159.408 -26.1462 159.491C-33.9697 162.666 -41.8909 165.883 -49.7981 168.863C-49.9933 168.947 -50.105 169.225 -50.1608 169.365C-50.8898 177.242 -51.5491 185.148 -52.278 193.025C-52.3901 194.112 -52.4604 195.298 -52.5725 196.385C-52.3075 196.329 -52.0147 196.204 -51.8194 196.121C-53.0847 188.981 -54.322 181.772 -55.5873 174.633C-55.7401 173.601 -55.9627 172.541 -56.1435 171.579C-56.1573 171.411 -56.3106 171.188 -56.5059 171.272C-64.3989 174.015 -72.5565 176.004 -80.5611 178.622C-80.826 178.677 -81.0353 178.998 -81.0076 179.333C-80.5493 182.833 -80.1188 186.402 -79.6604 189.902C-79.4372 189.749 -79.1165 189.554 -78.8933 189.4C-80.272 186.179 -81.5811 182.985 -82.9599 179.764C-83.0016 179.666 -83.1131 179.541 -83.2804 179.555C-93.7673 183.119 -104.199 186.948 -114.588 190.875C-122.718 194.008 -130.849 197.141 -138.937 200.371C-140.471 200.97 -142.005 201.569 -143.567 202.238C-143.86 202.363 -144.055 202.851 -143.832 203.102C-141.589 205.78 -138.969 208.124 -136.321 210.398C-130.049 215.741 -123.136 220.29 -115.706 223.751C-110.409 226.278 -104.93 228.149 -99.2003 229.393C-98.7541 229.49 -98.3632 228.515 -98.879 228.389C-114.675 224.812 -129.436 216.229 -140.794 204.804C-141.602 203.995 -142.41 203.186 -143.163 202.238C-143.274 202.517 -143.386 202.795 -143.428 203.102C-139.091 201.361 -134.684 199.649 -130.347 197.908C-120.655 194.106 -110.99 190.374 -101.145 186.796C-95.26 184.624 -89.3332 182.549 -83.3646 180.572C-83.504 180.517 -83.5737 180.489 -83.6852 180.363C-82.3064 183.585 -80.9974 186.778 -79.6187 190C-79.4098 190.488 -78.8238 189.833 -78.8515 189.498C-79.3099 185.998 -79.7404 182.429 -80.1987 178.929C-80.3801 179.18 -80.5336 179.361 -80.6452 179.64C-72.6407 177.022 -64.4831 175.033 -56.59 172.29C-56.7015 172.164 -56.8409 172.108 -56.9524 171.983C-55.6871 179.122 -54.4498 186.331 -53.1845 193.471C-53.0317 194.503 -52.8091 195.562 -52.6283 196.524C-52.545 197.124 -51.8476 196.595 -51.8753 196.26C-51.1463 188.383 -50.4871 180.477 -49.7581 172.6C-49.646 171.512 -49.5757 170.327 -49.4636 169.24C-49.6171 169.421 -49.673 169.56 -49.8264 169.741C-41.8496 166.79 -33.9981 163.545 -26.1745 160.37C-26.3139 160.314 -26.4254 160.188 -26.6345 160.105C-26.4706 166.965 -26.3067 173.825 -26.1846 180.587C-26.1711 181.563 -26.1576 182.539 -26.1442 183.515C-26.1305 184.087 -25.3634 183.585 -25.3911 183.25C-24.6764 176.014 -23.92 168.876 -23.2053 161.64C-23.1211 160.622 -23.0369 159.604 -22.8551 158.545C-23.0086 158.726 -23.0644 158.865 -23.2179 159.047C-13.9579 155.315 -4.76766 151.555 4.71508 148.478C4.57568 148.422 4.50598 148.394 4.3945 148.269C5.13228 150.667 5.84214 153.135 6.51022 155.506C6.6912 156.064 7.20743 155.381 7.31911 155.102C7.79457 152.3 8.27001 149.497 8.71754 146.765C8.56408 146.946 8.41062 147.127 8.25716 147.308C12.5662 146.042 17.0425 144.761 21.5462 144.624C23.3588 144.541 25.492 144.668 26.2858 146.523C27.0796 148.377 26.3394 150.831 25.7111 152.602C24.5941 155.794 22.8915 158.833 21.1054 161.676C18.3425 166.15 15.0499 170.332 11.7155 174.415C11.8828 174.401 12.078 174.318 12.2453 174.304C11.005 173.16 9.73672 172.086 8.42667 170.914C7.99461 170.579 7.52014 171.36 7.78488 171.708C8.74623 173.145 9.77727 174.609 10.7107 176.116C10.7248 175.879 10.8086 175.67 10.8226 175.433C3.20531 184.352 -5.28998 192.435 -14.4541 199.764C-14.2868 199.751 -14.1195 199.737 -13.9522 199.723C-15.7496 197.142 -17.4772 194.59 -19.2745 192.01C-19.5811 191.563 -20.0834 192.414 -19.9581 192.706C-18.7605 195.775 -17.6048 198.745 -16.4072 201.813C-16.3234 201.604 -16.2397 201.395 -16.1977 201.088C-20.0893 204.14 -24.0644 206.996 -28.1511 209.727C-27.9838 209.713 -27.8444 209.769 -27.6073 209.783C-29.1809 205.836 -30.7545 201.889 -32.3978 197.915C-32.6485 197.329 -33.2206 198.152 -33.1231 198.514C-32.0238 202.837 -30.9662 207.062 -29.8669 211.385C-29.7552 211.106 -29.6714 210.897 -29.5598 210.618C-40.5922 217.766 -52.5306 224.145 -65.3597 227.499C-65.2203 227.555 -65.1506 227.583 -65.0392 227.709C-66.4316 223.915 -67.7264 220.08 -69.1188 216.287C-69.2997 215.73 -69.9136 216.454 -69.8859 216.789C-69.3859 220.791 -68.886 224.793 -68.3442 228.892C-68.1629 228.641 -68.0094 228.46 -67.8977 228.181C-77.101 230.157 -86.5824 230.403 -95.8815 228.781C-95.7979 228.976 -95.7841 229.143 -95.6726 229.269C-94.6664 224.738 -93.6185 220.305 -92.6124 215.774C-92.4866 215.258 -93.0443 215.034 -93.2676 215.592C-95.3054 219.872 -97.4129 224.123 -99.4786 228.472C-99.6884 229.602 -99.1169 229.992 -98.7959 229.393Z" fill="#001AAF"/>
<defs>
<linearGradient id="paint0_linear_2167_2687" x1="85.4759" y1="202.59" x2="229.85" y2="322.358" gradientUnits="userSpaceOnUse">
<stop stop-color="#009AE5"/>
<stop offset="0.9851" stop-color="#FF89C9"/>
</linearGradient>
<linearGradient id="paint1_linear_2167_2687" x1="126.098" y1="154.01" x2="250.485" y2="257.208" gradientUnits="userSpaceOnUse">
<stop stop-color="#009AE5"/>
<stop offset="0.9851" stop-color="#FF89C9"/>
</linearGradient>
<linearGradient id="paint2_linear_2167_2687" x1="-40.6605" y1="279.288" x2="40.1579" y2="346.332" gradientUnits="userSpaceOnUse">
<stop stop-color="#009AE5"/>
<stop offset="0.9851" stop-color="#FF89C9"/>
</linearGradient>
<linearGradient id="paint3_linear_2167_2687" x1="23.387" y1="295.478" x2="153.305" y2="403.253" gradientUnits="userSpaceOnUse">
<stop stop-color="#009AE5"/>
<stop offset="0.9851" stop-color="#FF89C9"/>
</linearGradient>
<linearGradient id="paint4_linear_2167_2687" x1="89.3559" y1="106.368" x2="170.177" y2="173.414" gradientUnits="userSpaceOnUse">
<stop stop-color="#009AE5"/>
<stop offset="0.9851" stop-color="#FF89C9"/>
</linearGradient>
<linearGradient id="paint5_linear_2167_2687" x1="-98.3192" y1="230.998" x2="22.4245" y2="346.481" gradientUnits="userSpaceOnUse">
<stop stop-color="#009AE5"/>
<stop offset="0.9851" stop-color="#FF89C9"/>
</linearGradient>
<linearGradient id="paint6_linear_2167_2687" x1="-59.1843" y1="190.393" x2="44.8544" y2="289.895" gradientUnits="userSpaceOnUse">
<stop stop-color="#009AE5"/>
<stop offset="0.9851" stop-color="#FF89C9"/>
</linearGradient>
<linearGradient id="paint7_linear_2167_2687" x1="-88.8301" y1="145.757" x2="-21.2393" y2="210.402" gradientUnits="userSpaceOnUse">
<stop stop-color="#009AE5"/>
<stop offset="0.9851" stop-color="#FF89C9"/>
</linearGradient>
</defs>
</svg>
