<svg width="304" height="393" viewBox="0 0 304 393" fill="none" xmlns="http://www.w3.org/2000/svg">
<path d="M211.875 153.585L223.538 147.652C222.602 141.618 221.486 135.346 220.189 128.834C211.895 133.904 203.274 139.076 202.301 139.55C201.328 140.024 210.635 132.309 219.394 125.211C217.414 115.569 215.151 105.361 212.932 94.4825L193.26 104.636L212.352 91.681C210.484 82.5334 208.505 72.8921 206.745 62.7376C206.726 62.4051 206.623 62.0775 206.604 61.7451L190.87 66.4985L206.102 58.8557C196.721 9.53461 179.328 8.71415 172.433 52.0627L182.359 56.4041L172.119 53.8323C170.446 65.1876 169.441 79.4228 169.437 96.5182C169.405 103.108 169.763 109.258 170.278 115.232L183.936 116.354L170.512 117.804C170.701 119.627 170.891 121.451 171.159 123.186L183.795 125.368L171.466 125.587C174.71 148.33 181.389 165.62 188.734 178.618L206.973 181.057L192.886 185.464C205.044 203.768 217.306 210.975 217.306 210.975C226.613 193.254 227.049 173.548 223.771 150.223L211.875 153.585Z" fill="url(#paint0_linear_2167_2600)"/>
<path d="M247.214 284.868C235.929 261.509 226.1 237.399 217.827 212.78C210.676 191.682 204.669 170.184 199.816 148.452C195.978 131.247 192.794 113.837 190.437 96.2951C188.83 84.4639 187.638 72.6084 186.857 60.6456C186.659 57.2381 186.46 53.8307 186.428 50.4135C186.424 48.9127 186.16 47.2603 186.327 45.8329C186.323 45.7498 186.318 45.6666 186.318 45.6666C186.289 45.168 187.442 44.934 187.472 45.4326C187.455 49.4364 187.609 53.5136 187.842 57.5028C188.403 68.5611 189.463 79.5903 190.856 90.6002C192.925 107.491 195.82 124.251 199.375 140.889C203.862 162.059 209.419 182.999 216.037 203.545C223.886 228.021 233.21 252.078 244.076 275.378C245.501 278.38 246.932 281.466 248.358 284.468C248.47 284.962 247.405 285.274 247.214 284.868Z" fill="#001AAF"/>
<path d="M215.471 109.428C214.432 104.485 213.393 99.5419 212.359 94.6821C212.697 94.7458 212.951 94.8144 213.288 94.8781C207.537 97.7985 201.792 100.802 196.041 103.722C195.234 104.186 194.34 104.572 193.533 105.036C193.127 105.227 192.193 104.948 192.834 104.493C198.453 100.747 203.984 96.9216 209.603 93.175C210.405 92.6279 211.207 92.0808 212.009 91.5336C211.931 91.6216 211.857 91.7926 211.779 91.8806C209.697 81.9116 207.864 71.9282 206.031 61.9447C206.285 62.0133 206.539 62.0818 206.793 62.1504C201.547 63.7072 196.305 65.3471 191.059 66.9038C190.648 67.0112 189.876 66.6392 190.522 66.268C195.627 63.7188 200.649 61.1744 205.754 58.6252C205.675 58.7132 205.602 58.8842 205.524 58.9722C204.071 51.2181 202.203 43.4882 199.439 36.1441C197.765 31.7386 195.734 26.937 192.367 23.5475C190.506 21.6546 187.92 20.2209 185.246 21.5443C182.004 23.151 180.066 27.1 178.666 30.2671C175.646 37.1145 174.171 44.7057 172.93 52.0331C172.842 51.9549 172.749 51.7935 172.745 51.7104C176.083 53.1836 179.416 54.5736 182.671 56.0517C183.272 56.3502 182.47 56.8973 182.128 56.7505C178.741 55.8639 175.275 55.0653 171.888 54.1787C172.132 54.081 172.455 53.8955 172.699 53.7978C170.428 69.1909 169.76 84.9073 170.08 100.399C170.199 105.313 170.48 110.133 170.849 115.032C170.678 114.958 170.507 114.885 170.331 114.728C174.858 115.131 179.463 115.447 183.99 115.85C184.576 115.899 184.615 116.564 183.95 116.603C179.477 117.114 174.998 117.541 170.525 118.052C170.682 117.877 170.838 117.701 171 117.608C171.189 119.431 171.374 121.172 171.647 122.991C171.559 122.912 171.388 122.839 171.3 122.761C175.514 123.516 179.722 124.188 183.936 124.943C184.61 125.07 184.063 125.686 183.647 125.71C179.565 125.781 175.4 125.857 171.318 125.928C171.558 125.748 171.714 125.572 171.959 125.474C173.931 139.285 177.395 152.926 182.893 165.698C184.05 168.383 185.286 170.979 186.6 173.488C187.166 174.622 187.821 175.835 188.47 176.965C188.841 177.61 188.783 178.03 189.296 178.251C190.317 178.608 191.647 178.53 192.659 178.722C194.507 178.947 196.442 179.252 198.29 179.477C201.233 179.89 204.259 180.297 207.197 180.626C207.7 180.68 207.563 181.188 207.152 181.296C202.483 182.735 197.818 184.258 193.066 185.703C193.139 185.532 193.296 185.356 193.369 185.185C199.495 194.418 207.009 203.153 216.138 209.542C216.661 209.928 217.183 210.315 217.784 210.613C217.452 210.633 217.124 210.735 216.792 210.754C220.917 202.842 223.415 194.19 224.48 185.289C224.534 184.785 225.698 184.717 225.649 185.304C224.588 194.289 222.09 202.94 217.887 210.941C217.74 211.283 217.158 211.317 216.895 211.082C215.169 210.099 213.508 208.778 211.934 207.535C207.732 204.111 203.838 200.252 200.345 196.119C197.482 192.784 194.853 189.184 192.386 185.492C192.206 185.253 192.524 184.984 192.69 184.974C197.359 183.534 202.024 182.012 206.776 180.567C206.791 180.816 206.805 181.066 206.732 181.237C200.846 180.412 194.966 179.671 189.08 178.847C188.914 178.857 188.665 178.871 188.494 178.798C187.722 178.426 187.121 176.71 186.745 175.981C185.348 173.477 184.113 170.881 182.96 168.28C180.372 162.51 178.195 156.632 176.34 150.57C173.861 142.375 172.12 133.971 170.878 125.537C170.859 125.205 171.265 125.014 171.519 125.083C175.601 125.012 179.766 124.936 183.848 124.864C183.779 125.118 183.628 125.377 183.559 125.632C179.346 124.877 175.137 124.205 170.923 123.45C170.757 123.459 170.581 123.303 170.576 123.22C170.387 121.396 170.119 119.661 169.929 117.837C169.914 117.588 170.237 117.402 170.403 117.392C174.877 116.881 179.355 116.454 183.828 115.943C183.843 116.192 183.774 116.446 183.789 116.695C179.262 116.292 174.657 115.977 170.13 115.574C169.964 115.583 169.71 115.515 169.612 115.27C168.145 98.6777 168.579 81.8074 170.117 65.2896C170.476 61.4326 170.923 57.654 171.453 53.8705C171.517 53.5332 172.01 53.421 172.265 53.4896C175.652 54.3762 179.117 55.1748 182.505 56.0614C182.353 56.3204 182.114 56.5011 181.962 56.7601C178.624 55.287 175.29 53.8969 172.035 52.4189C171.864 52.3455 171.776 52.2672 171.85 52.0961C172.939 45.0278 174.443 37.9352 177.14 31.2734C178.599 27.6859 180.527 23.5707 183.984 21.3677C191.378 16.6002 197.009 27.363 199.319 32.6488C202.888 40.9466 204.991 49.8302 206.678 58.7381C206.687 58.9043 206.614 59.0754 206.448 59.0851C201.343 61.6343 196.321 64.1787 191.216 66.7279C191.035 66.4883 190.859 66.3318 190.678 66.0921C195.925 64.5354 201.166 62.8955 206.412 61.3387C206.657 61.2411 207.155 61.212 207.175 61.5444C209.008 71.5279 210.841 81.5114 212.923 91.4803C212.933 91.6466 212.855 91.7345 212.693 91.8273C207.074 95.5739 201.543 99.3989 195.924 103.146C195.122 103.693 194.32 104.24 193.518 104.787C193.259 104.635 193.078 104.396 192.819 104.244C198.57 101.323 204.316 98.32 210.066 95.3995C210.873 94.9355 211.768 94.5498 212.575 94.0858C212.819 93.9881 213.396 93.8711 213.503 94.2818C214.542 99.2247 215.581 104.168 216.615 109.027C216.737 109.687 215.583 109.921 215.471 109.428Z" fill="#001AAF"/>
<path d="M214.168 132.854C211.669 134.334 209.253 135.809 206.754 137.289C205.463 138.032 204.182 138.94 202.803 139.605C202.558 139.702 201.747 140.083 201.644 139.755C201.551 139.594 201.948 139.237 202.109 139.145C203.376 137.987 204.73 136.907 206.002 135.832C208.467 133.77 211.015 131.704 213.563 129.637C213.72 129.461 214.047 129.359 214.301 129.428C214.384 129.423 214.805 129.482 214.565 129.662C211.063 132.535 207.479 135.413 204.065 138.363C203.669 138.72 203.351 138.989 202.955 139.346C202.876 139.433 202.715 139.526 202.798 139.521C202.554 139.619 201.962 139.487 201.962 139.487C202.04 139.399 202.123 139.394 202.207 139.389C203.498 138.647 204.705 137.909 205.996 137.167C208.495 135.687 210.911 134.212 213.41 132.732C213.566 132.556 214.735 132.571 214.168 132.854Z" fill="#001AAF"/>
<path d="M216.562 152.478C215.252 152.888 213.937 153.215 212.626 153.625C212.465 153.718 212.216 153.733 212.054 153.825C211.893 153.918 211.561 153.938 211.385 153.781C211.209 153.625 211.453 153.527 211.531 153.439C212.827 152.78 214.206 152.116 215.502 151.456C215.663 151.363 215.908 151.266 216.069 151.173C216.314 151.075 216.641 150.973 216.9 151.125C217.159 151.276 216.92 151.457 216.754 151.467C215.458 152.126 214.079 152.79 212.783 153.449C212.622 153.542 212.377 153.64 212.216 153.733C212.04 153.576 211.869 153.503 211.693 153.346C213.003 152.936 214.318 152.609 215.629 152.199C215.79 152.107 216.04 152.092 216.201 151.999C216.367 151.99 216.778 151.882 216.954 152.039C217.056 152.366 216.646 152.474 216.562 152.478Z" fill="#001AAF"/>
<path d="M231.455 120.422L214.794 122.144C215.374 106.349 218.266 91.5868 222.482 78.0818L239.753 79.6599L223.471 75.022C224.25 72.6417 225.111 70.2564 226.061 67.9495L237.994 68.0877L226.859 65.9016C232.835 51.1265 240.522 38.5031 248.535 28.6127L261.537 31.3571L251.504 25.1873C264.177 10.8556 277.434 3.66149 286.188 6.48673C301.062 11.2901 297.08 24.5313 289.381 42.6592L269.943 45.377L287.923 46.2467C281.682 60.7871 273.856 78.1718 271.598 96.6496L258.677 96.7358L271.259 99.4212C271.102 101.015 271.023 102.52 270.949 104.109C270.875 105.698 270.805 107.37 270.648 108.963L260.274 109.819L270.358 112.566C269.037 124.235 265.726 136.102 261.702 147.178L237.098 145.694L259.533 152.892C248.265 181.318 232.801 203.568 232.801 203.568C219.21 176.424 214.227 149.612 214.709 124.984L231.455 120.422Z" fill="url(#paint1_linear_2167_2600)"/>
<path d="M279.195 29.5764C279.033 29.6692 278.955 29.7571 278.632 29.9427C277.992 30.3971 277.429 30.7634 276.872 31.2128C274.637 32.9276 272.573 34.7158 270.602 36.6653C267.442 39.6849 264.546 42.9392 261.831 46.4331C258.177 50.9825 254.958 55.8401 252.003 60.9325C248.284 67.2369 245.167 73.8398 242.475 80.5847C239.205 88.8643 236.614 97.3545 234.698 105.972C232.307 116.452 230.84 127.045 229.964 137.77C229.039 150.499 229.037 163.342 229.783 176.141C230.758 191.428 232.73 206.657 235.524 221.671C238.907 239.653 243.361 257.406 248.632 274.861C250.076 279.614 251.521 284.366 253.132 289.109C253.229 289.353 252.076 289.587 251.978 289.343C245.994 271.095 240.826 252.55 236.818 233.854C233.487 218.204 230.894 202.344 229.465 186.416C228.269 173.06 227.822 159.66 228.376 146.285C228.895 135.164 230.079 124.004 232.109 113.045C233.829 103.938 236.224 94.9589 239.304 86.2734C241.884 79.0347 244.972 71.9332 248.579 65.135C251.515 59.7101 254.793 54.4321 258.51 49.5454C261.372 45.7094 264.415 42.1129 267.721 38.7513C269.922 36.4548 272.299 34.3148 274.769 32.3362C275.884 31.4372 277.077 30.4504 278.285 29.7128C278.368 29.708 278.364 29.6248 278.447 29.62C278.598 29.361 279.679 29.298 279.195 29.5764Z" fill="#001AAF"/>
<path d="M231.303 120.68C225.749 121.254 220.195 121.828 214.641 122.402C214.558 122.406 214.143 122.431 214.216 122.26C214.762 107.301 217.394 92.3869 221.982 78.1097C222.051 77.8555 222.55 77.8264 222.799 77.8119C228.582 78.3086 234.287 78.8933 240.07 79.39C239.83 79.5708 239.673 79.7467 239.434 79.9275C234.008 78.4092 228.583 76.8909 223.152 75.2896C223.069 75.2944 222.898 75.221 222.972 75.05C223.75 72.6696 224.612 70.2844 225.561 67.9774C225.63 67.7233 226.128 67.6942 226.378 67.6797C230.382 67.6964 234.307 67.8011 238.311 67.8178C238.071 67.9985 237.915 68.1745 237.675 68.3552C233.965 67.6543 230.25 66.8702 226.54 66.1692C226.457 66.174 226.286 66.1006 226.359 65.9295C231.836 52.6011 239.015 39.8407 248.113 28.5527C248.265 28.2937 248.763 28.2646 249.018 28.3332C253.324 29.2496 257.63 30.166 262.02 31.0775C261.78 31.2583 261.453 31.3608 261.213 31.5415C257.841 29.4866 254.552 27.4267 251.18 25.3718C251.092 25.2935 251.087 25.2104 251.165 25.1225C257.505 17.9982 264.939 11.0602 273.902 7.45212C280.258 4.91332 287.254 4.75558 292.776 9.35371C298.996 14.4948 297.021 23.5329 294.911 30.2438C294.137 32.7073 293.276 35.0925 292.331 37.4825C291.822 38.7631 291.313 40.0436 290.721 41.329C290.427 42.0133 290.387 42.7661 289.649 42.9759C288.172 43.3956 286.505 43.4094 284.931 43.5846C280.052 44.286 275.085 44.9092 270.206 45.6107C270.279 45.4396 270.353 45.2685 270.426 45.0974C276.449 45.4134 282.383 45.6511 288.406 45.9671C288.489 45.9622 288.826 46.026 288.753 46.1971C283.393 58.6847 277.872 71.2651 274.639 84.4627C273.62 88.4414 272.939 92.484 272.423 96.5168C272.433 96.683 271.856 96.8001 271.773 96.8049C267.437 96.8076 263.189 96.8885 258.852 96.8911C259.009 96.7152 259.165 96.5393 259.322 96.3634C263.545 97.2846 267.681 98.1276 271.904 99.0488C271.987 99.044 272.075 99.1223 272.08 99.2054C271.765 102.393 271.783 105.56 271.469 108.748C271.483 108.997 270.989 109.109 270.823 109.119C267.337 109.405 263.852 109.692 260.449 109.974C260.606 109.798 260.762 109.622 260.919 109.446C264.306 110.333 267.61 111.224 271.003 112.194C271.086 112.189 271.174 112.267 271.183 112.433C269.789 124.273 266.63 135.882 262.527 147.045C262.459 147.299 261.96 147.328 261.711 147.343C254.515 146.929 247.402 146.509 240.206 146.095C239.204 146.07 238.114 145.967 237.112 145.942C237.352 145.761 237.508 145.585 237.748 145.405C244.292 147.525 250.832 149.562 257.294 151.687C258.228 151.966 259.166 152.328 260.1 152.607C260.183 152.602 260.354 152.676 260.28 152.847C253.662 169.494 245.26 185.578 235.466 200.659C234.776 201.7 234.164 202.653 233.474 203.694C233.323 203.953 232.58 204.08 232.394 203.757C222.759 184.388 216.527 163.32 214.768 141.741C214.282 136.265 214.124 130.687 214.303 125.173C214.293 125.007 214.537 124.909 214.699 124.817C220.282 123.324 225.866 121.83 231.449 120.337C231.943 120.225 232.632 120.602 231.806 120.734C226.223 122.227 220.639 123.72 215.055 125.213C215.217 125.12 215.295 125.032 215.452 124.856C215.074 145.559 218.613 166.201 225.828 185.544C228.103 191.665 230.701 197.601 233.543 203.44C233.211 203.459 232.795 203.483 232.463 203.503C239.615 193.162 245.795 181.878 251.31 170.632C254.139 164.796 256.797 158.887 259.2 152.91C259.288 152.988 259.293 153.071 259.381 153.149C252.836 151.029 246.296 148.992 239.834 146.867C238.901 146.588 237.962 146.226 237.029 145.947C236.433 145.731 237.415 145.424 237.665 145.409C244.86 145.824 251.973 146.243 259.169 146.657C260.171 146.682 261.261 146.785 262.263 146.81C262.019 146.908 261.691 147.011 261.447 147.108C265.549 135.945 268.708 124.336 270.103 112.496C270.191 112.575 270.196 112.658 270.284 112.736C266.896 111.85 263.592 110.958 260.2 109.988C259.608 109.856 260.503 109.47 260.669 109.461C264.155 109.174 267.641 108.887 271.043 108.606C270.799 108.703 270.559 108.884 270.398 108.977C270.536 107.051 270.674 105.125 270.728 103.204C270.758 102.285 270.783 101.282 270.896 100.358C270.96 100.021 271.19 99.6742 271.014 99.5177C270.833 99.278 269.831 99.2531 269.577 99.1845C268.731 98.9836 267.973 98.861 267.128 98.6602C264.259 98.077 261.384 97.4106 258.515 96.8274C257.924 96.6951 258.735 96.3142 258.985 96.2997C263.321 96.2971 267.569 96.2161 271.905 96.2135C271.661 96.3111 271.5 96.4039 271.255 96.5015C273.022 82.4722 277.834 69.1825 283.331 56.1866C284.721 52.8533 286.19 49.432 287.663 46.0938C287.751 46.1721 287.839 46.2504 288.01 46.3238C281.987 46.0078 276.052 45.7701 270.03 45.4541C269.443 45.4049 269.918 44.9603 270.25 44.9409C276.703 44.0643 283.24 43.1828 289.689 42.2231C289.527 42.3159 289.366 42.4087 289.204 42.5015C290.888 38.4839 292.572 34.4664 293.914 30.302C294.966 26.9049 295.931 23.4296 296.055 19.8366C296.145 17.0794 295.643 14.19 294.006 11.8671C292.184 9.22139 289.169 7.56263 286.192 6.56871C280.586 4.81082 274.395 7.33993 269.642 10.2022C266.258 12.2341 263.065 14.6719 260.13 17.2613C258.467 18.7759 256.888 20.2857 255.313 21.8786C254.525 22.675 253.826 23.5497 253.033 24.263C252.955 24.351 252.402 24.8835 252.393 24.7173C252.397 24.8004 252.564 24.7908 252.569 24.8739C252.935 25.4362 254.128 25.8671 254.729 26.1656C255.853 26.8506 256.894 27.5404 258.018 28.2254C259.489 29.1403 260.96 30.0552 262.431 30.9701C262.866 31.2783 261.795 31.5076 261.624 31.4341C257.317 30.5178 253.011 29.6014 248.621 28.6898C248.949 28.5873 249.198 28.5728 249.526 28.4703C240.422 39.6752 233.323 52.3477 227.845 65.6761C227.757 65.5978 227.753 65.5147 227.665 65.4365C231.375 66.1375 235.09 66.9215 238.8 67.6225C239.391 67.7548 238.413 68.1454 238.164 68.1599C234.16 68.1432 230.235 68.0385 226.231 68.0218C226.475 67.9242 226.803 67.8217 227.048 67.724C226.098 70.031 225.319 72.4113 224.458 74.7965C224.37 74.7182 224.365 74.6351 224.277 74.5569C229.703 76.0751 235.128 77.5934 240.559 79.1947C241.15 79.327 240.172 79.7176 239.923 79.7322C234.14 79.2354 228.435 78.6507 222.652 78.154C222.897 78.0564 223.224 77.9539 223.469 77.8562C218.964 92.1286 216.321 106.876 215.776 121.835C215.605 121.762 215.434 121.688 215.351 121.693C220.904 121.119 226.458 120.545 232.012 119.971C232.266 120.04 231.796 120.567 231.303 120.68Z" fill="#001AAF"/>
<path d="M177.912 220.442L166.369 231.289L174.882 218.534C166.671 213.592 157.023 209.735 145.585 208.067L142.347 221.182L142.647 207.738C138.531 207.228 134.268 207.059 129.771 207.155C119.363 207.428 108.935 208.787 98.8043 210.962L97.0712 225.573L96.9122 211.406C91.5635 212.635 86.3075 214.025 81.1443 215.577L81.1925 226.415L78.7729 216.383C65.3466 220.668 52.9854 226.059 42.8827 231.568L44.2144 237.244L41.5869 232.227C20.7457 243.783 9.51532 255.695 17.6481 259.307C21.3332 261.01 27.1405 261.923 34.1798 262.513L38.9649 254.479L38.2811 262.774C47.9847 263.292 59.5708 263.201 71.4796 262.923L83.8946 238.433L75.063 262.881C84.7278 262.735 94.3878 262.505 103.314 262.568L116.581 235.526L111.244 262.69C116.088 262.824 120.61 263.144 124.638 263.576C128.749 264.004 133.691 264.383 139.127 264.65L141.964 253.226L142.31 264.881C171.905 266.157 213.556 265.397 213.556 265.397C213.556 265.397 203.852 237.693 177.912 220.442Z" fill="url(#paint2_linear_2167_2600)"/>
<path d="M321.862 465.309C319.474 460.111 317.086 454.913 314.615 449.72C308.706 437.055 302.798 424.391 296.806 411.731C289.388 396.069 281.965 380.324 274.386 364.755C267.457 350.315 260.366 335.968 253.109 321.631C248.591 312.805 244.226 303.72 238.74 295.45C234.627 289.269 229.947 283.371 224.875 277.913C217.585 270.165 209.425 263.219 200.496 257.402C189.222 249.97 176.803 244.357 163.826 240.61C147.368 235.816 130.166 233.984 113.017 234.483C90.5388 235.127 68.1956 239.515 46.7263 246.02C40.4973 247.885 34.2828 249.998 28.2394 252.185C27.6673 252.385 27.1347 251.833 27.785 251.545C50.4871 243.299 74.0534 237.005 98.1848 234.681C116.176 232.881 134.464 233.316 152.183 236.869C166.192 239.722 179.898 244.51 192.477 251.449C202.555 256.949 211.874 263.744 220.176 271.682C226.352 277.493 231.897 283.924 236.885 290.805C241.692 297.446 245.526 304.561 249.281 311.764C256.221 324.952 262.838 338.326 269.377 351.788C277.142 367.68 284.745 383.664 292.349 399.649C298.912 413.526 305.475 427.404 311.955 441.286C315.481 448.836 318.918 456.307 322.444 463.857C322.63 464.18 322.732 464.507 322.918 464.83C323.206 465.48 322.057 465.797 321.862 465.309Z" fill="#001AAF"/>
<path d="M178.336 220.585C174.462 224.23 170.667 227.787 166.793 231.432C166.553 231.612 165.473 231.675 165.864 231.236C168.09 227.937 170.316 224.638 172.459 221.344C172.914 220.567 173.457 219.869 173.912 219.091C173.991 219.004 174.225 218.74 174.216 218.573L174.294 218.485C174.313 218.818 172.842 217.903 172.754 217.825C168.957 215.628 164.93 213.778 160.839 212.265C155.809 210.39 150.565 209.112 145.266 208.336C145.51 208.239 145.838 208.136 146.078 207.956C145 212.355 143.917 216.671 142.839 221.07C142.776 221.407 141.705 221.637 141.681 221.221C141.751 216.714 141.91 212.285 141.981 207.777C142.069 207.856 142.24 207.929 142.328 208.007C127.805 206.352 112.986 208.217 98.7346 211.216C98.8959 211.124 99.0573 211.031 99.2138 210.855C98.6638 215.724 98.0307 220.597 97.4806 225.466C97.4169 225.803 96.3462 226.032 96.3219 225.617C96.295 220.865 96.1899 216.201 96.163 211.45C96.3341 211.523 96.5883 211.592 96.7593 211.665C91.4888 212.806 86.3208 214.275 81.1576 215.827C81.319 215.734 81.3924 215.563 81.5538 215.47C81.5959 219.054 81.6381 222.637 81.602 226.308C81.6262 226.724 80.5555 226.953 80.4482 226.542C79.6677 223.169 78.8042 219.8 78.0286 216.51C78.2828 216.578 78.5369 216.647 78.7911 216.716C66.4306 220.688 54.3777 225.644 42.9791 231.813C43.0574 231.725 43.1309 231.554 43.2091 231.466C43.653 233.358 44.0969 235.25 44.5407 237.142C44.6481 237.553 43.5774 237.782 43.4749 237.454C42.6251 235.753 41.6971 234.139 40.8474 232.437C41.0967 232.423 41.434 232.486 41.6833 232.472C36.9987 235.08 32.49 237.845 28.1669 240.932C24.9685 243.287 21.7798 245.808 19.114 248.715C16.5265 251.534 12.8377 256.92 18.0527 259.117C23.0184 261.33 28.8797 261.738 34.2422 262.176C33.9978 262.274 33.7533 262.371 33.5088 262.469C35.1038 259.791 36.6989 257.113 38.294 254.435C38.4457 254.176 39.4381 254.034 39.3841 254.538C39.1285 257.305 38.9559 260.067 38.7051 262.917C38.5341 262.843 38.3582 262.687 38.2702 262.608C49.3133 263.215 60.391 262.986 71.4687 262.758C71.2242 262.855 71.0628 262.948 70.8183 263.046C74.4054 255.915 78.0706 248.696 81.6577 241.566C82.1813 240.535 82.7049 239.503 83.2285 238.472C83.3754 238.13 84.4558 238.067 84.3186 238.575C81.7338 245.731 79.1489 252.886 76.6423 259.954C76.2849 260.976 75.9275 261.997 75.5701 263.019C75.399 262.945 75.2231 262.789 75.1352 262.71C84.5507 262.578 93.9614 262.363 103.387 262.397C103.142 262.495 102.981 262.588 102.736 262.686C106.612 254.788 110.488 246.89 114.369 239.075C114.887 237.96 115.489 236.841 116.008 235.727C116.155 235.385 117.152 235.327 117.098 235.83C115.559 243.759 114.02 251.687 112.398 259.621C112.211 260.715 111.947 261.898 111.76 262.993C111.589 262.92 111.413 262.763 111.326 262.685C120.599 262.978 129.843 264.191 139.126 264.65C138.882 264.748 138.725 264.924 138.481 265.021C139.426 261.214 140.371 257.406 141.317 253.598C141.381 253.261 142.451 253.031 142.476 253.447C142.62 257.358 142.677 261.191 142.822 265.102C142.651 265.028 142.479 264.955 142.308 264.881C154.598 265.416 166.951 265.613 179.212 265.648C188.803 265.673 198.39 265.614 208.06 265.551C209.893 265.527 211.726 265.504 213.56 265.48C213.32 265.661 213.159 265.754 212.919 265.935C211.625 262.341 209.921 258.854 208.06 255.544C203.767 247.705 198.501 240.34 192.369 233.86C187.84 229.12 182.841 224.909 177.46 221.303C177.025 220.995 178.003 220.604 178.35 220.834C193.363 230.883 205.235 245.702 212.535 262.204C213.023 263.427 213.594 264.644 213.999 265.872C214.102 266.199 213.525 266.316 213.359 266.326C208.113 266.465 202.858 266.438 197.607 266.494C186.021 266.586 174.514 266.589 162.991 266.344C156.064 266.248 149.132 266.068 142.191 265.722C142.024 265.732 141.687 265.668 141.677 265.502C141.533 261.591 141.476 257.758 141.331 253.847C141.747 253.823 142.079 253.804 142.49 253.696C141.545 257.504 140.599 261.312 139.654 265.12C139.585 265.374 139.175 265.481 139.008 265.491C129.725 265.031 120.481 263.819 111.208 263.526C111.042 263.536 110.704 263.472 110.773 263.218C112.312 255.289 113.851 247.361 115.473 239.427C115.66 238.332 115.924 237.149 116.111 236.054C116.448 236.118 116.863 236.094 117.201 236.158C113.325 244.056 109.449 251.954 105.568 259.769C105.049 260.883 104.448 262.002 103.929 263.116C103.855 263.287 103.528 263.39 103.279 263.405C93.8533 263.37 84.4378 263.502 75.0271 263.718C74.8609 263.727 74.4405 263.668 74.5922 263.409C77.177 256.254 79.7619 249.098 82.2685 242.03C82.6259 241.009 82.9833 239.987 83.3407 238.966C83.678 239.03 84.0935 239.005 84.4308 239.069C80.8438 246.2 77.1785 253.418 73.5915 260.549C73.0678 261.58 72.5443 262.611 72.0206 263.643C71.9472 263.814 71.6196 263.916 71.3703 263.931C60.2926 264.16 49.21 264.306 38.1718 263.782C37.9225 263.796 37.6683 263.728 37.7369 263.473C37.9925 260.707 38.1651 257.945 38.4159 255.095C38.7531 255.158 39.1687 255.134 39.506 255.198C37.9109 257.876 36.3158 260.554 34.7208 263.232C34.5691 263.491 34.2366 263.511 33.9873 263.525C28.8789 263.156 23.5115 262.635 18.6532 260.834C16.6932 260.114 14.6307 259.067 14.4168 256.828C14.2811 254.501 15.8173 252.243 17.1381 250.581C19.5448 247.522 22.6456 244.923 25.7608 242.573C30.6318 238.87 35.8643 235.647 41.2775 232.662C41.4389 232.57 42.0158 232.453 42.1134 232.697C42.9632 234.399 43.8911 236.012 44.7409 237.714C44.4133 237.817 44.0026 237.924 43.675 238.026C43.2311 236.134 42.7872 234.242 42.3433 232.35C42.3337 232.184 42.495 232.091 42.5733 232.003C54.0549 225.83 66.1862 220.786 78.6297 216.808C78.8742 216.711 79.2897 216.686 79.3922 217.014C80.1727 220.388 81.0362 223.756 81.8118 227.047C81.4011 227.154 81.0687 227.173 80.658 227.281C80.6158 223.697 80.5737 220.114 80.6098 216.443C80.6001 216.276 80.7566 216.101 81.0059 216.086C86.2474 214.446 91.5865 213.051 96.9352 211.822C97.1015 211.812 97.517 211.788 97.5315 212.037C97.5584 216.789 97.6635 221.453 97.6904 226.204C97.2749 226.228 96.9425 226.248 96.5318 226.355C97.0818 221.486 97.7149 216.613 98.265 211.744C98.2553 211.578 98.5829 211.475 98.7443 211.383C113.162 208.374 128.23 206.494 142.919 208.14C143.002 208.135 143.257 208.203 143.266 208.37C143.196 212.877 143.037 217.306 142.966 221.813C142.551 221.837 142.218 221.857 141.807 221.964C142.885 217.565 143.968 213.249 145.046 208.85C145.114 208.595 145.608 208.483 145.857 208.469C156.294 210.112 166.338 213.612 175.413 219.087C175.501 219.166 175.511 219.332 175.433 219.42C172.595 223.671 169.757 227.923 166.92 232.175C166.582 232.111 166.245 232.047 165.991 231.979C169.865 228.334 173.66 224.777 177.534 221.132C177.72 220.037 178.81 220.14 178.336 220.585Z" fill="#001AAF"/>
<path d="M132.264 152.639L144.882 141.646C132.939 131.335 120.209 123.238 107.433 117.228L96.8079 130.94L104.52 115.897C102.208 114.864 99.8966 113.832 97.5945 112.965L89.5188 121.775L95.4635 112.172C80.6197 106.45 66.1021 103.46 53.4557 102.53L46.6107 113.853L48.9388 102.293C29.8099 101.74 15.4936 106.494 11.5589 114.813C4.96177 128.957 17.3268 135.074 35.8218 141.918L51.0269 129.523L39.3996 143.21C54.307 148.595 72.3429 154.715 87.4088 165.678L96.2864 156.321L89.6714 167.298C90.893 168.227 92.1196 169.24 93.263 170.257C94.4943 171.353 95.7209 172.366 97.0305 173.373L104.792 166.333L99.9087 175.54C109.404 182.492 120.244 188.198 131.104 192.818L146.845 173.888L136.827 195.153C165.249 206.338 192.163 210.273 192.163 210.273C181.58 181.786 165.458 159.877 147.154 143.432L132.264 152.639Z" fill="url(#paint3_linear_2167_2600)"/>
<path d="M33.3319 124.968C34.3147 124.661 35.3903 124.514 36.3827 124.373C39.189 123.876 42.0099 123.628 44.8356 123.463C49.2404 123.207 53.5862 123.37 57.9418 123.7C63.8079 124.192 69.6151 125.104 75.3585 126.354C82.456 127.941 89.5043 130.115 96.2492 132.808C104.529 136.077 112.51 139.948 120.192 144.421C129.429 149.803 138.294 155.957 146.606 162.644C156.575 170.569 165.927 179.363 174.639 188.612C185.212 199.754 194.997 211.692 204.143 224.084C215.095 238.873 225.006 254.39 234.272 270.278C236.773 274.552 239.195 278.914 241.613 283.192C241.803 283.598 240.737 283.911 240.547 283.505C231.316 266.781 221.444 250.511 210.522 234.804C201.421 221.741 191.675 209.051 181.058 197.161C172.219 187.169 162.74 177.631 152.557 168.885C144.128 161.621 135.141 154.807 125.704 148.852C117.91 143.886 109.729 139.443 101.258 135.768C94.24 132.675 86.9182 130.099 79.5472 128.111C73.6181 126.538 67.5422 125.308 61.4171 124.665C56.7146 124.105 52.0314 123.878 47.2845 123.988C44.1215 124.089 40.9634 124.273 37.9029 124.702C36.4949 124.867 35.0135 125.204 33.6103 125.452C33.5272 125.457 33.7765 125.442 33.6103 125.452C33.1996 125.559 32.5105 125.183 33.3319 124.968Z" fill="#001AAF"/>
<path d="M131.838 152.497C136.044 148.833 140.25 145.168 144.456 141.504C144.461 141.587 144.383 141.675 144.387 141.758C133.061 131.995 120.491 123.805 107.022 117.335C107.354 117.316 107.682 117.213 108.014 117.194C104.443 121.738 100.955 126.278 97.389 130.906C97.2325 131.082 96.1569 131.228 96.3037 130.886C97.8794 127.875 99.372 124.869 100.948 121.859C101.848 120.138 102.67 118.506 103.571 116.786C103.644 116.615 104.109 116.004 104.016 115.842C104.021 115.926 102.994 115.485 102.828 115.495C102.232 115.279 101.714 114.976 101.118 114.761C99.837 114.251 98.5564 113.742 97.359 113.229C97.6865 113.126 97.9359 113.111 98.2635 113.009C95.5977 115.916 92.8537 118.912 90.1879 121.819C89.9531 122.083 88.8775 122.229 89.1809 121.711C91.1624 118.51 93.1439 115.309 95.1255 112.108C95.2134 112.186 95.2231 112.352 95.3111 112.431C81.8358 107.295 67.7095 103.866 53.3913 102.866C53.6357 102.769 53.8802 102.671 54.1296 102.657C51.8495 106.459 49.5695 110.261 47.2846 113.98C47.1329 114.239 46.1404 114.38 46.1993 113.96C46.9737 110.079 47.753 106.281 48.5274 102.4C48.6153 102.478 48.7033 102.556 48.8743 102.629C42.2748 102.431 35.543 102.823 29.0452 104.369C24.3565 105.477 19.4524 107.18 15.7207 110.4C12.3852 113.263 10.3198 117.886 10.4887 122.213C10.6672 126.706 13.623 130.203 17.1025 132.668C22.8445 136.753 29.7411 139.186 36.3052 141.639C36.0559 141.653 35.8114 141.751 35.479 141.771C40.575 137.637 45.6711 133.504 50.684 129.376C50.8405 129.2 52.004 129.132 51.6127 129.572C47.7093 134.136 43.8058 138.7 39.9855 143.259C39.8975 143.181 39.8878 143.014 39.7999 142.936C52.5763 147.528 65.519 152.111 77.4144 158.756C81.0359 160.796 84.5007 163.012 87.8922 165.4C87.5597 165.419 87.2322 165.522 86.8998 165.541C89.8883 162.448 92.7889 159.277 95.7774 156.184C96.017 156.003 97.0878 155.774 96.7844 156.292C95.2628 158.799 93.7411 161.306 92.2195 163.813C91.8427 164.502 91.3828 165.196 91.006 165.885C90.776 166.232 90.3065 166.76 90.2476 167.18C90.2573 167.347 92.344 168.809 92.7789 169.118C94.3572 170.443 95.9355 171.769 97.5139 173.094C97.1814 173.114 96.9321 173.128 96.6045 173.231C99.2212 170.91 101.75 168.511 104.366 166.19C104.528 166.098 105.52 165.956 105.373 166.298C104.693 167.506 104.096 168.708 103.416 169.915C102.516 171.635 101.444 173.282 100.71 174.993C100.715 175.076 100.48 175.34 100.485 175.423C100.485 175.423 101.174 175.8 101.262 175.878C101.697 176.186 102.22 176.573 102.655 176.881C104.307 178.035 106.041 179.185 107.771 180.252C111.319 182.463 115.029 184.582 118.728 186.534C122.941 188.707 127.144 190.714 131.504 192.544C131.172 192.564 130.844 192.666 130.512 192.685C135.11 187.164 139.708 181.642 144.223 176.125C144.844 175.338 145.549 174.547 146.17 173.76C146.326 173.584 147.402 173.438 147.255 173.78C144.363 179.953 141.387 186.13 138.5 192.386C138.05 193.247 137.687 194.185 137.237 195.045C137.149 194.967 137.144 194.884 137.056 194.806C153.699 201.34 171.075 206.165 188.687 209.307C189.865 209.489 191.048 209.753 192.226 209.935C191.982 210.032 191.659 210.218 191.415 210.316C183.809 189.995 172.702 171.129 158.088 155.052C154.434 151.013 150.539 147.153 146.406 143.475C146.738 143.456 147.07 143.436 147.403 143.417C142.493 146.455 137.588 149.576 132.678 152.615C132.365 152.966 131.275 152.863 131.838 152.497C136.747 149.459 141.652 146.337 146.562 143.299C146.802 143.118 147.295 143.006 147.559 143.241C162.961 157.103 175.614 173.878 184.946 192.347C187.867 198.097 190.386 204.121 192.656 210.16C192.759 210.488 192.016 210.614 191.845 210.541C179.394 208.682 166.955 205.571 154.979 201.849C148.698 199.964 142.569 197.82 136.425 195.426C136.342 195.431 136.171 195.358 136.245 195.186C139.137 189.014 142.113 182.836 145 176.58C145.45 175.72 145.812 174.781 146.263 173.921C146.595 173.902 147.016 173.961 147.348 173.941C142.75 179.463 138.152 184.985 133.637 190.502C133.015 191.289 132.311 192.08 131.69 192.867C131.455 193.131 131.039 193.155 130.697 193.008C119.749 188.309 109.168 182.755 99.5022 175.73C99.4142 175.652 99.3263 175.574 99.4094 175.569C101.063 172.47 102.639 169.46 104.293 166.361C104.63 166.425 104.963 166.406 105.3 166.469C102.683 168.79 100.155 171.189 97.5381 173.51C97.3816 173.686 96.8047 173.803 96.6288 173.646C94.0975 171.709 91.8009 169.508 89.2696 167.571C89.1817 167.493 89.1768 167.41 89.2551 167.322C91.4617 163.691 93.6635 159.976 95.8702 156.345C96.2074 156.409 96.5399 156.39 96.8772 156.453C93.8886 159.546 90.9881 162.717 87.9995 165.81C87.7599 165.991 87.2709 166.186 87.0071 165.952C75.6013 157.694 62.5174 152.119 49.306 147.219C45.8993 146 42.4925 144.781 39.0809 143.478C38.9099 143.405 38.822 143.327 38.8954 143.156C42.7988 138.592 46.7023 134.028 50.5226 129.469C50.8599 129.532 51.1972 129.596 51.4514 129.665C48.1062 132.362 44.761 135.058 41.4206 137.838C39.8311 139.182 38.1586 140.53 36.5642 141.791C35.8453 142.333 35.4201 142.191 34.4865 141.912C31.9302 140.977 29.4571 140.037 26.9743 138.931C22.7856 137.174 18.4993 135.172 14.8294 132.3C12.2053 130.202 9.96771 127.58 9.35349 124.197C8.65132 120.736 9.75814 116.835 11.5 113.815C13.0951 111.137 15.5649 109.158 18.3082 107.581C27.4282 102.379 38.8972 101.71 49.0849 101.95C49.2511 101.94 49.4222 102.014 49.4319 102.18C48.6575 106.061 47.8782 109.859 47.1038 113.74C46.7714 113.76 46.351 113.701 46.0186 113.72C48.2986 109.918 50.5787 106.116 52.8636 102.397C53.0201 102.221 53.4308 102.114 53.6019 102.187C68.0032 103.182 82.3005 106.685 95.7758 111.82C95.9468 111.893 96.0348 111.971 95.9614 112.143C93.9799 115.344 91.9983 118.545 90.0168 121.746C89.6795 121.682 89.3471 121.701 89.0098 121.638C91.6756 118.73 94.4196 115.735 97.0854 112.828C97.2419 112.652 97.7358 112.539 97.9899 112.608C100.38 113.553 102.692 114.585 105.004 115.618C105.087 115.613 105.179 115.775 105.096 115.779C102.552 120.765 99.9239 125.754 97.3842 130.823C97.0517 130.842 96.6313 130.783 96.2988 130.802C99.8699 126.258 103.358 121.718 106.924 117.091C107.159 116.827 107.657 116.798 107.916 116.949C121.469 123.414 134.122 131.599 145.453 141.446C145.541 141.524 145.385 141.7 145.385 141.7C141.179 145.364 136.973 149.029 132.766 152.693C132.449 152.962 131.363 152.941 131.838 152.497Z" fill="#001AAF"/>
<path d="M239.99 202.479L255.718 200.478L240.452 198.95C241.903 189.525 245.076 179.584 251.002 169.648L263.186 175.526L252.611 167.219C254.828 163.754 257.381 160.353 260.35 156.928C267.15 149.11 274.902 141.903 283.03 135.425L295.418 143.375L284.624 134.164C288.933 130.828 293.417 127.647 297.911 124.634L306.238 131.57L300 123.261C311.898 115.646 323.883 109.526 334.557 105.235L338.162 109.861L335.94 104.654C358.115 95.9391 374.477 94.8183 372.063 103.465C370.956 107.366 368.084 112.453 364.004 118.278L354.746 116.817L361.612 121.587C355.815 129.43 348.326 138.289 340.597 147.329L313.81 141.302L338.259 150.134C332.012 157.419 325.687 164.793 320.086 171.708L290.827 164.741L315.195 177.914C312.25 181.755 309.544 185.415 307.323 188.796C305.107 192.261 302.172 196.268 298.923 200.627L288.284 195.494L296.986 203.159C279.106 226.884 252.09 258.396 252.09 258.396C252.09 258.396 236.709 233.442 239.99 202.479Z" fill="url(#paint4_linear_2167_2600)"/>
<path d="M331.847 460.641C329.293 455.453 326.818 450.177 324.347 444.984C318.36 432.407 312.368 419.748 306.376 407.088C299.051 391.588 291.892 376.077 284.729 360.484C278.415 346.592 272.101 332.7 266.198 318.701C262.814 310.726 259.431 302.751 257.108 294.38C255 286.831 253.542 278.994 252.838 271.196C251.797 260.5 252.081 249.642 253.631 239.045C255.613 225.837 259.531 212.933 265.159 200.763C272.275 185.504 281.966 171.513 293.246 159.014C307.891 142.733 325.013 128.892 343.239 116.822C348.54 113.344 353.851 110.032 359.333 106.794C359.734 106.52 360.672 106.882 360.027 107.254C339.791 119.191 320.416 132.996 303.615 149.487C290.913 161.902 279.642 175.985 271.045 191.58C264.258 203.901 259.191 217.122 256.324 230.882C253.972 242.027 253.13 253.334 253.628 264.729C254.039 273.211 255.286 281.728 257.267 289.951C259.023 297.187 261.513 304.131 264.33 310.971C269.681 324.085 275.438 337.009 281.278 349.927C288.271 365.447 295.424 380.875 302.661 396.297C309.044 409.935 315.504 423.484 321.97 437.117C325.486 444.501 328.997 451.801 332.513 459.185C332.699 459.508 332.801 459.835 332.987 460.158C333.104 460.735 331.955 461.052 331.847 460.641Z" fill="#001AAF"/>
<path d="M239.884 202.069C245.1 201.431 250.312 200.71 255.612 200.068C255.626 200.317 255.641 200.566 255.572 200.821C250.454 200.285 245.424 199.828 240.306 199.292C240.056 199.307 239.797 199.155 239.866 198.901C241.426 188.469 245.102 178.582 250.494 169.511C250.646 169.252 251.057 169.145 251.399 169.292C255.431 171.225 259.463 173.158 263.583 175.169C263.343 175.35 263.025 175.619 262.786 175.799C259.287 173.001 255.71 170.291 252.211 167.493C252.123 167.415 252.03 167.254 252.104 167.082C260.137 154.689 271.127 144.375 282.601 135.2C282.84 135.019 283.251 134.912 283.515 135.147C287.674 137.823 291.745 140.421 295.903 143.097C295.581 143.283 295.258 143.468 295.018 143.649C291.422 140.606 287.825 137.564 284.224 134.438C283.965 134.287 284.117 134.028 284.356 133.847C288.665 130.51 293.066 127.335 297.644 124.316C297.883 124.135 298.216 124.116 298.48 124.351C301.284 126.689 304.001 128.949 306.806 131.287C306.483 131.473 306.156 131.575 305.833 131.761C303.752 128.963 301.676 126.249 299.595 123.452C299.502 123.29 299.653 123.031 299.815 122.939C310.828 115.875 322.397 109.78 334.533 104.82C334.778 104.722 335.11 104.703 335.291 104.942C336.463 106.458 337.641 108.058 338.896 109.569C338.569 109.671 338.163 109.862 337.835 109.964C337.069 108.258 336.385 106.546 335.614 104.757C335.516 104.512 335.673 104.336 335.917 104.239C341.051 102.188 346.283 100.382 351.71 99.0649C355.734 97.9963 359.855 97.1723 364.02 97.0962C368.019 97.0298 374.325 97.913 372.895 103.417C371.46 108.838 367.913 113.798 364.758 118.318C364.606 118.577 364.278 118.68 364.024 118.611C360.91 118.125 357.796 117.64 354.766 117.149C355.001 116.885 355.24 116.705 355.475 116.441C357.738 118.06 360.083 119.675 362.341 121.211C362.429 121.289 362.522 121.45 362.448 121.622C355.795 130.515 348.536 139.028 341.355 147.452C341.199 147.628 340.866 147.647 340.7 147.657C332.84 145.864 325.068 144.149 317.208 142.355C316.108 142.086 315.009 141.816 313.831 141.635C313.982 141.376 314.217 141.112 314.374 140.936C321.529 143.521 328.685 146.106 335.752 148.612C336.774 148.97 337.796 149.327 338.817 149.685C339.071 149.753 339.091 150.086 338.934 150.262C332.844 157.371 326.676 164.569 320.762 171.835C320.605 172.011 320.273 172.031 320.107 172.04C311.567 170.036 303.023 167.95 294.484 165.946C293.301 165.681 292.03 165.338 290.847 165.074C290.999 164.815 291.233 164.551 291.39 164.375C298.452 168.216 305.597 172.052 312.659 175.894C313.691 176.417 314.727 177.024 315.675 177.552C315.846 177.626 316.027 177.865 315.87 178.041C310.21 185.376 305.249 193.254 299.682 200.75C299.53 201.009 299.12 201.117 298.777 200.97C295.258 199.257 291.656 197.549 288.138 195.836C288.377 195.655 288.695 195.387 288.935 195.206C291.837 197.789 294.735 200.288 297.637 202.871C297.725 202.949 297.818 203.111 297.745 203.282C290.309 213.055 282.614 222.677 274.832 232.22C268.678 239.667 262.524 247.114 256.283 254.483C255.113 255.886 253.944 257.288 252.692 258.695C252.457 258.959 251.876 258.993 251.69 258.67C249.663 255.369 248.12 251.79 246.66 248.206C243.247 239.732 240.896 230.863 239.869 221.833C239.075 215.375 239.034 208.956 239.742 202.494C239.796 201.991 240.959 201.923 240.91 202.509C239.117 220.376 242.95 238.916 250.968 254.876C251.535 256.011 252.101 257.145 252.834 258.27C252.502 258.289 252.169 258.309 251.832 258.245C255.188 254.297 258.538 250.265 261.894 246.317C269.3 237.463 276.623 228.613 283.848 219.519C288.202 214.095 292.467 208.593 296.645 203.012C296.655 203.178 296.659 203.262 296.752 203.423C293.85 200.84 290.952 198.341 288.05 195.758C287.61 195.367 288.505 194.981 288.847 195.128C292.366 196.841 295.968 198.549 299.487 200.261C299.159 200.364 298.915 200.461 298.582 200.481C304.149 192.985 309.11 185.107 314.77 177.772C314.863 177.933 314.873 178.099 314.966 178.261C307.903 174.42 300.758 170.583 293.696 166.742C292.665 166.219 291.629 165.612 290.681 165.083C290.08 164.785 290.882 164.238 291.224 164.385C299.763 166.388 308.307 168.475 316.847 170.479C318.03 170.744 319.3 171.087 320.483 171.351C320.239 171.449 320.073 171.459 319.828 171.556C325.737 164.207 331.911 157.092 338 149.982C338.01 150.149 338.103 150.31 338.118 150.559C330.962 147.974 323.806 145.39 316.739 142.883C315.717 142.526 314.696 142.168 313.674 141.811C313.078 141.595 313.875 140.965 314.217 141.112C322.077 142.905 329.849 144.62 337.709 146.414C338.809 146.683 339.909 146.952 341.087 147.134C340.842 147.232 340.676 147.241 340.431 147.339C347.612 138.915 354.798 130.573 361.368 121.685C361.378 121.851 361.382 121.934 361.475 122.095C359.213 120.476 356.867 118.861 354.609 117.325C354.086 116.939 354.986 116.636 355.318 116.617C358.432 117.102 361.546 117.588 364.577 118.078C364.332 118.176 364.088 118.274 363.843 118.371C366.691 114.286 369.611 110.029 371.339 105.342C372.064 103.465 372.681 101.178 371.01 99.6907C369.339 98.2037 366.499 98.1192 364.416 98.1572C360.666 98.2091 356.872 98.9306 353.254 99.8087C347.578 101.14 342.024 103.132 336.557 105.202C336.63 105.031 336.787 104.855 336.86 104.684C337.627 106.391 338.31 108.102 339.082 109.891C339.282 110.464 338.295 110.688 338.021 110.287C336.849 108.771 335.671 107.172 334.416 105.66C334.67 105.729 334.919 105.714 335.173 105.783C323.115 110.656 311.629 116.746 300.699 123.804C300.773 123.633 300.846 123.462 300.92 123.291C303.001 126.088 305.077 128.803 307.158 131.6C307.52 132.079 306.449 132.308 306.185 132.074C303.38 129.735 300.663 127.476 297.858 125.137C298.108 125.123 298.357 125.108 298.694 125.172C294.117 128.191 289.716 131.366 285.407 134.703C285.48 134.532 285.471 134.366 285.539 134.111C289.136 137.154 292.732 140.197 296.333 143.322C296.861 143.792 295.795 144.104 295.448 143.874C291.29 141.198 287.219 138.6 283.06 135.924C283.392 135.904 283.642 135.89 283.974 135.87C272.579 144.957 261.672 155.267 253.634 167.577C253.624 167.411 253.619 167.328 253.526 167.166C257.025 169.964 260.602 172.675 264.101 175.473C264.624 175.859 263.646 176.25 263.304 176.103C259.272 174.17 255.24 172.237 251.12 170.225C251.447 170.123 251.692 170.025 252.024 170.006C246.71 178.988 243.117 188.871 241.552 199.22C241.376 199.063 241.205 198.99 241.113 198.828C246.231 199.364 251.261 199.821 256.379 200.357C256.965 200.406 257.004 201.071 256.339 201.109C251.123 201.747 245.911 202.468 240.612 203.11C239.35 202.934 239.224 202.191 239.884 202.069Z" fill="#001AAF"/>
<path d="M210.942 233.444C198.489 217.242 188.156 204.502 188.156 204.502C195.31 211.34 203.17 221.722 210.942 233.444Z" fill="#001AAF"/>
<path d="M267.489 319.376C282.268 346.868 314.436 410.871 340.3 462.567L322.848 470.756C300.042 414.296 246.937 291.555 204.516 259.087C204.516 259.087 238.618 280.448 258.383 317.656C258.383 317.656 234.791 269.163 210.855 233.366C223.669 250.048 238.872 270.51 247.615 284.593C247.615 284.593 249.693 237.273 260.714 214.615C260.802 214.693 240.833 269.812 267.489 319.376Z" fill="#001AAF"/>
<defs>
<linearGradient id="paint0_linear_2167_2600" x1="238.418" y1="201.002" x2="159.454" y2="33.4282" gradientUnits="userSpaceOnUse">
<stop stop-color="#009AE5"/>
<stop offset="0.9851" stop-color="#FF89C9"/>
</linearGradient>
<linearGradient id="paint1_linear_2167_2600" x1="294.877" y1="174.132" x2="226.841" y2="29.7434" gradientUnits="userSpaceOnUse">
<stop stop-color="#009AE5"/>
<stop offset="0.9851" stop-color="#FF89C9"/>
</linearGradient>
<linearGradient id="paint2_linear_2167_2600" x1="133.985" y1="302.734" x2="89.7801" y2="208.924" gradientUnits="userSpaceOnUse">
<stop stop-color="#009AE5"/>
<stop offset="0.9851" stop-color="#FF89C9"/>
</linearGradient>
<linearGradient id="paint3_linear_2167_2600" x1="134.288" y1="237.493" x2="63.2277" y2="86.6944" gradientUnits="userSpaceOnUse">
<stop stop-color="#009AE5"/>
<stop offset="0.9851" stop-color="#FF89C9"/>
</linearGradient>
<linearGradient id="paint4_linear_2167_2600" x1="331.385" y1="221" x2="287.182" y2="127.194" gradientUnits="userSpaceOnUse">
<stop stop-color="#009AE5"/>
<stop offset="0.9851" stop-color="#FF89C9"/>
</linearGradient>
</defs>
</svg>
