<svg width="187" height="483" viewBox="0 0 187 483" fill="none" xmlns="http://www.w3.org/2000/svg">
<g clip-path="url(#clip0_2167_2489)">
<path d="M24.6571 436.579L25.3697 437.007C21.6639 444.559 18.1007 452.253 14.6799 459.947L19.811 493.146L179.73 488.017L181.726 455.103C180.87 453.25 180.015 451.255 179.16 449.261C176.31 442.706 173.031 435.439 169.611 430.025C169.611 430.025 169.611 430.025 169.611 429.882C168.185 429.882 166.332 429.882 164.479 429.882C163.054 429.882 161.771 429.74 160.631 429.74C160.346 429.74 160.061 429.597 159.919 429.312C159.776 429.028 159.633 428.743 159.776 428.458C171.463 391.411 174.029 353.082 167.33 317.461C167.33 317.176 167.33 316.891 167.473 316.748C166.76 312.474 165.05 306.062 162.769 298.368C157.923 281.839 151.082 266.166 142.387 251.775C141.96 251.775 141.532 251.347 141.675 250.777C141.96 244.793 143.242 238.666 144.383 232.824C144.953 230.117 145.523 227.267 145.951 224.417C146.093 223.99 146.521 223.562 146.948 223.705C171.891 221.71 184.861 214.158 185.859 210.739C185.859 210.596 186.002 210.454 186.002 210.311C184.719 204.612 183.579 199.482 182.581 194.495C174.599 158.446 171.178 143.485 126.424 127.099C126.424 127.099 126.281 127.099 126.281 126.957C122.433 124.392 121.72 117.98 121.008 111.711C120.438 106.154 119.867 100.882 116.874 98.7443C115.592 97.7469 114.024 97.6044 112.028 97.8894C107.325 98.4594 102.479 98.3169 97.9178 98.0319C95.9223 98.3169 94.0694 98.3169 92.074 98.3169C88.9383 98.3169 85.5176 98.3169 82.2394 98.8868C80.6716 99.1718 79.2463 99.7417 77.821 100.312C76.6807 100.882 75.5405 101.309 74.2577 101.594C74.4002 105.299 74.1152 109.003 73.4025 112.566C73.1175 113.705 72.9749 114.988 72.1197 115.843C71.2646 116.84 70.1243 117.268 68.699 117.695C60.8598 120.117 52.7356 122.682 45.324 126.387C21.0938 138.356 9.69138 162.151 0.854492 183.524C1.13955 183.666 1.28208 183.809 1.28208 184.094C4.84535 194.638 21.3789 202.332 30.7859 204.754C31.2135 204.897 31.4985 205.182 31.4985 205.609C32.3537 216.723 36.4871 227.694 40.3354 238.381C42.1883 243.225 43.6136 247.358 44.8964 251.632C45.0389 251.917 44.8964 252.345 44.7539 252.487C36.6296 271.723 30.6434 290.816 26.795 309.054C25.6548 313.614 24.6571 317.888 23.8019 321.308C24.087 321.45 24.372 321.878 24.372 322.305C18.2432 361.774 21.949 398.678 35.7745 435.154C35.917 435.439 35.7745 435.724 35.6319 436.009C35.4894 436.294 35.2043 436.437 34.9193 436.437C33.494 436.579 32.0687 436.579 30.6434 436.722C28.7905 436.864 26.9376 437.007 25.2272 437.149L24.6571 436.579Z" fill="#32F0F0"/>
<path d="M142.672 265.453C142.245 265.453 141.817 265.168 141.817 264.74C139.109 254.339 141.247 243.367 143.385 232.823C144.24 228.691 145.095 224.417 145.666 220.285C145.666 219.857 146.236 219.43 146.663 219.43C147.091 219.43 147.518 220 147.518 220.427C146.948 224.559 146.093 228.976 145.238 233.108C143.1 243.51 140.962 254.196 143.67 264.17C143.813 264.598 143.528 265.168 142.957 265.31C142.815 265.453 142.815 265.453 142.672 265.453Z" fill="#0C3ACF"/>
<path d="M155.358 442.279C155.215 442.279 155.073 442.279 155.073 442.279C154.645 442.137 154.36 441.567 154.502 441.139C179.018 375.168 174.314 306.49 141.675 252.63C141.39 252.202 141.532 251.632 141.96 251.347C142.387 251.063 142.957 251.205 143.243 251.632C160.061 279.417 169.611 310.622 171.606 344.391C173.459 376.165 168.185 409.935 156.355 441.852C156.07 441.994 155.643 442.279 155.358 442.279Z" fill="#0C3ACF"/>
<path d="M48.0323 263.885C47.6047 263.885 47.1771 263.6 47.1771 263.173C45.6093 255.051 42.4736 246.787 39.623 238.665C35.6321 227.694 31.4987 216.295 30.6436 204.896C30.6436 204.326 30.9286 203.898 31.4987 203.898C32.0689 203.898 32.4964 204.183 32.4964 204.753C33.2091 215.867 37.3425 227.124 41.3333 237.953C44.3265 246.074 47.3196 254.481 49.03 262.745C49.1725 263.173 48.7449 263.743 48.3173 263.743C48.1748 263.885 48.1748 263.885 48.0323 263.885Z" fill="#0C3ACF"/>
<path d="M123.431 242.513C120.153 242.655 116.59 242.085 113.312 240.803C103.62 237.241 97.2058 228.976 96.3506 219.287C96.3506 218.717 96.6356 218.29 97.2058 218.29C97.7759 218.29 98.2035 218.575 98.2035 219.145C98.9161 228.121 104.902 235.673 113.882 239.093C122.576 242.37 131.841 240.518 138.112 234.391C138.112 234.391 138.112 234.391 138.255 234.248C143.671 230.116 145.096 223.277 146.379 216.723C147.947 209.028 149.514 200.907 157.639 197.202C158.066 197.059 158.636 197.202 158.779 197.629C158.921 198.057 158.779 198.627 158.351 198.769C151.082 202.189 149.657 209.456 148.089 217.007C146.664 223.989 145.239 231.114 139.252 235.673C134.976 240.09 129.418 242.37 123.431 242.513Z" fill="#0C3ACF"/>
<path d="M67.7017 237.668C58.0096 237.953 47.4624 233.393 44.0417 223.846C42.0462 218.859 41.6186 213.017 41.3336 207.603C40.7635 199.196 40.3359 191.36 34.4921 185.518C34.2071 185.233 34.2071 184.52 34.4921 184.235C34.7772 183.95 35.4898 183.95 35.7749 184.235C42.0462 190.647 42.6164 199.196 43.0439 207.603C43.329 213.017 43.7566 218.574 45.6095 223.419C49.4578 233.82 62.143 237.668 72.4052 235.53C82.0973 233.393 87.3709 226.839 86.6583 217.862C86.6583 217.292 86.9433 216.865 87.5135 216.865C87.9411 216.865 88.5112 217.15 88.5112 217.719C89.3664 229.403 80.9571 235.53 72.8328 237.24C71.1224 237.383 69.4121 237.668 67.7017 237.668Z" fill="#0C3ACF"/>
<path d="M124.001 273.006C123.859 273.006 123.859 273.006 123.716 273.006C98.2034 264.884 93.6425 266.166 82.6676 269.444C77.394 271.011 70.9801 273.006 60.2903 274.573C59.8627 274.716 59.2926 274.288 59.2926 273.861C59.1501 273.433 59.5777 272.863 60.0053 272.863C70.5525 271.296 76.9664 269.301 82.0975 267.734C93.4999 264.314 98.2034 262.889 124.287 271.296C124.714 271.438 124.999 272.008 124.857 272.436C124.714 272.721 124.287 273.006 124.001 273.006Z" fill="#0C3ACF"/>
<path d="M96.7779 291.386C94.6399 291.386 92.2169 290.959 90.2215 289.534C89.7939 289.249 89.6513 288.679 89.9364 288.252C90.2215 287.824 90.7916 287.682 91.2192 287.967C94.2123 289.961 97.4905 289.534 98.4882 289.249C99.3434 289.107 100.056 288.822 100.341 288.537C99.6285 288.394 98.2032 288.252 94.925 288.679C94.4974 288.822 93.9272 288.394 93.9272 287.967C93.9272 287.539 94.2123 286.969 94.6399 286.969C100.911 286.114 102.051 287.112 102.337 287.967C102.479 288.252 102.622 289.107 101.624 289.819C100.911 290.531 99.0583 291.244 96.7779 291.386Z" fill="#0C3ACF"/>
<path d="M99.2014 373.314C118.871 351.228 142.246 331.708 167.474 317.032C166.476 311.475 164.195 303.638 162.057 296.656C155.216 299.506 148.232 302.356 141.105 304.208C128.278 307.628 114.595 309.622 101.339 310.192C89.6519 310.762 77.3942 310.05 65.8493 307.2C53.4491 305.205 41.4766 301.643 30.0741 296.514C27.7936 305.348 25.5131 314.609 23.9453 321.164C52.7365 331.423 76.8241 352.938 99.2014 373.314Z" fill="#FF85C8"/>
<path d="M99.2011 374.17C98.9161 374.17 98.631 374.027 98.4885 373.742C78.2492 355.361 53.1638 332.421 23.8025 322.02C23.3749 321.877 23.0899 321.45 23.2324 321.022C24.6577 314.753 26.9382 305.206 29.3612 296.372C29.3612 296.087 29.6463 295.945 29.7888 295.802C30.0739 295.66 30.3589 295.66 30.5014 295.802C42.0464 300.932 54.019 304.494 66.1341 306.346C66.1341 306.346 66.1341 306.346 66.2766 306.346C76.5388 308.911 88.3688 309.908 101.482 309.338C115.165 308.768 128.705 306.631 140.963 303.354C147.662 301.502 154.218 298.937 160.632 296.372L161.915 295.802C162.2 295.66 162.485 295.66 162.627 295.802C162.912 295.945 163.055 296.087 163.055 296.372C165.763 305.064 167.616 312.046 168.471 316.748C168.471 317.175 168.328 317.46 168.043 317.745C143.528 331.994 120.011 351.372 100.056 373.742C99.7713 374.027 99.4862 374.17 99.2011 374.17ZM25.0853 320.595C54.1615 331.139 79.1043 353.652 99.2011 371.89C119.013 349.804 142.245 330.569 166.476 316.463C165.62 312.046 163.91 305.634 161.487 297.797L161.202 297.939C154.788 300.504 148.232 303.211 141.39 305.064C128.99 308.341 115.165 310.478 101.482 311.191C88.2263 311.761 76.2537 310.763 65.7065 308.198C53.8764 306.346 42.0464 302.926 30.644 297.939C28.506 306.061 26.5106 314.61 25.0853 320.595Z" fill="#0C3ACF"/>
<path d="M165.335 316.605C165.763 315.892 165.905 315.037 165.763 314.325C165.62 313.185 164.765 312.045 163.482 312.615C163.054 312.758 162.912 313.185 162.484 313.328C161.202 313.897 160.204 313.043 159.349 312.33C158.636 311.618 157.781 310.478 156.783 310.335C155.5 310.05 154.93 311.19 154.93 312.33C154.788 312.9 154.93 313.612 155.358 314.182C155.928 314.895 157.068 315.18 157.496 316.035C158.351 317.745 155.5 319.597 154.645 320.594C153.932 321.592 153.647 323.159 154.36 324.156C157.353 322.162 160.489 320.167 163.482 318.315C163.482 318.315 163.482 318.315 163.482 318.172C164.052 317.602 164.907 317.46 165.335 316.605Z" fill="#0C3ACF"/>
<path d="M134.406 335.414C133.836 335.556 133.266 335.699 132.838 335.841C130.415 336.696 129.275 339.831 129.702 342.396C132.553 339.973 135.546 337.551 138.539 335.271C137.257 335.129 135.831 335.129 134.406 335.414Z" fill="#0C3ACF"/>
<path d="M144.241 322.733C144.526 324.443 145.808 324.015 147.234 324.3C148.374 324.443 149.799 326.01 150.797 324.585C151.367 323.73 150.94 322.733 150.369 322.02C150.369 321.878 150.369 321.735 150.369 321.735C149.657 319.455 150.369 317.318 150.084 315.038C149.799 313.614 149.087 312.331 147.661 311.904C146.521 311.619 145.096 311.904 144.526 313.186C144.098 314.611 144.953 315.893 145.523 317.033C146.236 319.313 143.956 320.595 144.241 322.733Z" fill="#0C3ACF"/>
<path d="M142.673 325.011C139.537 323.871 137.969 327.291 139.68 329.713C140.392 330.853 141.533 331.566 142.673 332.42C143.956 331.423 145.238 330.568 146.521 329.713C146.379 329.428 146.379 329.143 146.236 328.858C145.524 327.149 144.241 325.581 142.673 325.011Z" fill="#0C3ACF"/>
<path d="M142.673 306.062C141.676 307.202 140.963 308.627 141.818 309.909C142.388 310.906 143.528 311.334 144.526 310.764C145.096 310.337 145.381 309.767 145.666 309.054C146.094 307.914 146.522 306.917 147.377 305.919C148.374 304.922 149.657 303.782 149.942 302.215C148.089 302.927 146.094 303.497 144.241 304.067C143.671 304.922 143.101 305.492 142.673 306.062Z" fill="#0C3ACF"/>
<path d="M157.211 301.217C157.497 301.787 158.209 302.357 158.922 302.357C159.349 302.357 159.492 302.072 159.777 301.929L160.062 301.644C160.205 302.072 160.49 302.499 160.632 302.926C160.632 303.211 159.634 303.781 159.492 303.924C158.779 304.636 158.067 305.491 158.352 306.489C158.637 307.486 159.634 308.056 160.49 308.056C161.63 308.056 162.628 307.201 163.34 306.346C163.483 306.204 163.625 306.061 163.625 305.919C162.913 303.496 162.2 300.789 161.345 297.939L161.06 298.082C159.92 298.509 158.922 298.937 157.782 299.364C157.354 299.792 156.926 300.504 157.211 301.217Z" fill="#0C3ACF"/>
<path d="M69.1269 308.911C67.9866 308.626 66.8464 308.341 65.7061 308.056C64.8509 307.914 63.8532 307.771 62.998 307.629C63.7107 308.056 64.4233 308.484 65.2785 308.626C66.5613 309.054 67.8441 309.054 69.1269 308.911Z" fill="#0C3ACF"/>
<path d="M99.4862 314.326C99.7713 315.608 100.912 317.033 102.337 316.748C103.62 316.606 104.19 315.324 104.332 314.041C104.332 313.186 104.19 312.474 103.905 311.761C103.762 311.619 103.762 311.334 103.62 311.191C102.907 311.191 102.052 311.334 101.339 311.334C100.769 311.334 100.199 311.334 99.6288 311.334C99.4862 312.331 99.2012 313.329 99.4862 314.326Z" fill="#0C3ACF"/>
<path d="M94.3554 311.334C93.3577 311.334 92.36 311.334 91.3623 311.334C91.7899 311.761 92.36 311.904 92.9301 311.904C93.5003 311.904 93.9279 311.619 94.3554 311.334Z" fill="#0C3ACF"/>
<path d="M133.694 311.618C133.836 311.76 133.979 312.045 134.264 312.188C135.689 313.327 136.402 312.045 137.542 311.333C138.54 310.62 140.535 310.905 140.393 309.195C140.25 308.198 139.252 307.628 138.397 307.628C138.397 307.486 138.255 307.486 138.255 307.343C137.685 307.058 137.257 306.631 136.829 306.203C135.119 306.631 133.551 306.916 131.841 307.343C133.124 308.483 132.696 310.335 133.694 311.618Z" fill="#0C3ACF"/>
<path d="M123.431 336.125C124.856 336.41 126.852 335.697 126.994 334.13C127.137 333.56 126.852 332.848 126.567 332.278C126.424 331.993 126.139 331.85 125.854 331.708C125.569 331.565 124.999 331.708 124.714 331.565C124.144 331.28 124.429 331.28 124.571 330.853C124.856 329.713 125.569 329.713 126.567 329.713C128.135 329.713 127.565 329.998 128.562 330.425C129.275 330.71 130.13 330.283 130.7 329.855C131.698 329.001 132.268 327.576 132.126 326.151C132.268 326.293 132.411 326.293 132.411 326.151C133.551 325.296 133.551 323.159 132.126 322.446C131.555 322.161 130.843 322.161 130.415 322.446C129.56 322.874 129.56 324.583 128.562 323.871C127.85 323.444 127.707 322.731 126.852 322.589C125.997 322.304 124.999 322.446 124.286 322.731C122.433 323.586 122.291 325.296 122.291 327.148C122.291 327.861 122.291 328.716 121.863 329.428C121.436 330.14 120.581 330.283 120.01 330.71C119.44 331.138 119.155 331.708 119.155 332.42C119.583 333.845 121.863 335.697 123.431 336.125Z" fill="#0C3ACF"/>
<path d="M123.717 319.597C125.712 320.025 127.993 319.455 129.988 319.312C131.556 319.312 132.981 319.455 133.979 320.167C134.692 320.595 135.404 321.307 135.832 322.162C136.259 322.447 136.687 322.59 137.257 322.305C137.257 322.305 137.257 322.305 137.4 322.305C138.255 319.74 136.83 316.89 134.121 316.035H133.979C133.124 315.75 132.411 315.893 131.556 315.893C129.988 315.893 129.275 315.038 128.135 314.325C126.567 313.47 124.572 313.185 123.004 313.898C119.726 315.323 120.866 318.885 123.717 319.597Z" fill="#0C3ACF"/>
<path d="M112.457 320.168C112.314 321.878 112.029 323.873 113.454 325.155C114.31 326.01 115.592 326.295 116.59 325.44C116.733 325.298 117.018 325.013 117.018 324.87C117.873 324.728 118.015 323.73 117.73 322.875C117.445 322.163 116.875 321.735 116.447 321.165C115.592 319.883 115.877 318.458 115.877 317.033C115.877 315.608 115.45 314.041 114.024 313.471C113.027 313.044 111.744 313.471 111.459 314.611C111.174 315.324 111.459 316.036 111.744 316.606C112.172 317.888 112.457 318.886 112.457 320.168Z" fill="#0C3ACF"/>
<path d="M104.332 331.282C104.617 332.421 105.472 333.704 104.047 334.416C103.192 334.986 102.194 334.986 101.482 335.841C100.911 336.554 100.911 337.693 101.339 338.548C102.622 341.113 105.615 339.261 107.183 337.978C107.468 337.693 108.038 337.123 108.323 337.123C109.606 337.123 108.893 338.121 108.893 338.691C108.893 339.118 108.751 339.546 109.036 339.973C109.321 340.543 110.033 340.971 110.746 340.971C110.889 340.971 111.031 340.828 111.174 340.971C111.174 340.971 111.316 340.971 111.316 340.828C111.459 340.686 111.459 340.686 111.601 340.543C111.744 340.258 111.886 340.116 111.886 339.831C112.029 339.261 111.886 338.691 112.456 338.406C113.169 337.978 113.597 338.691 113.739 339.261C113.739 339.831 113.597 340.401 113.454 340.971C113.739 342.253 114.024 343.535 115.022 344.248C115.877 344.818 116.732 344.818 117.445 344.39C117.73 343.678 117.445 342.823 117.587 341.968C117.587 340.828 118.3 339.546 118.158 338.548C117.873 336.981 117.16 335.699 115.449 334.844C114.879 334.559 114.167 334.416 113.597 334.131C111.601 332.991 112.314 332.136 112.599 330.712C112.741 329.999 112.599 329.144 111.886 328.717C111.316 328.432 110.461 328.574 109.891 329.002C109.606 329.287 109.748 329.572 109.463 329.857V330.284C109.036 330.142 108.608 329.857 108.18 329.714C108.038 329.429 108.323 328.432 108.323 328.147C108.466 327.149 108.323 326.01 107.468 325.44C106.613 324.87 105.615 325.155 104.902 325.725C104.047 326.579 103.905 327.862 103.905 329.002C103.905 329.572 104.047 330.427 104.332 331.282Z" fill="#0C3ACF"/>
<path d="M123.859 341.255C122.861 340.685 121.721 341.255 121.151 342.11C120.01 343.962 121.578 345.814 121.863 347.667C122.006 348.237 122.006 348.807 121.863 349.377C123.003 348.379 124.001 347.382 125.141 346.527C124.999 346.242 124.999 345.957 124.856 345.672C124.571 344.247 125.284 342.11 123.859 341.255Z" fill="#0C3ACF"/>
<path d="M112.171 348.237C110.603 347.382 107.61 347.382 106.042 348.237C104.474 348.95 103.904 351.087 105.615 351.942C106.042 352.227 106.612 352.227 107.182 352.227C108.75 352.369 109.891 353.367 108.75 354.934C107.895 355.931 106.042 356.501 105.044 355.646C104.189 355.076 103.904 354.079 103.619 353.224C103.334 352.369 103.049 351.514 102.764 350.802C102.479 349.804 102.764 349.235 102.907 348.237C103.049 347.525 103.049 346.955 102.479 346.385C101.054 345.102 99.3433 346.527 98.9157 347.952C98.3456 350.232 98.4881 353.224 99.0582 355.504C99.7709 358.211 101.481 360.206 104.189 360.918C105.757 361.346 107.182 361.203 108.75 361.061C109.178 361.061 109.463 360.918 109.891 360.918C111.173 359.636 112.599 358.211 113.881 356.929C114.024 356.359 114.024 355.789 114.024 355.219C113.881 352.939 114.451 349.52 112.171 348.237Z" fill="#0C3ACF"/>
<path d="M81.9553 337.977C82.5254 339.26 83.9507 339.972 84.2357 341.254C84.5208 342.394 83.9507 343.534 84.5208 344.674C85.2335 346.384 87.0864 346.811 88.6542 346.099C89.5094 348.949 84.9484 351.656 87.2289 354.506C87.799 355.218 88.5117 355.503 89.3669 355.503C89.3669 355.645 89.5094 355.645 89.6519 355.645C91.5048 355.93 92.5025 353.936 93.2152 352.511C93.5002 351.798 93.7853 350.943 93.6428 350.231C93.6428 349.946 93.5002 349.661 93.3577 349.519C92.7876 348.664 92.2175 348.236 92.5025 347.096C92.7876 345.956 93.3577 345.101 93.3577 343.962C93.3577 343.107 93.0726 342.252 92.5025 341.539C91.9324 340.827 91.2197 340.542 90.3646 340.257C89.937 340.257 89.3668 340.257 89.0818 340.114C88.0841 339.687 88.5117 338.975 88.5117 338.262C88.3691 337.265 86.9438 336.695 87.9415 335.555C88.5117 334.842 89.0818 334.985 89.3669 333.988C89.7944 332.42 88.6542 331.138 87.2289 330.71C82.8104 329.855 80.53 334.842 81.9553 337.977Z" fill="#0C3ACF"/>
<path d="M91.9316 329.143C91.219 332.278 92.3592 338.547 96.6351 338.405C96.7777 338.405 97.0627 338.262 97.0627 338.12C97.2053 337.692 97.4903 337.265 97.4903 336.837C98.0604 336.553 98.6306 336.125 98.7731 335.27C99.0582 332.99 96.4926 331.566 97.0627 329.286C97.4903 327.576 98.7731 327.291 100.198 327.006C101.196 326.721 101.624 325.866 102.479 325.439C103.477 324.869 104.189 324.441 103.762 323.159C103.334 321.734 102.051 321.449 100.769 321.591C98.7731 322.019 96.6351 323.301 95.0673 324.584C93.4995 325.724 92.3592 327.291 91.9316 329.143Z" fill="#0C3ACF"/>
<path d="M57.1542 333.133C57.0116 333.988 57.1542 334.843 57.8668 335.413C58.1519 335.698 58.5795 335.84 58.8645 335.84C59.0071 335.84 59.5772 335.698 59.5772 335.698C60.5749 335.983 60.2898 336.268 60.4324 336.695C60.7174 337.55 61.5726 338.263 62.4278 338.12C63.283 337.693 63.8531 336.695 63.9956 335.555C63.8531 334.273 63.1404 332.848 62.1427 332.136C60.86 331.138 57.7243 330.853 57.1542 333.133Z" fill="#0C3ACF"/>
<path d="M85.8033 325.44C87.3711 326.295 89.224 325.013 90.0792 323.588C90.6493 322.59 90.6493 321.308 90.5068 320.168C90.5068 320.026 89.9367 318.173 89.9367 318.173C90.5068 317.888 91.2194 319.028 91.5045 319.171C92.7873 320.168 94.4976 319.741 95.3528 318.458C95.4954 318.173 95.6379 317.888 95.6379 317.603C95.6379 317.034 95.4954 316.321 95.2103 315.894C94.7827 314.896 93.9275 314.184 93.0723 313.756C92.7873 313.614 92.5022 313.614 92.3597 313.614C90.3643 313.329 87.6562 313.614 86.3734 315.324C85.8033 316.036 85.5182 316.891 85.5182 317.888C85.6608 319.028 86.6585 320.026 86.2309 321.166C85.9458 322.163 84.5205 322.59 84.5205 323.73C84.663 324.585 85.2332 325.155 85.8033 325.44Z" fill="#0C3ACF"/>
<path d="M74.8283 316.035C75.9685 317.317 76.6812 318.172 76.1111 320.025C75.5409 321.734 75.1133 323.159 76.2536 324.727C76.9662 325.724 78.8191 328.431 80.2444 327.719C82.0973 326.864 81.0996 324.869 80.5295 323.729C79.2467 320.88 81.2422 318.03 80.672 315.18C80.387 314.04 79.6743 313.043 78.6766 312.615C77.8214 310.051 72.9754 310.906 73.5455 314.183C73.8306 314.895 74.4007 315.465 74.8283 316.035Z" fill="#0C3ACF"/>
<path d="M78.2495 350.944C79.3897 351.514 81.1001 351.656 81.8127 350.374C81.9553 350.374 81.9553 350.231 82.0978 350.231C83.238 349.234 82.5254 347.667 81.6702 346.669C80.9576 345.957 79.9598 345.387 79.2472 344.817C78.392 344.104 77.5368 343.107 76.6816 342.395C75.2563 341.112 73.546 339.83 71.5505 339.687C69.6976 339.545 68.2723 340.4 66.847 341.54C66.2769 341.967 65.5643 342.537 64.9941 343.25C66.7045 344.532 68.4149 345.814 70.1252 347.239C71.123 346.812 71.9781 346.527 72.5483 346.527C75.3989 346.242 75.969 349.804 78.2495 350.944Z" fill="#0C3ACF"/>
<path d="M65.421 325.298C65.8486 326.01 66.5612 326.58 67.2739 326.865C67.7015 327.15 68.4141 327.292 68.6992 327.577C69.5544 328.432 69.2693 329.002 68.9842 329.857C68.6992 330.57 68.5566 331.425 68.8417 332.279C69.2693 333.847 70.8371 334.987 72.405 334.132C73.4027 333.704 73.9728 332.564 73.6877 331.567C74.4004 330.57 74.5429 329.287 74.2579 328.005C74.1153 327.292 73.8303 326.58 73.4027 326.01C72.5475 324.87 71.1222 324.443 70.6946 323.018C69.9819 320.453 72.1199 314.326 67.5589 314.326C65.8486 314.326 64.2807 315.609 63.5681 317.176C62.5704 319.598 64.7083 320.453 64.9934 322.59C65.1359 323.873 64.8509 324.443 65.421 325.298Z" fill="#0C3ACF"/>
<path d="M35.6326 320.738C35.6326 319.883 35.4901 319.028 35.2051 318.173C34.92 317.033 34.2073 315.751 35.4901 315.039C36.3453 314.611 37.343 314.469 38.0557 313.614C38.6258 312.901 38.6258 311.761 38.3407 310.907C37.058 308.342 34.0648 310.194 32.497 311.334C32.2119 311.619 31.6418 312.189 31.3567 312.189C30.074 312.189 30.7866 311.192 30.7866 310.622C30.7866 310.194 30.9291 309.767 30.7866 309.339C30.5015 308.769 29.7889 308.342 29.0762 308.342C28.9337 308.342 28.7912 308.484 28.6487 308.342H28.5061C28.3636 308.484 28.3636 308.484 28.2211 308.627C28.0785 308.912 27.936 309.054 27.936 309.339C27.7935 309.909 27.7935 310.479 27.3659 310.764C26.9383 312.331 26.6532 313.756 26.3682 315.181C28.0785 316.179 27.3659 317.176 27.0808 318.458C26.9383 319.171 27.0808 320.026 27.7935 320.453C28.3636 320.738 29.2188 320.596 29.7889 320.168C30.074 319.883 30.074 319.598 30.2165 319.313V318.886C30.6441 319.028 31.0717 319.313 31.4993 319.456C31.6418 319.741 31.3567 320.738 31.3567 321.023C31.3567 321.593 31.2142 322.163 31.4993 322.733C32.3544 323.16 33.3522 323.445 34.2073 323.873C34.4924 323.73 34.6349 323.588 34.92 323.445C35.4901 323.16 35.6326 321.878 35.6326 320.738Z" fill="#0C3ACF"/>
<path d="M37.3427 303.211C38.768 304.351 40.3359 303.211 40.906 301.786C39.6232 301.359 38.483 300.931 37.2002 300.504C37.0577 300.789 37.0577 301.074 36.9151 301.359C36.7726 302.214 36.7726 302.784 37.3427 303.211Z" fill="#0C3ACF"/>
<path d="M33.7799 301.359C34.4925 301.074 34.9201 300.504 35.2052 299.792C33.6373 299.222 32.212 298.509 30.6442 297.939C30.3591 299.222 29.9315 300.504 29.6465 301.787C31.0718 301.929 32.6396 301.787 33.7799 301.359Z" fill="#0C3ACF"/>
<path d="M118.585 311.902C121.008 312.615 122.861 311.047 123.574 308.91C121.293 309.338 118.87 309.623 116.447 309.908C116.732 310.905 117.445 311.617 118.585 311.902Z" fill="#0C3ACF"/>
<path d="M48.7449 324.299C49.4575 321.164 48.4598 314.895 44.1839 314.895C44.0413 314.895 43.7563 315.037 43.7563 315.179C43.4712 315.607 43.3287 316.034 43.1862 316.462C42.616 316.747 42.0459 317.174 41.9034 318.029C41.6183 320.309 44.1839 321.876 43.4712 324.014C43.0436 325.723 41.7609 325.866 40.3356 326.293C39.908 326.436 39.4804 326.578 39.1953 326.863C40.9057 327.718 42.616 328.573 44.3264 329.571C44.754 329.286 45.1816 329.001 45.4667 328.716C47.177 327.718 48.3173 326.151 48.7449 324.299Z" fill="#0C3ACF"/>
<path d="M53.5914 333.276C53.8764 332.279 55.3018 331.851 55.3018 330.711C55.3018 329.999 54.7316 329.429 54.1615 329.144C52.5937 328.289 50.7408 329.429 49.8856 330.854C49.6005 331.281 49.458 331.851 49.458 332.421C51.0258 333.276 52.4511 334.274 53.8765 335.271C53.5914 334.701 53.3063 334.131 53.5914 333.276Z" fill="#0C3ACF"/>
<path d="M53.1636 320.594C53.4487 321.734 54.1613 322.731 55.159 323.159C56.0142 325.724 60.8603 325.011 60.2901 321.592C60.1476 320.879 59.72 320.167 59.1499 319.597C58.0096 318.314 57.297 317.459 57.8671 315.607C58.4372 313.897 59.0074 312.472 57.7246 310.905C57.0119 309.908 55.3016 307.2 53.7337 307.913C51.8808 308.625 52.8786 310.763 53.4487 311.902C54.5889 314.752 52.5935 317.602 53.1636 320.594Z" fill="#0C3ACF"/>
<path d="M101.767 364.053C100.912 364.338 100.342 364.908 100.056 365.62C99.9139 365.62 99.9139 365.62 99.7714 365.763C98.9162 367.188 100.056 368.898 101.054 370.038C102.479 368.47 103.905 367.045 105.33 365.478C104.332 364.338 103.335 363.626 101.767 364.053Z" fill="#0C3ACF"/>
<path d="M88.6538 359.066C88.5112 359.066 88.2262 359.208 88.2262 359.351C88.0837 359.778 87.7986 360.205 87.7986 360.633C87.5135 360.775 87.2285 360.918 87.0859 361.203C89.3664 363.198 91.5044 365.05 93.6423 367.045C93.7849 363.768 92.3596 358.923 88.6538 359.066Z" fill="#0C3ACF"/>
<path d="M99.0585 372.033L99.201 371.891C99.0585 371.891 98.916 371.891 98.7734 371.748C98.916 371.891 99.0585 371.891 99.0585 372.033Z" fill="#0C3ACF"/>
<path d="M30.3589 295.802C30.0738 295.66 29.7887 295.66 29.6462 295.802C29.3611 295.945 29.2186 296.087 29.2186 296.372C26.7956 305.206 24.6576 314.61 23.0898 321.022C22.9473 321.45 23.2323 321.877 23.6599 322.02C53.0212 332.421 78.2491 355.361 98.3459 373.742C98.4884 374.027 98.7735 374.17 99.0586 374.17C99.3436 374.17 99.6287 374.027 99.7712 373.742C119.725 351.372 143.243 331.994 167.758 317.745C168.043 317.603 168.328 317.175 168.186 316.748C167.331 311.903 165.478 305.064 162.77 296.372C162.627 296.087 162.485 295.945 162.342 295.802C162.057 295.66 161.915 295.66 161.629 295.802L160.347 296.372C153.933 298.937 147.376 301.644 140.677 303.354C128.42 306.631 114.737 308.768 101.197 309.338C88.0837 309.908 76.2537 308.911 65.9915 306.346C65.9915 306.346 65.9915 306.346 65.849 306.346C54.0189 304.494 42.0464 300.932 30.3589 295.802ZM62.9983 307.771C63.8535 307.914 64.8512 308.056 65.7064 308.198C66.8467 308.483 67.9869 308.768 69.1272 309.053C75.9686 310.478 83.3802 311.333 91.3619 311.476C92.3596 311.476 93.3573 311.476 94.355 311.476C96.0654 311.476 97.9183 311.476 99.6287 311.333C100.199 311.333 100.769 311.333 101.339 311.333C102.052 311.333 102.907 311.191 103.62 311.191C107.895 310.906 112.171 310.621 116.447 310.051C118.87 309.766 121.151 309.338 123.574 309.053C126.282 308.626 128.99 308.198 131.556 307.629C133.266 307.344 134.976 306.916 136.544 306.489C138.112 306.061 139.68 305.776 141.248 305.349C142.245 305.064 143.243 304.779 144.098 304.494C146.094 303.924 147.947 303.211 149.799 302.642C152.507 301.644 155.073 300.647 157.639 299.649C158.779 299.222 159.919 298.794 160.917 298.367L161.202 298.224C162.057 301.074 162.912 303.639 163.482 306.204C164.623 310.478 165.62 314.04 166.048 316.89C165.05 317.46 164.052 318.03 163.055 318.6C159.919 320.452 156.926 322.447 153.933 324.442C151.225 326.152 148.659 328.004 145.951 329.856C144.668 330.711 143.386 331.709 142.103 332.564C140.82 333.561 139.395 334.558 138.112 335.556C135.119 337.836 132.268 340.258 129.275 342.68C127.707 343.963 126.139 345.245 124.714 346.67C123.574 347.667 122.434 348.665 121.436 349.52C118.728 351.942 116.02 354.364 113.454 356.929C112.029 358.211 110.746 359.636 109.463 360.918C107.895 362.486 106.47 364.053 104.902 365.478C103.477 367.045 102.052 368.47 100.626 370.038C100.056 370.607 99.4862 371.32 98.916 371.89L98.7735 372.032C98.631 371.89 98.631 371.89 98.4884 371.747C96.7781 370.18 95.0677 368.613 93.2148 367.045C91.0769 365.193 88.9389 363.198 86.6584 361.203C81.3848 356.501 75.6836 351.799 69.8398 347.097C68.1294 345.815 66.4191 344.39 64.7087 343.108C61.0029 340.4 57.2971 337.836 53.4488 335.271C52.0235 334.273 50.4557 333.419 49.0304 332.421C47.4625 331.424 45.7522 330.426 44.0418 329.571C42.3314 328.574 40.6211 327.719 38.9107 326.864C37.0578 326.009 35.3474 325.012 33.4945 324.299C32.6394 323.872 31.6416 323.445 30.7865 323.16C28.791 322.305 26.6531 321.45 24.5151 320.737C24.9427 319.17 25.2278 317.46 25.6554 315.75C25.9404 314.325 26.368 312.901 26.6531 311.333C27.3657 308.341 28.2209 305.064 29.0761 301.929C29.3612 300.647 29.7887 299.364 30.0738 298.082C31.6416 298.794 33.0669 299.364 34.6348 299.934C35.3474 300.219 36.0601 300.504 36.6302 300.789C37.913 301.217 39.0532 301.644 40.336 302.072C48.1752 304.494 55.5868 306.346 62.9983 307.771Z" fill="#0C3ACF"/>
<path d="M92.6442 443.134C92.0741 443.134 91.6465 442.564 91.6465 442.137C94.3546 420.336 96.7776 395.259 98.2029 373.316C98.2029 372.746 98.6305 372.461 99.2006 372.461C99.7707 372.461 100.056 372.888 100.056 373.458C98.6305 395.401 96.2075 420.621 93.4994 442.422C93.4994 442.849 93.0718 443.134 92.6442 443.134Z" fill="#0C3ACF"/>
<path d="M66.9892 451.113C66.4191 451.113 65.9915 451.113 65.4214 451.113C54.304 451.256 43.7567 449.119 39.3383 445.841C38.9107 445.556 38.9107 444.986 39.1957 444.559C39.4808 444.132 40.0509 444.132 40.4785 444.416C48.4602 450.401 81.3848 452.538 92.0746 441.709C92.3596 441.282 92.9297 441.282 93.3573 441.709C93.7849 441.994 93.7849 442.564 93.3573 442.992C88.5113 447.694 78.9617 450.686 66.9892 451.113Z" fill="#0C3ACF"/>
<path d="M101.482 443.561C101.054 443.561 100.627 443.276 100.484 442.706C100.056 438.146 99.4863 433.302 99.0587 428.599C97.9185 418.768 96.7782 408.651 96.4932 399.105C96.4932 398.535 96.9208 398.25 97.3484 398.107C97.7759 398.107 98.2035 398.535 98.3461 398.962C98.7737 408.366 99.9139 418.483 100.912 428.315C101.482 433.017 101.909 437.861 102.337 442.421C102.479 443.133 102.052 443.561 101.482 443.561Z" fill="#0C3ACF"/>
<path d="M130.7 448.549C119.012 448.976 106.755 447.124 100.911 443.419C100.483 443.134 100.341 442.564 100.626 442.137C100.911 441.71 101.481 441.567 101.909 441.852C112.171 448.406 145.523 448.691 154.645 440.57C155.072 440.285 155.643 440.285 155.928 440.712C156.213 441.14 156.213 441.71 155.785 441.995C151.224 446.127 141.247 448.264 130.7 448.549Z" fill="#0C3ACF"/>
<path d="M146.949 224.844C146.521 224.844 146.094 224.559 145.951 223.989C145.951 223.704 145.951 223.562 146.236 223.277C146.094 222.849 146.236 222.422 146.664 222.137C169.184 209.171 182.867 206.036 186.002 208.601C186.715 209.171 187 210.026 186.715 211.023C185.29 215.725 170.751 222.992 146.949 224.844ZM182.296 209.741C177.593 209.883 167.046 212.875 149.372 222.849C172.747 220.57 184.149 213.445 185.005 210.738C185.147 210.453 185.005 210.311 184.862 210.311C184.434 209.883 183.579 209.741 182.296 209.741Z" fill="#0C3ACF"/>
<path d="M186.144 211.451C185.717 211.451 185.289 211.166 185.289 210.739C183.864 205.039 182.724 200.052 181.726 195.065C173.744 159.301 170.466 144.482 126.139 128.239C126.139 128.239 125.997 128.239 125.997 128.097C121.578 125.247 120.865 118.692 120.153 112.138C119.583 106.724 119.013 101.594 116.447 99.7418C115.449 99.0294 114.024 98.7444 112.171 99.0294C107.325 99.7418 102.479 99.4568 97.7755 99.1718C95.9226 99.0294 93.9271 99.0294 92.0743 98.8869C88.9386 98.8869 85.6604 98.8869 82.3822 99.4568C80.8143 99.7418 79.5316 100.312 78.1063 100.882C77.1086 101.309 76.2534 101.737 75.2557 102.022C75.3982 105.584 75.1131 109.146 74.4005 112.566C74.1154 113.848 73.8304 115.273 72.8326 116.27C71.8349 117.553 70.2671 117.98 68.9843 118.407C61.2877 121.115 53.306 123.537 45.7518 127.242C21.8067 139.068 10.5468 162.721 1.70993 183.809C1.56739 184.236 0.997273 184.521 0.569681 184.236C0.14209 184.094 -0.142971 183.524 0.14209 183.096C9.12151 161.581 20.6665 137.643 45.0392 125.532C52.5933 121.827 60.7175 119.262 68.5567 116.698C69.8395 116.27 70.9797 115.843 71.5499 115.13C72.2625 114.418 72.4051 113.278 72.6901 112.281C73.4028 108.718 73.5453 105.014 73.4028 101.452C73.4028 101.024 73.6878 100.597 74.1154 100.597C75.2557 100.312 76.3959 99.8843 77.3936 99.3143C78.8189 98.7444 80.2442 98.032 81.9546 97.747C85.3753 97.177 88.7961 97.177 92.0743 97.177C93.9271 97.177 95.9226 97.3195 97.7755 97.462C102.336 97.747 107.182 97.8895 111.743 97.3195C114.024 96.8921 115.877 97.177 117.302 98.3169C120.58 100.739 121.15 106.154 121.721 111.996C122.433 117.98 123.003 124.107 126.567 126.529C171.749 143.058 175.17 158.161 183.294 194.638C184.434 199.625 185.574 204.612 186.857 210.311C187 210.739 186.714 211.309 186.144 211.451C186.287 211.451 186.287 211.451 186.144 211.451Z" fill="#0C3ACF"/>
<path d="M34.3494 206.321H34.2069C24.2297 204.896 3.70536 195.777 0.284624 183.665C0.142094 183.38 0.284624 183.096 0.427154 182.953C1.5674 181.386 4.13295 179.676 9.69164 181.386C20.0964 184.52 35.0621 197.202 35.3471 205.466C35.3471 205.751 35.2046 206.036 35.0621 206.178C34.777 206.321 34.4919 206.321 34.3494 206.321ZM2.13752 183.523C5.55825 194.067 23.6596 202.474 33.2092 204.326C31.6413 196.774 18.386 185.803 8.97898 182.953C6.6985 182.383 3.70536 181.813 2.13752 183.523Z" fill="#0C3ACF"/>
<path d="M34.3493 206.322C34.2068 206.322 34.2068 206.322 34.0642 206.322C33.6366 206.18 33.3516 205.61 33.4941 205.182C34.2068 203.045 35.0619 200.623 35.9171 198.343C36.7723 196.063 37.6275 193.641 38.3401 191.503C38.4827 191.076 39.0528 190.791 39.4804 190.934C39.908 191.076 40.193 191.646 40.0505 192.073C39.3379 194.211 38.4827 196.633 37.6275 198.913C36.7723 201.193 35.9171 203.615 35.2045 205.752C35.0619 206.18 34.6344 206.322 34.3493 206.322Z" fill="#0C3ACF"/>
<path d="M101.623 152.462H101.481C101.053 152.319 100.626 151.892 100.768 151.464C101.481 146.905 105.472 145.622 109.32 144.197C111.743 143.342 114.166 142.488 115.734 140.92C116.019 140.493 116.589 140.493 117.017 140.92C117.444 141.205 117.444 141.775 117.017 142.203C115.164 144.197 112.456 145.052 109.89 146.05C106.184 147.332 103.049 148.472 102.479 151.892C102.336 152.177 102.051 152.462 101.623 152.462Z" fill="#0C3ACF"/>
<path d="M88.9385 151.607C88.5109 151.607 88.0833 151.322 88.0833 150.895C87.3707 146.905 84.0924 145.338 80.2441 143.771C76.9659 142.346 73.6877 140.921 71.8348 137.786C71.5498 137.359 71.6923 136.789 72.1199 136.504C72.5475 136.219 73.1176 136.361 73.4027 136.789C74.9705 139.353 77.8211 140.636 80.9568 142.061C84.9476 143.771 89.081 145.623 89.9362 150.61C89.7937 151.037 89.5086 151.465 88.9385 151.607Z" fill="#0C3ACF"/>
<path d="M85.945 201.905C85.3749 201.905 84.9473 201.477 84.9473 201.05C84.8047 194.353 84.2346 187.656 83.0944 181.102C82.9518 180.674 83.3794 180.104 83.807 180.104C84.2346 179.962 84.8047 180.389 84.8047 180.817C85.945 187.513 86.6576 194.353 86.8002 201.05C86.8002 201.477 86.3726 201.762 85.945 201.905Z" fill="#0C3ACF"/>
<path d="M98.7731 188.083C98.6306 188.083 98.6306 188.083 98.488 188.083C98.0605 187.941 97.7754 187.513 97.7754 186.943C98.9156 182.526 100.626 178.252 102.621 174.262C102.906 173.835 103.334 173.692 103.904 173.835C104.332 174.12 104.474 174.547 104.332 175.117C102.336 179.107 100.769 183.239 99.6283 187.513C99.4858 187.798 99.0582 188.083 98.7731 188.083Z" fill="#0C3ACF"/>
<path d="M100.341 436.579L93.3571 436.864C92.787 436.864 92.5019 436.436 92.3594 436.009C92.3594 435.439 92.787 435.154 93.2146 435.012L100.199 434.727C100.769 434.727 101.054 435.154 101.196 435.581C101.339 436.151 100.911 436.579 100.341 436.579Z" fill="#0C3ACF"/>
<path d="M179.873 489.014L19.9541 494.001C19.5265 494.001 19.0989 493.716 19.0989 493.289L13.9678 460.089C13.9678 459.947 13.9678 459.804 13.9678 459.52C17.3885 451.825 20.9518 444.131 24.6576 436.579C24.9426 436.152 25.3702 436.009 25.9403 436.152C26.3679 436.437 26.5105 436.864 26.3679 437.434C22.8047 444.843 19.2414 452.538 15.8207 460.089L20.8092 492.291L179.018 487.304L181.014 455.53C180.158 453.82 179.446 451.825 178.448 449.973C175.597 443.561 172.319 436.152 168.898 430.737C168.613 430.31 168.756 429.74 169.183 429.455C169.611 429.17 170.181 429.312 170.466 429.74C174.03 435.297 177.308 442.706 180.158 449.26C181.014 451.255 181.869 453.25 182.724 455.102C182.724 455.245 182.866 455.387 182.866 455.53L180.871 488.444C180.728 488.587 180.301 489.014 179.873 489.014Z" fill="#0C3ACF"/>
<path d="M173.601 456.386L24.9421 461.088C24.3719 461.088 24.0869 460.66 23.9443 460.233C23.9443 459.663 24.3719 459.378 24.7995 459.235L173.459 454.533C174.029 454.533 174.314 454.961 174.457 455.388C174.599 455.958 174.171 456.386 173.601 456.386Z" fill="#0C3ACF"/>
<path d="M39.9082 445.984C39.4807 445.984 39.1956 445.841 39.0531 445.414C25.2276 413.354 19.2413 381.437 20.8092 347.668C22.2345 317.176 29.7886 285.829 44.0416 252.06C44.1842 251.632 44.7543 251.347 45.1819 251.632C45.6095 251.775 45.8945 252.345 45.6095 252.772C16.1057 323.018 14.5378 384.002 40.6209 444.701C40.7634 445.129 40.6209 445.699 40.1933 445.841C40.0508 445.984 40.0508 445.984 39.9082 445.984Z" fill="#0C3ACF"/>
<path d="M25.3698 437.862C24.7997 437.862 24.5146 437.434 24.3721 437.007C24.3721 436.437 24.7997 436.152 25.2273 436.009C26.9376 436.009 28.7905 435.867 30.6434 435.724C32.4963 435.582 34.3492 435.439 36.0596 435.297C36.6297 435.297 36.9148 435.724 37.0573 436.152C37.0573 436.722 36.6297 437.007 36.2021 437.149C34.4917 437.149 32.6388 437.292 30.7859 437.434C29.0756 437.719 27.0801 437.862 25.3698 437.862Z" fill="#0C3ACF"/>
<path d="M169.61 431.022C168.043 431.022 166.19 431.022 164.337 431.022C162.484 431.022 160.631 430.88 159.206 431.022C158.636 431.022 158.351 430.595 158.208 430.167C158.208 429.597 158.636 429.312 159.063 429.17C160.631 429.17 162.484 429.17 164.337 429.17C166.19 429.17 168.043 429.312 169.468 429.17C170.038 429.17 170.323 429.597 170.466 430.025C170.466 430.595 170.038 431.022 169.61 431.022Z" fill="#0C3ACF"/>
<path d="M49.9992 193.746L40.0508 204.344L77.6746 239.64L87.623 229.042L49.9992 193.746Z" fill="#0C3ACF"/>
<path d="M76.19 192.913L40.8828 230.525L51.484 240.471L86.7912 202.859L76.19 192.913Z" fill="#0C3ACF"/>
<path d="M108.749 191.933L98.8008 202.531L136.425 237.827L146.373 227.23L108.749 191.933Z" fill="#0C3ACF"/>
<path d="M134.94 191.101L99.6328 228.713L110.234 238.658L145.541 201.046L134.94 191.101Z" fill="#0C3ACF"/>
<path d="M152.495 71.854C160.605 41.8458 142.844 10.9476 112.827 2.84095C82.8092 -5.26569 51.9015 12.4891 43.7923 42.4973C35.6831 72.5055 53.4434 103.404 83.461 111.51C113.479 119.617 144.386 101.862 152.495 71.854Z" fill="#FFF15D"/>
<path d="M97.7755 114.417C66.2763 114.132 40.7633 88.3419 40.9059 56.8524C41.1909 25.2205 66.9889 -0.284561 98.6307 0.000411853C130.13 0.285384 155.643 26.0754 155.5 57.5649C155.215 89.1968 129.275 114.559 97.7755 114.417ZM98.6307 1.85273C67.9867 1.56776 43.0438 26.2179 42.7588 56.8524C42.4737 87.3445 67.274 112.422 97.7755 112.565C128.277 112.85 153.362 88.0569 153.505 57.5649C153.79 27.0728 129.132 1.99522 98.6307 1.85273Z" fill="#0C3ACF"/>
<path d="M97.9177 95.7503C76.6807 95.6078 59.4345 78.2245 59.577 56.8516H61.4299C61.2874 77.0846 77.6784 93.7555 97.9177 93.898C118.157 94.0405 134.833 77.6546 134.976 57.4215H136.829C136.544 78.7944 119.155 95.8928 97.9177 95.7503Z" fill="#0C3ACF"/>
<path d="M89.9361 59.2754C91.6465 56.1407 91.504 51.7236 91.6465 48.4464C91.789 43.7444 91.504 39.0423 90.7913 34.3403C90.5062 32.6304 90.2212 30.7781 89.2235 29.2108C86.6579 24.5087 79.8165 23.6538 76.2532 27.5009C73.8302 29.9232 73.2601 33.4853 72.975 36.905C72.5474 41.3221 72.5474 45.7392 72.8325 50.2987C73.1175 54.1459 72.975 58.1355 75.5405 61.2702C79.5314 66.1147 87.0855 64.4049 89.9361 59.2754Z" fill="white"/>
<path d="M81.384 64.8314C78.8185 64.689 76.538 63.5491 74.9701 61.6967C72.4046 58.847 72.2621 55.1424 72.1195 51.5802C72.1195 51.1528 72.1195 50.7253 71.977 50.2978C71.6919 45.8808 71.6919 41.3212 72.1195 36.9041C72.4046 33.4845 73.1172 29.6373 75.6828 27.0726C77.5357 25.0778 80.3863 24.0804 83.2369 24.5078C86.0875 24.9353 88.6531 26.5026 89.9358 28.9249C90.9335 30.6347 91.2186 32.6295 91.5037 34.3394C92.2163 39.0414 92.5014 43.7435 92.3589 48.588C92.3589 49.0155 92.3589 49.5854 92.3589 50.0129C92.3589 53.2901 92.2163 56.9947 90.6485 59.8444C89.0806 62.6942 85.945 64.8314 82.6668 65.1164C82.2392 64.8314 81.8116 64.8314 81.384 64.8314ZM82.3817 25.7902C80.2438 25.6477 78.2483 26.5026 76.823 27.9275C74.5425 30.2073 73.9724 33.6269 73.6874 36.9041C73.2598 41.3212 73.2598 45.7383 73.5448 50.1554C73.5448 50.5828 73.5448 51.0103 73.6874 51.5802C73.8299 54.9999 73.9724 58.2771 76.2529 60.6993C77.8207 62.6941 80.1012 63.5491 82.6668 63.2641C85.5174 62.9791 88.0829 61.2693 89.5082 58.847C90.9335 56.2823 90.9335 52.8626 91.0761 49.7279C91.0761 49.3004 91.0761 48.7305 91.0761 48.303C91.2186 43.601 90.9335 39.0414 90.2209 34.3394C89.9358 32.772 89.6508 30.9197 88.7956 29.4948C87.6553 27.5 85.6599 26.2177 83.2369 25.7902C82.8093 25.7902 82.5242 25.7902 82.3817 25.7902Z" fill="#0C3ACF"/>
<path d="M121.863 58.7051C123.573 55.5704 123.431 51.1533 123.573 47.8761C123.716 43.174 123.431 38.472 122.718 33.77C122.433 32.0601 122.148 30.2078 121.15 28.6404C118.585 23.9384 111.743 23.0835 108.18 26.9306C105.757 29.3529 105.187 32.915 104.902 36.3347C104.474 40.7518 104.474 45.1689 104.759 49.7284C105.044 53.5756 104.902 57.5652 107.467 60.6999C111.458 65.5444 119.012 63.9771 121.863 58.7051Z" fill="white"/>
<path d="M113.311 64.4037C110.745 64.2612 108.465 63.1213 106.897 61.269C104.331 58.4193 104.189 54.7147 104.046 51.1525C104.046 50.725 104.046 50.2976 103.904 49.8701C103.619 45.453 103.619 40.8935 104.046 36.4764C104.331 33.0567 105.044 29.2096 107.61 26.6448C109.462 24.65 112.313 23.6526 115.164 24.0801C118.014 24.5076 120.58 26.0749 121.863 28.4972C122.86 30.207 123.145 32.2018 123.43 33.9116C124.143 38.6137 124.428 43.3157 124.286 48.1603C124.286 48.5877 124.286 49.1577 124.286 49.5851C124.286 52.8623 124.143 56.567 122.575 59.4167C121.007 62.2664 117.872 64.4037 114.594 64.6887C114.166 64.4037 113.738 64.4037 113.311 64.4037ZM114.308 25.3625C112.171 25.22 110.175 26.0749 108.75 27.4998C106.469 29.7795 105.899 33.1992 105.614 36.4764C105.187 40.8935 105.187 45.3106 105.472 49.7276C105.472 50.1551 105.472 50.5825 105.614 51.1525C105.757 54.5722 105.899 57.8493 108.18 60.2716C109.747 62.2664 112.171 63.1213 114.594 62.8364C117.444 62.5514 120.01 60.8416 121.435 58.4193C122.86 55.8545 122.86 52.4349 123.003 49.3002C123.003 48.8727 123.003 48.3028 123.003 47.8753C123.145 43.1733 122.86 38.6137 122.148 33.9116C121.863 32.3443 121.578 30.492 120.722 29.0671C119.582 27.0723 117.587 25.7899 115.164 25.3625C114.736 25.3625 114.451 25.3625 114.308 25.3625Z" fill="#0C3ACF"/>
<mask id="mask0_2167_2489" style="mask-type:luminance" maskUnits="userSpaceOnUse" x="72" y="25" width="20" height="40">
<path d="M89.9361 59.2754C91.6465 56.1407 91.504 51.7236 91.6465 48.4464C91.789 43.7444 91.504 39.0423 90.7913 34.3403C90.5062 32.6304 90.2212 30.7781 89.2235 29.2108C86.6579 24.5087 79.8165 23.6538 76.2532 27.5009C73.8302 29.9232 73.2601 33.4853 72.975 36.905C72.5474 41.3221 72.5474 45.7392 72.8325 50.2987C73.1175 54.1459 72.975 58.1355 75.5405 61.2702C79.5314 66.1147 87.0855 64.4049 89.9361 59.2754Z" fill="white"/>
</mask>
<g mask="url(#mask0_2167_2489)">
<path d="M81.8117 45.8822C82.952 43.8874 82.8094 41.1801 82.8094 39.1853C82.952 36.3356 82.6669 33.3434 82.2393 30.4936C82.0968 29.3537 81.8117 28.2139 81.2416 27.3589C79.6738 24.5092 75.3979 23.9393 73.2599 26.3615C71.8346 27.9289 71.407 30.0662 71.2645 32.2035C70.9794 34.9107 70.9794 37.7604 71.1219 40.4677C71.2645 42.8899 71.2645 45.3122 72.8323 47.307C75.3979 50.1567 79.9588 49.1593 81.8117 45.8822Z" fill="#0C3ACF"/>
</g>
<mask id="mask1_2167_2489" style="mask-type:luminance" maskUnits="userSpaceOnUse" x="104" y="24" width="20" height="40">
<path d="M121.863 58.7051C123.573 55.5704 123.431 51.1533 123.573 47.8761C123.716 43.174 123.431 38.472 122.718 33.77C122.433 32.0601 122.148 30.2078 121.15 28.6404C118.585 23.9384 111.743 23.0835 108.18 26.9306C105.757 29.3529 105.187 32.915 104.902 36.3347C104.474 40.7518 104.474 45.1689 104.759 49.7284C105.044 53.5756 104.902 57.5652 107.467 60.6999C111.458 65.5444 119.012 63.9771 121.863 58.7051Z" fill="white"/>
</mask>
<g mask="url(#mask1_2167_2489)">
<path d="M113.738 45.3118C114.879 43.317 114.736 40.6098 114.736 38.615C114.879 35.7653 114.594 32.7731 114.166 29.9233C114.024 28.7834 113.738 27.6435 113.168 26.7886C111.601 23.9389 107.325 23.369 105.187 25.7912C103.761 27.3586 103.334 29.4959 103.191 31.6332C102.906 34.3404 102.906 37.1901 103.049 39.8974C103.191 42.3196 103.191 44.7419 104.759 46.7367C107.182 49.5864 111.886 48.589 113.738 45.3118Z" fill="#0C3ACF"/>
</g>
<path d="M84.0926 35.9062L77.6787 39.8959L84.2351 41.0358L84.0926 35.9062Z" fill="white"/>
<path d="M115.592 35.7637L109.178 39.7533L115.734 40.8932L115.592 35.7637Z" fill="white"/>
<path d="M71.5497 19.8053C71.4072 19.8053 71.2647 19.8053 71.1221 19.6628C70.8371 19.3778 70.6945 18.9504 70.9796 18.6654C72.8325 15.9582 75.9682 14.1059 79.2464 13.6784C82.5246 13.2509 85.9453 14.3908 88.3683 16.6706C88.6534 16.9556 88.6534 17.383 88.3683 17.668C88.0833 17.953 87.6557 17.953 87.3706 17.668C85.2327 15.6732 82.2395 14.6758 79.3889 14.9608C76.5383 15.2457 73.8302 16.9556 72.1198 19.2354C71.9773 19.6628 71.6923 19.8053 71.5497 19.8053Z" fill="#0C3ACF"/>
<path d="M105.187 17.8112C105.045 17.8112 104.902 17.8112 104.76 17.6687C104.475 17.3838 104.475 16.9563 104.76 16.6713C106.898 14.1066 110.176 12.6817 113.597 12.8242C116.875 12.8242 120.153 14.534 122.291 16.9563C122.576 17.2413 122.576 17.6687 122.148 17.9537C121.863 18.2387 121.436 18.2387 121.151 17.8112C119.298 15.6739 116.447 14.2491 113.597 14.2491C110.746 14.2491 107.753 15.389 105.9 17.5263C105.615 17.6687 105.472 17.8112 105.187 17.8112Z" fill="#0C3ACF"/>
</g>
<defs>
<clipPath id="clip0_2167_2489">
<rect width="187" height="494" fill="white"/>
</clipPath>
</defs>
</svg>
