<svg width="47" height="74" viewBox="0 0 47 74" fill="none" xmlns="http://www.w3.org/2000/svg">
<path d="M46.8815 41.8203C46.754 43.2228 46.6265 44.4978 46.499 45.7728C46.499 46.1553 46.244 46.6653 46.3715 47.0478C46.8815 48.3228 46.3715 49.2153 45.734 50.2353C45.224 51.1278 44.8415 52.0203 44.5865 53.0403C44.459 53.9328 44.0765 54.5703 43.439 55.2078C42.674 55.9728 41.909 56.6103 41.654 57.7578C41.5265 58.3953 40.889 58.9053 40.2515 59.2878C38.594 60.3078 37.319 61.5828 36.1715 62.8578C35.6615 63.2403 35.1515 63.7503 34.3865 63.7503C34.259 63.7503 34.004 63.8778 33.749 64.0053C32.474 65.2803 30.689 65.7903 29.2865 66.8103C28.2665 67.5753 27.119 68.0853 25.7165 68.0853C25.079 68.0853 24.4415 68.3403 23.9315 68.5953C23.6765 68.7228 23.4215 68.8503 23.1665 68.9778C22.529 69.3603 21.764 68.7228 21.1265 69.2328C20.6165 69.6153 19.979 69.8703 19.3415 69.8703C18.194 69.9978 17.174 70.8903 15.899 70.7628C15.7715 70.7628 15.644 70.7628 15.5165 70.8903C14.114 72.0378 12.329 72.1653 10.544 72.2928C10.1615 72.2928 9.65149 72.4203 9.39649 72.6753C8.37649 73.3128 7.35648 73.4403 6.33649 73.0578C5.44398 72.8028 4.55149 72.6753 3.65899 72.9303C3.27649 73.0578 2.76649 72.9303 2.38399 72.9303C0.981487 73.0578 -0.421013 72.9303 -1.69601 73.6953C-2.71601 74.2053 -3.73602 74.2053 -4.88351 73.5678C-5.77601 72.9303 -7.05102 73.0578 -8.19852 73.0578C-9.21852 73.0578 -10.366 73.1853 -11.386 73.3128C-12.406 73.4403 -13.171 73.5678 -13.8085 72.5478C-13.936 72.2928 -14.3185 72.0378 -14.701 71.9103C-16.1035 71.6553 -17.251 70.7628 -18.6535 70.3803C-19.036 70.2528 -19.4185 69.9978 -19.801 69.8703C-20.821 69.2328 -21.841 68.7228 -22.861 68.0853C-23.881 67.4478 -24.646 66.5553 -25.666 65.9178C-25.921 65.7903 -26.176 65.5353 -26.3035 65.2803C-26.686 64.7703 -27.196 64.3878 -27.5785 64.0053C-28.471 63.2403 -29.3635 62.6028 -30.511 61.9653C-32.041 61.0728 -33.4435 59.7978 -34.336 58.0128C-34.591 57.5028 -34.9735 57.1203 -35.2285 56.6103C-36.121 54.6978 -37.5235 53.2953 -38.2885 51.3828C-38.416 51.2553 -38.5435 51.0003 -38.671 50.8728C-39.691 50.3628 -39.8185 49.3428 -40.0735 48.4503C-40.5835 46.4103 -41.221 44.4978 -41.986 42.5853C-42.1135 41.8203 -42.496 41.0553 -42.1135 40.1628C-41.8585 39.5253 -42.496 38.8878 -42.496 38.1228C-42.496 36.7203 -43.1335 35.4453 -43.6435 34.0428C-44.281 32.2578 -45.046 30.4728 -44.791 28.5603C-44.791 28.1778 -44.791 27.9228 -45.046 27.6678C-45.6835 27.1578 -45.811 26.5203 -45.556 25.7553C-45.301 24.8628 -45.301 24.0978 -45.556 23.2053C-45.6835 22.6953 -45.811 22.0578 -45.6835 21.5478C-45.1735 19.6353 -45.046 17.8503 -45.1735 15.9378C-45.1735 15.5553 -45.1735 15.0453 -44.791 14.7903C-44.1535 14.4078 -44.026 13.8978 -44.026 13.1328C-44.026 12.6228 -43.8985 12.1128 -43.3885 11.9853C-42.3685 11.7303 -42.241 10.8378 -42.1135 9.94528C-42.1135 9.69028 -42.241 9.43528 -42.241 9.05278C-42.241 7.90528 -42.1135 7.77778 -41.0935 7.39528C-40.456 7.14028 -39.8185 7.14028 -39.5635 6.37528C-39.3085 5.86528 -38.7985 5.73778 -38.2885 5.73778C-37.141 5.61028 -36.121 4.97278 -35.101 4.46278C-33.9535 3.82528 -32.806 3.31528 -31.6585 2.80528C-31.1485 2.55028 -30.766 2.42278 -30.256 2.67778C-29.3635 2.93278 -28.5985 2.67778 -27.8335 2.16778C-27.451 1.91278 -27.0685 1.65778 -26.686 1.65778C-25.156 1.65778 -23.7535 1.53028 -22.2235 1.65778C-21.331 1.78528 -20.566 1.65778 -19.801 1.27528C-19.4185 1.14778 -19.036 0.892783 -18.6535 0.765283C-18.271 0.637783 -17.761 0.637783 -17.3785 0.892783C-16.6135 1.65778 -15.8485 1.40278 -15.0835 1.14778C-14.0635 0.765283 -13.0435 0.127783 -11.7685 0.637783C-11.386 0.765283 -11.131 0.510283 -10.7485 0.382783C-10.2385 0.000283277 -9.60102 -0.127217 -8.96352 0.127783C-7.56102 0.510283 -6.15852 0.510283 -4.75602 0.382783C-3.99102 0.382783 -3.35351 0.382783 -2.71601 0.637783C-1.69601 0.892783 -0.548515 1.27528 0.598984 1.02028C1.10899 0.892783 1.61898 1.14778 2.25648 1.40278C3.78648 2.16778 5.57149 2.16778 7.22898 2.29528C7.99399 2.29528 8.63148 2.42278 9.26899 2.67778C10.799 3.18778 12.2015 3.57028 13.7315 3.82528C14.369 3.95278 14.879 4.20778 15.389 4.71778C15.899 5.22778 16.5365 5.86528 17.0465 6.37528C17.5565 6.88528 18.0665 7.26778 18.8315 7.39528C19.724 7.65028 20.489 8.16028 21.254 8.79778C22.274 9.81778 23.4215 10.5828 24.6965 11.2203C25.334 11.4753 25.7165 11.8578 25.7165 12.6228C25.7165 13.2603 25.9715 13.6428 26.4815 14.1528C27.2465 14.9178 28.0115 15.8103 28.904 16.5753C29.669 17.2128 30.689 17.7228 30.944 18.8703C31.0715 19.1253 31.454 19.3803 31.709 19.5078C32.0915 19.7628 32.6015 20.1453 32.729 20.5278C32.984 21.1653 33.3665 21.4203 33.8765 21.6753C34.769 22.1853 35.279 22.8228 35.534 23.7153C35.789 24.3528 36.1715 24.8628 36.4265 25.3728C36.809 26.0103 37.319 26.6478 38.2115 26.7753C39.2315 26.9028 39.7415 27.7953 40.124 28.5603C40.634 29.7078 41.5265 30.4728 41.909 31.6203C42.0365 31.8753 42.2915 32.1303 42.5465 32.3853C43.184 32.8953 43.694 33.4053 43.439 34.4253C43.3115 35.0628 43.694 35.5728 44.0765 35.9553C44.5865 36.5928 44.8415 37.3578 45.0965 37.9953C45.479 39.0153 45.6065 40.0353 46.499 40.8003C46.8815 40.9278 46.8815 41.4378 46.8815 41.8203ZM36.044 46.6653C37.064 44.7528 34.8965 43.3503 34.8965 41.4378C34.8965 41.3103 34.769 41.1828 34.6415 41.1828C33.8765 40.8003 33.6215 40.0353 33.494 39.2703C33.239 37.9953 32.474 37.1028 31.5815 36.3378C30.8165 35.8278 30.3065 35.0628 29.924 34.1703C29.159 32.5128 28.139 31.1103 26.609 30.0903C24.4415 28.8153 22.529 27.2853 20.744 25.5003C20.489 25.2453 20.1065 24.9903 19.724 24.7353C18.5765 24.3528 17.429 23.8428 16.2815 23.5878C13.349 22.9503 11.564 20.6553 8.88649 19.5078C8.75898 19.3803 8.63148 19.1253 8.50399 18.9978C6.33649 16.9578 3.02148 15.8103 -0.0385132 16.0653C-0.548515 16.0653 -0.931015 16.0653 -1.18602 15.6828C-1.44102 15.4278 -1.82351 15.0453 -2.07851 14.7903C-2.97101 13.8978 -3.86352 13.6428 -5.13852 13.6428C-7.68852 13.6428 -10.2385 13.5153 -12.7885 13.5153C-13.8085 13.5153 -14.8285 13.0053 -15.721 13.8978C-15.976 14.1528 -16.3585 14.0253 -16.741 14.0253C-17.506 14.0253 -18.1435 13.8978 -18.9085 13.7703C-20.4385 13.5153 -21.7135 13.8978 -22.861 14.9178C-24.2635 16.1928 -25.5385 17.3403 -26.941 18.6153C-27.8335 19.5078 -28.5985 20.5278 -29.1085 21.6753C-30.1285 23.5878 -30.6385 25.6278 -31.021 27.7953C-31.276 29.4528 -31.531 31.1103 -31.276 32.8953C-31.1485 33.5328 -31.276 34.2978 -31.276 35.0628C-31.276 36.2103 -31.531 37.4853 -31.021 38.6328C-31.531 40.0353 -30.6385 40.8003 -29.8735 41.8203C-29.746 41.9478 -29.746 42.0753 -29.746 42.2028C-29.6185 43.2228 -28.981 43.8603 -28.471 44.6253C-27.8335 45.5178 -27.3235 46.4103 -26.686 47.3028C-25.411 49.0878 -24.136 50.8728 -22.2235 52.0203C-21.586 52.4028 -21.076 52.9128 -20.6935 53.5503C-19.6735 55.0803 -18.1435 56.1003 -16.3585 56.7378C-14.3185 57.3753 -12.2785 57.5028 -10.111 57.3753C-9.47351 57.3753 -8.83602 57.2478 -8.32602 57.7578C-7.43352 58.5228 -6.41352 58.6503 -5.39352 58.7778C-3.73602 58.9053 -2.20602 58.9053 -0.548515 59.5428C-0.038517 59.7978 0.598988 59.6703 1.10899 59.6703C3.02149 59.4153 4.93399 59.1603 6.84649 58.9053C8.12149 58.7778 9.39648 58.6503 10.544 59.1603C11.054 59.4153 11.4365 59.2878 11.9465 59.1603C14.2415 58.7778 16.409 57.8853 18.8315 58.2678C19.0865 58.2678 19.214 58.1403 19.469 58.1403C21.1265 57.8853 22.784 57.7578 24.4415 57.1203C25.7165 56.6103 26.9915 56.3553 28.394 56.1003C29.7965 55.8453 31.0715 55.3353 32.3465 54.6978C33.6215 53.9328 34.6415 53.0403 35.1515 51.6378C35.6615 49.9803 36.4265 48.4503 36.044 46.6653Z" fill="#FFAD00"/>
<path d="M24.9511 43.9881C24.6961 45.5181 25.3336 46.5381 24.9511 47.6856C24.5686 48.5781 24.0586 49.4706 23.8036 50.3631C23.5486 51.6381 23.1661 51.7656 21.8911 51.7656C20.9986 51.7656 20.1061 52.0205 19.2136 52.403C18.4486 52.7855 17.8111 52.7856 17.0461 52.1481C16.2811 51.5106 15.3886 51.3831 14.4961 51.7656C13.0936 52.403 11.5636 52.0206 10.1611 52.6581C9.90609 52.7856 9.65109 52.6581 9.26859 52.6581C8.37609 52.4031 7.48359 52.5306 6.59109 52.7856C6.08109 52.9131 5.44359 53.0406 5.06109 52.5306C4.67859 52.0206 4.04109 52.0206 3.53109 52.0206C2.76609 52.0206 2.00109 52.0206 1.23609 52.0206C0.853592 52.0206 0.471092 52.1481 0.216093 52.0206C-1.18641 51.6381 -2.46141 51.2556 -3.86391 51.7656C-3.99141 51.7656 -4.24641 51.7656 -4.50141 51.6381C-6.03141 51.0006 -7.56141 50.4906 -9.09141 50.2356C-9.34641 50.2356 -9.60141 50.1081 -9.85641 49.9806C-11.5139 48.8331 -13.1714 47.9406 -14.9564 47.0481C-15.0839 46.9206 -15.3389 46.9205 -15.4664 46.6656C-16.2314 45.3906 -17.6339 44.7531 -18.2714 43.2231C-18.5264 42.4581 -19.1639 41.8206 -19.6739 41.0556C-20.0564 40.5456 -20.1839 40.0356 -19.8014 39.5256C-19.2914 38.7606 -19.4189 37.9956 -19.9289 37.3581C-20.6939 36.4656 -20.8214 35.3181 -20.9489 34.1706C-20.9489 33.7881 -21.0764 33.4056 -20.9489 33.1506C-20.6939 32.3856 -20.6939 31.6206 -21.0764 30.8556C-21.2039 30.4731 -21.2039 29.9631 -20.9489 29.5806C-20.4389 28.5606 -20.0564 27.5406 -19.6739 26.3931C-19.6739 26.1381 -19.5464 26.0106 -19.2914 25.883C-18.3989 25.2456 -18.1439 24.353 -17.8889 23.3331C-17.7614 22.823 -17.5064 22.3131 -16.9964 22.3131C-15.5939 22.4406 -14.5739 21.6756 -13.4264 21.1656C-12.7889 20.9106 -12.1514 20.7831 -11.3864 21.0381C-10.8764 21.1656 -10.2389 21.038 -9.72891 20.783C-8.19891 20.1455 -6.79641 20.273 -5.64891 21.4205C-4.88391 22.0581 -4.24641 22.4406 -3.22641 22.3131C-2.20641 22.1856 -1.44141 22.9506 -0.676409 23.7156C0.216091 24.6081 1.10859 25.2456 2.25609 25.883C3.02109 26.2656 3.65859 26.7756 4.55109 26.5206C4.93359 26.3931 5.31609 26.6481 5.69859 26.9031C7.61109 28.4331 9.65109 29.7081 11.9461 30.4731C12.4561 30.6006 12.8386 30.9831 13.0936 31.3656C13.9861 32.1306 14.7511 32.8956 15.8986 33.1506C16.5361 33.2781 16.9186 33.6606 17.1736 34.1706C17.9386 35.3181 18.7036 36.3381 20.1061 36.7206C20.6161 36.8481 20.9986 37.3581 21.3811 37.7406C22.5286 39.2706 23.6761 40.8006 24.8236 42.3306C25.0786 43.0956 25.0786 43.7331 24.9511 43.9881Z" fill="#F9A894"/>
</svg>
