<svg width="97" height="146" viewBox="0 0 97 146" fill="none" xmlns="http://www.w3.org/2000/svg">
<path d="M66.7072 27.3738C66.6724 27.8983 66.763 28.4002 67.1045 28.8568C67.9131 29.7473 68.7216 30.6378 68.9481 31.8926C68.9708 32.018 69.267 32.2237 69.4152 32.3265C70.1558 32.8406 70.3945 33.4453 70.4276 34.3463C70.438 35.1217 70.6767 35.7265 71.3947 36.1151C72.1353 36.6292 72.3967 37.3594 72.3043 38.283C72.2119 39.2066 72.4733 39.9368 72.9856 40.6216C74.0102 41.9914 74.6811 43.5546 75.352 45.1178C75.7614 45.9508 75.8974 46.7036 75.9304 47.6046C75.838 48.5282 75.8711 49.4291 75.9042 50.3301C75.8571 51.5046 76.1864 52.6112 76.995 53.5018C77.462 53.9357 77.8036 54.3923 77.6432 54.9395C77.4253 55.8857 77.9377 56.5706 78.5755 57.2328C79.2133 57.8951 79.7482 58.7054 79.4049 59.6743C79.3021 59.8224 79.4728 60.0507 79.5181 60.3017C79.9729 61.3856 80.3249 62.6177 80.7797 63.7016C81.2118 64.6601 81.4959 65.5158 80.628 66.4498C80.6837 67.4762 82.2347 67.4554 82.2103 68.7554C82.2433 69.6563 82.2764 70.5573 82.3095 71.4582C82.2973 72.1083 82.4105 72.7356 83.003 73.1469C83.5955 73.5582 83.7088 74.1856 83.5711 74.8582C83.3532 75.8045 83.5118 76.6828 84.1722 77.4705C84.4911 77.8016 84.5817 78.3035 84.5242 78.7025C84.3516 79.8997 84.4073 80.9262 84.9876 81.9875C85.249 82.7177 85.1339 83.5158 85.2698 84.2686C85.3482 85.4205 85.6549 86.4016 86.2352 87.4629C86.9862 88.7525 87.258 90.2582 87.7581 91.5931C87.8034 91.844 87.8487 92.095 87.7459 92.2431C87.2318 92.9837 87.345 93.6111 87.9828 94.2733C88.6206 94.9355 88.0037 95.8242 88.1396 96.5771C88.2981 97.4554 89.3472 97.5251 89.3803 98.4261C89.4029 98.5516 89.4029 98.5516 89.4256 98.677C88.9776 101.22 90.2637 103.319 90.9223 105.533C91.1384 106.012 91.229 106.514 91.1941 107.038C91.2168 107.164 91.1139 107.312 91.1366 107.437C92.3773 109.286 91.5652 111.247 91.9276 113.254C92.1314 114.384 92.2098 115.536 92.5391 116.642C93.21 118.205 93.6526 119.939 94.3461 121.628C94.5622 122.107 94.8009 122.712 94.2415 123.202C93.8075 123.669 93.7727 124.193 93.8859 124.821C94.1926 125.802 93.9521 126.622 93.1644 127.283C92.6276 127.898 92.1135 128.639 91.7249 129.357C91.2108 130.097 90.6287 130.461 89.8079 130.221C88.9871 129.98 88.3023 130.493 87.7428 130.982C87.0806 131.62 86.3504 131.881 85.4268 131.789C85.0278 131.732 84.5259 131.822 84.1721 132.016C81.9241 133.199 79.5401 133.629 77.2241 134.436C76.6194 134.675 75.8439 134.685 75.091 134.821C74.1901 134.854 73.209 135.161 72.4788 135.422C71.6458 135.832 70.8929 135.968 70.0722 135.727C69.3995 135.589 68.7721 135.703 68.3609 136.295C67.5958 137.081 66.6147 137.388 65.6911 137.295C64.2429 137.168 62.8279 137.942 61.3344 137.563C60.3533 137.87 59.5203 138.28 58.5392 138.586C56.7024 139.177 54.7977 139.391 53.177 140.461C52.7204 140.803 52.093 140.916 51.5005 140.505C50.6344 140.013 49.7561 140.172 48.8778 140.33C48.2505 140.444 47.6458 140.682 47.0411 140.921C44.9986 141.808 42.7401 142.216 40.5496 143C39.6939 143.284 38.9411 143.42 38.2807 142.632C38.1099 142.404 37.7108 142.346 37.4825 142.517C36.6722 143.052 35.874 142.937 35.0306 142.571C34.1872 142.205 33.4117 142.215 32.6013 142.75C31.791 143.285 30.9127 143.444 30.0815 142.428C29.7626 142.097 29.3635 142.039 28.8843 142.255C28.5305 142.449 28.3022 142.62 27.9485 142.813C27.5947 143.006 27.1956 142.949 26.8994 142.743C25.8172 141.773 25.169 140.335 24.5434 139.023C24.8537 137.153 23.9319 135.635 23.6148 133.878C23.5695 133.627 23.5015 133.251 23.3307 133.023C22.2486 132.052 22.4212 130.855 22.3201 129.577C22.3672 128.403 21.9124 127.319 21.5831 126.212C21.7104 124.764 21.2556 123.68 21.0517 122.551C20.9611 122.049 20.8705 121.547 20.5516 121.216C20.1648 120.508 19.7553 119.675 20.1212 118.832C20.1212 118.832 20.2241 118.684 20.0759 118.581C19.1994 117.314 19.6003 115.946 19.4993 114.669C19.3982 113.391 18.7727 112.079 18.9226 110.757C18.9801 110.357 18.764 109.878 18.5706 109.524C17.2846 107.424 16.9797 105.018 16.6748 102.611C16.5511 101.208 16.302 99.8282 15.5509 98.5386C15.2896 97.8085 15.1537 97.0556 15.1432 96.2801C15.1677 94.9801 15.1695 93.5546 14.5665 92.3679C14.3731 92.0141 14.408 91.4896 14.6136 91.1933C15.0598 90.0763 14.9012 89.198 14.0927 88.3075C13.9219 88.0792 13.603 87.748 13.5351 87.3716C13.4236 85.3188 12.4338 83.4245 12.4705 81.4744C12.5402 80.4254 12.359 79.4216 11.9042 78.3376C11.7335 78.1094 11.6655 77.7329 11.6202 77.482C11.7701 76.1593 11.4181 74.9273 11.2143 73.798C11.0453 72.1442 10.899 70.6159 10.4791 69.0074C10.4111 68.631 10.3205 68.1291 10.5035 67.7074C10.6185 66.9093 10.6081 66.1338 10.4722 65.381C10.3816 64.8791 10.2684 64.2517 10.5542 63.6819C10.7598 63.3856 10.8173 62.9866 10.5211 62.7809C9.9286 62.3696 9.94082 61.7196 9.95304 61.0696C9.98791 60.5451 10.0228 60.0205 9.95483 59.6441C8.89711 57.3734 9.11677 55.0017 8.81188 52.595C8.52965 50.3139 8.64648 48.0903 8.23877 45.8318C8.14817 45.3299 8.05757 44.828 8.11509 44.4289C8.51595 43.061 8.41492 41.7836 8.56483 40.4609C8.74961 38.6137 8.6608 36.6863 8.57199 34.7589C8.50404 34.3825 8.53891 33.858 8.87003 33.5391C9.55491 33.0268 9.84072 32.4569 9.5567 31.6013C9.36327 31.2475 9.67174 30.8032 9.72926 30.4041C9.92447 29.3324 10.4159 28.4663 10.463 27.2917C10.4177 27.0408 10.6234 26.7445 10.7035 26.471C11.6063 25.0124 12.0873 23.3708 13.1382 22.0151C13.241 21.8669 13.3438 21.7188 13.4466 21.5707C14.7729 18.8696 16.8851 16.9336 18.9972 14.9976C19.6821 14.4853 20.2189 13.8701 20.7556 13.255C21.6008 12.1955 22.981 11.9463 23.7234 11.0349C23.8263 10.8868 23.9517 10.8642 24.0998 10.967C25.7188 11.3225 26.7696 9.9668 28.0819 9.34123C29.3715 8.59019 30.6837 7.96462 32.1667 7.56734C34.0261 7.10211 35.8629 6.51141 37.7328 6.82167C38.0064 6.90184 38.3601 6.70842 38.7366 6.64047C38.9875 6.59517 39.3413 6.40174 39.6149 6.48191C41.2338 6.83747 42.9904 6.52037 44.5744 7.40046C46.0104 8.17773 47.6066 8.40782 48.8595 9.6068C49.3266 10.0407 49.9992 10.1784 50.6492 10.1907C51.8238 10.2377 52.6672 10.6037 53.2475 11.665C53.9532 12.7037 54.9901 13.4234 55.9816 13.8922C56.6769 14.1554 57.144 14.5893 57.4053 15.3195C57.9054 16.6544 58.8395 17.5223 60.1273 18.1967C60.9934 18.6882 61.6311 19.3504 62.0633 20.3089C62.3473 21.1645 62.8823 21.9749 63.6455 22.6145C64.4088 23.2541 65.1721 23.8936 65.125 25.0682C65.1703 25.3191 65.4892 25.6502 65.7854 25.8559C66.4807 26.1191 66.8223 26.5756 66.7072 27.3738Z" fill="#FF6100"/>
<path d="M34.3576 16.1114C35.0303 16.249 35.5095 16.033 36.0689 15.5433C36.4 15.2244 36.7764 15.1565 37.301 15.1913C39.0802 14.9997 40.8595 14.8081 42.6143 15.9165C43.7766 16.6136 45.3503 16.7182 46.6729 16.8681C48.2692 17.0982 49.557 17.7726 50.5816 19.1424C51.777 20.7404 53.3036 22.0196 54.9329 23.1506C55.5254 23.5619 56.2434 23.9506 56.1736 24.9996C56.1963 25.1251 56.367 25.3534 56.5152 25.4562C58.1794 26.0627 58.3484 27.7165 58.9513 28.9033C59.5315 29.9646 60.1118 31.0259 60.7949 31.939C61.7742 33.0579 62.48 34.0965 62.8773 35.5795C63.4227 37.1654 64.3445 38.6832 65.1182 40.0983C65.3342 40.5775 65.8013 41.0115 65.6636 41.6841C65.423 42.5049 65.7872 43.087 66.2996 43.7719C67.3242 45.1416 67.7441 46.7501 68.3122 48.4614C68.5282 48.9406 68.4934 49.4652 68.9377 49.7737C69.5076 50.0595 69.7236 50.5387 69.7114 51.1887C69.802 51.6906 70.1209 52.0217 70.337 52.501C70.5304 52.8547 70.8493 53.1858 70.689 53.733C70.4938 54.8047 70.8806 55.5123 71.6439 56.1519C72.4071 56.7914 72.6912 57.6471 72.7242 58.5481C72.712 59.1981 72.8479 59.9509 73.3376 60.5103C73.6791 60.9669 73.7697 61.4688 73.5867 61.8905C73.2538 63.6349 74.0275 65.0499 74.6984 66.6131C75.1305 67.5716 75.54 68.4046 75.4703 69.4537C75.8223 70.6857 76.6761 71.8272 77.0508 73.1848C77.1867 73.9376 77.448 74.6678 77.5839 75.4206C77.7198 76.1734 77.8331 76.8008 78.0945 77.531C78.3332 78.1357 78.4464 78.763 78.5597 79.3904C78.889 80.497 79.241 81.7291 79.6958 82.813C79.9798 83.6687 80.3667 84.3762 79.8752 85.2423C79.612 85.9376 79.9989 86.6451 80.3631 87.2272C81.4783 89.0988 81.6124 91.2772 81.7239 93.33C81.8929 94.9838 81.8109 96.6829 82.8582 98.1781C83.7121 99.3196 83.2886 100.562 83.6405 101.794C83.7538 102.422 83.7416 103.072 83.7293 103.722C83.7746 103.972 83.6945 104.246 83.8426 104.349C84.9247 105.32 84.7748 106.642 84.7504 107.942C84.773 108.068 84.7957 108.193 84.8184 108.319C85.7175 109.711 85.6129 111.285 85.8847 112.79C86.2471 114.798 87.1114 116.715 87.4738 118.722C87.5418 119.099 87.7125 119.327 88.0314 119.658C88.3956 120.24 88.6117 120.72 88.6221 121.495C88.7807 122.373 88.9166 123.126 89.0751 124.004C89.2563 125.008 89.0733 125.43 88.1149 125.862C87.8639 125.907 87.7384 125.93 87.4875 125.975C84.0196 126.861 83.8262 126.507 83.1571 123.518C83.0212 122.765 82.7825 122.161 82.4183 121.578C82.0541 120.996 81.6899 120.414 81.9304 119.594C82.0332 119.445 81.9879 119.195 81.8171 118.966C80.8727 117.323 80.5556 115.566 79.9649 113.729C79.1807 111.539 78.3966 109.348 78.4908 106.999C78.5728 105.3 78.2557 103.544 77.5621 101.855C77.13 100.896 76.9261 99.7672 76.5968 98.6606C76.5289 98.2842 76.609 98.0106 76.6666 97.6116C76.8844 96.6653 76.7032 95.6615 76.2711 94.703C75.236 92.5578 74.7377 89.7974 74.6385 87.0946C74.696 86.6955 74.4799 86.2163 74.2865 85.8625C73.6383 84.4248 73.0929 82.8389 73.1748 81.1399C73.2097 80.6153 73.2219 79.9653 72.7549 79.5314C71.7529 78.2871 71.5839 76.6333 71.1867 75.1503C71.0055 74.1465 70.8469 73.2682 70.2893 72.3324C69.709 71.2711 69.6306 70.1192 69.5749 69.0928C69.4512 67.6899 69.0992 66.4578 68.2454 65.3164C68.0746 65.0881 67.7784 64.8824 67.8585 64.6088C67.8377 63.0579 66.8357 61.8136 66.6894 60.2853C66.6563 59.3843 66.3723 58.5287 65.8373 57.7183C65.6665 57.49 65.4731 57.1363 65.5759 56.9881C65.8966 55.8938 65.3843 55.2089 64.7465 54.5466C64.2568 53.9872 64.0181 53.3825 64.0077 52.607C64.1227 51.8089 63.7585 51.2268 63.3943 50.6448C62.3923 49.4005 61.7215 47.8373 61.3015 46.2288C61.1656 45.476 60.7788 44.7685 60.2891 44.2091C58.4786 42.0743 57.2501 39.5752 56.5235 36.9856C56.4555 36.6092 56.3876 36.2328 56.0913 36.0272C55.112 34.9083 54.361 33.6187 53.3816 32.4999C52.7212 31.7122 52.3117 30.8792 52.005 29.8981C51.7436 29.1679 51.4021 28.7113 50.787 28.1746C49.8756 27.4322 48.8614 26.8379 48.3839 25.6285C48.1905 25.2747 47.8141 25.3427 47.5178 25.137C47.0735 24.8285 46.6065 24.3946 46.2876 24.0635C45.8205 23.6296 45.3535 23.1956 44.6809 23.0579C43.8601 22.8174 42.9591 22.8505 42.3213 22.1883C40.5996 21.9808 39.0609 21.3517 37.2816 21.5433C36.9052 21.6113 36.5514 21.8047 36.0722 22.0208C34.8854 22.6237 33.7213 23.3521 32.5119 23.8295C32.1355 23.8975 31.6789 24.239 31.4732 24.5353C30.5705 25.9938 29.2007 27.0185 27.9791 28.1459C27.5225 28.4875 27.214 28.9318 26.9282 29.5017C26.3339 30.5159 26.0359 31.7357 25.1454 32.5443C24.9153 34.1406 23.9899 35.4737 22.9164 36.7039C22.6881 36.8747 22.756 37.2511 22.6759 37.5247C22.7072 39.8512 21.9177 41.9371 22.0744 44.2409C22.165 44.7428 21.8566 45.1872 21.8217 45.7117C21.6613 46.2589 21.6265 46.7834 21.6143 47.4334C21.6682 49.8853 21.5967 52.3599 21.1261 54.777C21.011 55.5751 21.1469 56.3279 21.5338 57.0355C21.7498 57.5147 21.9659 57.9939 21.9084 58.393C21.8369 60.8676 22.6663 63.3091 22.8457 65.7383C22.9363 66.2402 23.0496 66.8676 23.0147 67.3921C22.9572 67.7912 23.0478 68.2931 23.1157 68.6695C23.5705 69.7534 24.2763 70.7921 23.8527 72.0346C24.8774 73.4043 24.0426 75.2393 24.7135 76.8025C24.7588 77.0534 24.7814 77.1789 24.8267 77.4299C24.4136 79.4478 25.3581 81.0912 25.9488 82.928C26.1875 83.5327 26.3008 84.16 26.2886 84.8101C26.1962 85.7337 26.4802 86.5893 26.6387 87.4676C27.2068 89.1789 27.5465 91.061 27.9891 92.795C28.0571 93.1714 28.125 93.5478 27.9194 93.844C27.5081 94.4365 27.6213 95.0639 27.8601 95.6686C28.3932 97.9044 28.7783 100.037 29.5624 102.228C29.7785 102.707 29.7436 103.232 29.8342 103.734C30.1165 106.015 30.3987 108.296 30.7036 110.703C30.8395 111.455 30.9754 112.208 31.3169 112.665C31.9774 113.453 32.0105 114.353 31.9181 115.277C31.8257 116.201 31.9842 117.079 32.3937 117.912C32.974 118.973 33.1552 119.977 32.9826 121.174C32.8101 122.371 33.162 123.604 33.6168 124.687C34.0037 125.395 34.1622 126.273 34.4463 127.129C35.1851 129.069 35.8211 131.156 36.1835 133.164C36.3873 134.293 36.9676 135.354 37.0686 136.632C37.1244 137.658 36.7357 138.376 36.2443 139.242C35.8556 139.96 34.9773 140.119 34.2367 139.605C33.6442 139.193 33.0517 138.782 32.5847 138.348C32.2658 138.017 31.9469 137.686 32.0045 137.287C31.893 135.234 31.3023 133.397 30.5861 131.583C30.1313 130.499 29.4256 129.46 29.8264 128.093C29.9293 127.944 29.7585 127.716 29.7132 127.465C29.0876 126.153 28.9639 124.75 28.5893 123.393C28.26 122.286 27.7024 121.35 27.2476 120.266C26.9182 119.16 26.4059 118.475 26.521 117.677C26.636 116.878 25.5643 116.683 25.6793 115.885C25.817 115.212 26.0802 114.517 25.8188 113.787C25.7735 113.536 25.6027 113.308 25.5574 113.057C25.364 112.703 25.3989 112.178 25.2055 111.825C24.7733 110.866 25.4704 109.704 24.81 108.916C24.0014 108.026 24.2193 107.079 23.8098 106.246C23.6164 105.893 23.6286 105.243 23.6861 104.844C23.6757 104.068 23.7907 103.27 23.5293 102.54C22.9839 100.954 22.815 99.3001 22.7714 97.6237C22.7279 95.9473 21.726 94.703 21.3287 93.22C21.022 92.2388 20.4644 91.303 20.7851 90.2086C20.9681 89.7869 20.752 89.3077 20.5586 88.9539C20.0811 87.7445 19.832 86.3643 19.8564 85.0643C19.9035 83.8897 19.6996 82.7605 19.6439 81.7341C19.576 81.3576 19.4854 80.8557 19.2919 80.502C18.9504 80.0454 18.8824 79.669 18.9173 79.1444C19.0097 78.2208 18.8738 77.468 18.236 76.8058C17.9171 76.4747 17.952 75.9501 18.0095 75.5511C18.4452 73.6585 18.0253 72.0501 17.0808 70.4067C16.8874 70.0529 16.8195 69.6765 16.8996 69.4029C17.1175 68.4567 17.0844 67.5557 16.9032 66.5519C16.7447 65.6736 16.8144 64.6246 16.6332 63.6208C16.1227 61.5104 16.0112 59.4576 16.0252 57.3821C15.9921 56.4811 16.3355 55.5122 15.5496 54.7471C15.5269 54.6217 15.5043 54.4962 15.4816 54.3707C16.0202 52.3301 15.1559 50.4131 15.4208 48.2923C15.2623 47.414 15.149 46.7867 15.0584 46.2848C14.947 44.2319 15.36 42.214 15.2486 40.1611C15.8202 39.0214 15.9701 37.6988 16.1427 36.5016C16.2002 36.1025 16.3832 35.6808 16.8624 35.4647C17.57 35.0779 17.8558 34.508 17.5718 33.6524C17.5038 33.276 17.4132 32.7741 17.6415 32.6033C18.5094 31.6693 18.5338 30.3692 19.1281 29.355C19.3337 29.0588 19.3686 28.5342 19.6195 28.4889C20.829 28.0115 21.0242 26.9398 21.3675 25.9709C21.6307 25.2756 21.9391 24.8312 22.692 24.6953C23.3193 24.582 23.3769 24.183 23.6853 23.7386C24.7135 22.2574 25.7418 20.7762 27.3398 19.5808C29.3945 18.0438 31.6199 16.7351 34.3576 16.1114Z" fill="#FFAD00"/>
<path d="M44.332 64.192C43.8858 65.309 43.7934 66.2326 43.8718 67.3845C43.9379 69.1864 43.856 70.8855 43.7967 72.71C43.7374 74.5346 44.1799 76.2686 44.4744 77.8997C44.7462 79.4054 45.018 80.911 45.187 82.5648C45.356 84.2186 45.5476 85.9978 46.2185 87.561C46.4345 88.0403 46.377 88.4393 46.3421 88.9639C46.2498 89.8875 46.4083 90.7658 46.6923 91.6214C47.4538 93.6865 47.9643 95.7969 48.2239 97.9526C48.2919 98.329 48.3825 98.8309 48.4504 99.2073C49.5987 101.98 49.9716 104.763 50.2416 107.694C50.3548 108.321 50.4454 108.823 50.6615 109.303C51.9022 111.152 52.1845 113.433 52.8205 115.52C53.4338 117.483 53.6934 119.638 54.4549 121.703C54.9776 123.164 55.1239 124.692 55.2929 126.346C55.394 127.623 55.495 128.901 56.2234 130.065C56.4168 130.418 56.5074 130.92 56.5754 131.297C56.5631 131.947 56.6764 132.574 56.9151 133.179C57.3473 134.137 56.7077 134.901 56.3417 135.744C55.9531 136.462 54.3794 136.357 53.9926 135.65C52.7972 134.052 52.081 132.238 51.7186 130.23C51.5601 129.352 51.276 128.496 50.7411 127.686C50.1608 126.625 49.6833 125.415 49.4568 124.16C49.2756 123.157 48.969 122.175 48.5142 121.092C47.9339 120.03 47.8102 118.627 47.4582 117.395C47.3676 116.893 47.277 116.392 47.061 115.912C46.2193 114.121 46.256 112.171 45.8134 110.437C45.7908 110.311 45.7908 110.311 45.7681 110.186C45.6549 109.559 44.8341 109.318 44.8236 108.543C44.8585 108.018 44.8707 107.368 44.5292 106.911C43.6753 105.77 43.529 104.242 43.2798 102.861C42.7014 100.375 42.2484 97.8652 41.9208 95.3331C41.717 94.2039 41.8895 93.0067 41.5376 91.7746C41.379 90.8963 41.0723 89.9152 40.9138 89.0369C40.6297 88.1812 39.9693 87.3935 40.4381 86.402C40.5409 86.2539 40.3702 86.0256 40.3249 85.7746C39.6313 84.086 39.3369 82.4548 39.0198 80.6982C38.8508 79.0444 38.6592 77.2652 38.1138 75.6793C37.7844 74.5727 37.957 73.3755 38.0268 72.3265C37.9832 70.65 37.6661 68.8934 38.0217 67.2745C38.1019 67.0009 38.0339 66.6245 38.1367 66.4764C38.8791 65.565 38.7781 64.2876 38.8478 63.2385C38.9751 61.7904 39.4213 60.6734 40.2438 59.4884C40.5523 59.044 40.9862 58.577 41.1692 58.1553C41.6607 57.2892 42.4588 57.4043 43.189 57.1429C43.6682 56.9268 44.1126 57.2353 44.5343 57.4183C44.956 57.6013 45.2523 57.8069 45.6514 57.8644C46.575 57.9568 47.2476 58.0945 47.4515 59.2238C47.4968 59.4747 47.793 59.6803 47.9638 59.9086C49.8214 60.8689 50.515 62.5576 51.2311 64.3717C51.5378 65.3528 52.0728 66.1632 52.1285 67.1896C52.2191 67.6915 52.4125 68.0452 52.7088 68.2509C53.5975 68.8678 53.9042 69.8489 53.9599 70.8754C53.9477 71.5254 54.1864 72.1301 54.6534 72.564C55.1204 72.998 55.3592 73.6027 55.3469 74.2527C55.4027 75.2791 55.6867 76.1348 56.4726 76.8998C57.1104 77.562 57.3718 78.2922 57.4049 79.1932C57.5408 79.946 57.6767 80.6988 58.0635 81.4064C58.4277 81.9884 58.5183 82.4903 58.6316 83.1177C58.8354 84.2469 59.1421 85.2281 59.2205 86.3799C59.2762 87.4064 59.8565 88.4677 60.4367 89.529C60.8009 90.111 61.017 90.5903 61.0048 91.2403C60.9246 91.5139 60.9926 91.8903 61.1407 91.9931C62.2228 92.9638 62.3012 94.1157 62.2768 95.4157C62.2193 95.8148 62.5608 96.2714 62.7542 96.6251C63.4147 97.4128 63.5959 98.4166 64.1308 99.227C64.8819 100.517 65.0056 101.919 64.7302 103.265C64.4774 104.736 64.6011 106.138 65.5805 107.257C65.7286 107.36 65.7739 107.611 65.8192 107.862C65.7721 109.036 66.3524 110.098 67.0354 111.011C67.1836 111.114 67.2515 111.49 67.2742 111.616C66.896 113.109 67.8753 114.228 68.1018 115.483C68.1245 115.608 68.1471 115.734 68.2952 115.836C68.6821 116.544 68.168 117.285 68.2812 117.912C68.3945 118.539 69.3181 118.632 69.4313 119.259C69.5672 120.012 69.6805 120.639 69.6909 121.415C69.6334 121.814 69.5985 122.338 70.0429 122.647C70.9316 123.264 71.0902 124.142 70.8723 125.088C70.7921 125.362 70.8601 125.738 71.0082 125.841C72.0328 127.211 71.5292 128.727 71.6528 130.13C71.618 130.654 71.3095 131.099 70.8076 131.189C69.4274 131.438 68.1048 131.288 66.7821 131.139C66.2576 131.104 66.0641 130.75 65.9735 130.248C65.7923 129.244 65.5885 128.115 64.8026 127.35C64.8026 127.35 64.7799 127.224 64.7573 127.099C64.8619 125.525 64.1108 124.236 63.4853 122.924C63.2465 122.319 63.2588 121.669 63.271 121.019C63.2152 119.992 63.0567 119.114 62.4991 118.178C61.6452 117.037 61.4989 115.509 61.2497 114.128C61.2044 113.877 61.3072 113.729 61.2619 113.478C61.1836 112.326 59.8505 111.401 60.274 110.159C60.6975 108.916 60.0946 107.729 59.8907 106.6C59.7775 105.973 59.5614 105.493 59.117 105.185C58.5019 104.648 58.2632 104.043 58.2527 103.268C58.0262 102.013 57.9252 100.736 57.6987 99.4812C57.6081 98.9793 57.6203 98.3293 57.4495 98.101C56.1966 96.902 56.3814 95.0548 55.3567 93.685C55.186 93.4567 55.2661 93.1831 55.1982 92.8067C54.6999 90.0463 53.9733 87.4567 52.7448 84.9577C52.0966 83.52 51.4257 81.9568 51.2567 80.303C51.1888 79.9266 51.2236 79.4021 51.0302 79.0483C50.5754 77.9644 50.3263 76.5842 50.1799 75.0559C50.112 74.6795 50.0214 74.1776 49.7251 73.9719C48.9845 73.4578 48.8486 72.705 48.7127 71.9522C48.3155 70.4691 47.9635 69.2371 46.7332 68.1636C45.9699 67.524 45.7887 66.5202 45.2311 65.5844C45.0377 65.2306 44.9244 64.6032 44.332 64.192Z" fill="#FFAD00"/>
</svg>
