<svg width="75" height="81" viewBox="0 0 75 81" fill="none" xmlns="http://www.w3.org/2000/svg">
<path d="M46.835 80.58C45.9425 80.4525 45.05 80.325 44.1575 80.325C43.265 80.1975 42.5 79.9425 42.3725 78.795C42.3725 78.285 41.99 78.03 41.6075 77.775C41.48 77.6475 41.225 77.52 41.0975 77.3925C39.0575 75.99 37.7825 73.95 37.0175 71.655C36.635 70.635 36.38 69.4875 35.4875 68.7225C35.36 68.595 35.2325 68.34 35.2325 68.2125C34.7225 66.6825 33.9575 65.4075 32.9375 64.26C31.6625 62.73 31.1525 60.945 30.77 59.0325C30.6425 58.5225 30.6425 57.885 30.3875 57.375C30.26 56.9925 30.1325 56.4825 29.6225 56.4825C29.24 56.4825 29.1125 56.9925 28.985 57.2475C28.3475 57.885 27.71 58.395 27.2 59.0325C26.8175 59.5425 26.435 60.0525 26.0525 60.5625C25.67 61.3275 25.2875 62.22 24.14 62.3475C23.63 62.3475 23.5025 63.1125 23.2475 63.495C22.865 64.005 22.61 64.3875 21.9725 64.3875C20.825 64.3875 19.805 65.025 19.04 65.79C18.6575 66.1725 18.275 66.6825 17.6375 66.6825C16.6175 66.81 15.725 67.1925 14.96 67.83C14.5775 68.2125 14.0675 68.2125 13.5575 68.085C11.7725 67.575 10.115 68.085 8.585 68.85C7.31 69.4875 5.9075 69.7425 4.505 69.9975C3.8675 70.125 3.485 69.87 2.975 69.615C1.955 68.85 1.19 67.83 0.2975 66.81C-0.085 66.4275 0.0425 65.9175 0.17 65.4075C0.425 64.005 1.0625 62.73 1.3175 61.3275C1.5725 59.2875 2.21 57.2475 2.5925 55.08C2.8475 54.06 3.23 53.1675 3.74 52.4025C3.8675 52.02 4.1225 51.765 4.505 51.6375C5.3975 51.51 5.78 50.8725 6.1625 50.1075C6.8 48.96 7.6925 48.0675 8.7125 47.3025C9.9875 46.41 11.135 45.39 12.2825 44.2425C13.3025 43.095 14.705 42.33 15.98 41.4375C16.49 41.055 17 40.6725 17.3825 40.1625C17.6375 39.9075 17.51 39.6525 17.255 39.3975C17.1275 39.1425 16.8725 39.015 16.6175 38.8875C14.96 37.995 13.3025 36.975 12.155 35.3175C10.115 33.915 8.585 31.62 6.1625 30.6C5.27 30.2175 4.505 29.4525 3.74 28.815C3.23 28.4325 2.8475 27.9225 2.8475 27.285C2.975 26.6475 2.465 26.265 2.21 25.755C1.5725 24.48 0.8075 23.3325 0.2975 21.93C-0.34 20.4 0.17 19.38 0.68 18.105C0.935 17.85 1.3175 17.34 1.5725 16.83C1.955 16.1925 1.8275 15.3 2.465 15.045C3.485 14.6625 4.6325 14.4075 5.78 14.535C6.035 14.535 6.1625 14.6625 6.4175 14.6625C8.4575 15.045 10.37 15.4275 12.41 15.9375C16.3625 16.83 19.9325 18.36 22.865 21.2925C22.9925 21.42 23.12 21.675 23.375 21.675C24.7775 21.8025 25.5425 22.95 26.435 23.8425C26.69 24.0975 27.0725 23.97 27.2 23.5875C28.475 20.655 29.8775 17.85 31.1525 14.9175C31.535 14.1525 31.9175 13.515 32.555 12.8775C33.575 11.8575 34.595 10.71 34.7225 9.0525C34.7225 8.5425 35.105 8.16 35.4875 7.7775C37.0175 6.7575 37.91 5.2275 38.93 3.825C39.44 3.1875 39.8225 2.55 40.8425 2.4225C41.48 2.295 41.735 1.785 41.99 1.275C42.245 0.6375 42.6275 0.3825 43.265 0.255C44.4125 0.1275 45.56 0 46.835 0C47.7275 0 48.2375 0.255 48.365 1.1475C48.62 2.55 49.13 3.6975 49.895 4.845C50.2775 5.355 50.2775 5.865 49.895 6.375C49.385 7.0125 49.13 7.7775 49.64 8.5425C49.895 8.925 49.7675 9.435 49.64 9.8175C48.875 11.985 48.875 14.28 48.2375 16.4475C48.11 16.9575 48.11 17.595 48.2375 18.105C48.4925 20.7825 47.6 23.205 46.7075 25.755C46.58 26.265 46.1975 26.6475 46.1975 27.1575C45.815 28.815 46.07 29.1975 47.7275 29.58C48.2375 29.7075 48.7475 29.835 49.13 29.9625C49.64 30.2175 50.2775 30.2175 50.7875 30.09C51.5525 29.835 52.3175 29.9625 53.0825 30.09C54.485 30.4725 56.015 30.6 57.545 30.345C59.2025 30.09 60.605 30.4725 62.135 30.9825C63.2825 31.365 64.43 31.7475 65.5775 32.13C65.8325 32.2575 65.96 32.2575 66.215 32.2575C67.3625 31.875 68.255 32.385 69.275 32.895C70.805 33.66 72.335 34.425 73.7375 35.19C74.5025 35.5725 74.7575 36.0825 74.5025 36.975C73.9925 37.485 73.9925 37.995 73.9925 38.505C73.9925 40.6725 72.845 42.4575 71.315 43.86C70.55 44.625 69.4025 44.88 68.3825 45.0075C67.49 45.135 66.725 45.2625 65.96 45.5175C65.705 45.645 65.3225 45.645 65.195 45.7725C64.175 46.92 62.645 47.175 61.37 47.94C60.095 48.705 58.6925 48.8325 57.29 48.8325C56.9075 48.8325 56.3975 48.8325 56.015 48.96C54.3575 49.8525 52.445 50.235 50.5325 50.6175C49.7675 50.745 49.7675 50.8725 49.7675 51.6375C49.895 52.1475 50.0225 52.785 50.0225 53.295C50.0225 53.6775 50.2775 54.1875 50.0225 54.57C49.385 55.59 50.0225 56.4825 50.2775 57.375C50.7875 58.7775 51.2975 60.18 51.2975 61.71C51.2975 62.73 51.935 63.6225 51.2975 64.6425C52.19 66.4275 51.68 68.2125 51.8075 70.125C51.935 71.7825 51.425 73.3125 51.8075 74.97C51.935 75.6075 51.5525 76.1175 51.2975 76.5C50.7875 77.3925 50.15 78.285 50.0225 79.4325C49.895 80.1975 49.385 80.7075 48.62 80.7075C47.9825 80.4525 47.4725 80.58 46.835 80.58Z" fill="#FFAD00"/>
</svg>
