<svg width="183" height="209" viewBox="0 0 183 209" fill="none" xmlns="http://www.w3.org/2000/svg">
<path d="M162.506 94.4429C163.1 94.1906 163.689 93.9781 164.301 93.7481C172.651 90.8047 180.762 87.329 188.545 83.21C196.697 78.8726 203.968 73.4635 210.12 66.7733C210.744 66.1012 211.328 65.4245 211.819 64.6763C212.185 64.1351 212.283 63.4815 211.565 63.0741C210.905 62.6937 210.525 63.1729 210.151 63.6124C204.279 70.6583 197.126 76.2627 188.938 80.737C176.787 87.3631 163.896 92.2288 150.418 95.7553C148.691 96.2162 148.523 96.0957 148.783 94.4131C149.316 90.9285 149.689 87.4252 149.581 83.9053C149.471 80.0626 149.321 76.2152 148.251 72.4807C148.078 71.896 147.95 71.2761 147.649 70.7567C147.098 69.7847 145.989 69.7946 145.509 70.7859C145.168 71.4511 144.999 72.1971 144.892 72.9303C144.143 77.0543 143.53 81.2147 143.576 85.4327C143.573 85.7952 143.765 86.221 143.196 86.5972C142.873 86.0954 142.527 85.6111 142.243 85.1139C140.324 81.904 138.3 78.742 136.146 75.6454C132.855 70.9228 129.096 66.5682 124.942 62.4894C123.858 61.434 122.733 60.3739 121.297 59.7405C119.86 59.107 118.807 59.8291 119.035 61.3074C119.191 62.3739 119.533 63.402 119.938 64.4173C122.385 70.9953 125.968 77.0021 129.977 82.8174C133.71 88.2373 138.396 92.762 144.386 95.9694C144.765 96.1754 145.361 96.2459 145.331 96.847C145.259 96.9393 145.21 97.0142 145.148 97.027C137.092 99.0175 128.921 100.45 120.784 101.927C119.939 102.089 119.641 101.711 119.349 101.113C118.203 98.6995 116.644 96.5399 115.041 94.4154C110.87 88.9439 105.935 84.1478 100.345 79.9395C99.6987 79.4398 99.077 78.5601 98.1751 79.1993C97.2556 79.8162 97.8597 80.6737 98.2394 81.3837C102.215 88.8479 106.581 96.076 113.537 101.514C113.981 101.849 114.633 102.127 114.695 102.8C114.522 102.9 114.428 103.01 114.304 103.036C105.92 104.564 97.5498 105.973 89.2216 107.71C88.2918 107.902 87.7904 107.541 87.2867 106.856C81.0713 98.5632 72.4514 92.7067 63.9696 86.7054C63.4109 86.3168 62.7363 86.0557 62.1061 85.7595C61.7799 85.6201 61.4315 85.4983 61.0912 85.4783C59.978 85.3467 59.4655 85.9311 59.7678 86.9545C60.0269 87.8317 60.6148 88.4857 61.1979 89.1795C62.9871 91.2655 64.6874 93.4216 66.5655 95.4375C71.5419 100.742 76.8704 105.625 84.1298 108.156C84.2444 108.21 84.332 108.321 84.4945 108.482C82.7166 109.199 80.8583 109.402 79.0958 109.819C71.7008 111.504 64.3536 113.297 57.0578 115.337C55.3701 115.802 55.3701 115.802 54.4343 114.341C53.8045 113.36 53.108 112.431 52.2338 111.642C47.8893 107.642 42.7315 104.895 36.9299 103.161C36.0343 102.894 35.0977 102.804 34.1551 102.934C32.6195 103.136 32.0553 104.157 32.8732 105.423C33.385 106.209 34.0651 106.935 34.7992 107.545C39.2607 111.237 44.2805 114.129 49.8679 116.139C50.3707 116.32 50.9987 116.293 51.3304 116.897C50.6837 117.082 50.0766 117.273 49.4696 117.463C43.1036 119.311 36.72 121.136 30.4228 123.254C28.597 123.864 26.7011 124.386 25.0588 125.321C23.6738 126.124 22.2293 126.579 20.7195 126.904C16.708 127.76 13.1159 129.331 10.2177 132.193C8.82888 133.541 7.91588 135.126 7.34188 136.912C7.15212 137.495 7.07693 138.131 7.73272 138.551C8.29618 138.9 8.82839 138.66 9.34306 138.399C10.9585 137.521 12.727 136.884 14.4557 136.242C18.4757 134.802 21.7852 132.553 24.1481 129.103C24.7063 128.302 25.3744 127.595 26.3277 127.204C29.8565 125.827 33.411 124.575 37.0519 123.614C37.1361 123.584 37.281 123.722 37.4529 123.803C36.9563 125.276 36.1685 126.654 35.4602 128.042C34.3305 130.267 33.5364 132.551 33.2848 135.021C33.1097 136.673 33.3859 138.258 34.0961 139.753C34.6626 140.928 35.7138 141.072 36.6183 140.071C37.1753 139.451 37.5826 138.734 37.9327 137.989C39.5612 134.614 41.0353 131.18 41.0094 127.307C41.87 127.53 42.1222 128.124 42.557 128.538C44.2915 130.235 45.9639 131.944 47.6761 133.658C48.1109 134.072 48.6428 134.518 49.3656 134.201C50.1505 133.87 50.2701 133.199 50.2132 132.487C50.0506 130.452 49.5161 128.494 48.2237 126.809C47.0762 125.263 45.7731 123.839 44.3097 122.577C43.9801 122.297 43.3709 122.164 43.5748 121.463C50.238 119.489 56.9011 117.515 63.8096 115.852C63.6302 116.859 63.0253 117.372 62.5748 117.944C60.1734 121.207 58.3273 124.718 57.054 128.498C55.939 131.793 55.0577 135.156 55.3294 138.655C55.4026 139.57 55.3283 140.71 56.5197 141.033C57.8304 141.369 58.4519 140.374 59.0196 139.494C61.4868 135.674 63.9364 131.831 65.5093 127.563C66.8749 123.854 68.2054 120.101 67.5527 116.073C67.3616 114.962 68.0622 114.662 68.992 114.47C73.0304 113.556 77.0736 112.603 81.112 111.69C81.5459 111.6 82.0174 111.192 82.4778 111.73C81.9978 112.722 81.4827 113.668 81.06 114.687C78.5002 120.995 77.181 127.552 76.2722 134.217C76.1983 134.671 76.1992 135.175 76.3065 135.632C76.5644 136.69 77.5968 136.993 78.3936 136.221C78.8475 135.791 79.1566 135.223 79.4784 134.717C82.1987 130.12 84.0104 125.194 85.3545 120.133C85.4952 119.625 85.3446 119.023 86.0722 118.666C86.6781 120.531 87.2442 122.392 87.8723 124.24C88.7129 126.677 89.5758 129.097 90.9884 131.3C91.7058 132.393 92.4676 133.45 93.5676 134.205C95.2614 135.393 97.1761 134.712 97.7291 132.762C97.974 131.884 97.9137 131.03 97.7341 130.162C97.0169 126.51 95.8834 122.97 94.1826 119.624C92.7914 116.9 91.3334 114.228 89.9422 111.504C89.6934 111.051 89.241 110.615 89.5642 109.927C98.6268 108.116 107.755 106.434 117.316 104.843C115.095 108.108 113.395 111.071 112.112 114.246C109.629 120.422 108.673 126.799 108.305 133.327C108.134 136.31 108.33 139.256 108.786 142.212C108.888 142.889 109.042 143.633 109.894 143.754C110.901 143.934 111.273 143.171 111.557 142.479C112.006 141.404 112.416 140.323 112.729 139.211C115.185 130.714 117.543 122.184 119.407 113.576C120.06 110.61 121.089 107.708 121.048 104.639C121.046 104.317 121.246 104.159 121.516 104.09C122.012 103.987 122.508 103.885 122.982 103.8C133.881 101.802 144.771 99.7035 155.399 96.5859C155.692 96.4996 156.128 96.0473 156.517 96.6778C153.045 100.641 151.354 105.4 150.13 110.294C147.939 118.944 146.662 127.702 146.158 136.572C146.111 137.473 145.732 138.638 147.02 138.992C148.291 139.323 148.723 138.226 149.202 137.415C150.732 134.875 152.05 132.249 153.236 129.548C156.889 121.151 158.896 112.358 160.607 103.51C160.677 103.095 160.499 102.55 161.111 102.32C161.221 102.414 161.353 102.49 161.423 102.579C164.596 108.477 169.405 112.976 175.025 116.764C175.922 117.354 176.836 118.833 178.085 117.811C179.268 116.843 178.039 115.649 177.563 114.726C173.756 107.201 169.092 100.281 162.176 94.8473C162.412 94.5527 162.444 94.4557 162.506 94.4429ZM142.623 92.6368C139.23 90.4821 136.362 87.8049 133.943 84.7374C129.25 78.7405 125.462 72.2459 122.473 65.3016C122.09 64.4501 121.69 63.5763 121.588 62.3951C122.646 62.8226 123.246 63.5386 123.879 64.1575C130.254 70.4138 135.399 77.5324 139.886 85.0974C141.031 87.0065 142.127 88.9904 143.188 90.9298C143.55 91.6176 143.992 92.3148 144.017 93.1241C143.331 93.305 143.015 92.9049 142.623 92.6368ZM149.713 123.891C150.609 118.353 151.505 112.815 153.175 107.389C153.894 105.055 154.83 102.767 156.127 100.663C156.726 99.6856 157.382 98.7352 158.473 97.6951C158.924 99.502 159.099 101.095 158.796 102.631C156.829 112.799 154.565 122.912 149.777 132.384C149.539 132.86 149.434 133.412 148.546 133.931C148.761 130.409 149.186 127.154 149.713 123.891ZM110.931 138.394C108.449 132.276 113.326 112.676 118.845 106.737C116.736 117.594 113.887 127.879 110.931 138.394ZM87.4644 111.151C90.4761 116.707 93.807 122.12 95.3379 128.267C95.6085 129.387 96.0032 130.482 95.8844 131.657C95.8597 132.037 95.9623 132.533 95.422 132.671C94.9214 132.813 94.6409 132.457 94.3511 132.181C93.4114 131.264 92.694 130.171 92.1052 129.013C90.6357 126.098 89.6493 123.019 88.7073 119.904C87.9124 117.25 87.2637 114.553 86.7566 111.853C86.6796 111.481 86.4833 111.095 86.8086 110.73C87.1758 110.693 87.3336 110.893 87.4644 111.151ZM65.5071 120.931C64.6631 124.661 63.1795 128.174 61.3078 131.561C60.2285 133.529 59.0919 135.471 57.8921 137.607C56.6842 133.332 61.6024 121.054 65.7228 117.913C65.8789 118.979 65.7217 119.969 65.5071 120.931ZM161.427 96.9156C167.431 101.374 171.386 107.304 174.684 113.68C168.285 109.497 163.867 103.896 161.427 96.9156ZM64.9569 90.289C67.6228 90.9266 81.1395 102.078 83.3174 105.48C78.8496 104.569 69.3024 96.6681 64.9569 90.289ZM102.487 84.6674C105.938 86.1638 115.464 97.1462 117.09 101.632C111.378 97.9532 104.861 90.3298 102.487 84.6674ZM35.0812 105.16C39.3975 104.965 49.2793 110.547 51.7984 114.473C45.3337 112.721 40.078 109.439 35.0812 105.16ZM79.1648 130.89C79.8826 124.989 81.2668 119.246 84.0191 113.868C83.9678 119.928 81.8995 125.489 79.1648 130.89ZM21.8165 128.707C18.9586 132.763 14.7142 134.055 10.4522 135.325C12.9908 131.412 16.859 129.552 21.8165 128.707ZM146.884 93.4227C145.335 90.4983 145.285 81.8857 146.759 75.8922C147.758 81.5936 147.745 87.3365 146.884 93.4227ZM35.9414 137.612C34.7464 135.274 35.8247 130.927 38.686 127.012C39.3224 130.836 37.5618 134.136 35.9414 137.612ZM40.432 122.643C43.7392 124.505 46.5304 126.811 47.7341 130.44C44.8984 128.17 42.5295 125.531 40.432 122.643Z" fill="black"/>
<path d="M212.275 63.8832C212.282 64.1662 212.165 64.4748 211.969 64.7741C211.531 65.4076 210.987 66.0891 210.247 66.8886C204.304 73.3415 197.037 78.8921 188.628 83.3604C181.163 87.3357 173.217 90.7904 164.361 93.916C163.794 94.1109 163.244 94.3281 162.695 94.5453L162.61 94.5757C162.61 94.5757 162.606 94.6154 162.584 94.633C162.561 94.6505 162.557 94.6903 162.552 94.73C168.523 99.467 173.381 105.766 177.865 114.56C177.965 114.733 178.083 114.928 178.219 115.146C178.743 115.994 179.408 117.02 178.336 117.901C177.243 118.8 176.368 118.011 175.657 117.383C175.437 117.195 175.257 117.013 175.05 116.888C168.74 112.635 164.272 107.974 161.396 102.636C161.378 102.613 161.303 102.564 161.268 102.52L161.251 102.498C161.016 102.611 161.01 102.832 160.994 103.132C160.98 103.252 160.984 103.393 160.97 103.512C159.345 111.967 157.31 120.999 153.594 129.589C152.318 132.543 151.004 135.129 149.555 137.497C149.484 137.589 149.43 137.704 149.376 137.818C148.946 138.554 148.409 139.518 147.16 139.169C145.889 138.837 146.012 137.804 146.106 137.009C146.124 136.85 146.121 136.708 146.157 136.571C146.658 127.56 148.007 118.71 150.135 110.254C151.235 105.889 152.858 100.86 156.477 96.6725C156.319 96.4725 156.151 96.5332 155.894 96.664C155.809 96.6944 155.743 96.747 155.658 96.7773C145.035 99.8551 134.246 101.946 123.224 103.969C122.75 104.054 122.254 104.156 121.758 104.259C121.488 104.328 121.434 104.442 121.433 104.624L121.428 104.663C121.443 106.923 120.884 109.094 120.33 111.226C120.139 111.989 119.921 112.81 119.747 113.596C117.82 122.398 115.398 131.121 113.069 139.231C112.792 140.206 112.427 141.251 111.874 142.516C111.623 143.111 111.2 144.13 109.994 143.927C108.988 143.747 108.835 142.822 108.746 142.207C108.264 139.126 108.095 136.123 108.269 133.282C108.69 125.632 109.913 119.548 112.104 114.143C113.274 111.238 114.863 108.362 117.066 105.075C107.545 106.671 98.6428 108.319 89.8678 110.084C89.7191 110.489 89.9072 110.774 90.1082 111.12C90.1783 111.209 90.2262 111.315 90.2741 111.422C90.8675 112.54 91.4609 113.658 92.0321 114.794C92.8569 116.343 93.6944 117.954 94.5145 119.542C96.1498 122.759 97.3325 126.224 98.101 130.125C98.3144 131.218 98.3174 132.045 98.1042 132.826C97.8277 133.801 97.1993 134.513 96.3572 134.817C95.4928 135.138 94.5083 134.941 93.628 134.373C92.5456 133.64 91.7966 132.645 90.9962 131.401C89.6011 129.221 88.6986 126.796 87.8626 124.319C87.4295 123.038 87.0186 121.74 86.603 120.481C86.4384 119.998 86.296 119.498 86.1138 118.992C85.8471 119.203 85.8142 119.481 85.7544 119.817C85.7403 119.936 85.7215 120.095 85.6851 120.232C84.191 125.88 82.2741 130.673 79.7821 134.873L79.733 134.948C79.4286 135.476 79.1243 136.004 78.6926 136.417C78.2608 136.83 77.738 136.989 77.2528 136.831C76.7851 136.695 76.4298 136.291 76.2969 135.711C76.207 135.277 76.1839 134.79 76.2497 134.234C77.3452 126.159 78.8244 120.126 81.0422 114.664C81.3256 113.972 81.671 113.267 81.9894 112.619C82.1416 112.355 82.254 112.086 82.4061 111.822C82.1864 111.635 81.956 111.708 81.6414 111.812C81.5349 111.86 81.4285 111.908 81.3267 111.916C78.7187 112.495 76.0661 113.108 73.4978 113.692C72.0675 114.026 70.6371 114.361 69.229 114.679C68.277 114.888 67.8196 115.177 67.9547 116.08C68.6552 120.214 67.2405 123.998 65.9019 127.649C64.2927 132.054 61.7002 136.081 59.4074 139.62L59.3805 139.677C58.8351 140.54 58.1247 141.605 56.7169 141.237C55.5033 140.932 55.4489 139.857 55.3886 139.004C55.3804 138.902 55.3723 138.8 55.3642 138.698C55.0621 135.115 56.0148 131.66 57.0982 128.462C58.3667 124.722 60.2222 121.132 62.6459 117.851C62.7442 117.701 62.86 117.574 62.9758 117.447C63.2836 117.06 63.6311 116.677 63.7764 116.13C56.8901 117.775 50.0363 119.827 43.958 121.628C43.9029 121.924 44.07 122.045 44.3693 122.241C44.4616 122.313 44.5762 122.367 44.6463 122.455C46.0524 123.69 47.3953 125.118 48.5953 126.732C49.7604 128.301 50.406 130.171 50.6152 132.493C50.7012 133.471 50.3875 134.079 49.6424 134.414C48.7511 134.792 48.1012 134.151 47.7366 133.826C46.7794 132.886 45.7871 131.902 44.8696 130.968C44.1322 130.215 43.3549 129.458 42.6175 128.706C42.4901 128.59 42.4024 128.479 42.2972 128.346C42.0518 128.034 41.8017 127.763 41.396 127.614C41.3424 131.478 39.846 134.929 38.303 138.093C37.8722 139.009 37.4298 139.682 36.9617 140.232C36.4761 140.759 35.9217 141.016 35.4049 140.955C34.888 140.894 34.431 140.497 34.1437 139.858C33.416 138.341 33.1444 136.717 33.3243 135.025C33.5524 132.754 34.267 130.46 35.5091 127.966C35.666 127.662 35.8228 127.358 36.0019 127.037C36.5264 126.011 37.0731 124.967 37.4432 123.882C37.4257 123.859 37.4257 123.859 37.3859 123.855C37.3462 123.85 37.3111 123.806 37.2714 123.801C34.0024 124.684 30.6035 125.814 26.5694 127.373C25.767 127.682 25.113 128.269 24.4787 129.202C22.2363 132.485 19.0367 134.827 14.6974 136.411C12.9909 137.035 11.2446 137.655 9.60698 138.55C9.17651 138.782 8.48871 139.144 7.81538 138.701C7.00996 138.183 7.1437 137.392 7.32876 136.85C7.93439 134.966 8.88715 133.386 10.2537 132.056C12.9249 129.409 16.3943 127.682 20.8397 126.736C22.5355 126.372 23.883 125.887 25.1171 125.166C26.4798 124.38 28.0307 123.878 29.5197 123.388C29.8343 123.285 30.1711 123.163 30.5033 123.081C36.4859 121.068 42.6613 119.298 48.6109 117.563L49.5501 117.291C49.9665 117.179 50.4051 117.049 50.8039 116.915L51.1361 116.833C50.9385 116.628 50.665 116.556 50.3516 116.478C50.2148 116.442 50.0558 116.423 49.9237 116.347C44.4508 114.39 39.3515 111.489 34.7976 107.726C34.0461 107.093 33.3483 106.345 32.8366 105.559C32.4253 104.946 32.3192 104.309 32.5394 103.811C32.7864 103.256 33.3947 102.884 34.2531 102.784C35.1957 102.653 36.1323 102.744 37.1074 103.021C43.0856 104.796 48.2691 107.666 52.4686 111.528C53.2681 112.268 54.009 113.162 54.7041 114.272C55.5524 115.622 55.5524 115.622 57.1161 115.182C63.3932 113.404 70.2047 111.71 79.1541 109.664C79.6722 109.544 80.2301 109.428 80.7435 109.348C81.8989 109.122 83.1164 108.883 84.2556 108.453C84.2206 108.408 84.1855 108.364 84.1633 108.381C76.7496 105.792 71.303 100.714 66.5242 95.6135C65.1813 94.185 63.9099 92.664 62.6735 91.1876C62.1604 90.5827 61.6474 89.9779 61.1344 89.373L61.0993 89.3285C60.5337 88.657 59.9506 87.9632 59.6739 87.0638C59.4755 86.355 59.6418 85.9716 59.829 85.7518C60.0162 85.5321 60.4117 85.2563 61.2068 85.3503C61.5471 85.3704 61.8955 85.4922 62.279 85.6585C62.3935 85.7123 62.5081 85.7662 62.6227 85.82C63.1605 86.0448 63.7158 86.2919 64.1775 86.6488L65.537 87.5956C73.4425 93.1862 81.6298 98.9512 87.5519 106.827C88.0205 107.467 88.4471 107.779 89.2752 107.595C95.2702 106.328 101.405 105.239 107.355 104.189C109.701 103.781 112.029 103.351 114.375 102.943C114.415 102.948 114.482 102.895 114.548 102.842C114.571 102.825 114.593 102.807 114.615 102.79C114.538 102.418 114.221 102.199 113.865 101.976C113.755 101.882 113.64 101.828 113.548 101.757C106.258 96.0776 101.807 88.3758 98.1758 81.5773C98.1232 81.5106 98.1104 81.4486 98.0578 81.3819C97.691 80.7339 97.1933 79.8285 98.1795 79.159C99.0545 78.5771 99.6915 79.1563 100.223 79.6021C100.351 79.718 100.461 79.8116 100.57 79.9052C106.292 84.1895 111.236 89.0873 115.302 94.4255C116.765 96.3722 118.433 98.6254 119.627 101.145C119.919 101.744 120.151 101.993 120.856 101.834L122.626 101.52C130.063 100.161 137.743 98.7916 145.197 96.9516L145.219 96.9341C145.241 96.9166 145.241 96.9166 145.264 96.899C145.252 96.6558 145.085 96.5352 144.719 96.3912C144.622 96.3596 144.507 96.3057 144.432 96.2566C138.689 93.1791 133.94 88.8485 129.931 83.0332C125.2 76.1651 122 70.3245 119.896 64.5933C119.545 63.6447 119.15 62.5499 118.999 61.4436C118.885 60.7045 119.079 60.0825 119.546 59.7144C120.035 59.3287 120.76 59.3338 121.549 59.6488C122.986 60.2823 124.075 61.2979 125.252 62.4247C129.551 66.6416 133.317 71.0979 136.473 75.603C138.504 78.544 140.499 81.6217 142.57 85.0714C142.771 85.4177 142.994 85.7464 143.217 86.0751C143.287 86.164 143.335 86.2705 143.405 86.3594C143.61 86.1619 143.594 85.9584 143.543 85.7105C143.552 85.631 143.522 85.5467 143.531 85.4672C143.491 81.0282 144.172 76.634 144.852 72.925C144.977 72.2141 145.15 71.4284 145.496 70.7234C145.76 70.1903 146.2 69.8795 146.704 69.8786C147.208 69.8777 147.697 70.1774 147.998 70.6967C148.229 71.1272 148.372 71.6278 148.497 72.1061C148.522 72.2301 148.57 72.3365 148.596 72.4605C149.709 76.3412 149.818 80.3651 149.921 83.9248C150.049 87.7897 149.541 91.5795 149.118 94.4723C149.03 95.0465 148.964 95.6031 149.109 95.7411C149.272 95.9014 149.896 95.7334 150.499 95.5829C164.725 91.8627 177.32 86.9418 188.974 80.5996C197.397 76.0121 204.507 70.2614 210.138 63.5499L210.16 63.5323C210.535 63.0929 211.003 62.5435 211.778 62.9778C212.099 63.1569 212.31 63.4236 212.396 63.716C212.272 63.7417 212.285 63.8037 212.275 63.8832ZM162.405 94.2692L162.511 94.2213C163.061 94.0041 163.611 93.7869 164.178 93.5919C173.033 90.4664 180.94 87.007 188.382 83.0492C196.729 78.5937 203.992 73.0829 209.913 66.6475C210.63 65.8655 211.192 65.2063 211.607 64.5903C211.804 64.291 211.899 63.9999 211.825 63.7695C211.787 63.5835 211.647 63.4057 211.4 63.2758C210.929 62.9984 210.675 63.2707 210.256 63.7452L210.234 63.7628C204.576 70.5316 197.444 76.2998 188.976 80.9224C177.278 87.2997 164.683 92.2205 150.434 95.9582C149.455 96.2254 148.964 96.2883 148.692 96.0344C148.419 95.7805 148.431 95.3385 148.561 94.4065C149.002 91.5359 149.488 87.7637 149.355 83.9385C149.252 80.3788 149.121 76.3724 148.038 72.576C148.012 72.452 147.964 72.3456 147.939 72.2216C147.809 71.783 147.684 71.3046 147.488 70.9186C147.252 70.5279 146.918 70.2868 146.555 70.2843C146.193 70.2818 145.882 70.5272 145.693 70.9282C145.375 71.5758 145.201 72.3616 145.081 73.0327C144.406 76.7019 143.73 81.0564 143.77 85.4954C143.782 85.5574 143.773 85.6369 143.786 85.6989C143.828 86.0264 143.856 86.4731 143.309 86.8318L143.154 86.9545L143.053 86.7814C142.953 86.6082 142.848 86.4749 142.747 86.3017C142.524 85.973 142.283 85.6221 142.082 85.2758C140.011 81.8261 138.039 78.7308 136.003 75.8296C132.887 71.3292 129.116 66.9126 124.817 62.6957C123.68 61.5737 122.608 60.5803 121.228 59.9737C120.576 59.6951 119.992 59.6866 119.615 59.9845C119.281 60.2475 119.123 60.7327 119.212 61.3478C119.368 62.4144 119.727 63.4647 120.079 64.4133C122.188 70.1047 125.37 75.9231 130.083 82.769C134.04 88.5176 138.753 92.8037 144.44 95.8543C144.515 95.9035 144.612 95.9351 144.709 95.9667C145.075 96.1107 145.555 96.3086 145.502 96.9272L145.493 97.0067L145.448 97.0418C145.426 97.0593 145.404 97.0769 145.399 97.1166C145.35 97.1914 145.283 97.244 145.199 97.2744C137.723 99.1319 130.021 100.519 122.566 101.855L120.796 102.17C119.786 102.353 119.428 101.807 119.131 101.248C117.933 98.7678 116.286 96.4971 114.818 94.5902C110.771 89.2742 105.862 84.4208 100.158 80.1587C100.03 80.0429 99.8981 79.9668 99.7707 79.8509C99.1687 79.3162 98.7771 79.0482 98.1863 79.4419C97.5511 79.8708 97.7683 80.4205 98.2053 81.1575C98.2579 81.2241 98.2882 81.3084 98.3233 81.3528C101.919 88.1069 106.353 95.7864 113.568 101.416C113.66 101.488 113.753 101.559 113.867 101.613C114.276 101.903 114.725 102.198 114.792 102.831L114.8 102.933L114.711 103.003C114.666 103.038 114.622 103.073 114.578 103.108C114.489 103.178 114.377 103.266 114.254 103.291C111.925 103.722 109.579 104.13 107.233 104.538C101.301 105.61 95.1659 106.699 89.1756 107.926C88.1441 108.126 87.5678 107.716 87.0466 107.009C81.1818 99.1602 73.012 93.4175 65.124 87.8491L63.7646 86.9023C63.3204 86.5676 62.7826 86.3428 62.2845 86.1227C62.17 86.0689 62.0554 86.015 61.9408 85.9611C61.6146 85.8218 61.2838 85.7222 61.0055 85.6893C60.5062 85.6505 60.1342 85.7274 59.9645 85.9694C59.7329 86.2242 59.8051 86.6359 59.8915 86.9283C60.1203 87.7212 60.6859 88.3928 61.234 89.0421L61.269 89.0866C61.7821 89.6914 62.2951 90.2963 62.8257 90.9234C64.0621 92.3998 65.316 93.8985 66.6588 95.3271C71.4026 100.383 76.8094 105.456 84.1483 107.997C84.2629 108.051 84.3552 108.122 84.4253 108.211C84.4604 108.255 84.513 108.322 84.5878 108.371L84.8251 108.581L84.5502 108.689C83.2776 109.224 81.9584 109.471 80.7012 109.706C80.1655 109.804 79.6474 109.924 79.1118 110.022C70.1624 112.068 63.3685 113.784 57.1136 115.544C55.3416 116.04 55.2446 116.009 54.2784 114.463C53.6007 113.375 52.8773 112.504 52.1129 111.809C47.931 107.968 42.8223 105.147 36.8839 103.377C35.9883 103.11 35.0692 103.042 34.2108 103.142C33.4939 103.238 32.9967 103.522 32.8036 103.963C32.6373 104.347 32.7224 104.82 33.0636 105.344C33.5578 106.108 34.2204 106.811 34.9545 107.422C39.4733 111.141 44.5153 114.015 49.9484 115.967C50.063 116.021 50.1823 116.035 50.3191 116.071C50.7517 116.163 51.2019 116.276 51.5208 116.818L51.6388 117.013L50.8236 117.26C50.385 117.389 49.9862 117.524 49.5698 117.636L48.6306 117.908C42.6634 119.621 36.5056 121.412 30.5452 123.409C30.2306 123.513 29.8937 123.634 29.5393 123.733C28.0504 124.223 26.5218 124.707 25.2034 125.458C23.9296 126.174 22.5377 126.695 20.8021 127.054C16.4187 127.987 13.0335 129.683 10.4068 132.296C9.08466 133.591 8.15883 135.114 7.58013 136.94C7.35404 137.659 7.44854 138.053 7.89743 138.348C8.34631 138.643 8.78961 138.474 9.30899 138.172C10.9689 137.26 12.7373 136.623 14.4614 136.02C18.734 134.489 21.8716 132.159 24.0649 128.952C24.7483 127.944 25.4866 127.326 26.3334 126.983C30.3897 125.406 33.7886 124.276 37.0973 123.397C37.2435 123.354 37.3756 123.43 37.4855 123.524C37.5428 123.551 37.5779 123.595 37.6351 123.622L37.7672 123.698L37.7087 123.853C37.3291 125.017 36.7333 126.136 36.1819 127.22C36.0251 127.523 35.8682 127.827 35.6891 128.149C34.4739 130.585 33.764 132.839 33.5406 135.071C33.3877 136.705 33.6686 138.25 34.3437 139.701C34.5879 140.193 34.9303 140.536 35.3279 140.583C35.7254 140.63 36.1512 140.438 36.5479 139.981C37.0113 139.472 37.4092 138.833 37.8576 137.939C39.4275 134.718 40.9239 131.267 40.9027 127.354L40.8911 127.111L41.125 127.179C41.8312 127.343 42.1642 127.765 42.4622 128.143C42.5499 128.254 42.6375 128.366 42.7474 128.459C43.5071 129.194 44.2621 129.969 44.9996 130.721C45.9346 131.678 46.9093 132.64 47.8665 133.579C48.3013 133.994 48.7408 134.368 49.3572 134.098C49.9292 133.863 50.1668 133.388 50.1018 132.574C49.9054 130.313 49.2948 128.487 48.1602 127.003C46.9776 125.412 45.6523 124.005 44.2637 122.793C44.1889 122.744 44.1141 122.695 44.0218 122.623C43.705 122.405 43.2736 122.132 43.4728 121.47L43.5044 121.373L43.5886 121.343C49.7734 119.494 56.7909 117.421 63.8234 115.733L64.0936 115.664L64.0385 115.96C63.9 116.79 63.4764 117.304 63.0798 117.761C62.9639 117.889 62.8481 118.016 62.772 118.148C60.3706 121.412 58.5245 124.922 57.2782 128.645C56.2217 131.785 55.2737 135.201 55.563 138.722C55.5711 138.824 55.5792 138.925 55.5827 139.067C55.6255 139.898 55.673 140.69 56.6306 140.944C57.7647 141.24 58.3499 140.382 58.8731 139.536L58.9 139.479C61.1706 135.958 63.7408 131.949 65.3453 127.583C66.6792 123.971 68.0273 120.241 67.3746 116.213C67.1672 114.898 68.0713 114.582 68.9391 114.402C70.3695 114.068 71.7998 113.733 73.208 113.415C75.7763 112.832 78.4288 112.219 81.0369 111.64C81.1211 111.61 81.2053 111.579 81.3293 111.554C81.6884 111.415 82.1714 111.25 82.5968 111.744L82.6669 111.833L82.6131 111.947C82.4562 112.251 82.2993 112.555 82.16 112.881C81.8415 113.529 81.4787 114.212 81.2175 114.886C78.9996 120.348 77.5252 126.342 76.4344 134.376C76.3558 134.871 76.3836 135.318 76.4781 135.712C76.5679 136.146 76.8355 136.439 77.1664 136.539C77.4973 136.639 77.9137 136.526 78.2343 136.202C78.6215 135.824 78.9434 135.318 79.2255 134.807L79.2747 134.732C81.7222 130.567 83.6344 125.814 85.1239 120.206C85.1555 120.109 85.1696 119.989 85.1837 119.87C85.2307 119.473 85.2918 118.956 85.9351 118.629L86.148 118.533L86.204 118.741C86.399 119.308 86.5717 119.893 86.7667 120.46C87.1601 121.736 87.571 123.035 88.0264 124.298C88.8623 126.775 89.7298 129.155 91.1296 131.296C91.9124 132.517 92.6486 133.451 93.6515 134.174C94.4347 134.71 95.2825 134.871 96.0228 134.575C96.7585 134.32 97.2758 133.696 97.5206 132.817C97.7245 132.116 97.7168 131.329 97.5162 130.297C96.7653 126.419 95.5954 123.016 93.9776 119.821C93.1575 118.233 92.32 116.622 91.4952 115.073C90.9018 113.955 90.3084 112.837 89.7371 111.701C89.6893 111.594 89.6367 111.528 89.5666 111.439C89.3481 111.07 89.0595 110.613 89.3382 109.961L89.3698 109.864L89.4715 109.855C98.4102 108.07 107.499 106.383 117.245 104.754L117.697 104.686L117.451 105.06C115.132 108.475 113.471 111.443 112.27 114.445C110.123 119.815 108.905 125.859 108.472 133.447C108.319 136.271 108.471 139.252 108.958 142.292C109.055 143.009 109.21 143.572 109.903 143.674C110.733 143.812 111.065 143.227 111.353 142.495C111.866 141.225 112.249 140.202 112.503 139.245C114.832 131.135 117.272 122.434 119.181 113.609C119.355 112.824 119.573 112.003 119.746 111.217C120.279 109.103 120.815 106.949 120.813 104.752L120.818 104.712C120.825 104.31 121.034 104.073 121.468 103.983C121.964 103.88 122.46 103.778 122.956 103.675C133.979 101.652 144.745 99.579 155.351 96.479C155.413 96.4661 155.457 96.4311 155.542 96.4007C155.821 96.2524 156.314 96.0082 156.72 96.661L156.786 96.7896L156.692 96.8995C153.06 101.025 151.438 106.054 150.337 110.419C148.302 118.765 146.959 127.576 146.48 136.569C146.483 136.711 146.465 136.87 146.446 137.029C146.355 137.965 146.347 138.549 147.225 138.794C148.182 139.048 148.585 138.37 149.015 137.635C149.069 137.52 149.14 137.428 149.194 137.313C150.621 134.962 151.952 132.399 153.206 129.463C156.9 120.89 158.93 111.898 160.554 103.443C160.564 103.364 160.578 103.244 160.57 103.143C160.59 102.802 160.607 102.321 161.179 102.086L161.285 102.038L161.377 102.109C161.395 102.132 161.452 102.159 161.47 102.181C161.562 102.252 161.654 102.324 161.724 102.412C164.588 107.689 168.998 112.322 175.273 116.531C175.498 116.679 175.718 116.866 175.915 117.071C176.609 117.677 177.264 118.278 178.091 117.59C178.829 116.972 178.485 116.306 177.89 115.369C177.754 115.151 177.636 114.956 177.518 114.761C173.057 105.949 168.176 99.668 162.183 94.9485L162.074 94.8549L162.15 94.7228C162.181 94.6257 162.208 94.5685 162.235 94.5112C162.289 94.3966 162.321 94.2996 162.405 94.2692ZM175.201 114.245L174.585 113.829C168.186 109.646 163.716 103.978 161.259 96.9757L161.046 96.3862L161.565 96.7701C168.197 101.706 172.17 108.344 174.874 113.602L175.201 114.245ZM161.825 97.466C164.212 103.876 168.349 109.121 174.148 113.092C171.548 108.149 167.828 102.106 161.825 97.466ZM159.153 100.98C159.144 101.563 159.096 102.142 159.012 102.676C157.109 112.469 154.857 122.825 149.988 132.469C149.939 132.544 149.907 132.641 149.88 132.698C149.692 133.099 149.467 133.637 148.668 134.087L148.344 134.27L148.347 133.907C148.532 130.805 148.899 127.704 149.518 123.827C150.345 118.704 151.275 112.888 152.998 107.347C153.808 104.762 154.778 102.519 155.977 100.564C156.63 99.4721 157.282 98.5615 158.345 97.5787L158.572 97.3636L158.654 97.6958C158.995 98.9051 159.129 99.9892 159.153 100.98ZM148.769 133.574C149.191 133.241 149.353 132.898 149.492 132.571C149.524 132.474 149.573 132.4 149.605 132.303C154.447 122.716 156.699 112.36 158.597 102.607C158.854 101.287 158.78 99.8674 158.368 98.0652C157.478 98.9476 156.897 99.7658 156.298 100.743C155.122 102.68 154.156 104.884 153.369 107.451C151.668 112.975 150.738 118.791 149.911 123.913C149.31 127.632 148.958 130.614 148.769 133.574ZM147.697 84.6697C147.703 87.5125 147.502 90.4113 147.078 93.4854L147.008 94.0817L146.728 93.5448C145.149 90.5363 145.077 81.9412 146.56 75.8682L146.788 74.9679L146.963 75.8754C147.451 78.7349 147.691 81.6456 147.697 84.6697ZM146.805 92.7275C147.529 87.1089 147.517 81.9273 146.739 76.9172C145.573 82.3426 145.607 89.5624 146.805 92.7275ZM144.236 93.3108L144.073 93.3317C143.453 93.46 143.084 93.1745 142.749 92.9334C142.674 92.8842 142.6 92.8351 142.525 92.7859C139.224 90.7026 136.293 88.0382 133.809 84.8421C129.239 79.0007 125.376 72.457 122.322 65.384L122.209 65.1489C121.861 64.3418 121.513 63.5347 121.384 62.4108L121.359 62.1056L121.668 62.2227C122.611 62.5963 123.169 63.1661 123.726 63.7359C123.836 63.8295 123.924 63.9407 124.034 64.0343C129.83 69.7383 135.087 76.588 140.077 85.0186C141.086 86.7101 142.104 88.5034 143.396 90.8733L143.479 91.0242C143.846 91.6722 144.208 92.36 144.255 93.1517L144.236 93.3108ZM142.721 92.4867C142.796 92.5358 142.889 92.6072 142.963 92.6564C143.223 92.8483 143.465 93.018 143.81 92.9983C143.726 92.3434 143.39 91.7795 143.075 91.1982L142.992 91.0473C141.7 88.6774 140.683 86.8841 139.691 85.2148C134.736 76.8287 129.496 70.0012 123.718 64.3194C123.608 64.2258 123.52 64.1147 123.411 64.0211C122.963 63.5449 122.493 63.0862 121.788 62.7408C121.923 63.6437 122.223 64.3443 122.528 65.0052L122.642 65.2403C125.7 72.2736 129.545 78.7951 134.098 84.6142C136.547 87.7659 139.46 90.408 142.721 92.4867ZM119.163 106.089L119.044 106.76C116.989 117.321 114.231 127.355 111.129 138.417L110.984 138.964L110.784 138.437C108.255 132.212 113.159 112.555 118.722 106.581L119.163 106.089ZM110.926 137.748C113.909 127.176 116.541 117.53 118.522 107.424C116.141 110.347 113.713 116.047 112.098 122.548C110.466 129.026 110.032 134.74 110.926 137.748ZM117.458 102.098L116.97 101.798C111.297 98.1245 104.701 90.4917 102.296 84.7451L102.127 84.3018L102.568 84.495C106.173 86.0499 115.654 97.0674 117.259 101.57L117.458 102.098ZM102.882 85.0764C105.342 90.5271 111.332 97.4837 116.647 101.115C114.671 96.6891 106.484 87.1751 102.882 85.0764ZM96.0949 131.238C96.0983 131.38 96.1017 131.521 96.0654 131.658C96.056 131.737 96.0513 131.777 96.0419 131.857C96.0218 132.197 96.0052 132.679 95.4602 132.856C94.8976 133.011 94.5551 132.668 94.2653 132.392L94.2127 132.326C93.3256 131.475 92.6035 130.422 91.9318 129.113C90.4576 126.238 89.4934 123.141 88.5386 119.964C87.7694 117.435 87.1032 114.715 86.5703 111.891C86.5575 111.829 86.5447 111.767 86.5143 111.683C86.4326 111.351 86.3159 110.974 86.6809 110.614L86.7254 110.579L86.7874 110.566C87.3183 110.508 87.5543 110.899 87.6326 111.089C88.0952 111.95 88.5625 112.771 89.0251 113.632C91.5835 118.248 94.2249 123.015 95.5188 128.267C95.5748 128.476 95.6133 128.662 95.6693 128.87C95.8853 129.601 96.0918 130.411 96.0949 131.238ZM86.8139 111.194C86.8221 111.296 86.8477 111.42 86.8909 111.566C86.9213 111.65 86.9341 111.712 86.9422 111.814C87.4751 114.638 88.1238 117.335 88.893 119.865C89.8303 123.02 90.8167 126.099 92.2734 128.952C92.9275 130.239 93.6543 131.252 94.4841 132.076L94.5367 132.142C94.8441 132.441 95.0463 132.606 95.3387 132.519C95.6311 132.433 95.6546 132.234 95.6572 131.872C95.6666 131.792 95.6537 131.73 95.6631 131.651C95.7315 130.731 95.5168 129.819 95.2577 128.942C95.2017 128.734 95.1456 128.526 95.1072 128.34C93.826 123.149 91.1847 118.382 88.6438 113.789C88.1812 112.928 87.7139 112.107 87.2513 111.246C87.138 111.011 87.0281 110.917 86.8644 110.938C86.8374 110.995 86.8058 111.092 86.8139 111.194ZM84.2367 113.046L84.2398 113.873C84.1983 119.169 82.6669 124.45 79.3539 130.993L78.8564 131.962L78.9833 130.888C79.7903 124.231 81.3768 118.654 83.8644 113.808L84.2367 113.046ZM79.4949 129.8C82.2625 124.12 83.6041 119.421 83.8136 114.75C81.7098 119.077 80.2781 124.027 79.4949 129.8ZM83.7262 105.77L83.2761 105.656C78.7113 104.714 69.2213 96.8394 64.8057 90.3713L64.5125 89.9537L65.0024 90.0721C67.7653 90.7413 81.2247 101.866 83.4727 105.357L83.7262 105.77ZM65.4756 90.6723C69.7488 96.6397 78.4124 103.832 82.8507 105.163C80.1432 101.638 68.9128 92.2879 65.4756 90.6723ZM65.9722 118.869C65.9624 119.634 65.8381 120.345 65.6834 120.971C64.8898 124.445 63.5302 127.933 61.4571 131.659C60.7138 133.002 59.953 134.323 59.1605 135.741C58.8023 136.384 58.4219 137.044 58.0415 137.705L57.8132 138.101L57.6837 137.662C56.4932 133.41 61.4128 120.95 65.56 117.752L65.8046 117.559L65.8687 117.869C65.9281 118.219 65.9701 118.546 65.9722 118.869ZM65.3081 120.907C65.5179 119.984 65.6563 119.154 65.5562 118.296C61.6779 121.607 57.2678 132.655 57.9529 137.09C58.2573 136.561 58.5394 136.05 58.839 135.562C59.649 134.166 60.4099 132.845 61.1356 131.479C63.1642 127.789 64.5414 124.323 65.3081 120.907ZM52.2423 114.807L51.7524 114.689C45.8747 113.087 40.5415 110.118 34.9381 105.344L34.5734 105.019L35.0599 104.996C39.3938 104.823 49.3423 110.352 51.949 114.389L52.2423 114.807ZM35.6011 105.362C40.8446 109.771 45.8563 112.561 51.3141 114.133C48.5237 110.457 39.8436 105.622 35.6011 105.362ZM48.11 131.008L47.6132 130.607C45.0195 128.506 42.6014 125.943 40.2761 122.765L39.7374 122.036L40.5125 122.471C43.2515 124.024 46.569 126.311 47.9022 130.379L48.11 131.008ZM41.161 123.293C43.1324 125.884 45.1554 128.038 47.3003 129.844C46.018 126.709 43.4722 124.715 41.161 123.293ZM39.0193 128.623C39.0212 131.506 37.8094 134.084 36.5613 136.798C36.4267 137.085 36.2698 137.389 36.1527 137.697L35.9689 138.059L35.7902 137.695C34.5649 135.272 35.6747 130.828 38.5186 126.891L38.8041 126.522L38.8717 126.973C38.9649 127.549 39.0009 128.097 39.0193 128.623ZM35.9355 137.148C36.0163 136.976 36.0971 136.804 36.1779 136.632C37.5828 133.613 38.9292 130.749 38.5451 127.519C36.133 131.043 35.0983 134.852 35.9355 137.148ZM22.2514 128.435L21.9834 128.827C19.0541 132.975 14.7079 134.275 10.4904 135.51L9.9898 135.653L10.2847 135.204C12.6712 131.556 16.3115 129.406 21.8 128.503L22.2514 128.435ZM10.914 134.996C14.7596 133.838 18.6591 132.566 21.3986 128.999C16.5159 129.894 13.1645 131.815 10.914 134.996Z" fill="black"/>
</svg>
