<svg width="145" height="106" viewBox="0 0 145 106" fill="none" xmlns="http://www.w3.org/2000/svg">
<g clip-path="url(#clip0_2046_14585)">
<path d="M40.9254 55.1695C42.5368 62.3141 37.695 73.9173 37.695 73.9173C37.695 73.9173 28.3413 65.5157 26.7299 58.3711C25.1186 51.2265 27.9504 48.9156 31.8574 48.0344C35.7644 47.1532 39.314 48.0249 40.9254 55.1695Z" fill="black"/>
<path d="M18.6285 70.5393C25.7914 68.9238 37.4161 73.7418 37.4161 73.7418C37.4161 73.7418 28.9849 83.0831 21.822 84.6986C14.6592 86.3141 12.346 83.4913 11.4671 79.5943C10.6207 75.6899 11.4657 72.1548 18.6285 70.5393Z" fill="black"/>
<path d="M34.042 92.7608C32.4306 85.6162 37.2724 74.0129 37.2724 74.0129C37.2724 74.0129 46.6261 82.4145 48.2375 89.5591C49.8488 96.7037 47.017 99.0147 43.11 99.8959C39.1957 100.745 35.6534 99.9054 34.042 92.7608Z" fill="black"/>
<path d="M56.3318 77.3592C49.169 78.9747 37.5443 74.1568 37.5443 74.1568C37.5443 74.1568 45.9755 64.8154 53.1383 63.1999C60.3011 61.5844 62.6143 64.4072 63.4932 68.3043C64.3469 72.2411 63.4946 75.7437 56.3318 77.3592Z" fill="black"/>
<path d="M110.162 12.9371C111.773 20.0817 106.931 31.6849 106.931 31.6849C106.931 31.6849 97.5777 23.2833 95.9663 16.1387C94.3476 8.96162 97.1867 6.68317 101.094 5.80199C105.001 4.9208 108.543 5.75999 110.162 12.9371Z" fill="black"/>
<path d="M87.8639 28.3049C95.0267 26.6894 106.651 31.5074 106.651 31.5074C106.651 31.5074 98.2202 40.8487 91.0574 42.4642C83.8946 44.0797 81.614 41.2496 80.735 37.3526C79.8561 33.4555 80.7011 29.9204 87.8639 28.3049Z" fill="black"/>
<path d="M103.277 50.5264C101.666 43.3818 106.508 31.7785 106.508 31.7785C106.508 31.7785 115.861 40.1802 117.473 47.3248C119.084 54.4694 116.252 56.7803 112.345 57.6615C108.438 58.5427 104.889 57.671 103.277 50.5264Z" fill="black"/>
<path d="M125.535 35.1327C118.372 36.7482 106.747 31.9302 106.747 31.9302C106.747 31.9302 115.179 22.5889 122.341 20.9734C129.537 19.3505 131.817 22.1806 132.696 26.0777C133.583 30.0072 132.73 33.5098 125.535 35.1327Z" fill="black"/>
</g>
<defs>
<clipPath id="clip0_2046_14585">
<rect width="79" height="130" fill="white" transform="translate(126.814) rotate(77.2902)"/>
</clipPath>
</defs>
</svg>
