<svg width="24" height="21" viewBox="0 0 24 21" fill="none" xmlns="http://www.w3.org/2000/svg">
<path d="M1.59025 10.4601C0.522715 9.33437 -0.0475018 7.8246 0.00504295 6.26292C0.0575876 4.70124 0.72859 3.21557 1.87044 2.13274C3.01228 1.04991 4.53144 0.458627 6.09371 0.488958C7.65598 0.519288 9.13339 1.16875 10.2009 2.29447C10.3433 2.44457 10.4193 2.64587 10.4123 2.8541C10.4053 3.06232 10.3158 3.26041 10.1636 3.40479C10.0113 3.54916 9.80877 3.628 9.60046 3.62396C9.39216 3.61991 9.19517 3.53332 9.05283 3.38322C8.26997 2.55769 7.18654 2.08142 6.04088 2.05918C4.89521 2.03694 3.78116 2.47055 2.94381 3.26462C2.10646 4.05869 1.61439 5.14818 1.57585 6.29342C1.53732 7.43865 1.95548 8.54581 2.73834 9.37134C2.88068 9.52144 2.95671 9.72274 2.9497 9.93096C2.9427 10.1392 2.85323 10.3373 2.70098 10.4817C2.54874 10.626 2.34618 10.7049 2.13788 10.7008C1.92958 10.6968 1.73259 10.6102 1.59025 10.4601ZM14.5878 4.0462C14.2526 4.36339 14.0012 4.75842 13.8566 5.19512C13.5144 5.0103 13.1355 4.90115 12.7455 4.87496C12.3554 4.84878 11.9631 4.90617 11.5946 5.04329C11.2262 5.18041 10.8902 5.3941 10.609 5.6701C10.3279 5.9461 10.1081 6.27805 9.96428 6.64376L7.90475 4.47197C7.40656 3.94663 6.7171 3.64355 5.98804 3.6294C5.25899 3.61524 4.55005 3.89118 4.01718 4.3965C3.48432 4.90182 3.17119 5.59513 3.14667 6.32391C3.12215 7.0527 3.38825 7.75726 3.88643 8.28259L9.2533 13.942L8.56796 13.7683C7.86925 13.5683 7.11572 13.6551 6.47314 14.0095C5.83056 14.3638 5.35156 14.9568 5.14153 15.6579C4.93149 16.359 5.00762 17.1108 5.35317 17.7479C5.69871 18.385 6.28537 18.8553 6.98408 19.0552L12.4422 20.5972C12.5429 20.6326 12.65 20.647 12.757 20.6395C12.8639 20.6319 12.9686 20.6026 13.0644 20.5534C13.1602 20.5041 13.2453 20.4359 13.3142 20.353C13.3832 20.27 13.4347 20.1741 13.4655 20.0711C13.4963 19.9681 13.5057 19.8602 13.4933 19.7541C13.4809 19.6479 13.4468 19.5457 13.3932 19.4537C13.3396 19.3618 13.2676 19.282 13.1816 19.2194C13.0956 19.1567 12.9974 19.1125 12.8931 19.0894L7.43709 17.5454C7.28645 17.5047 7.14587 17.4343 7.02354 17.3384C6.90121 17.2424 6.79959 17.1228 6.72462 16.9865C6.64965 16.8501 6.60283 16.6999 6.58689 16.5444C6.57095 16.389 6.58622 16.2315 6.6318 16.0812C6.67738 15.9308 6.75236 15.7906 6.85236 15.6688C6.95236 15.5469 7.07537 15.4459 7.21422 15.3715C7.35306 15.2972 7.50494 15.251 7.661 15.2357C7.81706 15.2204 7.97417 15.2363 8.12314 15.2824L8.14862 15.2892L11.5016 16.1403C11.6667 16.1826 11.8418 16.1697 12.0005 16.1036C12.1591 16.0375 12.2926 15.9218 12.3806 15.7741C12.4686 15.6263 12.5064 15.4546 12.4882 15.2849C12.47 15.1153 12.3968 14.9569 12.2798 14.834L5.03452 7.19384C4.82101 6.9687 4.70697 6.66675 4.71748 6.35441C4.72799 6.04207 4.86219 5.74494 5.09056 5.52837C5.31893 5.31181 5.62276 5.19355 5.93521 5.19962C6.24767 5.20568 6.54315 5.33558 6.75666 5.56072L11.3185 10.3712C11.4608 10.5213 11.6578 10.6079 11.8661 10.6119C12.0744 10.616 12.277 10.5371 12.4292 10.3928C12.5815 10.2484 12.6709 10.0503 12.6779 9.84207C12.685 9.63385 12.6089 9.43254 12.4666 9.28245L11.6616 8.43354C11.448 8.2084 11.334 7.90644 11.3445 7.59411C11.355 7.28177 11.4892 6.98464 11.7176 6.76807C11.946 6.55151 12.2498 6.43325 12.5622 6.43931C12.8747 6.44538 13.1702 6.57527 13.3837 6.80042L14.7254 8.21526C14.8677 8.36536 15.0647 8.45196 15.273 8.456C15.4813 8.46004 15.6839 8.3812 15.8361 8.23683C15.9884 8.09245 16.0779 7.89436 16.0849 7.68614C16.0919 7.47791 16.0158 7.27661 15.8735 7.12651L15.6052 6.84355C15.3916 6.6184 15.2776 6.31645 15.2881 6.00411C15.2986 5.69178 15.4328 5.39464 15.6612 5.17808C15.8896 4.96151 16.1934 4.84325 16.5058 4.84932C16.8183 4.85539 17.1138 4.98528 17.3273 5.21042L19.7424 7.75715C21.1921 9.28589 21.6681 10.8082 21.6719 10.8208C21.7312 11.0195 21.8674 11.1855 22.0505 11.2821C22.2337 11.3788 22.4488 11.3983 22.6486 11.3363C22.7659 11.3004 22.8734 11.2376 22.9625 11.1528C23.0692 11.0517 23.1461 10.9233 23.1844 10.7821C23.2228 10.6408 23.2212 10.4922 23.1798 10.3529C23.1573 10.2761 22.6072 8.4773 20.8912 6.66772L18.4761 4.12099C18.2294 3.86081 17.9331 3.65249 17.6041 3.50791C17.2751 3.36334 16.92 3.28536 16.5589 3.27841C16.1978 3.27146 15.8379 3.33569 15.4997 3.46743C15.1615 3.59917 14.8516 3.79584 14.5878 4.0462Z" fill="#222222"/>
</svg>
