<svg width="95" height="237" viewBox="0 0 95 237" fill="none" xmlns="http://www.w3.org/2000/svg">
<g clip-path="url(#clip0_2028_4949)">
<mask id="mask0_2028_4949" style="mask-type:luminance" maskUnits="userSpaceOnUse" x="-112" y="-1" width="208" height="219">
<path d="M56.8174 214.199C56.2174 214.199 55.6174 214.049 55.0174 214.049C54.5674 214.049 53.8174 214.049 53.5174 214.349C52.3174 215.399 51.1174 215.099 49.7674 215.099C48.8674 215.099 47.9674 215.249 47.0674 215.399C45.2673 215.849 43.3174 216.449 41.5173 215.549C40.9173 215.249 40.3173 215.249 39.8673 215.699C39.1173 216.299 38.2173 216.299 37.3173 216.149C35.9673 215.849 34.6173 216.149 33.4173 216.449C32.3673 216.749 31.3173 217.199 30.2673 216.599C28.1673 217.199 26.2173 215.999 24.1173 216.749C23.8173 216.899 23.3673 216.749 22.9173 216.599C20.5173 216.449 18.2673 216.599 16.0173 217.349C15.2673 217.649 14.3673 217.649 13.6173 217.349C12.2673 216.899 10.9173 216.599 9.56725 217.499C9.11725 217.799 8.36725 217.649 7.91725 217.349C5.51724 216.299 3.11723 216.599 0.56723 216.899C-1.53278 217.049 -3.63278 217.349 -5.58279 216.899C-6.63279 216.599 -7.53279 216.899 -8.58279 216.899C-9.9328 217.049 -11.2828 217.499 -12.4828 217.049C-14.1328 216.449 -15.6328 216.299 -17.2828 217.049C-17.4328 217.199 -17.8828 217.199 -18.0328 217.049C-19.0828 216.299 -20.4328 216.599 -21.6328 216.149C-23.5828 215.549 -25.6828 215.099 -27.7829 215.699C-28.6829 215.849 -29.5828 215.699 -30.4828 215.699C-31.5329 215.699 -32.4329 215.549 -33.3329 216.299C-33.9329 216.749 -34.5329 216.599 -35.2829 216.299C-36.6329 215.849 -37.9829 215.549 -39.4829 215.399C-40.2329 215.399 -40.9829 215.249 -41.7329 215.399C-42.3329 215.549 -42.9329 215.549 -43.3829 215.399C-45.7829 214.649 -48.1829 214.949 -50.5829 215.099C-51.3329 215.099 -51.9329 215.249 -52.5329 214.799C-53.1329 214.349 -54.0329 214.349 -54.7829 214.349C-56.4329 214.499 -58.0829 214.199 -59.7329 213.899C-61.0829 213.749 -62.5829 213.599 -63.9329 214.049C-64.533 214.349 -65.283 214.199 -65.883 214.049C-67.083 213.599 -68.433 213.299 -69.633 212.849C-70.533 212.549 -71.283 212.099 -72.183 212.099C-72.633 212.099 -73.233 211.949 -73.533 211.649C-74.583 211.049 -75.483 210.749 -76.683 211.049C-77.283 211.199 -77.883 211.049 -78.333 210.749C-79.383 209.849 -80.583 209.249 -81.783 208.799C-82.083 208.649 -82.683 208.349 -82.683 208.049C-83.133 206.849 -84.033 206.549 -85.083 206.249C-86.283 205.799 -87.483 205.049 -88.533 204.449C-89.283 203.999 -90.033 203.699 -90.783 203.399C-91.683 202.949 -92.583 202.499 -92.883 201.449C-93.183 200.549 -94.083 200.099 -94.833 199.799C-95.283 199.649 -95.883 199.499 -96.033 198.899C-96.633 197.549 -97.683 196.649 -98.433 195.449C-99.033 194.399 -99.933 193.349 -100.833 192.599C-101.583 191.849 -102.183 191.099 -102.333 190.049C-102.483 189.299 -102.933 188.699 -103.233 187.949C-104.133 185.849 -104.733 183.599 -105.483 181.349C-105.483 181.199 -105.483 181.199 -105.483 181.049C-105.183 178.499 -106.683 176.849 -108.033 175.049C-108.183 174.749 -108.483 174.599 -108.633 174.299C-109.083 173.699 -109.383 172.949 -108.783 172.199C-108.483 171.749 -108.183 171.299 -108.783 170.849C-109.533 170.249 -109.683 169.499 -109.533 168.599C-109.383 167.549 -109.383 166.499 -110.283 165.599C-110.733 164.999 -110.733 164.399 -110.583 163.649C-109.983 161.099 -109.983 158.549 -110.883 155.999C-111.183 155.099 -111.183 154.349 -110.283 153.749C-109.683 153.299 -109.683 152.849 -109.983 152.249C-110.583 150.449 -110.133 148.649 -110.433 146.849C-110.433 146.399 -110.283 145.949 -109.983 145.499C-109.233 144.599 -109.233 143.549 -109.683 142.349C-110.133 141.149 -110.583 140.099 -109.983 138.749C-109.833 138.449 -110.133 137.999 -110.133 137.549C-110.133 137.099 -110.283 136.499 -110.133 136.049C-109.083 133.049 -109.383 130.049 -108.783 127.049C-109.233 124.799 -108.783 122.849 -107.283 121.049C-106.383 119.849 -106.533 118.049 -105.483 116.699C-105.333 116.399 -105.333 116.099 -105.483 115.799C-105.783 114.899 -105.483 114.149 -105.183 113.399C-104.733 112.499 -104.283 111.599 -103.983 110.699C-103.383 109.199 -102.933 107.549 -101.883 106.349C-101.283 105.749 -100.983 104.849 -100.683 103.949C-100.233 102.149 -99.633 100.499 -98.133 99.1487C-97.083 98.0987 -96.633 96.5987 -95.433 95.5487C-95.583 94.0487 -93.933 93.2987 -93.783 91.7987C-93.783 91.4987 -93.483 91.0487 -93.183 90.7487C-92.583 90.2987 -92.133 89.8487 -91.833 88.9487C-91.533 88.0487 -90.633 87.5987 -89.883 86.9987C-88.983 86.2487 -88.083 85.6487 -87.933 84.2987C-87.783 83.0987 -86.733 82.4986 -85.833 81.8986C-84.483 81.1486 -83.433 80.2486 -82.383 79.0486C-81.783 78.2986 -81.033 77.8486 -80.283 77.2486C-78.483 75.8986 -76.683 74.5486 -75.183 72.8986C-74.883 72.5986 -74.433 72.4486 -74.133 72.2986C-72.783 71.5486 -71.583 70.7986 -70.683 69.5986C-70.533 69.2986 -70.233 69.1486 -69.933 68.9986C-67.833 67.6486 -65.883 66.4486 -63.783 65.0986C-63.033 64.6486 -62.4329 64.1986 -62.2829 63.2986C-62.1329 62.5486 -61.5329 62.2486 -60.9329 61.9486C-60.0329 61.4986 -58.9829 60.8986 -58.0829 60.4486C-57.6329 60.1486 -57.0329 59.8486 -56.7329 59.2486C-56.4329 58.7986 -56.1329 58.3486 -55.6829 58.1986C-54.4829 57.7486 -53.4329 57.1486 -52.6829 56.0986L-52.5329 55.9486C-51.6329 55.3486 -50.2829 55.4986 -49.5329 54.4486C-48.9329 53.5486 -47.8829 53.2486 -46.8329 52.7986C-45.9329 52.3486 -45.0329 51.7486 -44.2829 51.1486C-43.5329 50.3986 -42.6329 49.7986 -41.5829 49.4986C-40.5329 49.0486 -39.4829 48.5986 -38.5829 47.8486C-38.2829 47.5486 -37.8329 47.2486 -37.5329 47.3986C-35.4329 47.5486 -34.2329 46.1986 -32.8829 44.9986C-32.4329 44.5485 -32.1329 44.0985 -31.6829 43.6485C-31.2329 43.0485 -30.6329 42.7485 -29.8829 42.2985C-28.0829 41.3985 -26.2828 40.1985 -24.3328 39.5985C-24.1828 39.5985 -24.0328 39.4485 -23.8828 39.2985C-23.1328 37.7985 -21.3328 37.1985 -20.4328 35.8485C-19.9828 35.2485 -19.5328 34.9485 -18.9328 34.6485C-17.8828 34.1985 -16.8328 33.7485 -15.7828 33.1485C-15.4828 32.9985 -15.0328 32.9985 -14.8828 32.6985C-13.2328 30.2985 -10.0828 30.1485 -8.1328 28.3485C-7.6828 27.8985 -7.08279 27.8985 -6.48279 27.7485C-4.53278 27.1485 -2.58278 26.5485 -0.932777 25.0485C0.417229 23.8485 2.21724 22.7985 4.01724 22.0485C4.61724 21.7485 5.36724 21.5985 5.81724 21.1485C7.46725 19.7985 9.41725 19.1985 11.2173 18.1485C11.3673 17.9985 11.5173 17.9985 11.6673 17.8485C13.6173 17.3985 15.4173 16.4985 16.9173 14.9985C17.5173 14.3985 18.2673 14.5485 19.0173 14.8485C19.6173 15.1485 20.2173 15.1485 20.5173 14.5485C20.8173 13.7985 21.5673 13.4985 22.3173 13.1985C23.8173 12.7485 25.1673 11.6985 26.8173 11.5485C27.1173 11.5485 27.4173 11.2485 27.7173 11.0985C28.6173 10.3485 29.5173 10.1985 30.5673 10.4985C31.4673 10.7985 32.2173 10.4985 32.9673 10.1985C34.1673 9.59846 35.5173 9.44846 36.4173 8.24846C36.5673 8.09846 36.7173 7.94846 36.8673 7.94846C38.6673 7.94846 40.1673 6.74846 41.9673 6.74846C43.6173 6.74846 45.1173 6.59846 46.3174 5.24845C48.5674 4.49845 50.5174 2.84845 53.0674 2.99845C53.9674 2.99845 54.7174 2.69845 55.3174 2.09844C55.6174 1.79844 56.0674 1.19844 56.5174 1.34844C58.6174 1.49844 60.2674 -0.151562 62.3674 0.148439C62.8174 0.298439 63.2674 -0.151562 63.7174 -0.301562C64.1674 -0.451563 64.7674 -0.451563 65.2174 -0.301562C67.1674 0.298439 68.9674 0.898441 70.9174 1.49844C71.6674 1.64844 72.1174 2.09844 72.1174 2.84845C72.1174 3.89845 72.2674 4.79845 72.8674 5.69845C73.4674 6.59845 72.8674 7.64846 73.0174 8.54846C73.1674 9.44846 74.0674 10.3485 73.7674 11.3985C73.7674 11.5485 73.7674 11.5485 73.7674 11.6985C72.7174 13.3485 72.7174 14.9985 73.3174 16.6485C73.4674 17.0985 73.1674 17.5485 72.8674 17.9985C72.1174 19.1985 71.5174 20.2485 71.6674 21.7485C71.6674 22.4985 71.2174 22.9485 70.6174 23.3985C68.5174 25.0485 66.1174 26.5485 64.6174 28.9485C64.0174 29.6985 63.2674 30.1485 62.3674 30.4485C60.8674 30.8985 59.5174 31.9485 58.1674 32.5485C57.7174 32.6985 57.4174 33.1485 57.1174 33.5985C56.2174 34.9485 55.0174 35.8485 53.3674 36.2985C52.3174 36.5985 51.5674 37.1985 50.9674 37.9485C50.2174 38.6985 49.6174 39.2985 48.4174 39.4485C47.6674 39.4485 46.9173 39.8985 46.4673 40.4985C45.4173 41.6985 44.0673 42.2985 42.8673 43.0485C42.4173 43.3485 41.6673 43.6485 41.5173 44.0985C41.0673 45.7486 39.5673 45.7486 38.3673 46.3486C36.1173 47.3986 33.8673 48.4486 32.6673 50.8486C32.3673 51.4486 31.7673 51.8986 31.0173 51.8986C29.9673 52.0486 29.2173 52.4986 28.7673 53.2486C28.3173 53.9986 27.5673 54.5986 26.6673 54.8986C25.6173 55.3486 24.4173 55.9486 23.8173 57.1486C23.6673 57.4486 23.2173 57.8986 22.9173 57.8986C22.0173 58.0486 21.7173 58.6486 21.2673 59.2486C20.8173 59.8486 20.2173 60.2986 19.6173 60.7486C19.3173 60.8986 19.0173 61.0486 18.7173 61.1986C16.7673 61.9486 15.5673 63.1486 16.0173 65.5486C16.1673 66.1486 15.5673 66.8986 16.4673 67.3486C17.3673 67.7986 18.1173 68.5486 19.1673 68.0986C19.3173 68.0986 19.4673 67.9486 19.6173 67.9486C21.1173 67.4986 22.9173 68.2486 24.1173 66.8986C25.3173 65.8486 26.8173 65.6986 28.1673 64.7986C29.5173 64.0486 31.0173 64.0486 32.5173 63.5986C33.1173 63.4486 33.7173 63.2986 34.0173 62.8486C34.6173 62.0986 35.5173 61.7986 36.4173 61.6486C38.2173 61.1986 40.0173 60.7486 41.6673 60.1486C41.9673 60.1486 42.2673 59.9986 42.4173 59.8486C43.1673 58.7986 44.5173 58.6486 45.5674 58.0486C46.6174 57.4486 47.8174 57.2986 48.7174 56.5486C49.0173 56.2486 49.6174 56.2486 50.2174 56.2486C50.6674 56.0986 51.1174 56.2486 51.4174 56.0986C52.7674 54.8986 54.4174 54.8986 56.0674 54.4486C57.2674 54.1486 58.3174 53.8486 59.3674 53.2486C59.9674 52.7986 60.7174 52.6486 61.4674 52.4986C62.8174 52.1986 64.3174 52.0486 65.5174 51.2986C65.9674 50.9986 66.5674 50.9986 67.1674 50.9986C68.9674 50.9986 70.7674 50.9986 72.5674 50.0986C73.0174 49.9486 73.4674 49.9486 74.0674 49.9486C74.6674 49.9486 75.2674 49.7986 75.7174 49.4986C76.6174 48.8986 77.5174 48.5986 78.5674 49.1986C78.8674 49.3486 79.1674 49.1986 79.4675 49.1986C80.5175 48.8986 81.4174 48.8986 82.1674 49.7986C82.7674 50.3986 83.5175 50.2486 84.2675 49.9486C85.3175 49.3486 86.2175 49.7986 86.9675 50.6986C87.7175 51.5986 88.6175 52.3486 89.5175 53.0986C89.8175 53.3986 90.1175 53.5486 90.1175 53.8486C90.5675 55.4986 91.7675 56.2486 92.9675 57.1486C93.1175 57.2986 93.4175 57.4486 93.4175 57.7486C93.4175 59.0986 94.7675 59.9986 94.6175 61.4986C94.6175 62.0986 94.4675 62.8486 94.7675 63.4486C95.6675 65.5486 94.6175 67.4986 94.1675 69.4486C94.1675 69.7486 93.8675 70.1986 93.7175 70.3486C92.6675 70.7986 92.6675 71.9986 92.2175 72.7486C91.0175 75.4486 89.9675 78.2986 87.5675 80.2486C86.8175 82.1986 84.8675 82.6487 83.5175 83.6987C81.7175 85.0487 79.7675 86.5487 77.9674 88.0487C77.0674 88.7987 76.3174 89.6987 74.9674 89.3987C74.5174 89.2487 74.0674 89.5487 73.9174 89.8487C72.8674 90.8987 71.6674 91.4987 70.3174 91.7987C68.2174 92.3987 66.5674 93.8987 64.7674 94.9487C63.7174 95.5487 62.8174 96.5987 61.4674 96.2987C61.1674 96.1487 60.8674 96.5987 60.7174 96.8987C60.1174 97.6487 59.3674 97.9487 58.4674 97.7987C57.1174 97.6487 55.9174 97.7987 54.5674 98.5487C53.8174 98.9987 52.7674 99.1487 51.8674 99.2987C50.8174 99.4487 49.6174 99.1487 48.8674 100.199C47.3674 100.349 46.0173 101.249 44.3673 101.249C42.5673 101.249 40.9173 101.399 39.2673 102.149C38.6673 102.449 37.9173 102.449 37.3173 102.449C35.5173 102.299 33.7173 102.449 32.0673 103.499C30.8673 104.249 29.6673 104.549 28.4673 105.149C28.0173 105.299 27.7173 105.599 27.2673 105.449C25.7673 105.149 24.5673 105.899 23.2173 106.349C22.1673 106.799 21.1173 106.949 20.0673 106.949C18.4173 106.949 17.2173 107.849 16.4673 109.199C15.8673 110.249 15.4173 111.299 14.9673 112.349C14.5173 113.849 15.2673 115.499 16.7673 115.799C17.9673 116.099 19.0173 116.699 20.0673 117.449C21.2673 118.199 22.3173 118.949 23.6673 118.949C24.1173 118.949 24.5673 119.099 24.8673 119.249C26.0673 119.999 27.4173 120.149 28.6173 120.149C29.5173 120.149 30.2673 120.299 31.0173 120.599C32.9673 121.349 34.7673 122.099 36.7173 123.149C38.3673 124.199 40.4673 124.649 42.4173 124.649C43.9173 124.649 45.2673 124.799 46.6173 125.849C47.5173 126.599 48.7174 127.049 50.0674 126.749C51.2674 126.449 52.4674 126.449 53.2174 127.499L53.3674 127.649C54.8674 127.199 56.0674 127.949 57.4174 128.399C57.5674 128.399 57.8674 128.249 58.0174 128.249C58.6174 127.799 59.3674 127.649 60.1174 127.949C60.4174 128.099 60.8674 128.099 61.0174 127.949C62.2174 127.199 63.2674 127.649 64.3174 128.249C66.1174 128.999 67.7674 129.899 69.7174 129.749C70.3174 129.749 70.7674 130.049 71.2174 130.499C72.2674 131.549 73.4674 131.849 74.8174 131.399C75.4174 131.249 76.0174 131.249 76.4674 131.549C77.5174 131.849 78.7174 131.849 79.6174 132.449C81.8674 133.649 84.7175 134.099 86.8175 135.899C87.5675 136.499 89.5175 138.749 90.1175 139.499C91.0175 140.549 91.3175 141.599 91.3175 142.949C91.3175 144.149 91.7675 145.349 92.5175 146.399C93.8675 148.649 94.1675 151.199 92.8175 153.749C92.3675 154.499 91.9175 155.099 92.2175 155.999C92.3675 156.449 92.0675 156.899 91.7675 157.199C91.1675 157.799 90.8675 158.399 90.7175 159.149C90.5675 159.599 90.2675 160.049 89.8175 160.199C88.6175 160.649 87.8675 161.699 87.2675 162.899C86.8175 163.949 86.0674 164.549 85.1674 164.849C84.2674 165.149 83.2175 165.599 82.6174 166.349C82.1674 166.799 81.5675 166.949 80.9675 166.949C78.7175 167.099 76.6174 167.849 74.5174 168.599C74.0674 168.749 73.6174 169.049 73.0174 168.899C70.9174 168.749 68.8174 168.899 66.8674 169.199C64.3174 169.499 61.9174 168.899 59.5174 168.599C57.2674 168.299 55.1674 168.299 52.9174 168.149C52.3174 168.149 51.7174 168.149 51.2674 167.699C50.5174 166.949 49.4674 166.949 48.4174 167.099C45.7173 167.699 43.1673 166.949 40.6173 166.349C39.5673 166.049 38.5173 165.749 37.4673 165.599C37.0173 165.449 36.4173 165.449 35.9673 165.599C33.2673 166.499 30.7173 165.899 28.1673 165.299C27.2673 165.149 26.3673 164.849 25.6173 165.449C25.4673 165.599 25.1673 165.599 24.8673 165.599C23.9673 165.749 22.0173 166.349 21.2673 166.649C19.6173 167.249 19.6173 168.149 20.0673 169.649C20.5173 171.149 21.7173 172.349 22.7673 173.549C23.0673 173.999 23.9673 174.149 24.5673 174.299C25.6173 174.599 26.8173 174.899 27.8673 175.499C28.4673 175.799 29.2173 176.099 29.9673 176.099C32.6673 176.549 35.3673 176.999 38.0673 177.299C38.5173 177.449 39.1173 177.449 39.4173 177.899C40.1673 178.799 41.3673 178.949 42.2673 179.399C42.7173 179.699 43.1673 179.849 43.6173 179.549C44.5173 179.099 45.2673 179.399 45.8673 179.849C47.5173 180.899 49.1674 181.799 51.1174 182.099C51.4174 182.099 51.8674 182.249 52.1674 182.249C53.9674 181.799 55.4674 182.849 56.8174 183.599C58.3174 184.499 59.6674 185.249 61.3174 185.699C61.6174 185.699 61.9174 185.849 62.2174 185.999C64.1674 187.199 65.9674 188.399 67.9174 189.599C68.0674 189.749 68.3674 189.899 68.5174 190.049C69.8674 191.999 71.9674 193.199 73.7674 194.549C73.9174 194.699 74.0674 194.849 74.0674 194.849C75.8674 194.999 76.3174 196.349 76.9174 197.699C77.6674 199.199 78.4174 200.699 79.1674 202.199C79.4674 202.649 79.6174 203.249 79.1674 203.549C77.8174 204.599 77.6674 206.249 77.0674 207.749C76.6174 208.649 76.1674 209.399 75.2674 209.699C74.2174 209.999 73.4674 211.199 72.1174 211.199C70.9174 211.349 69.8674 211.499 68.6674 211.649C67.6174 211.799 66.7174 211.949 65.8174 212.549C64.9174 213.149 63.5674 213.449 62.5174 213.449C60.2674 213.749 58.6174 214.349 56.8174 214.199Z" fill="white"/>
</mask>
<g mask="url(#mask0_2028_4949)">
<path d="M56.8174 214.199C56.2174 214.199 55.6174 214.049 55.0174 214.049C54.5674 214.049 53.8174 214.049 53.5174 214.349C52.3174 215.399 51.1174 215.099 49.7674 215.099C48.8674 215.099 47.9674 215.249 47.0674 215.399C45.2673 215.849 43.3174 216.449 41.5173 215.549C40.9173 215.249 40.3173 215.249 39.8673 215.699C39.1173 216.299 38.2173 216.299 37.3173 216.149C35.9673 215.849 34.6173 216.149 33.4173 216.449C32.3673 216.749 31.3173 217.199 30.2673 216.599C28.1673 217.199 26.2173 215.999 24.1173 216.749C23.8173 216.899 23.3673 216.749 22.9173 216.599C20.5173 216.449 18.2673 216.599 16.0173 217.349C15.2673 217.649 14.3673 217.649 13.6173 217.349C12.2673 216.899 10.9173 216.599 9.56725 217.499C9.11725 217.799 8.36725 217.649 7.91725 217.349C5.51724 216.299 3.11723 216.599 0.56723 216.899C-1.53278 217.049 -3.63278 217.349 -5.58279 216.899C-6.63279 216.599 -7.53279 216.899 -8.58279 216.899C-9.9328 217.049 -11.2828 217.499 -12.4828 217.049C-14.1328 216.449 -15.6328 216.299 -17.2828 217.049C-17.4328 217.199 -17.8828 217.199 -18.0328 217.049C-19.0828 216.299 -20.4328 216.599 -21.6328 216.149C-23.5828 215.549 -25.6828 215.099 -27.7829 215.699C-28.6829 215.849 -29.5828 215.699 -30.4828 215.699C-31.5329 215.699 -32.4329 215.549 -33.3329 216.299C-33.9329 216.749 -34.5329 216.599 -35.2829 216.299C-36.6329 215.849 -37.9829 215.549 -39.4829 215.399C-40.2329 215.399 -40.9829 215.249 -41.7329 215.399C-42.3329 215.549 -42.9329 215.549 -43.3829 215.399C-45.7829 214.649 -48.1829 214.949 -50.5829 215.099C-51.3329 215.099 -51.9329 215.249 -52.5329 214.799C-53.1329 214.349 -54.0329 214.349 -54.7829 214.349C-56.4329 214.499 -58.0829 214.199 -59.7329 213.899C-61.0829 213.749 -62.5829 213.599 -63.9329 214.049C-64.533 214.349 -65.283 214.199 -65.883 214.049C-67.083 213.599 -68.433 213.299 -69.633 212.849C-70.533 212.549 -71.283 212.099 -72.183 212.099C-72.633 212.099 -73.233 211.949 -73.533 211.649C-74.583 211.049 -75.483 210.749 -76.683 211.049C-77.283 211.199 -77.883 211.049 -78.333 210.749C-79.383 209.849 -80.583 209.249 -81.783 208.799C-82.083 208.649 -82.683 208.349 -82.683 208.049C-83.133 206.849 -84.033 206.549 -85.083 206.249C-86.283 205.799 -87.483 205.049 -88.533 204.449C-89.283 203.999 -90.033 203.699 -90.783 203.399C-91.683 202.949 -92.583 202.499 -92.883 201.449C-93.183 200.549 -94.083 200.099 -94.833 199.799C-95.283 199.649 -95.883 199.499 -96.033 198.899C-96.633 197.549 -97.683 196.649 -98.433 195.449C-99.033 194.399 -99.933 193.349 -100.833 192.599C-101.583 191.849 -102.183 191.099 -102.333 190.049C-102.483 189.299 -102.933 188.699 -103.233 187.949C-104.133 185.849 -104.733 183.599 -105.483 181.349C-105.483 181.199 -105.483 181.199 -105.483 181.049C-105.183 178.499 -106.683 176.849 -108.033 175.049C-108.183 174.749 -108.483 174.599 -108.633 174.299C-109.083 173.699 -109.383 172.949 -108.783 172.199C-108.483 171.749 -108.183 171.299 -108.783 170.849C-109.533 170.249 -109.683 169.499 -109.533 168.599C-109.383 167.549 -109.383 166.499 -110.283 165.599C-110.733 164.999 -110.733 164.399 -110.583 163.649C-109.983 161.099 -109.983 158.549 -110.883 155.999C-111.183 155.099 -111.183 154.349 -110.283 153.749C-109.683 153.299 -109.683 152.849 -109.983 152.249C-110.583 150.449 -110.133 148.649 -110.433 146.849C-110.433 146.399 -110.283 145.949 -109.983 145.499C-109.233 144.599 -109.233 143.549 -109.683 142.349C-110.133 141.149 -110.583 140.099 -109.983 138.749C-109.833 138.449 -110.133 137.999 -110.133 137.549C-110.133 137.099 -110.283 136.499 -110.133 136.049C-109.083 133.049 -109.383 130.049 -108.783 127.049C-109.233 124.799 -108.783 122.849 -107.283 121.049C-106.383 119.849 -106.533 118.049 -105.483 116.699C-105.333 116.399 -105.333 116.099 -105.483 115.799C-105.783 114.899 -105.483 114.149 -105.183 113.399C-104.733 112.499 -104.283 111.599 -103.983 110.699C-103.383 109.199 -102.933 107.549 -101.883 106.349C-101.283 105.749 -100.983 104.849 -100.683 103.949C-100.233 102.149 -99.633 100.499 -98.133 99.1487C-97.083 98.0987 -96.633 96.5987 -95.433 95.5487C-95.583 94.0487 -93.933 93.2987 -93.783 91.7987C-93.783 91.4987 -93.483 91.0487 -93.183 90.7487C-92.583 90.2987 -92.133 89.8487 -91.833 88.9487C-91.533 88.0487 -90.633 87.5987 -89.883 86.9987C-88.983 86.2487 -88.083 85.6487 -87.933 84.2987C-87.783 83.0987 -86.733 82.4986 -85.833 81.8986C-84.483 81.1486 -83.433 80.2486 -82.383 79.0486C-81.783 78.2986 -81.033 77.8486 -80.283 77.2486C-78.483 75.8986 -76.683 74.5486 -75.183 72.8986C-74.883 72.5986 -74.433 72.4486 -74.133 72.2986C-72.783 71.5486 -71.583 70.7986 -70.683 69.5986C-70.533 69.2986 -70.233 69.1486 -69.933 68.9986C-67.833 67.6486 -65.883 66.4486 -63.783 65.0986C-63.033 64.6486 -62.4329 64.1986 -62.2829 63.2986C-62.1329 62.5486 -61.5329 62.2486 -60.9329 61.9486C-60.0329 61.4986 -58.9829 60.8986 -58.0829 60.4486C-57.6329 60.1486 -57.0329 59.8486 -56.7329 59.2486C-56.4329 58.7986 -56.1329 58.3486 -55.6829 58.1986C-54.4829 57.7486 -53.4329 57.1486 -52.6829 56.0986L-52.5329 55.9486C-51.6329 55.3486 -50.2829 55.4986 -49.5329 54.4486C-48.9329 53.5486 -47.8829 53.2486 -46.8329 52.7986C-45.9329 52.3486 -45.0329 51.7486 -44.2829 51.1486C-43.5329 50.3986 -42.6329 49.7986 -41.5829 49.4986C-40.5329 49.0486 -39.4829 48.5986 -38.5829 47.8486C-38.2829 47.5486 -37.8329 47.2486 -37.5329 47.3986C-35.4329 47.5486 -34.2329 46.1986 -32.8829 44.9986C-32.4329 44.5485 -32.1329 44.0985 -31.6829 43.6485C-31.2329 43.0485 -30.6329 42.7485 -29.8829 42.2985C-28.0829 41.3985 -26.2828 40.1985 -24.3328 39.5985C-24.1828 39.5985 -24.0328 39.4485 -23.8828 39.2985C-23.1328 37.7985 -21.3328 37.1985 -20.4328 35.8485C-19.9828 35.2485 -19.5328 34.9485 -18.9328 34.6485C-17.8828 34.1985 -16.8328 33.7485 -15.7828 33.1485C-15.4828 32.9985 -15.0328 32.9985 -14.8828 32.6985C-13.2328 30.2985 -10.0828 30.1485 -8.1328 28.3485C-7.6828 27.8985 -7.08279 27.8985 -6.48279 27.7485C-4.53278 27.1485 -2.58278 26.5485 -0.932777 25.0485C0.417229 23.8485 2.21724 22.7985 4.01724 22.0485C4.61724 21.7485 5.36724 21.5985 5.81724 21.1485C7.46725 19.7985 9.41725 19.1985 11.2173 18.1485C11.3673 17.9985 11.5173 17.9985 11.6673 17.8485C13.6173 17.3985 15.4173 16.4985 16.9173 14.9985C17.5173 14.3985 18.2673 14.5485 19.0173 14.8485C19.6173 15.1485 20.2173 15.1485 20.5173 14.5485C20.8173 13.7985 21.5673 13.4985 22.3173 13.1985C23.8173 12.7485 25.1673 11.6985 26.8173 11.5485C27.1173 11.5485 27.4173 11.2485 27.7173 11.0985C28.6173 10.3485 29.5173 10.1985 30.5673 10.4985C31.4673 10.7985 32.2173 10.4985 32.9673 10.1985C34.1673 9.59846 35.5173 9.44846 36.4173 8.24846C36.5673 8.09846 36.7173 7.94846 36.8673 7.94846C38.6673 7.94846 40.1673 6.74846 41.9673 6.74846C43.6173 6.74846 45.1173 6.59846 46.3174 5.24845C48.5674 4.49845 50.5174 2.84845 53.0674 2.99845C53.9674 2.99845 54.7174 2.69845 55.3174 2.09844C55.6174 1.79844 56.0674 1.19844 56.5174 1.34844C58.6174 1.49844 60.2674 -0.151562 62.3674 0.148439C62.8174 0.298439 63.2674 -0.151562 63.7174 -0.301562C64.1674 -0.451563 64.7674 -0.451563 65.2174 -0.301562C67.1674 0.298439 68.9674 0.898441 70.9174 1.49844C71.6674 1.64844 72.1174 2.09844 72.1174 2.84845C72.1174 3.89845 72.2674 4.79845 72.8674 5.69845C73.4674 6.59845 72.8674 7.64846 73.0174 8.54846C73.1674 9.44846 74.0674 10.3485 73.7674 11.3985C73.7674 11.5485 73.7674 11.5485 73.7674 11.6985C72.7174 13.3485 72.7174 14.9985 73.3174 16.6485C73.4674 17.0985 73.1674 17.5485 72.8674 17.9985C72.1174 19.1985 71.5174 20.2485 71.6674 21.7485C71.6674 22.4985 71.2174 22.9485 70.6174 23.3985C68.5174 25.0485 66.1174 26.5485 64.6174 28.9485C64.0174 29.6985 63.2674 30.1485 62.3674 30.4485C60.8674 30.8985 59.5174 31.9485 58.1674 32.5485C57.7174 32.6985 57.4174 33.1485 57.1174 33.5985C56.2174 34.9485 55.0174 35.8485 53.3674 36.2985C52.3174 36.5985 51.5674 37.1985 50.9674 37.9485C50.2174 38.6985 49.6174 39.2985 48.4174 39.4485C47.6674 39.4485 46.9173 39.8985 46.4673 40.4985C45.4173 41.6985 44.0673 42.2985 42.8673 43.0485C42.4173 43.3485 41.6673 43.6485 41.5173 44.0985C41.0673 45.7486 39.5673 45.7486 38.3673 46.3486C36.1173 47.3986 33.8673 48.4486 32.6673 50.8486C32.3673 51.4486 31.7673 51.8986 31.0173 51.8986C29.9673 52.0486 29.2173 52.4986 28.7673 53.2486C28.3173 53.9986 27.5673 54.5986 26.6673 54.8986C25.6173 55.3486 24.4173 55.9486 23.8173 57.1486C23.6673 57.4486 23.2173 57.8986 22.9173 57.8986C22.0173 58.0486 21.7173 58.6486 21.2673 59.2486C20.8173 59.8486 20.2173 60.2986 19.6173 60.7486C19.3173 60.8986 19.0173 61.0486 18.7173 61.1986C16.7673 61.9486 15.5673 63.1486 16.0173 65.5486C16.1673 66.1486 15.5673 66.8986 16.4673 67.3486C17.3673 67.7986 18.1173 68.5486 19.1673 68.0986C19.3173 68.0986 19.4673 67.9486 19.6173 67.9486C21.1173 67.4986 22.9173 68.2486 24.1173 66.8986C25.3173 65.8486 26.8173 65.6986 28.1673 64.7986C29.5173 64.0486 31.0173 64.0486 32.5173 63.5986C33.1173 63.4486 33.7173 63.2986 34.0173 62.8486C34.6173 62.0986 35.5173 61.7986 36.4173 61.6486C38.2173 61.1986 40.0173 60.7486 41.6673 60.1486C41.9673 60.1486 42.2673 59.9986 42.4173 59.8486C43.1673 58.7986 44.5173 58.6486 45.5674 58.0486C46.6174 57.4486 47.8174 57.2986 48.7174 56.5486C49.0173 56.2486 49.6174 56.2486 50.2174 56.2486C50.6674 56.0986 51.1174 56.2486 51.4174 56.0986C52.7674 54.8986 54.4174 54.8986 56.0674 54.4486C57.2674 54.1486 58.3174 53.8486 59.3674 53.2486C59.9674 52.7986 60.7174 52.6486 61.4674 52.4986C62.8174 52.1986 64.3174 52.0486 65.5174 51.2986C65.9674 50.9986 66.5674 50.9986 67.1674 50.9986C68.9674 50.9986 70.7674 50.9986 72.5674 50.0986C73.0174 49.9486 73.4674 49.9486 74.0674 49.9486C74.6674 49.9486 75.2674 49.7986 75.7174 49.4986C76.6174 48.8986 77.5174 48.5986 78.5674 49.1986C78.8674 49.3486 79.1674 49.1986 79.4675 49.1986C80.5175 48.8986 81.4174 48.8986 82.1674 49.7986C82.7674 50.3986 83.5175 50.2486 84.2675 49.9486C85.3175 49.3486 86.2175 49.7986 86.9675 50.6986C87.7175 51.5986 88.6175 52.3486 89.5175 53.0986C89.8175 53.3986 90.1175 53.5486 90.1175 53.8486C90.5675 55.4986 91.7675 56.2486 92.9675 57.1486C93.1175 57.2986 93.4175 57.4486 93.4175 57.7486C93.4175 59.0986 94.7675 59.9986 94.6175 61.4986C94.6175 62.0986 94.4675 62.8486 94.7675 63.4486C95.6675 65.5486 94.6175 67.4986 94.1675 69.4486C94.1675 69.7486 93.8675 70.1986 93.7175 70.3486C92.6675 70.7986 92.6675 71.9986 92.2175 72.7486C91.0175 75.4486 89.9675 78.2986 87.5675 80.2486C86.8175 82.1986 84.8675 82.6487 83.5175 83.6987C81.7175 85.0487 79.7675 86.5487 77.9674 88.0487C77.0674 88.7987 76.3174 89.6987 74.9674 89.3987C74.5174 89.2487 74.0674 89.5487 73.9174 89.8487C72.8674 90.8987 71.6674 91.4987 70.3174 91.7987C68.2174 92.3987 66.5674 93.8987 64.7674 94.9487C63.7174 95.5487 62.8174 96.5987 61.4674 96.2987C61.1674 96.1487 60.8674 96.5987 60.7174 96.8987C60.1174 97.6487 59.3674 97.9487 58.4674 97.7987C57.1174 97.6487 55.9174 97.7987 54.5674 98.5487C53.8174 98.9987 52.7674 99.1487 51.8674 99.2987C50.8174 99.4487 49.6174 99.1487 48.8674 100.199C47.3674 100.349 46.0173 101.249 44.3673 101.249C42.5673 101.249 40.9173 101.399 39.2673 102.149C38.6673 102.449 37.9173 102.449 37.3173 102.449C35.5173 102.299 33.7173 102.449 32.0673 103.499C30.8673 104.249 29.6673 104.549 28.4673 105.149C28.0173 105.299 27.7173 105.599 27.2673 105.449C25.7673 105.149 24.5673 105.899 23.2173 106.349C22.1673 106.799 21.1173 106.949 20.0673 106.949C18.4173 106.949 17.2173 107.849 16.4673 109.199C15.8673 110.249 15.4173 111.299 14.9673 112.349C14.5173 113.849 15.2673 115.499 16.7673 115.799C17.9673 116.099 19.0173 116.699 20.0673 117.449C21.2673 118.199 22.3173 118.949 23.6673 118.949C24.1173 118.949 24.5673 119.099 24.8673 119.249C26.0673 119.999 27.4173 120.149 28.6173 120.149C29.5173 120.149 30.2673 120.299 31.0173 120.599C32.9673 121.349 34.7673 122.099 36.7173 123.149C38.3673 124.199 40.4673 124.649 42.4173 124.649C43.9173 124.649 45.2673 124.799 46.6173 125.849C47.5173 126.599 48.7174 127.049 50.0674 126.749C51.2674 126.449 52.4674 126.449 53.2174 127.499L53.3674 127.649C54.8674 127.199 56.0674 127.949 57.4174 128.399C57.5674 128.399 57.8674 128.249 58.0174 128.249C58.6174 127.799 59.3674 127.649 60.1174 127.949C60.4174 128.099 60.8674 128.099 61.0174 127.949C62.2174 127.199 63.2674 127.649 64.3174 128.249C66.1174 128.999 67.7674 129.899 69.7174 129.749C70.3174 129.749 70.7674 130.049 71.2174 130.499C72.2674 131.549 73.4674 131.849 74.8174 131.399C75.4174 131.249 76.0174 131.249 76.4674 131.549C77.5174 131.849 78.7174 131.849 79.6174 132.449C81.8674 133.649 84.7175 134.099 86.8175 135.899C87.5675 136.499 89.5175 138.749 90.1175 139.499C91.0175 140.549 91.3175 141.599 91.3175 142.949C91.3175 144.149 91.7675 145.349 92.5175 146.399C93.8675 148.649 94.1675 151.199 92.8175 153.749C92.3675 154.499 91.9175 155.099 92.2175 155.999C92.3675 156.449 92.0675 156.899 91.7675 157.199C91.1675 157.799 90.8675 158.399 90.7175 159.149C90.5675 159.599 90.2675 160.049 89.8175 160.199C88.6175 160.649 87.8675 161.699 87.2675 162.899C86.8175 163.949 86.0674 164.549 85.1674 164.849C84.2674 165.149 83.2175 165.599 82.6174 166.349C82.1674 166.799 81.5675 166.949 80.9675 166.949C78.7175 167.099 76.6174 167.849 74.5174 168.599C74.0674 168.749 73.6174 169.049 73.0174 168.899C70.9174 168.749 68.8174 168.899 66.8674 169.199C64.3174 169.499 61.9174 168.899 59.5174 168.599C57.2674 168.299 55.1674 168.299 52.9174 168.149C52.3174 168.149 51.7174 168.149 51.2674 167.699C50.5174 166.949 49.4674 166.949 48.4174 167.099C45.7173 167.699 43.1673 166.949 40.6173 166.349C39.5673 166.049 38.5173 165.749 37.4673 165.599C37.0173 165.449 36.4173 165.449 35.9673 165.599C33.2673 166.499 30.7173 165.899 28.1673 165.299C27.2673 165.149 26.3673 164.849 25.6173 165.449C25.4673 165.599 25.1673 165.599 24.8673 165.599C23.9673 165.749 22.0173 166.349 21.2673 166.649C19.6173 167.249 19.6173 168.149 20.0673 169.649C20.5173 171.149 21.7173 172.349 22.7673 173.549C23.0673 173.999 23.9673 174.149 24.5673 174.299C25.6173 174.599 26.8173 174.899 27.8673 175.499C28.4673 175.799 29.2173 176.099 29.9673 176.099C32.6673 176.549 35.3673 176.999 38.0673 177.299C38.5173 177.449 39.1173 177.449 39.4173 177.899C40.1673 178.799 41.3673 178.949 42.2673 179.399C42.7173 179.699 43.1673 179.849 43.6173 179.549C44.5173 179.099 45.2673 179.399 45.8673 179.849C47.5173 180.899 49.1674 181.799 51.1174 182.099C51.4174 182.099 51.8674 182.249 52.1674 182.249C53.9674 181.799 55.4674 182.849 56.8174 183.599C58.3174 184.499 59.6674 185.249 61.3174 185.699C61.6174 185.699 61.9174 185.849 62.2174 185.999C64.1674 187.199 65.9674 188.399 67.9174 189.599C68.0674 189.749 68.3674 189.899 68.5174 190.049C69.8674 191.999 71.9674 193.199 73.7674 194.549C73.9174 194.699 74.0674 194.849 74.0674 194.849C75.8674 194.999 76.3174 196.349 76.9174 197.699C77.6674 199.199 78.4174 200.699 79.1674 202.199C79.4674 202.649 79.6174 203.249 79.1674 203.549C77.8174 204.599 77.6674 206.249 77.0674 207.749C76.6174 208.649 76.1674 209.399 75.2674 209.699C74.2174 209.999 73.4674 211.199 72.1174 211.199C70.9174 211.349 69.8674 211.499 68.6674 211.649C67.6174 211.799 66.7174 211.949 65.8174 212.549C64.9174 213.149 63.5674 213.449 62.5174 213.449C60.2674 213.749 58.6174 214.349 56.8174 214.199Z" fill="#FF81B3"/>
</g>
<mask id="mask1_2028_4949" style="mask-type:luminance" maskUnits="userSpaceOnUse" x="-112" y="-1" width="208" height="219">
<path d="M56.8174 214.199C56.2174 214.199 55.6174 214.049 55.0174 214.049C54.5674 214.049 53.8174 214.049 53.5174 214.349C52.3174 215.399 51.1174 215.099 49.7674 215.099C48.8674 215.099 47.9674 215.249 47.0674 215.399C45.2673 215.849 43.3174 216.449 41.5173 215.549C40.9173 215.249 40.3173 215.249 39.8673 215.699C39.1173 216.299 38.2173 216.299 37.3173 216.149C35.9673 215.849 34.6173 216.149 33.4173 216.449C32.3673 216.749 31.3173 217.199 30.2673 216.599C28.1673 217.199 26.2173 215.999 24.1173 216.749C23.8173 216.899 23.3673 216.749 22.9173 216.599C20.5173 216.449 18.2673 216.599 16.0173 217.349C15.2673 217.649 14.3673 217.649 13.6173 217.349C12.2673 216.899 10.9173 216.599 9.56725 217.499C9.11725 217.799 8.36725 217.649 7.91725 217.349C5.51724 216.299 3.11723 216.599 0.56723 216.899C-1.53278 217.049 -3.63278 217.349 -5.58279 216.899C-6.63279 216.599 -7.53279 216.899 -8.58279 216.899C-9.9328 217.049 -11.2828 217.499 -12.4828 217.049C-14.1328 216.449 -15.6328 216.299 -17.2828 217.049C-17.4328 217.199 -17.8828 217.199 -18.0328 217.049C-19.0828 216.299 -20.4328 216.599 -21.6328 216.149C-23.5828 215.549 -25.6828 215.099 -27.7829 215.699C-28.6829 215.849 -29.5828 215.699 -30.4828 215.699C-31.5329 215.699 -32.4329 215.549 -33.3329 216.299C-33.9329 216.749 -34.5329 216.599 -35.2829 216.299C-36.6329 215.849 -37.9829 215.549 -39.4829 215.399C-40.2329 215.399 -40.9829 215.249 -41.7329 215.399C-42.3329 215.549 -42.9329 215.549 -43.3829 215.399C-45.7829 214.649 -48.1829 214.949 -50.5829 215.099C-51.3329 215.099 -51.9329 215.249 -52.5329 214.799C-53.1329 214.349 -54.0329 214.349 -54.7829 214.349C-56.4329 214.499 -58.0829 214.199 -59.7329 213.899C-61.0829 213.749 -62.5829 213.599 -63.9329 214.049C-64.533 214.349 -65.283 214.199 -65.883 214.049C-67.083 213.599 -68.433 213.299 -69.633 212.849C-70.533 212.549 -71.283 212.099 -72.183 212.099C-72.633 212.099 -73.233 211.949 -73.533 211.649C-74.583 211.049 -75.483 210.749 -76.683 211.049C-77.283 211.199 -77.883 211.049 -78.333 210.749C-79.383 209.849 -80.583 209.249 -81.783 208.799C-82.083 208.649 -82.683 208.349 -82.683 208.049C-83.133 206.849 -84.033 206.549 -85.083 206.249C-86.283 205.799 -87.483 205.049 -88.533 204.449C-89.283 203.999 -90.033 203.699 -90.783 203.399C-91.683 202.949 -92.583 202.499 -92.883 201.449C-93.183 200.549 -94.083 200.099 -94.833 199.799C-95.283 199.649 -95.883 199.499 -96.033 198.899C-96.633 197.549 -97.683 196.649 -98.433 195.449C-99.033 194.399 -99.933 193.349 -100.833 192.599C-101.583 191.849 -102.183 191.099 -102.333 190.049C-102.483 189.299 -102.933 188.699 -103.233 187.949C-104.133 185.849 -104.733 183.599 -105.483 181.349C-105.483 181.199 -105.483 181.199 -105.483 181.049C-105.183 178.499 -106.683 176.849 -108.033 175.049C-108.183 174.749 -108.483 174.599 -108.633 174.299C-109.083 173.699 -109.383 172.949 -108.783 172.199C-108.483 171.749 -108.183 171.299 -108.783 170.849C-109.533 170.249 -109.683 169.499 -109.533 168.599C-109.383 167.549 -109.383 166.499 -110.283 165.599C-110.733 164.999 -110.733 164.399 -110.583 163.649C-109.983 161.099 -109.983 158.549 -110.883 155.999C-111.183 155.099 -111.183 154.349 -110.283 153.749C-109.683 153.299 -109.683 152.849 -109.983 152.249C-110.583 150.449 -110.133 148.649 -110.433 146.849C-110.433 146.399 -110.283 145.949 -109.983 145.499C-109.233 144.599 -109.233 143.549 -109.683 142.349C-110.133 141.149 -110.583 140.099 -109.983 138.749C-109.833 138.449 -110.133 137.999 -110.133 137.549C-110.133 137.099 -110.283 136.499 -110.133 136.049C-109.083 133.049 -109.383 130.049 -108.783 127.049C-109.233 124.799 -108.783 122.849 -107.283 121.049C-106.383 119.849 -106.533 118.049 -105.483 116.699C-105.333 116.399 -105.333 116.099 -105.483 115.799C-105.783 114.899 -105.483 114.149 -105.183 113.399C-104.733 112.499 -104.283 111.599 -103.983 110.699C-103.383 109.199 -102.933 107.549 -101.883 106.349C-101.283 105.749 -100.983 104.849 -100.683 103.949C-100.233 102.149 -99.633 100.499 -98.133 99.1487C-97.083 98.0987 -96.633 96.5987 -95.433 95.5487C-95.583 94.0487 -93.933 93.2987 -93.783 91.7987C-93.783 91.4987 -93.483 91.0487 -93.183 90.7487C-92.583 90.2987 -92.133 89.8487 -91.833 88.9487C-91.533 88.0487 -90.633 87.5987 -89.883 86.9987C-88.983 86.2487 -88.083 85.6487 -87.933 84.2987C-87.783 83.0987 -86.733 82.4986 -85.833 81.8986C-84.483 81.1486 -83.433 80.2486 -82.383 79.0486C-81.783 78.2986 -81.033 77.8486 -80.283 77.2486C-78.483 75.8986 -76.683 74.5486 -75.183 72.8986C-74.883 72.5986 -74.433 72.4486 -74.133 72.2986C-72.783 71.5486 -71.583 70.7986 -70.683 69.5986C-70.533 69.2986 -70.233 69.1486 -69.933 68.9986C-67.833 67.6486 -65.883 66.4486 -63.783 65.0986C-63.033 64.6486 -62.4329 64.1986 -62.2829 63.2986C-62.1329 62.5486 -61.5329 62.2486 -60.9329 61.9486C-60.0329 61.4986 -58.9829 60.8986 -58.0829 60.4486C-57.6329 60.1486 -57.0329 59.8486 -56.7329 59.2486C-56.4329 58.7986 -56.1329 58.3486 -55.6829 58.1986C-54.4829 57.7486 -53.4329 57.1486 -52.6829 56.0986L-52.5329 55.9486C-51.6329 55.3486 -50.2829 55.4986 -49.5329 54.4486C-48.9329 53.5486 -47.8829 53.2486 -46.8329 52.7986C-45.9329 52.3486 -45.0329 51.7486 -44.2829 51.1486C-43.5329 50.3986 -42.6329 49.7986 -41.5829 49.4986C-40.5329 49.0486 -39.4829 48.5986 -38.5829 47.8486C-38.2829 47.5486 -37.8329 47.2486 -37.5329 47.3986C-35.4329 47.5486 -34.2329 46.1986 -32.8829 44.9986C-32.4329 44.5485 -32.1329 44.0985 -31.6829 43.6485C-31.2329 43.0485 -30.6329 42.7485 -29.8829 42.2985C-28.0829 41.3985 -26.2828 40.1985 -24.3328 39.5985C-24.1828 39.5985 -24.0328 39.4485 -23.8828 39.2985C-23.1328 37.7985 -21.3328 37.1985 -20.4328 35.8485C-19.9828 35.2485 -19.5328 34.9485 -18.9328 34.6485C-17.8828 34.1985 -16.8328 33.7485 -15.7828 33.1485C-15.4828 32.9985 -15.0328 32.9985 -14.8828 32.6985C-13.2328 30.2985 -10.0828 30.1485 -8.1328 28.3485C-7.6828 27.8985 -7.08279 27.8985 -6.48279 27.7485C-4.53278 27.1485 -2.58278 26.5485 -0.932777 25.0485C0.417229 23.8485 2.21724 22.7985 4.01724 22.0485C4.61724 21.7485 5.36724 21.5985 5.81724 21.1485C7.46725 19.7985 9.41725 19.1985 11.2173 18.1485C11.3673 17.9985 11.5173 17.9985 11.6673 17.8485C13.6173 17.3985 15.4173 16.4985 16.9173 14.9985C17.5173 14.3985 18.2673 14.5485 19.0173 14.8485C19.6173 15.1485 20.2173 15.1485 20.5173 14.5485C20.8173 13.7985 21.5673 13.4985 22.3173 13.1985C23.8173 12.7485 25.1673 11.6985 26.8173 11.5485C27.1173 11.5485 27.4173 11.2485 27.7173 11.0985C28.6173 10.3485 29.5173 10.1985 30.5673 10.4985C31.4673 10.7985 32.2173 10.4985 32.9673 10.1985C34.1673 9.59846 35.5173 9.44846 36.4173 8.24846C36.5673 8.09846 36.7173 7.94846 36.8673 7.94846C38.6673 7.94846 40.1673 6.74846 41.9673 6.74846C43.6173 6.74846 45.1173 6.59846 46.3174 5.24845C48.5674 4.49845 50.5174 2.84845 53.0674 2.99845C53.9674 2.99845 54.7174 2.69845 55.3174 2.09844C55.6174 1.79844 56.0674 1.19844 56.5174 1.34844C58.6174 1.49844 60.2674 -0.151562 62.3674 0.148439C62.8174 0.298439 63.2674 -0.151562 63.7174 -0.301562C64.1674 -0.451563 64.7674 -0.451563 65.2174 -0.301562C67.1674 0.298439 68.9674 0.898441 70.9174 1.49844C71.6674 1.64844 72.1174 2.09844 72.1174 2.84845C72.1174 3.89845 72.2674 4.79845 72.8674 5.69845C73.4674 6.59845 72.8674 7.64846 73.0174 8.54846C73.1674 9.44846 74.0674 10.3485 73.7674 11.3985C73.7674 11.5485 73.7674 11.5485 73.7674 11.6985C72.7174 13.3485 72.7174 14.9985 73.3174 16.6485C73.4674 17.0985 73.1674 17.5485 72.8674 17.9985C72.1174 19.1985 71.5174 20.2485 71.6674 21.7485C71.6674 22.4985 71.2174 22.9485 70.6174 23.3985C68.5174 25.0485 66.1174 26.5485 64.6174 28.9485C64.0174 29.6985 63.2674 30.1485 62.3674 30.4485C60.8674 30.8985 59.5174 31.9485 58.1674 32.5485C57.7174 32.6985 57.4174 33.1485 57.1174 33.5985C56.2174 34.9485 55.0174 35.8485 53.3674 36.2985C52.3174 36.5985 51.5674 37.1985 50.9674 37.9485C50.2174 38.6985 49.6174 39.2985 48.4174 39.4485C47.6674 39.4485 46.9173 39.8985 46.4673 40.4985C45.4173 41.6985 44.0673 42.2985 42.8673 43.0485C42.4173 43.3485 41.6673 43.6485 41.5173 44.0985C41.0673 45.7486 39.5673 45.7486 38.3673 46.3486C36.1173 47.3986 33.8673 48.4486 32.6673 50.8486C32.3673 51.4486 31.7673 51.8986 31.0173 51.8986C29.9673 52.0486 29.2173 52.4986 28.7673 53.2486C28.3173 53.9986 27.5673 54.5986 26.6673 54.8986C25.6173 55.3486 24.4173 55.9486 23.8173 57.1486C23.6673 57.4486 23.2173 57.8986 22.9173 57.8986C22.0173 58.0486 21.7173 58.6486 21.2673 59.2486C20.8173 59.8486 20.2173 60.2986 19.6173 60.7486C19.3173 60.8986 19.0173 61.0486 18.7173 61.1986C16.7673 61.9486 15.5673 63.1486 16.0173 65.5486C16.1673 66.1486 15.5673 66.8986 16.4673 67.3486C17.3673 67.7986 18.1173 68.5486 19.1673 68.0986C19.3173 68.0986 19.4673 67.9486 19.6173 67.9486C21.1173 67.4986 22.9173 68.2486 24.1173 66.8986C25.3173 65.8486 26.8173 65.6986 28.1673 64.7986C29.5173 64.0486 31.0173 64.0486 32.5173 63.5986C33.1173 63.4486 33.7173 63.2986 34.0173 62.8486C34.6173 62.0986 35.5173 61.7986 36.4173 61.6486C38.2173 61.1986 40.0173 60.7486 41.6673 60.1486C41.9673 60.1486 42.2673 59.9986 42.4173 59.8486C43.1673 58.7986 44.5173 58.6486 45.5674 58.0486C46.6174 57.4486 47.8174 57.2986 48.7174 56.5486C49.0173 56.2486 49.6174 56.2486 50.2174 56.2486C50.6674 56.0986 51.1174 56.2486 51.4174 56.0986C52.7674 54.8986 54.4174 54.8986 56.0674 54.4486C57.2674 54.1486 58.3174 53.8486 59.3674 53.2486C59.9674 52.7986 60.7174 52.6486 61.4674 52.4986C62.8174 52.1986 64.3174 52.0486 65.5174 51.2986C65.9674 50.9986 66.5674 50.9986 67.1674 50.9986C68.9674 50.9986 70.7674 50.9986 72.5674 50.0986C73.0174 49.9486 73.4674 49.9486 74.0674 49.9486C74.6674 49.9486 75.2674 49.7986 75.7174 49.4986C76.6174 48.8986 77.5174 48.5986 78.5674 49.1986C78.8674 49.3486 79.1674 49.1986 79.4675 49.1986C80.5175 48.8986 81.4174 48.8986 82.1674 49.7986C82.7674 50.3986 83.5175 50.2486 84.2675 49.9486C85.3175 49.3486 86.2175 49.7986 86.9675 50.6986C87.7175 51.5986 88.6175 52.3486 89.5175 53.0986C89.8175 53.3986 90.1175 53.5486 90.1175 53.8486C90.5675 55.4986 91.7675 56.2486 92.9675 57.1486C93.1175 57.2986 93.4175 57.4486 93.4175 57.7486C93.4175 59.0986 94.7675 59.9986 94.6175 61.4986C94.6175 62.0986 94.4675 62.8486 94.7675 63.4486C95.6675 65.5486 94.6175 67.4986 94.1675 69.4486C94.1675 69.7486 93.8675 70.1986 93.7175 70.3486C92.6675 70.7986 92.6675 71.9986 92.2175 72.7486C91.0175 75.4486 89.9675 78.2986 87.5675 80.2486C86.8175 82.1986 84.8675 82.6487 83.5175 83.6987C81.7175 85.0487 79.7675 86.5487 77.9674 88.0487C77.0674 88.7987 76.3174 89.6987 74.9674 89.3987C74.5174 89.2487 74.0674 89.5487 73.9174 89.8487C72.8674 90.8987 71.6674 91.4987 70.3174 91.7987C68.2174 92.3987 66.5674 93.8987 64.7674 94.9487C63.7174 95.5487 62.8174 96.5987 61.4674 96.2987C61.1674 96.1487 60.8674 96.5987 60.7174 96.8987C60.1174 97.6487 59.3674 97.9487 58.4674 97.7987C57.1174 97.6487 55.9174 97.7987 54.5674 98.5487C53.8174 98.9987 52.7674 99.1487 51.8674 99.2987C50.8174 99.4487 49.6174 99.1487 48.8674 100.199C47.3674 100.349 46.0173 101.249 44.3673 101.249C42.5673 101.249 40.9173 101.399 39.2673 102.149C38.6673 102.449 37.9173 102.449 37.3173 102.449C35.5173 102.299 33.7173 102.449 32.0673 103.499C30.8673 104.249 29.6673 104.549 28.4673 105.149C28.0173 105.299 27.7173 105.599 27.2673 105.449C25.7673 105.149 24.5673 105.899 23.2173 106.349C22.1673 106.799 21.1173 106.949 20.0673 106.949C18.4173 106.949 17.2173 107.849 16.4673 109.199C15.8673 110.249 15.4173 111.299 14.9673 112.349C14.5173 113.849 15.2673 115.499 16.7673 115.799C17.9673 116.099 19.0173 116.699 20.0673 117.449C21.2673 118.199 22.3173 118.949 23.6673 118.949C24.1173 118.949 24.5673 119.099 24.8673 119.249C26.0673 119.999 27.4173 120.149 28.6173 120.149C29.5173 120.149 30.2673 120.299 31.0173 120.599C32.9673 121.349 34.7673 122.099 36.7173 123.149C38.3673 124.199 40.4673 124.649 42.4173 124.649C43.9173 124.649 45.2673 124.799 46.6173 125.849C47.5173 126.599 48.7174 127.049 50.0674 126.749C51.2674 126.449 52.4674 126.449 53.2174 127.499L53.3674 127.649C54.8674 127.199 56.0674 127.949 57.4174 128.399C57.5674 128.399 57.8674 128.249 58.0174 128.249C58.6174 127.799 59.3674 127.649 60.1174 127.949C60.4174 128.099 60.8674 128.099 61.0174 127.949C62.2174 127.199 63.2674 127.649 64.3174 128.249C66.1174 128.999 67.7674 129.899 69.7174 129.749C70.3174 129.749 70.7674 130.049 71.2174 130.499C72.2674 131.549 73.4674 131.849 74.8174 131.399C75.4174 131.249 76.0174 131.249 76.4674 131.549C77.5174 131.849 78.7174 131.849 79.6174 132.449C81.8674 133.649 84.7175 134.099 86.8175 135.899C87.5675 136.499 89.5175 138.749 90.1175 139.499C91.0175 140.549 91.3175 141.599 91.3175 142.949C91.3175 144.149 91.7675 145.349 92.5175 146.399C93.8675 148.649 94.1675 151.199 92.8175 153.749C92.3675 154.499 91.9175 155.099 92.2175 155.999C92.3675 156.449 92.0675 156.899 91.7675 157.199C91.1675 157.799 90.8675 158.399 90.7175 159.149C90.5675 159.599 90.2675 160.049 89.8175 160.199C88.6175 160.649 87.8675 161.699 87.2675 162.899C86.8175 163.949 86.0674 164.549 85.1674 164.849C84.2674 165.149 83.2175 165.599 82.6174 166.349C82.1674 166.799 81.5675 166.949 80.9675 166.949C78.7175 167.099 76.6174 167.849 74.5174 168.599C74.0674 168.749 73.6174 169.049 73.0174 168.899C70.9174 168.749 68.8174 168.899 66.8674 169.199C64.3174 169.499 61.9174 168.899 59.5174 168.599C57.2674 168.299 55.1674 168.299 52.9174 168.149C52.3174 168.149 51.7174 168.149 51.2674 167.699C50.5174 166.949 49.4674 166.949 48.4174 167.099C45.7173 167.699 43.1673 166.949 40.6173 166.349C39.5673 166.049 38.5173 165.749 37.4673 165.599C37.0173 165.449 36.4173 165.449 35.9673 165.599C33.2673 166.499 30.7173 165.899 28.1673 165.299C27.2673 165.149 26.3673 164.849 25.6173 165.449C25.4673 165.599 25.1673 165.599 24.8673 165.599C23.9673 165.749 22.0173 166.349 21.2673 166.649C19.6173 167.249 19.6173 168.149 20.0673 169.649C20.5173 171.149 21.7173 172.349 22.7673 173.549C23.0673 173.999 23.9673 174.149 24.5673 174.299C25.6173 174.599 26.8173 174.899 27.8673 175.499C28.4673 175.799 29.2173 176.099 29.9673 176.099C32.6673 176.549 35.3673 176.999 38.0673 177.299C38.5173 177.449 39.1173 177.449 39.4173 177.899C40.1673 178.799 41.3673 178.949 42.2673 179.399C42.7173 179.699 43.1673 179.849 43.6173 179.549C44.5173 179.099 45.2673 179.399 45.8673 179.849C47.5173 180.899 49.1674 181.799 51.1174 182.099C51.4174 182.099 51.8674 182.249 52.1674 182.249C53.9674 181.799 55.4674 182.849 56.8174 183.599C58.3174 184.499 59.6674 185.249 61.3174 185.699C61.6174 185.699 61.9174 185.849 62.2174 185.999C64.1674 187.199 65.9674 188.399 67.9174 189.599C68.0674 189.749 68.3674 189.899 68.5174 190.049C69.8674 191.999 71.9674 193.199 73.7674 194.549C73.9174 194.699 74.0674 194.849 74.0674 194.849C75.8674 194.999 76.3174 196.349 76.9174 197.699C77.6674 199.199 78.4174 200.699 79.1674 202.199C79.4674 202.649 79.6174 203.249 79.1674 203.549C77.8174 204.599 77.6674 206.249 77.0674 207.749C76.6174 208.649 76.1674 209.399 75.2674 209.699C74.2174 209.999 73.4674 211.199 72.1174 211.199C70.9174 211.349 69.8674 211.499 68.6674 211.649C67.6174 211.799 66.7174 211.949 65.8174 212.549C64.9174 213.149 63.5674 213.449 62.5174 213.449C60.2674 213.749 58.6174 214.349 56.8174 214.199Z" fill="white"/>
</mask>
<g mask="url(#mask1_2028_4949)">
<path d="M-94.2325 90.5995C-93.1825 90.7495 -91.5325 89.9995 -89.7325 90.1495C-87.6325 90.1495 -85.5325 89.8495 -83.5824 89.3995C-83.1324 89.2495 -82.6824 89.0995 -82.3824 89.2495C-79.9824 90.2995 -77.4324 89.6995 -75.0324 90.2995C-74.2824 90.4495 -73.9824 90.2995 -73.8324 89.5495C-73.5324 87.8995 -73.2324 86.2495 -73.2324 84.5995C-73.2324 83.6995 -73.2324 82.7995 -72.1824 82.1995C-71.7324 82.0495 -71.7324 81.5995 -71.7324 81.1495C-71.8824 78.5995 -70.8324 76.4995 -70.0824 74.2495C-69.9324 73.6495 -69.6324 73.1995 -69.4824 72.5995C-69.0324 70.4995 -68.2824 68.6995 -66.7824 67.0495C-66.4824 66.7495 -66.1824 66.4495 -66.0324 65.9995C-65.4324 64.4995 -64.3824 63.2994 -63.1824 62.3994C-61.9824 61.4994 -61.0824 60.2994 -60.1824 59.0994C-60.0324 58.9494 -59.8824 58.6494 -59.7324 58.4994C-58.9824 57.7494 -57.7824 57.5994 -57.3324 57.8994C-56.4324 58.6494 -55.9824 59.8494 -56.4324 60.7494C-56.8824 61.7994 -57.1824 62.9995 -58.3824 63.5995C-58.6824 63.7495 -58.9824 64.0495 -59.1324 64.1995C-59.7324 66.4495 -61.9824 67.6495 -62.4324 70.0495C-62.5824 70.7995 -63.1824 71.3995 -63.4824 71.9995C-64.0824 73.0495 -64.9824 73.7995 -64.9824 74.9995C-64.9824 76.1995 -66.1824 77.0995 -65.8824 78.2995C-65.8824 78.4495 -65.8824 78.5995 -66.0324 78.7495C-67.2324 80.8495 -67.0824 83.2495 -66.9324 85.6495C-66.7824 86.5495 -66.7824 87.2995 -67.0824 88.0495C-67.5324 89.0995 -67.3824 90.1495 -67.3824 91.1995C-67.3824 93.8995 -66.0324 95.5495 -63.4824 96.1495C-62.7324 96.2995 -62.1324 96.5995 -61.6824 97.1995C-61.5324 97.4995 -61.2324 97.9495 -60.9324 98.0995C-59.5824 98.5495 -59.1324 99.5995 -58.2324 100.65C-56.1324 103.05 -54.1824 105.45 -52.3824 108.15C-50.8824 109.05 -50.5824 111 -49.3824 112.05C-49.2324 112.2 -48.9324 112.65 -49.0824 112.95C-49.0824 114 -48.6324 114.75 -48.1824 115.5C-47.1324 116.85 -46.8324 118.5 -46.9824 120.15C-47.1324 121.05 -46.9824 121.8 -46.2324 122.4C-45.6323 123 -45.4823 123.9 -45.1824 124.65C-44.2823 126.45 -42.6323 127.35 -40.5323 127.05C-39.9323 126.9 -39.3323 126.9 -38.8823 126.75C-36.7823 125.85 -34.6823 125.1 -32.4323 124.8C-31.9823 124.8 -31.6823 124.5 -31.3823 124.35C-29.2823 123.3 -27.0323 122.1 -24.9323 121.05C-23.8823 120.6 -22.8323 120.15 -21.9323 119.25C-21.6323 118.8 -21.0323 118.8 -20.5823 118.65C-18.4823 118.05 -16.9823 116.7 -15.4823 115.2C-14.1323 113.7 -12.9323 112.05 -10.6823 111.45C-9.93226 111.3 -9.33225 110.7 -8.73225 110.4C-7.98225 110.1 -7.53226 109.65 -7.38226 108.75C-7.38226 107.85 -6.78225 107.4 -6.18225 106.95C-5.73225 106.65 -5.43224 106.35 -4.98225 106.05C-3.78224 104.55 -3.78225 103.8 -5.13226 102.45C-5.88226 101.7 -6.78226 101.1 -6.78226 99.7495C-6.78226 99.4495 -7.23225 99.1495 -7.53226 98.8495C-9.03226 97.4995 -10.2323 95.8495 -11.1323 94.0495C-11.2823 93.7495 -11.4323 93.4495 -11.7323 93.2995C-13.8323 91.6495 -15.0323 89.2495 -16.5323 86.9995C-17.4323 85.6495 -18.3323 84.1495 -19.0823 82.7995C-19.2323 82.4995 -19.3823 82.0495 -19.6823 81.7495C-21.6323 79.9495 -22.8323 77.5495 -24.1823 75.1495C-25.8323 72.1495 -27.4823 69.1495 -27.9323 65.8495C-27.9323 65.5495 -27.9323 65.3995 -28.0823 65.0995C-29.5823 61.6494 -29.4323 57.8994 -29.8823 54.2994C-29.8823 53.8494 -29.8823 53.2494 -29.8823 52.7994C-29.2823 50.3994 -28.9823 47.9994 -28.0823 45.5994C-27.4823 44.0994 -27.0323 42.7494 -26.2823 41.2494C-25.8323 40.4994 -25.3823 39.7494 -24.6323 39.1494C-24.4823 38.9994 -24.3323 38.9994 -24.1823 38.8494C-21.9323 36.1494 -18.7823 35.5494 -15.7823 34.3494C-15.0323 34.0494 -14.2823 34.0494 -13.5323 34.1994C-9.18226 34.7994 -4.98225 36.2994 -0.932236 38.2494C0.567764 38.9994 2.21777 39.7494 3.71777 40.6494C4.01778 40.7994 4.61778 40.9494 4.76778 41.2494C5.21779 42.7494 6.86778 43.3494 7.61778 44.5494C8.36778 45.7494 9.26779 46.7994 10.0178 47.9994C10.9178 49.4994 11.3678 51.1494 12.4178 52.6494C12.7178 52.9494 12.5678 53.5494 12.5678 54.1494C12.7178 55.7994 13.3178 57.4494 14.0678 58.7994C14.3678 59.2494 14.6678 59.8494 14.6678 60.4494C14.5178 61.6494 14.9678 62.6994 14.9678 63.8995C15.2678 66.8995 15.4178 70.0495 15.7178 73.0495C15.7178 73.4995 15.7178 73.9495 15.5678 74.2495C15.1178 75.4495 15.1178 76.4995 15.2678 77.6995C15.2678 78.2995 15.4178 78.8995 15.1178 79.4995C13.9178 82.0495 14.2178 84.8995 13.4678 87.4495C13.0178 88.7995 12.7178 90.1495 12.2678 91.4995C11.9678 92.3995 11.3678 93.2995 10.6178 93.8995C9.86778 94.4995 9.26779 95.2495 9.41779 96.2995C9.41779 97.6495 8.81779 98.6995 8.06778 99.7495C7.61778 100.35 7.16779 100.8 6.86778 101.4C6.11778 102.6 6.26778 104.55 7.46779 105.15C8.96779 106.05 9.8678 107.4 10.9178 108.6C11.8178 109.8 13.4678 110.25 14.0678 111.6L14.2178 111.75C16.6178 112.35 17.8178 114.15 19.3178 115.8C19.7678 116.4 20.5178 116.7 21.1178 117C22.6178 117.6 23.9678 118.65 25.0178 120C25.4678 120.6 26.0678 121.05 26.9678 121.05C28.0178 121.2 28.6178 121.5 29.0678 122.55C29.3678 123.15 29.9678 123.45 30.7178 123.6C31.3178 123.75 31.9178 123.9 32.3678 124.05C32.8178 124.2 33.2679 124.35 33.2679 124.8C33.5679 125.85 34.4678 126.15 35.3679 126.75C37.4679 127.95 39.5679 129 42.1179 129C43.4679 129.9 45.1179 129.6 46.3179 130.35C46.7679 130.65 47.2179 130.65 47.8179 130.65C51.2679 130.95 51.1179 130.95 50.3679 127.8C50.0679 126.75 49.7679 125.7 50.3679 124.65C50.8179 123.9 50.3679 123.15 50.0679 122.55C49.3179 121.35 48.8679 120 48.5679 118.65C48.4179 118.05 48.2679 117.3 48.5679 116.7C49.0179 115.95 48.8679 115.05 48.5679 114.3C47.9679 112.95 47.3679 111.6 47.3679 110.1C47.3679 108.75 46.4679 107.4 46.7679 105.9C46.9179 105.45 46.6179 104.85 46.3179 104.55C45.7179 103.35 45.2679 102.15 44.9679 100.8C44.8179 100.05 44.5179 99.1495 44.2179 98.3995C43.1679 96.7495 43.0179 94.9495 43.0179 93.1495C43.0179 91.1995 42.5679 89.3995 41.8179 87.5995C41.6679 87.2995 41.5179 86.9995 41.5179 86.6995C41.6679 86.0995 41.9679 85.4995 41.6679 84.7495C40.9179 82.9495 40.7679 80.9995 39.7179 79.3495C38.9679 78.2995 38.2179 77.0995 38.6679 75.5995C38.0679 73.9495 38.0679 72.1495 37.3179 70.3495C35.2179 65.3995 33.5679 60.4494 32.5179 55.1994C32.2178 54.1494 32.2178 52.9494 30.8678 52.3494C30.4178 52.1994 30.2679 51.5994 30.2679 50.9994C30.1178 50.2494 30.1178 49.4994 30.1178 48.7494C29.9678 47.0994 29.6678 45.5994 28.9178 44.2494C28.0178 42.5994 27.2678 40.9494 26.5178 39.2994C25.9178 37.6494 25.3178 35.9994 25.3178 34.1994C25.3178 33.2994 25.1678 32.5494 25.0178 31.6494C24.8678 30.7494 24.7178 29.8494 24.7178 28.9494C24.8678 28.0494 24.4178 26.9994 24.2678 25.9494C23.8178 23.2493 24.4178 20.6993 25.9178 18.2993C26.8178 16.9493 27.4178 15.5993 28.1678 14.0993C28.9178 12.7493 29.8178 11.3993 31.3178 10.6493C32.3678 10.1993 33.4178 9.59931 34.3179 8.84931C34.6179 8.39931 35.2179 8.39931 35.6679 8.39931C36.7179 8.24931 37.6179 8.24931 38.6679 8.54931C39.7179 8.84931 40.7679 8.99931 41.8179 8.99931C42.2679 8.99931 42.7179 8.99931 43.0179 9.14931C46.6179 10.4993 50.2179 11.5493 53.9679 12.4493C54.4179 12.5993 54.8679 12.8993 55.3179 13.1993C56.8179 14.3993 58.1679 15.7493 60.1179 16.3493C60.4179 16.4993 60.7179 16.6493 61.0179 16.9493C62.0679 18.4493 63.8679 19.0493 64.9179 20.6993C65.2179 21.1493 65.668 21.4493 65.968 21.7493C67.318 22.9493 68.8179 24.1494 70.168 25.3494C70.468 25.4994 70.618 25.7994 70.768 26.0994C72.118 28.4994 73.918 30.5994 75.718 32.6994C76.618 33.7494 77.368 34.9494 77.968 36.2994C78.568 37.4994 79.318 38.5494 80.068 39.5994C80.668 40.3494 81.118 41.2494 81.118 42.2994C81.118 42.8994 81.268 43.4994 81.568 43.9494C82.768 45.5994 83.068 47.8494 84.268 49.4994C84.718 50.0994 84.718 50.6994 84.868 51.4494C84.868 52.1994 85.018 53.0994 85.318 53.8494C85.918 55.1994 86.368 56.6994 86.218 58.1994C86.218 58.3494 86.218 58.4994 86.218 58.6494C87.718 60.4494 87.118 62.8494 87.568 64.9495C87.868 66.5995 88.018 68.2495 88.168 69.8995C88.168 70.3495 88.168 70.7995 88.168 71.0995C87.718 72.7495 87.868 74.3995 88.318 76.0495C89.518 80.3995 89.368 84.7495 89.368 89.2495C89.368 89.9995 89.218 90.7495 89.068 91.4995C88.768 92.5495 88.768 93.4495 88.768 94.4995C88.768 95.9995 88.918 97.4995 88.018 98.8495C87.568 99.5995 87.718 100.65 87.718 101.55C87.718 102.15 87.568 102.9 87.118 103.5C86.218 104.85 85.768 106.5 85.768 108.15C85.768 109.35 85.918 110.7 84.718 111.6C84.568 111.75 84.418 112.2 84.418 112.5C83.968 115.8 82.318 118.35 80.368 120.9C79.468 122.1 78.718 123.15 78.418 124.65C78.118 126 77.368 127.2 76.468 128.4C76.168 128.85 75.868 129.15 75.418 129.3C74.218 129.75 73.468 130.65 72.868 131.7C71.818 133.5 70.168 134.55 68.368 135.6C68.0679 135.75 67.618 135.9 67.468 135.75C66.418 135.3 65.8179 135.75 65.0679 136.35C64.4679 136.95 63.5679 137.4 62.6679 137.55C61.4679 137.85 61.3179 138.45 61.4679 139.65C61.6179 141.15 61.918 142.65 62.218 144.15C62.5179 145.2 62.5179 146.25 62.5179 147.3C62.368 148.5 62.5179 149.7 62.968 150.75C63.718 152.55 63.718 154.5 63.718 156.45C63.868 158.55 64.3179 160.65 63.8679 162.6C63.7179 163.35 64.0179 164.25 64.3179 165C64.618 165.6 64.918 166.2 64.7679 166.95C64.168 169.8 64.618 172.8 65.218 175.65C65.368 176.7 65.368 177.45 64.7679 178.5C64.168 179.4 64.1679 180.75 64.6179 181.8C64.9179 182.55 64.918 183.45 64.7679 184.2C64.3179 186.45 64.4679 188.85 63.8679 191.1C63.5679 192.3 63.5679 193.65 63.718 194.85C63.718 196.05 63.5679 197.1 63.2679 198.3C63.118 198.75 62.968 199.05 62.968 199.5C62.968 201.45 62.3679 203.4 61.4679 205.2C61.1679 205.8 61.1679 206.7 61.1679 207.45C61.1679 208.2 61.0179 208.8 60.8679 209.4C60.5679 210.45 59.2179 210.9 59.3679 212.1C59.3679 213.15 58.6179 213.9 58.1679 214.8C57.7179 215.85 57.2679 216.75 56.8179 217.8C56.2179 218.85 55.7679 219.9 54.8679 220.65C53.3679 222.15 52.6179 224.4 50.8179 225.6C50.2179 226.05 49.6179 226.8 49.1679 227.55C48.4179 228.9 46.9179 229.5 46.1679 230.85C46.1679 231 45.8679 231.15 45.7179 231.15C43.4679 232.05 41.8179 233.55 40.0179 234.9C39.8679 235.05 39.7179 235.2 39.5679 235.2C37.9179 235.65 36.2679 236.1 34.4678 236.4C34.1678 236.4 33.7178 236.25 33.5679 236.1C32.9678 235.5 32.3678 235.35 31.4678 235.35C29.6678 235.2 27.8678 234.75 26.0678 234.3C24.2678 233.85 22.6178 232.65 20.9678 231.75C20.0678 231.15 19.3178 230.7 18.2678 231C17.5178 231.15 16.9178 230.7 16.6178 230.25C15.1178 228.15 13.0178 226.65 10.6178 225.45C9.86778 225 9.26779 224.55 8.81779 223.8C7.91779 222.45 7.01778 221.25 5.81778 220.2C5.21777 219.6 4.76778 218.7 4.16779 217.95C3.26778 216.9 2.81778 215.4 1.76778 214.5C1.46777 214.2 1.46777 213.6 1.31776 213.15C1.01776 212.4 0.867767 211.5 0.41777 210.9C-0.482239 209.4 -0.932236 209.25 -2.43224 210.3C-2.88224 210.6 -3.33224 210.9 -3.78225 211.05C-5.58225 211.2 -6.78225 212.25 -7.83225 213.45C-8.58225 214.2 -9.18225 214.65 -10.2323 214.2C-10.6823 213.9 -11.1323 214.2 -11.5823 214.65C-12.4823 215.55 -13.3823 216.3 -14.2823 217.2C-15.3323 218.25 -16.5323 218.7 -17.8823 218.55C-20.2823 218.4 -22.3823 219.15 -24.1823 220.95C-24.6323 221.4 -25.3823 221.7 -25.9823 221.55C-27.6323 221.1 -29.1323 221.7 -30.4823 222.45C-31.3823 222.9 -32.2823 223.35 -33.3323 222.9C-34.0823 222.6 -34.8323 223.05 -35.4323 223.5C-36.3323 224.1 -37.2323 224.1 -38.2823 223.95C-39.4823 223.65 -40.8323 223.8 -42.0323 223.8C-42.3323 223.8 -42.7823 223.95 -42.9323 224.1C-43.6823 225 -44.7323 224.85 -45.6323 224.7C-47.4324 224.4 -49.2324 223.95 -51.0324 223.8C-52.8324 223.65 -54.4824 223.8 -56.2824 223.8C-56.7324 223.8 -57.0324 224.1 -57.4824 224.25C-58.6824 225 -59.8824 225.75 -61.0824 226.5C-61.3824 226.65 -61.8324 226.95 -62.1324 227.1C-64.5324 227.55 -66.6324 228.75 -68.8824 229.35C-69.6324 229.65 -70.3824 230.1 -70.8324 230.7C-71.2824 231.3 -71.8824 231.6 -72.6324 231.45C-74.5824 231.3 -76.2324 232.05 -78.0324 232.5C-78.6324 232.65 -79.0824 232.8 -79.6824 232.95C-81.1824 233.4 -82.5324 233.1 -83.8824 232.05C-86.1325 230.25 -86.2825 230.25 -84.4825 228C-84.3325 227.85 -84.1824 227.55 -84.0324 227.4C-83.4324 226.5 -82.6824 225.9 -81.3324 226.35C-79.9824 226.8 -78.6324 226.5 -77.7324 225.3C-77.1324 224.4 -76.2324 223.95 -75.1824 223.95C-73.8324 223.95 -72.7824 223.35 -71.5824 222.9C-69.3324 221.7 -66.9324 220.65 -64.8324 219.3C-63.7824 218.55 -63.7824 218.25 -64.3824 217.35C-64.9824 216.6 -65.4324 216 -65.2824 214.95C-65.1324 213.9 -66.0324 213.15 -66.3324 212.25C-66.6324 211.2 -65.7324 210.3 -66.1824 209.25C-66.1824 209.1 -66.1824 209.1 -66.1824 208.95C-67.3824 207.3 -66.9324 205.65 -66.4824 204C-66.1824 202.65 -66.1824 201.15 -65.7324 199.8C-65.5824 199.35 -65.5824 198.9 -65.5824 198.6C-65.8824 196.95 -65.5824 195.6 -64.2324 194.7C-63.6324 194.25 -63.4824 193.5 -63.4824 192.9C-63.6324 191.4 -62.7324 190.2 -62.2824 189C-61.2324 186.45 -59.4324 184.05 -58.9824 181.35C-58.6824 180.15 -58.0824 178.95 -57.6324 177.9C-57.1824 176.85 -56.2824 176.1 -55.5324 175.5C-53.8824 174.45 -52.5324 172.8 -50.7324 171.9C-49.6824 171.3 -48.9324 170.4 -47.5824 170.7C-46.0823 169.8 -44.2823 169.95 -42.7823 168.9C-42.0323 168.45 -41.2823 168.3 -40.5323 168.9C-40.0823 169.2 -39.6323 169.2 -39.0323 169.2C-37.5323 169.2 -36.1823 169.8 -34.9823 170.7C-33.1823 171.9 -31.9823 173.55 -30.7823 175.2C-29.2823 177.3 -27.9323 179.4 -27.6323 182.1C-27.4823 183.75 -27.7823 185.25 -27.7823 186.75C-27.7823 187.05 -27.9323 187.35 -28.0823 187.5C-29.4323 188.55 -29.2823 190.05 -29.2823 191.4C-29.2823 192.3 -29.2823 193.2 -30.3323 193.8C-30.6323 193.95 -30.9323 194.25 -30.9323 194.55C-30.9323 195.6 -31.8323 196.05 -32.4323 196.65C-33.1823 197.4 -32.1323 198.45 -32.7323 199.2C-33.0323 199.5 -33.1823 199.95 -33.4823 200.25C-33.9323 201.15 -34.5323 202.05 -34.8323 202.95C-35.2823 204.15 -35.8823 205.05 -36.9323 205.95C-38.7323 207.45 -40.0823 209.4 -40.9823 211.65C-41.2823 212.55 -41.7323 213.15 -42.6323 213.45C-43.8323 213.9 -44.1323 214.95 -44.7323 215.85C-44.8823 216.15 -44.7323 216.6 -44.2823 216.45C-43.3823 216.3 -42.4823 216.45 -41.5823 215.85C-40.9823 215.4 -40.3823 215.4 -39.6323 215.4C-36.7823 215.55 -34.2323 214.65 -31.5323 213.75C-30.6323 213.45 -29.8823 213.15 -28.8323 213.15C-26.1323 213.3 -23.7323 212.25 -21.3323 211.65C-20.5823 211.5 -19.9823 210.9 -19.3823 210.45C-18.6323 209.85 -17.7323 209.25 -16.9823 208.8C-16.5323 208.5 -15.9323 208.35 -15.3323 208.65C-14.5823 209.1 -14.1323 208.8 -13.5323 208.35C-12.7823 207.75 -12.1823 207.15 -11.5823 206.4C-10.9823 205.8 -10.3823 205.2 -9.48225 205.35C-9.18225 205.35 -8.88226 205.05 -8.73225 204.9C-7.83225 203.85 -6.93225 202.95 -5.73225 202.2C-5.13224 201.75 -4.98225 201.3 -5.28225 200.7C-5.88226 199.2 -6.33225 197.7 -6.93225 196.2C-7.38226 195.3 -7.68225 194.55 -7.68225 193.65C-7.83225 191.4 -8.58225 189.3 -9.48225 187.2C-9.93226 186.3 -10.3823 185.4 -10.0823 184.35C-9.93226 183.9 -10.2323 183.3 -10.5323 183C-11.2823 182.1 -11.4323 181.05 -10.9823 179.85C-10.5323 178.8 -10.6823 177.75 -11.5823 176.85C-12.0323 176.4 -12.1823 175.8 -12.1823 175.2C-12.1823 173.85 -12.3323 172.35 -12.1823 171C-12.0323 169.5 -12.1823 168 -12.6323 166.5C-12.9323 165.45 -12.9323 164.4 -12.6323 163.35C-12.1823 161.55 -11.8823 159.75 -11.4323 157.95C-11.4323 157.8 -11.4323 157.8 -11.4323 157.65C-11.7323 155.4 -10.9823 153.45 -10.0823 151.5C-9.78226 150.75 -9.78226 149.85 -9.03226 149.25C-8.58226 148.95 -8.58226 148.35 -8.43226 147.9C-8.13226 147 -7.83225 146.1 -7.68225 145.2C-7.38226 143.85 -6.63225 142.95 -5.73225 142.05C-3.93224 140.4 -2.28223 138.75 -0.482224 137.1C-0.182236 136.95 -0.0322266 136.65 0.267776 136.5C1.91777 136.2 3.26778 134.85 4.91779 135C5.51778 135 5.81778 134.7 6.11778 134.25C6.71777 133.5 7.61778 133.5 8.36778 133.8C10.9178 134.4 13.0178 135.75 15.4178 136.8C17.6678 137.85 19.1678 139.8 20.8178 141.45C21.4178 142.05 21.7178 142.65 21.5678 143.4C21.4178 143.85 21.4178 144.3 21.7178 144.6C22.7678 146.55 23.2178 148.65 24.5678 150.45C25.0178 151.05 25.6178 151.8 25.1678 152.7C25.0178 153 25.3178 153.3 25.3178 153.6C25.9178 155.55 26.2178 157.65 26.3678 159.75C26.5178 161.25 26.9678 162.75 26.8178 164.25C26.8178 165.6 26.0678 166.95 25.7678 168.3C25.6178 169.35 25.6178 170.25 25.0178 171.15C24.8678 171.45 24.7178 171.75 24.7178 172.05C24.5678 175.05 23.0678 177.6 22.4678 180.45C22.3178 181.35 21.7178 182.1 21.2678 182.85C20.5178 184.65 19.7678 186.3 18.5678 187.8C18.2678 188.1 18.2678 188.7 18.1178 189.15C17.3678 190.65 16.7678 192.15 15.1178 193.05C14.5178 193.35 13.9178 193.95 13.3178 194.4C12.7178 194.85 12.2678 195.45 12.1178 196.2C11.8178 197.4 11.0678 198.15 10.0178 198.45C8.51779 198.75 7.76779 199.95 7.16779 201C6.71779 201.9 6.26778 202.5 5.36778 202.95C4.31778 203.55 4.31778 203.55 4.76778 204.9C5.21779 206.1 5.36778 207.3 6.71777 207.9C7.01778 208.05 7.01779 208.5 7.16779 208.8C8.96779 211.8 11.0678 214.5 13.3178 217.05C13.9178 217.8 14.6678 218.25 15.4178 218.85C16.3178 219.6 17.5178 219.9 17.8178 221.25C17.8178 221.4 18.1178 221.7 18.4178 221.7C19.9178 222 20.6678 223.2 21.5678 224.1C22.7678 225.3 23.9678 226.35 25.6178 226.8C27.1178 227.25 28.4678 228 29.9678 228.75C31.0178 229.2 32.0678 229.35 33.1178 228.75C33.7178 228.45 34.4678 228.3 35.2178 228C36.2679 227.7 37.1679 227.1 37.9179 226.35C39.1179 225.15 40.7679 224.25 41.8179 222.9C42.4179 222.15 43.1679 221.55 43.7679 220.95C44.2179 220.5 44.6679 219.9 45.2679 219.75C45.7179 219.6 46.0179 219.15 46.3179 218.7C47.2179 217.35 48.1179 216.15 49.1679 214.8C49.7679 214.05 50.3679 213.15 50.6679 212.25C50.8179 211.8 50.9679 211.2 51.2679 210.9C52.7679 208.95 53.3679 206.7 53.5179 204.45C53.5179 204.15 53.5179 203.7 53.6679 203.4C54.5679 201.45 55.1679 199.35 55.0179 197.1C55.0179 196.95 55.0179 196.95 55.0179 196.8C56.2179 194.1 56.0679 191.25 56.8179 188.55C56.8179 188.25 56.9679 188.1 56.9679 187.8C56.8179 184.95 57.2679 181.95 57.4179 179.1C57.4179 178.35 57.1179 177.75 56.9679 177.15C56.6679 175.8 55.9179 174.45 56.5179 173.1C56.5179 172.95 56.5179 172.8 56.5179 172.65C55.7679 169.65 56.2179 166.5 55.9179 163.5C55.6179 160.8 55.1679 158.25 55.1679 155.55C55.1679 154.2 54.8679 152.85 54.5679 151.65C54.4179 150.9 54.2679 150 54.5679 149.25C54.7179 148.8 54.5679 148.2 54.4179 147.75C53.6679 145.5 53.2179 143.1 53.0679 140.7C52.9179 139.95 52.6179 139.65 51.8679 139.35C50.9679 139.05 50.2179 138.9 49.1679 138.9C46.9179 138.9 44.8179 138.6 42.5679 137.7C40.3179 136.65 38.0679 135.9 35.9679 134.7C35.0679 134.1 34.0179 133.65 32.9678 133.5C30.5678 133.05 28.4678 131.7 26.2178 131.1C25.9178 130.95 25.6178 130.8 25.4678 130.5C24.8678 129.15 23.6678 128.85 22.4678 128.4C21.5678 128.1 20.5178 127.8 20.2178 126.6C20.0678 126.3 19.6178 126 19.1678 125.85C16.4678 124.5 14.0678 122.7 11.8178 120.75C10.3178 119.55 9.1178 117.9 7.76779 116.4C7.31779 115.8 6.86778 115.2 6.26779 114.9C4.91779 114.3 4.01778 113.25 3.11777 112.05C2.51776 111.15 1.76778 110.4 1.01778 109.5C0.717773 109.2 0.267776 109.2 0.267776 109.5C-0.33223 111 -1.68224 111.75 -2.73224 112.65C-3.78224 113.4 -4.83224 114.3 -5.73225 115.2C-6.03225 115.35 -6.18225 115.8 -6.18225 115.95C-6.18225 117 -6.93225 117.45 -7.68225 118.05C-10.0823 119.7 -12.4823 121.35 -15.1823 122.55C-16.5323 123.3 -17.7323 124.35 -18.9323 125.4C-19.3823 125.7 -19.8323 126.3 -20.2823 126.45C-23.1323 127.35 -25.3823 129.45 -28.2323 130.5C-28.6823 130.65 -28.9823 130.8 -29.4323 130.65C-29.7323 130.5 -30.0323 130.5 -30.3323 130.95C-30.7823 131.85 -31.8323 132 -32.5823 132.3C-33.7823 132.75 -34.9823 133.05 -36.1823 133.5C-36.6323 133.65 -37.2323 133.95 -37.6823 133.65C-38.7323 132.9 -39.6323 133.35 -40.5323 133.65C-41.4323 133.95 -42.3323 133.8 -43.2323 133.95C-43.6823 133.95 -44.1323 134.25 -43.9823 134.7C-43.3823 136.35 -44.1323 138 -44.1323 139.65C-44.1323 141.3 -44.5824 142.8 -45.0323 144.3C-45.4824 145.5 -45.9324 146.55 -45.6323 147.9C-45.4823 148.35 -45.7823 148.8 -46.0823 149.25C-46.9824 150.9 -48.0324 152.55 -48.7824 154.35C-49.2324 155.25 -49.8324 156 -50.5824 156.75C-51.6324 157.65 -52.2324 159 -52.8324 160.2C-53.5824 161.7 -54.3324 162.9 -55.8324 163.8C-56.2824 164.1 -56.5824 164.4 -56.8824 164.85C-57.3324 165.45 -57.7824 165.6 -58.5324 165.9C-59.5824 166.2 -60.3324 166.65 -60.6324 167.85C-60.7824 168.6 -61.3824 168.9 -61.9824 169.05C-63.4824 169.35 -64.8324 170.1 -66.1824 170.55C-66.7824 170.7 -67.2324 171 -67.6824 171.45C-68.4324 172.2 -69.0324 172.8 -69.1824 174.15C-69.3324 175.65 -69.7824 177.15 -70.0824 178.8C-70.3824 180.3 -70.5324 181.8 -70.6824 183.3C-70.8324 184.8 -71.2824 186.15 -72.1824 187.5C-72.6324 188.1 -72.9324 188.85 -73.2324 189.45C-73.5324 189.9 -73.5324 190.5 -73.9824 190.8C-75.6324 192.15 -76.0824 194.1 -76.6824 196.05C-77.2824 198.15 -78.1824 200.1 -79.3824 201.9C-79.9824 202.8 -80.8824 203.55 -81.6324 204.15C-82.9824 205.35 -84.1824 206.85 -85.3825 208.05C-87.3325 210 -89.4325 211.5 -92.1325 211.95C-92.7325 212.1 -93.3325 212.4 -93.9325 212.7C-94.8325 213.15 -95.7325 213.75 -96.9325 213.9C-97.9825 214.05 -98.8825 214.8 -99.9325 214.65C-100.232 214.65 -100.832 214.8 -101.132 215.1C-102.182 216 -103.532 216 -104.883 216.15C-106.233 216.15 -107.733 216.45 -108.933 217.05C-110.133 217.5 -111.333 217.5 -112.683 217.5C-113.283 217.5 -113.583 217.35 -113.883 216.75C-114.183 215.85 -114.483 214.95 -114.333 214.05C-114.183 213.15 -113.883 212.55 -112.983 212.25C-111.633 211.95 -110.433 211.35 -109.233 211.05C-108.483 210.75 -107.583 210.75 -106.983 210.15C-106.683 209.85 -106.083 209.85 -105.633 209.7C-104.583 209.55 -103.382 209.55 -102.632 208.65C-102.482 208.5 -102.182 208.35 -101.882 208.35C-99.6325 208.65 -98.2825 206.85 -96.4825 206.1C-93.6325 204.9 -91.2325 202.95 -88.8325 201C-87.6325 200.1 -86.4325 199.05 -85.6825 197.55C-85.0825 196.05 -84.0324 194.85 -83.2824 193.5C-83.1324 193.2 -82.9824 192.9 -82.6824 192.75C-80.8824 191.7 -80.5824 189.9 -80.2824 188.1C-80.1324 187.5 -80.1324 186.9 -79.8324 186.45C-79.2324 185.1 -78.9324 183.6 -78.6324 182.1C-78.3324 180.75 -78.1824 179.4 -77.2824 178.2C-76.8324 177.6 -76.6824 176.7 -76.5324 175.8C-76.5324 175.65 -76.5324 175.5 -76.6824 175.35C-76.8324 175.2 -76.9824 175.2 -77.1324 175.35C-77.8824 175.95 -78.6324 176.25 -79.6824 175.95C-81.0324 177 -82.8324 176.85 -84.3325 177.45C-85.2325 177.75 -86.1325 177.75 -87.0325 177.6C-89.7325 177.15 -92.4325 177 -95.2825 177.45C-96.1825 177.6 -97.0825 177.6 -97.6825 177C-98.4325 176.25 -99.4825 176.1 -100.382 176.1C-101.432 176.1 -102.482 176.1 -103.233 175.05C-103.683 174.45 -104.583 174.6 -105.333 174.45C-106.233 174.3 -106.983 174.15 -107.283 173.1C-107.433 172.5 -108.033 172.2 -108.633 172.05C-109.233 171.9 -109.983 171.75 -110.583 171.6C-111.183 171.45 -111.633 171.3 -112.083 170.7L-112.233 170.55C-113.283 169.05 -115.383 168.45 -116.283 166.95C-117.333 165.3 -118.533 164.1 -119.733 162.75C-120.183 162.3 -120.633 161.7 -120.783 161.1C-120.933 160.5 -121.233 160.2 -121.833 160.05C-122.733 159.75 -123.033 159.15 -123.333 158.25C-124.083 155.1 -124.533 151.95 -125.883 148.95C-126.333 147.9 -126.633 147 -125.583 145.95C-125.133 145.5 -125.283 144.75 -125.133 144C-125.133 143.1 -124.683 142.5 -124.233 141.75C-122.733 139.05 -120.783 136.8 -118.983 134.4C-118.683 133.95 -118.233 133.65 -117.633 133.35C-115.983 132.3 -114.333 131.4 -112.683 130.65C-112.083 130.35 -111.483 130.05 -111.033 129.6C-110.283 129 -109.683 128.7 -108.783 129C-108.783 129 -108.633 129.15 -108.483 129C-106.383 127.95 -104.283 129 -102.182 129C-100.982 129 -99.9325 128.85 -98.7325 128.4C-97.8325 128.1 -97.0825 128.1 -96.4825 129C-96.0325 129.6 -95.4325 129.75 -94.6825 129.75C-93.6325 129.75 -92.5825 129.75 -91.5325 130.35C-91.0825 130.65 -90.4825 130.8 -89.8825 130.65C-87.6325 130.2 -85.9825 131.1 -84.4825 132.6C-83.4324 133.65 -82.0824 134.7 -81.4824 136.2C-81.3324 136.5 -81.0324 136.95 -80.7324 137.1C-79.2324 137.85 -78.6324 139.65 -76.9824 140.4C-76.3824 140.7 -76.2324 141.3 -76.2324 141.9C-76.0824 143.85 -74.7324 145.35 -73.8324 147C-73.2324 148.2 -72.7824 149.4 -71.7324 150.3C-71.5824 150.45 -71.4324 150.9 -71.4324 151.2C-71.1324 152.7 -70.8324 154.35 -70.5324 155.85C-70.3824 156.75 -70.2324 157.5 -69.6324 158.1C-69.1824 158.55 -69.0324 159.3 -69.3324 159.9C-69.4824 160.35 -69.4824 160.95 -69.4824 161.4C-69.6324 162.3 -69.4824 163.05 -68.8824 163.65C-68.1324 164.55 -68.1324 164.7 -67.3824 163.65C-67.0824 163.2 -66.4824 162.9 -66.0324 162.6C-65.4324 162.3 -64.8324 162.15 -64.2324 161.85C-63.1824 161.4 -62.2824 160.95 -61.8324 159.75C-61.3824 158.7 -60.6324 157.95 -59.5824 157.5C-58.6824 156.9 -57.9324 156.3 -57.4824 155.4C-57.3324 155.1 -57.1824 154.8 -56.8824 154.65C-54.9324 153.6 -54.3324 151.65 -53.8824 149.7C-53.4324 148.35 -53.1324 147 -52.3824 145.8C-51.9324 145.2 -51.9324 144.45 -51.7824 143.7C-51.4824 141.15 -51.1824 138.6 -51.0324 136.05C-51.0324 135.45 -51.0324 134.85 -51.0324 134.25C-51.0324 133.2 -51.4824 132.6 -52.2324 132C-54.7824 129.9 -57.9324 128.85 -60.6324 127.2C-62.5824 126 -64.2324 124.5 -65.5824 122.7C-67.3824 120.3 -68.5824 117.6 -70.0824 115.05C-70.2324 114.75 -70.3824 114.3 -70.5324 113.85C-70.9824 111.75 -72.1824 109.8 -72.4824 107.7C-72.6324 106.65 -73.3824 105.75 -73.5324 104.7C-73.8324 103.5 -73.9824 102.45 -73.8324 101.25C-73.8324 100.65 -73.8324 100.05 -73.8324 99.4495C-74.1324 97.3495 -74.5824 96.8995 -76.6824 96.7495C-78.0324 96.5995 -79.3824 96.4495 -80.5824 96.1495C-81.4824 95.9995 -82.3824 95.9995 -83.2824 95.9995C-84.3325 96.1495 -85.3825 96.2995 -86.4325 95.6995C-86.7325 95.5495 -87.1825 95.5495 -87.6325 95.6995C-88.6825 95.6995 -89.5825 95.6995 -90.6325 95.6995C-91.0825 95.6995 -91.6825 95.5495 -92.1325 95.8495C-94.5325 97.0495 -97.0825 96.8995 -99.6325 97.4995C-100.082 97.6495 -100.532 97.7995 -100.982 98.0995C-101.732 98.3995 -102.482 98.8495 -103.382 98.8495C-103.682 98.8495 -103.983 98.8495 -104.133 98.9995C-105.783 100.35 -107.883 100.05 -109.683 101.1C-110.283 101.4 -110.883 102 -111.333 102.6C-113.283 104.25 -115.233 106.05 -117.333 107.4C-118.233 108 -118.833 108.75 -119.283 109.65C-119.733 110.4 -120.333 111.15 -120.783 112.05C-122.133 114.3 -123.183 116.7 -123.783 119.4C-123.933 119.85 -124.083 120.3 -124.233 120.75C-124.683 121.05 -125.283 121.5 -126.183 121.5C-126.633 121.5 -127.233 121.5 -127.683 121.5C-128.883 121.5 -130.083 120.3 -129.933 119.1C-129.783 117.6 -129.933 115.95 -128.883 114.6C-128.583 114 -128.433 113.25 -128.433 112.65C-128.283 111.75 -127.983 110.85 -127.383 110.1C-126.183 108.75 -125.283 107.1 -124.383 105.45C-124.083 104.85 -123.633 104.4 -123.033 104.1C-122.133 103.8 -121.533 103.2 -121.083 102.3C-120.783 101.55 -120.183 101.1 -119.433 100.5C-118.983 100.2 -118.533 99.7495 -118.083 99.4495C-117.033 98.3995 -115.983 97.7995 -114.483 97.3495C-112.983 96.8995 -111.333 96.2995 -110.283 94.7995C-110.133 94.4995 -109.833 94.1995 -109.533 94.1995C-108.033 94.1995 -106.983 92.9995 -105.483 92.9995C-105.183 92.9995 -104.733 92.8495 -104.583 92.6995C-103.083 91.7995 -101.582 91.1995 -99.9325 91.4995C-99.7825 91.4995 -99.3325 91.4995 -99.1825 91.3495C-97.9825 90.2995 -96.4825 90.4495 -94.2325 90.5995ZM37.7679 16.1993C36.5679 15.7493 35.5179 16.0493 34.7679 16.7993C34.0179 17.6993 33.2679 18.5993 33.1178 19.7993C32.8178 22.1993 32.0678 24.4494 32.3678 26.9994C32.5179 28.3494 32.6678 29.6994 33.1178 31.0494C33.5679 32.5494 33.7178 34.1994 34.1679 35.5494C34.7679 37.1994 35.0679 38.6994 35.2178 40.3494C35.3679 41.9994 35.5179 43.9494 37.1679 44.9994C38.0679 45.5994 38.3679 46.4994 38.3679 47.5494C38.0679 49.4994 39.2679 51.2994 39.5679 53.0994C39.5679 53.2494 39.7179 53.5494 40.0179 53.6994C40.9179 54.2994 41.0679 55.0494 41.5179 55.9494C42.1179 57.4494 43.0179 58.6494 42.8679 60.4494C42.8679 60.5994 43.0179 60.7494 43.0179 60.8994C43.9179 62.9994 45.2679 65.0995 44.8179 67.6495C44.8179 67.7995 44.9679 68.0995 44.9679 68.3995C45.4179 70.9495 46.7679 73.1995 47.5179 75.5995C47.9679 76.7995 48.7179 77.8495 47.6679 79.0495C47.6679 79.0495 47.6679 79.1995 47.6679 79.3495C48.2679 81.2995 48.1179 83.5495 49.0179 85.3495C49.4679 86.2495 50.3679 87.1495 50.0679 88.3495C50.0679 88.4995 50.2179 88.9495 50.3679 88.9495C51.5679 89.8495 51.4179 91.1995 51.4179 92.3995C51.4179 93.7495 51.5679 94.7995 52.3179 95.8495C52.6179 96.2995 53.0679 96.8995 52.7679 97.4995C52.3179 98.6995 52.6179 99.7495 53.0679 100.95C53.2179 101.4 53.3679 101.85 53.3679 102.45C53.5179 104.25 53.6679 106.05 54.4179 107.7C54.8679 109.05 55.0179 110.55 55.6179 112.05C55.7679 112.2 55.7679 112.5 55.6179 112.8C55.1679 114 55.7679 114.9 56.2179 115.8C56.6679 116.7 56.9679 117.75 57.4179 118.8C57.7179 119.55 57.8679 120.45 57.1179 121.05C56.5179 121.65 56.8179 122.25 57.2679 122.55C58.1679 123.15 58.6179 123.9 58.4679 125.1C58.4679 125.4 58.4679 125.85 58.6179 126C59.5179 127.05 59.5179 128.25 59.3679 129.6C59.2179 130.5 59.6679 130.8 60.5679 130.5C61.1679 130.35 61.9179 130.05 62.5179 130.05C63.118 129.9 63.418 129.75 63.718 129.3C64.618 127.8 66.2679 126.9 67.3179 125.55C67.468 125.25 67.918 125.1 68.218 125.1C69.118 125.1 69.418 124.5 69.868 123.75C70.318 123 70.768 122.4 71.068 121.65C71.368 120.9 71.818 120.3 72.568 120C73.468 119.7 73.768 118.95 74.068 118.2C74.518 117.3 74.668 116.25 75.118 115.5C76.018 113.85 76.768 112.05 77.218 110.25C77.368 109.8 77.518 109.2 77.818 108.9C78.418 108.15 78.718 107.25 78.568 106.35C78.568 105.9 78.568 105.45 79.018 105.3C80.068 104.85 80.068 103.95 80.218 103.05C80.518 101.85 80.518 100.8 80.518 99.5995C80.518 98.9995 80.368 98.3995 80.668 97.9495C81.268 96.8995 81.118 95.6995 81.118 94.4995C81.118 93.5995 80.968 92.8495 81.418 92.0995C81.568 91.6495 81.568 91.1995 81.568 90.5995C81.568 88.1995 81.568 85.7995 81.718 83.3995C81.868 81.7495 81.268 79.9495 82.168 78.2995C82.318 77.9995 82.318 77.6995 82.168 77.2495C81.868 75.8995 82.318 74.2495 81.268 72.8995C81.118 72.5995 81.268 72.2995 81.118 71.9995C80.218 69.5995 81.118 66.8995 79.768 64.4995C79.768 64.4995 79.768 64.3495 79.768 64.1995C80.218 61.9494 79.018 59.8494 78.868 57.5994C78.868 56.5494 78.268 55.3494 78.118 54.2994C77.968 53.2494 77.668 52.1994 76.918 51.2994C76.018 50.3994 76.768 49.0494 76.168 47.9994C76.018 47.8494 76.018 47.6994 75.868 47.5494C74.668 45.8994 74.068 43.7994 72.568 42.2994C72.268 41.8494 72.118 41.3994 71.968 40.9494C71.968 40.3494 71.518 39.8994 71.218 39.4494C70.918 39.1494 70.468 38.6994 70.318 38.2494C69.718 36.8994 68.668 35.6994 68.068 34.3494C67.768 33.5994 67.168 32.9994 66.268 32.5494C65.668 32.2494 65.368 31.9494 65.0679 31.3494C64.3179 29.5494 62.8179 28.4994 61.4679 27.2994C60.8679 26.6994 60.1179 26.3994 59.6679 25.6494C58.7679 24.1494 57.1179 23.3993 55.6179 22.4993C54.7179 21.8993 53.6679 21.4493 53.0679 20.6993C52.3179 19.7993 51.4179 19.3493 50.2179 19.3493C49.3179 19.3493 48.7179 19.0493 48.1179 18.2993C47.6679 17.6993 46.7679 17.0993 46.0179 17.0993C44.6679 17.0993 43.6179 16.4993 42.4179 16.3493C41.3679 16.1993 40.4679 15.8993 39.4179 16.3493C38.9679 16.1993 38.2179 16.1993 37.7679 16.1993ZM-11.2823 41.2494C-12.9323 40.6494 -14.4323 41.3994 -16.0823 42.1494C-16.9823 42.5994 -17.8823 42.8994 -18.3323 43.9494C-18.4823 44.2494 -18.9323 44.5494 -19.2323 44.8494C-20.4323 45.4494 -21.0323 46.4994 -21.4823 47.6994C-21.9323 48.8994 -22.8323 49.9494 -22.2323 51.4494C-22.0823 51.7494 -22.3823 52.0494 -22.3823 52.3494C-22.9823 54.1494 -21.9323 55.9494 -22.3823 57.7494C-22.3823 58.0494 -22.2323 58.3494 -22.2323 58.6494C-22.0823 60.2994 -21.1823 61.7994 -20.5823 63.2995C-20.1323 64.7995 -19.5323 66.2995 -18.9323 67.6495C-18.3323 68.9995 -16.9823 70.0495 -16.8323 71.8495L-16.6823 71.9995C-15.3323 73.1995 -15.0323 75.1495 -13.5323 76.4995C-13.2323 76.7995 -12.9323 77.3995 -12.9323 77.8495C-12.6323 79.4995 -11.1323 80.5495 -10.6823 82.1995C-10.6823 82.3495 -10.5323 82.4995 -10.3823 82.4995C-9.03226 83.2495 -8.43226 84.4495 -7.53226 85.4995C-6.33225 86.9995 -5.13225 88.4995 -4.08224 90.1495C-2.88224 92.0995 -1.23224 93.8995 0.117767 95.6995C0.267761 95.9995 0.567764 96.1495 0.867767 96.4495C1.46776 96.8995 1.91777 96.8995 2.36777 96.2995C4.46777 93.8995 6.11778 91.3495 6.26779 88.1995C6.26779 87.8995 6.26779 87.5995 6.41779 87.1495C6.56778 86.6995 6.56778 86.2495 6.86778 86.0995C7.91779 85.3495 8.06778 84.1495 8.06778 82.9495C8.06778 82.3495 8.06778 81.7495 8.21779 81.2995C8.66779 79.6495 9.11778 78.1495 8.81779 76.3495C8.51779 74.6995 9.41779 73.0495 9.41779 71.3995C9.26779 69.5995 9.4178 67.9495 9.26779 66.1495C9.26779 65.0995 9.41779 64.0495 8.66779 62.9995C8.21779 62.5494 8.3678 61.9495 8.51779 61.3494C8.66779 60.5994 8.81779 59.6994 8.51779 58.9494C7.61778 56.9994 7.61778 54.7494 5.66779 53.2494C5.51778 53.0994 5.51778 52.9494 5.36778 52.7994C3.56776 49.0494 2.21777 47.5494 -1.23224 45.4494C-1.38223 45.2994 -1.68224 45.1494 -1.68224 44.9994C-1.68224 43.6494 -3.03224 43.6494 -3.78225 43.1994C-6.18225 41.9994 -8.43226 40.7994 -11.2823 41.2494ZM-86.5825 169.05C-86.5825 169.2 -86.5825 169.2 -86.5825 169.35C-84.6325 169.2 -82.8324 168.75 -80.8824 168.75C-79.3824 168.75 -78.0324 168 -76.5324 167.85C-76.3824 167.85 -76.0824 167.55 -76.0824 167.25C-76.0824 166.2 -76.2324 165.15 -75.7824 164.1C-75.6324 163.95 -75.7824 163.5 -75.9324 163.35C-76.9824 162.45 -76.8324 161.25 -76.6824 160.05C-76.6824 159 -76.8324 157.8 -77.2824 156.9C-78.0324 155.4 -78.1824 153.9 -78.6324 152.4C-79.3824 150.15 -79.2324 147.45 -81.6324 146.1C-81.7824 145.95 -81.9324 145.65 -81.9324 145.5C-82.3824 144 -83.5824 142.8 -84.3325 141.45C-84.6325 140.85 -85.0825 140.25 -85.6825 140.1C-87.4825 139.8 -88.8325 138.6 -90.1825 137.55C-92.4325 135.9 -94.8325 135.3 -97.3825 135.6C-98.1325 135.75 -98.8825 135.9 -99.6325 135.9C-100.082 136.05 -100.682 136.05 -100.982 135.6C-101.582 134.85 -102.482 135 -103.233 135.15C-104.133 135.45 -105.033 135.9 -106.083 136.2C-107.583 136.5 -108.783 137.85 -110.583 137.25C-110.883 137.1 -111.183 137.4 -111.483 137.55C-112.983 138.15 -113.883 139.35 -114.783 140.4C-116.583 142.5 -117.483 144.9 -116.583 147.75C-116.283 148.65 -116.133 149.55 -116.433 150.45C-116.583 150.9 -116.583 151.5 -116.133 151.8C-115.083 152.85 -114.933 154.35 -114.633 155.7C-114.483 156.45 -114.333 157.2 -113.733 157.65C-112.083 159 -111.033 161.1 -108.933 161.85C-108.633 162 -108.183 162.3 -107.883 162.6C-107.283 163.5 -106.383 163.8 -105.333 164.1C-104.433 164.4 -103.382 164.55 -102.782 165.6C-102.632 165.75 -102.332 165.9 -102.182 165.9C-100.232 166.5 -98.1325 166.95 -96.1825 167.7C-94.6825 168.15 -93.1825 168.45 -91.5325 168.45C-90.4825 168.45 -89.8825 169.2 -88.9825 169.2C-88.5325 169.35 -87.6325 169.2 -86.5825 169.05ZM-3.78225 173.1C-3.78225 174.6 -3.63224 175.5 -3.48224 176.55C-3.33224 178.35 -2.73224 180.15 -1.98224 181.8C-1.83223 181.95 -1.83223 182.25 -1.83223 182.55C-1.98224 183.75 -1.38223 184.8 -1.08223 186C-0.482239 188.55 0.567764 191.1 1.01778 193.65C1.16777 194.25 1.31776 194.7 1.61777 195.3C1.76776 195.6 2.06778 195.75 2.51778 195.6C3.11778 195.3 4.01778 195 4.01778 194.1C4.01778 193.05 4.61777 192.6 5.36778 192.15C6.11778 191.7 6.56778 191.1 7.16779 190.35C7.46779 189.9 7.76778 189.3 8.36778 189.15C9.41779 188.7 9.8678 187.95 10.1678 186.9C11.5178 183.6 13.9178 180.75 15.1178 177.45C15.1178 177.3 15.2678 177.15 15.4178 177C16.0178 176.25 16.4678 175.35 16.6178 174.3C17.2178 171.75 17.6678 169.35 18.4178 166.8C18.7178 165.6 18.7178 164.4 18.5678 163.05C18.4178 162.3 17.9678 161.55 18.2678 160.8C18.7178 159.3 18.2678 157.8 18.2678 156.3C18.2678 154.95 17.9678 153.45 17.2178 152.25C16.9178 151.8 16.6178 151.2 16.7678 150.6C17.2178 148.95 16.3178 147.6 15.2678 146.55C14.3678 145.5 13.6178 144.45 12.7178 143.55C11.3678 141.9 8.96779 141.3 6.86778 142.2C6.11778 142.5 5.36778 142.95 4.61777 143.1C3.71777 143.4 2.96777 144 2.51778 144.75C1.76778 145.95 0.867767 147 0.117767 148.35C-0.932236 150.15 -2.28224 151.65 -2.28224 153.9C-2.28224 154.65 -2.88224 155.4 -3.18224 156.15C-3.48225 156.75 -3.78225 157.35 -3.78225 157.95C-3.93224 160.2 -4.23225 162.45 -3.93224 164.7C-3.93224 167.7 -4.38225 170.4 -3.78225 173.1C-3.78225 173.4 -3.78225 173.25 -3.78225 173.1ZM-35.4323 183.45C-35.4323 181.5 -36.1823 180 -36.4823 178.2C-36.4823 178.05 -36.6323 177.75 -36.9323 177.6C-38.2823 176.7 -39.4823 175.65 -41.2823 176.4C-41.5823 176.55 -41.8823 176.55 -42.1823 176.7C-42.7823 177 -43.3823 177.15 -44.1323 176.7C-44.5823 176.4 -45.0323 176.55 -45.4823 176.85C-46.5323 177.6 -47.5824 178.2 -48.6324 178.95C-49.2324 179.4 -49.6824 180 -50.1324 180.6C-51.0324 182.1 -51.3324 183.9 -52.8324 184.95C-52.9824 185.1 -52.9824 185.25 -53.1324 185.4C-53.5824 186.6 -54.0324 187.65 -54.3324 189C-54.6324 190.65 -55.3824 192 -56.2824 193.35C-57.1824 194.85 -57.9324 196.5 -57.7824 198.3C-57.6324 200.25 -58.6824 202.2 -58.0824 204.15C-58.0824 204.15 -58.0824 204.3 -58.0824 204.45C-58.6824 206.25 -58.0824 207.9 -57.7824 209.55C-57.6324 210.6 -57.1824 211.65 -56.5824 212.55C-56.2824 213 -55.6824 213.15 -55.3824 212.7C-53.5824 210.75 -50.8824 210 -49.5324 207.45C-49.3824 207.3 -49.2324 207.15 -48.9324 207C-47.5824 206.1 -46.5323 204.9 -45.4823 203.85C-43.9823 202.2 -42.1823 200.55 -41.7323 198.15C-41.5823 197.25 -40.9823 196.65 -40.5323 196.05C-39.0323 194.25 -37.8323 192.3 -37.5323 189.9C-37.3823 188.85 -37.0823 187.95 -36.9323 187.05C-36.7823 186.6 -36.7823 186 -36.3323 185.7C-35.4323 184.8 -35.4323 184.05 -35.4323 183.45ZM-66.1824 102.3C-66.3324 105 -66.3324 107.1 -64.8324 109.05C-64.6824 109.2 -64.5324 109.5 -64.5324 109.8C-63.9324 112.5 -62.1324 114.75 -60.6324 117C-58.6824 119.7 -56.1324 122.1 -53.7324 124.35C-53.2824 124.8 -52.8324 125.25 -52.2324 124.95C-51.7824 124.8 -51.4824 123.45 -51.6324 122.85C-51.7824 122.4 -52.0824 121.95 -52.3824 121.5C-52.8324 120.75 -53.4324 120 -53.8824 119.25C-54.7824 117.45 -55.2324 115.35 -56.7324 113.85C-57.1824 111.9 -58.3824 110.25 -59.7324 108.75C-60.6324 107.7 -61.2324 106.65 -62.4324 105.9C-62.7324 105.75 -63.0324 105.3 -63.3324 105C-63.7824 103.8 -64.9824 103.2 -66.1824 102.3Z" fill="#FF6100"/>
</g>
</g>
<defs>
<clipPath id="clip0_2028_4949">
<rect width="224.101" height="236.101" fill="white" transform="translate(-129.932)"/>
</clipPath>
</defs>
</svg>
