<svg width="127" height="221" viewBox="0 0 127 221" fill="none" xmlns="http://www.w3.org/2000/svg">
<path d="M122.597 210.719C122.558 206.024 126.593 202.105 131.249 202.338C135.594 202.532 138.775 206.179 138.542 210.641C138.309 214.948 134.818 218.362 130.511 218.44C126.166 218.517 122.636 215.103 122.597 210.719Z" fill="#00FFAE"/>
<path d="M122.597 210.719C122.558 206.024 126.593 202.105 131.249 202.338C135.594 202.532 138.775 206.179 138.542 210.641C138.309 214.948 134.818 218.362 130.511 218.44C126.166 218.517 122.636 215.103 122.597 210.719Z" fill="url(#paint0_linear_2080_11451)"/>
<path d="M122.597 210.719C122.558 206.024 126.593 202.105 131.249 202.338C135.594 202.532 138.775 206.179 138.542 210.641C138.309 214.948 134.818 218.362 130.511 218.44C126.166 218.517 122.636 215.103 122.597 210.719Z" fill="#FF89C9"/>
<path d="M46.323 141.385C50.513 141.152 54.3926 144.45 54.7806 148.64C55.2073 153.141 52.3364 156.594 47.7584 157.021C42.6761 157.486 38.6413 154.188 38.5637 149.494C38.4861 145.381 42.0942 141.617 46.323 141.385Z" fill="#00FFAE"/>
<path d="M46.323 141.385C50.513 141.152 54.3926 144.45 54.7806 148.64C55.2073 153.141 52.3364 156.594 47.7584 157.021C42.6761 157.486 38.6413 154.188 38.5637 149.494C38.4861 145.381 42.0942 141.617 46.323 141.385Z" fill="url(#paint1_linear_2080_11451)"/>
<path d="M46.323 141.385C50.513 141.152 54.3926 144.45 54.7806 148.64C55.2073 153.141 52.3364 156.594 47.7584 157.021C42.6761 157.486 38.6413 154.188 38.5637 149.494C38.4861 145.381 42.0942 141.617 46.323 141.385Z" fill="#FF89C9"/>
<path d="M7.91482 108.289C3.84121 108.172 0.155573 104.37 0.000387695 100.18C-0.154797 95.3687 3.91881 91.45 8.57436 91.9156C12.8031 92.3423 15.9844 96.0671 15.868 100.451C15.7517 104.719 12.0272 108.405 7.91482 108.289Z" fill="#00FFAE"/>
<path d="M7.91482 108.289C3.84121 108.172 0.155573 104.37 0.000387695 100.18C-0.154797 95.3687 3.91881 91.45 8.57436 91.9156C12.8031 92.3423 15.9844 96.0671 15.868 100.451C15.7517 104.719 12.0272 108.405 7.91482 108.289Z" fill="url(#paint2_linear_2080_11451)"/>
<path d="M7.91482 108.289C3.84121 108.172 0.155573 104.37 0.000387695 100.18C-0.154797 95.3687 3.91881 91.45 8.57436 91.9156C12.8031 92.3423 15.9844 96.0671 15.868 100.451C15.7517 104.719 12.0272 108.405 7.91482 108.289Z" fill="#FF89C9"/>
<path d="M35.4603 109.026C39.6503 109.142 43.142 112.712 43.2584 117.018C43.3748 121.48 40.1547 124.894 35.6931 125.011C30.96 125.166 27.0415 121.209 27.3131 116.553C27.5459 112.285 31.1927 108.87 35.4603 109.026Z" fill="#00FFAE"/>
<path d="M35.4603 109.026C39.6503 109.142 43.142 112.712 43.2584 117.018C43.3748 121.48 40.1547 124.894 35.6931 125.011C30.96 125.166 27.0415 121.209 27.3131 116.553C27.5459 112.285 31.1927 108.87 35.4603 109.026Z" fill="url(#paint3_linear_2080_11451)"/>
<path d="M35.4603 109.026C39.6503 109.142 43.142 112.712 43.2584 117.018C43.3748 121.48 40.1547 124.894 35.6931 125.011C30.96 125.166 27.0415 121.209 27.3131 116.553C27.5459 112.285 31.1927 108.87 35.4603 109.026Z" fill="#FF89C9"/>
<path d="M113.363 120.433C109.096 120.665 105.332 117.406 105.1 113.216C104.867 109.22 108.436 105.184 112.432 104.874C116.545 104.564 120.308 107.978 120.541 112.246C120.812 116.669 117.747 120.2 113.363 120.433Z" fill="#00FFAE"/>
<path d="M113.363 120.433C109.096 120.665 105.332 117.406 105.1 113.216C104.867 109.22 108.436 105.184 112.432 104.874C116.545 104.564 120.308 107.978 120.541 112.246C120.812 116.669 117.747 120.2 113.363 120.433Z" fill="url(#paint4_linear_2080_11451)"/>
<path d="M113.363 120.433C109.096 120.665 105.332 117.406 105.1 113.216C104.867 109.22 108.436 105.184 112.432 104.874C116.545 104.564 120.308 107.978 120.541 112.246C120.812 116.669 117.747 120.2 113.363 120.433Z" fill="#FF89C9"/>
<path d="M64.9839 179.951C60.4059 180.145 56.8366 176.886 56.7979 172.502C56.7979 168.234 60.5223 164.393 64.8287 164.742C69.0187 165.091 71.9284 167.225 72.3551 171.726C72.7819 176.188 69.523 179.718 64.9839 179.951Z" fill="#00FFAE"/>
<path d="M64.9839 179.951C60.4059 180.145 56.8366 176.886 56.7979 172.502C56.7979 168.234 60.5223 164.393 64.8287 164.742C69.0187 165.091 71.9284 167.225 72.3551 171.726C72.7819 176.188 69.523 179.718 64.9839 179.951Z" fill="url(#paint5_linear_2080_11451)"/>
<path d="M64.9839 179.951C60.4059 180.145 56.8366 176.886 56.7979 172.502C56.7979 168.234 60.5223 164.393 64.8287 164.742C69.0187 165.091 71.9284 167.225 72.3551 171.726C72.7819 176.188 69.523 179.718 64.9839 179.951Z" fill="#FF89C9"/>
<path d="M85.1191 14.317C85.0803 18.5849 81.2007 22.3097 77.0495 22.0769C72.7431 21.8441 69.4842 18.0806 69.8722 13.5798C70.2601 9.15675 72.6655 6.6736 77.1659 6.5184C81.4722 6.36321 85.1191 10.0491 85.1191 14.317Z" fill="#00FFAE"/>
<path d="M85.1191 14.317C85.0803 18.5849 81.2007 22.3097 77.0495 22.0769C72.7431 21.8441 69.4842 18.0806 69.8722 13.5798C70.2601 9.15675 72.6655 6.6736 77.1659 6.5184C81.4722 6.36321 85.1191 10.0491 85.1191 14.317Z" fill="url(#paint6_linear_2080_11451)"/>
<path d="M85.1191 14.317C85.0803 18.5849 81.2007 22.3097 77.0495 22.0769C72.7431 21.8441 69.4842 18.0806 69.8722 13.5798C70.2601 9.15675 72.6655 6.6736 77.1659 6.5184C81.4722 6.36321 85.1191 10.0491 85.1191 14.317Z" fill="#FF89C9"/>
<path d="M69.0191 200.98C73.3254 201.213 76.8559 205.092 76.5067 209.283C76.1576 213.589 72.278 216.693 67.8164 216.111C63.4324 215.568 61.1046 212.969 61.027 208.584C60.9107 204.239 64.6739 200.747 69.0191 200.98Z" fill="#00FFAE"/>
<path d="M69.0191 200.98C73.3254 201.213 76.8559 205.092 76.5067 209.283C76.1576 213.589 72.278 216.693 67.8164 216.111C63.4324 215.568 61.1046 212.969 61.027 208.584C60.9107 204.239 64.6739 200.747 69.0191 200.98Z" fill="url(#paint7_linear_2080_11451)"/>
<path d="M69.0191 200.98C73.3254 201.213 76.8559 205.092 76.5067 209.283C76.1576 213.589 72.278 216.693 67.8164 216.111C63.4324 215.568 61.1046 212.969 61.027 208.584C60.9107 204.239 64.6739 200.747 69.0191 200.98Z" fill="#FF89C9"/>
<path d="M97.8831 220.961C93.3828 220.689 90.2015 216.964 90.861 212.502C91.4818 208.079 94.4303 205.868 98.5815 205.519C102.771 205.169 106.496 209.321 106.302 213.628C106.069 217.973 102.384 221.232 97.8831 220.961Z" fill="#00FFAE"/>
<path d="M97.8831 220.961C93.3828 220.689 90.2015 216.964 90.861 212.502C91.4818 208.079 94.4303 205.868 98.5815 205.519C102.771 205.169 106.496 209.321 106.302 213.628C106.069 217.973 102.384 221.232 97.8831 220.961Z" fill="url(#paint8_linear_2080_11451)"/>
<path d="M97.8831 220.961C93.3828 220.689 90.2015 216.964 90.861 212.502C91.4818 208.079 94.4303 205.868 98.5815 205.519C102.771 205.169 106.496 209.321 106.302 213.628C106.069 217.973 102.384 221.232 97.8831 220.961Z" fill="#FF89C9"/>
<path d="M109.056 91.6828C108.979 95.9119 105.099 99.8306 100.948 99.4038C96.6803 98.977 94.0034 96.4551 93.499 92.1484C93.0335 87.9969 96.7967 84.0781 101.103 83.9229C105.526 83.7678 109.134 87.2597 109.056 91.6828Z" fill="#00FFAE"/>
<path d="M109.056 91.6828C108.979 95.9119 105.099 99.8306 100.948 99.4038C96.6803 98.977 94.0034 96.4551 93.499 92.1484C93.0335 87.9969 96.7967 84.0781 101.103 83.9229C105.526 83.7678 109.134 87.2597 109.056 91.6828Z" fill="url(#paint9_linear_2080_11451)"/>
<path d="M109.056 91.6828C108.979 95.9119 105.099 99.8306 100.948 99.4038C96.6803 98.977 94.0034 96.4551 93.499 92.1484C93.0335 87.9969 96.7967 84.0781 101.103 83.9229C105.526 83.7678 109.134 87.2597 109.056 91.6828Z" fill="#FF89C9"/>
<path d="M97.5731 69.0628C97.7671 73.4859 94.2367 77.2882 89.8915 77.0554C85.5075 76.8614 82.9082 74.3007 82.2098 70.0716C81.5115 65.9201 85.0808 61.7297 89.3483 61.4582C93.5771 61.2254 97.418 64.7561 97.5731 69.0628Z" fill="#00FFAE"/>
<path d="M97.5731 69.0628C97.7671 73.4859 94.2367 77.2882 89.8915 77.0554C85.5075 76.8614 82.9082 74.3007 82.2098 70.0716C81.5115 65.9201 85.0808 61.7297 89.3483 61.4582C93.5771 61.2254 97.418 64.7561 97.5731 69.0628Z" fill="url(#paint10_linear_2080_11451)"/>
<path d="M97.5731 69.0628C97.7671 73.4859 94.2367 77.2882 89.8915 77.0554C85.5075 76.8614 82.9082 74.3007 82.2098 70.0716C81.5115 65.9201 85.0808 61.7297 89.3483 61.4582C93.5771 61.2254 97.418 64.7561 97.5731 69.0628Z" fill="#FF89C9"/>
<path d="M86.206 42.9124C85.8956 47.4519 82.3264 50.4394 77.7872 49.9739C73.4808 49.5083 70.2607 45.7059 70.6099 41.438C70.9591 37.1313 74.9163 33.7946 79.1063 34.2214C83.2963 34.687 86.4776 38.6057 86.206 42.9124Z" fill="#00FFAE"/>
<path d="M86.206 42.9124C85.8956 47.4519 82.3264 50.4394 77.7872 49.9739C73.4808 49.5083 70.2607 45.7059 70.6099 41.438C70.9591 37.1313 74.9163 33.7946 79.1063 34.2214C83.2963 34.687 86.4776 38.6057 86.206 42.9124Z" fill="url(#paint11_linear_2080_11451)"/>
<path d="M86.206 42.9124C85.8956 47.4519 82.3264 50.4394 77.7872 49.9739C73.4808 49.5083 70.2607 45.7059 70.6099 41.438C70.9591 37.1313 74.9163 33.7946 79.1063 34.2214C83.2963 34.687 86.4776 38.6057 86.206 42.9124Z" fill="#FF89C9"/>
<path d="M109.057 47.1798C104.867 47.3738 100.871 43.6879 100.793 39.5364C100.716 35.2684 104.44 31.5437 108.785 31.7377C113.208 31.9317 115.73 34.3373 116.234 38.7216C116.7 43.1835 113.402 46.9858 109.057 47.1798Z" fill="#00FFAE"/>
<path d="M109.057 47.1798C104.867 47.3738 100.871 43.6879 100.793 39.5364C100.716 35.2684 104.44 31.5437 108.785 31.7377C113.208 31.9317 115.73 34.3373 116.234 38.7216C116.7 43.1835 113.402 46.9858 109.057 47.1798Z" fill="url(#paint12_linear_2080_11451)"/>
<path d="M109.057 47.1798C104.867 47.3738 100.871 43.6879 100.793 39.5364C100.716 35.2684 104.44 31.5437 108.785 31.7377C113.208 31.9317 115.73 34.3373 116.234 38.7216C116.7 43.1835 113.402 46.9858 109.057 47.1798Z" fill="#FF89C9"/>
<path d="M29.4081 36.0836C33.9084 36.3164 37.0121 39.8471 36.5854 44.4254C36.1974 48.8097 33.5981 51.2929 29.2917 51.5645C25.1405 51.8361 21.4161 47.8786 21.3773 43.6495C21.3385 39.2263 24.9465 35.8508 29.4081 36.0836Z" fill="#00FFAE"/>
<path d="M29.4081 36.0836C33.9084 36.3164 37.0121 39.8471 36.5854 44.4254C36.1974 48.8097 33.5981 51.2929 29.2917 51.5645C25.1405 51.8361 21.4161 47.8786 21.3773 43.6495C21.3385 39.2263 24.9465 35.8508 29.4081 36.0836Z" fill="url(#paint13_linear_2080_11451)"/>
<path d="M29.4081 36.0836C33.9084 36.3164 37.0121 39.8471 36.5854 44.4254C36.1974 48.8097 33.5981 51.2929 29.2917 51.5645C25.1405 51.8361 21.4161 47.8786 21.3773 43.6495C21.3385 39.2263 24.9465 35.8508 29.4081 36.0836Z" fill="#FF89C9"/>
<path d="M41.3187 92.4971C37.2063 92.8075 32.9775 89.1604 32.9775 84.97C32.9775 80.7021 34.9173 77.7146 39.4565 77.055C43.9181 76.3954 47.7589 79.3442 48.3021 83.7673C48.8452 88.1128 45.5475 92.1867 41.3187 92.4971Z" fill="#00FFAE"/>
<path d="M41.3187 92.4971C37.2063 92.8075 32.9775 89.1604 32.9775 84.97C32.9775 80.7021 34.9173 77.7146 39.4565 77.055C43.9181 76.3954 47.7589 79.3442 48.3021 83.7673C48.8452 88.1128 45.5475 92.1867 41.3187 92.4971Z" fill="url(#paint14_linear_2080_11451)"/>
<path d="M41.3187 92.4971C37.2063 92.8075 32.9775 89.1604 32.9775 84.97C32.9775 80.7021 34.9173 77.7146 39.4565 77.055C43.9181 76.3954 47.7589 79.3442 48.3021 83.7673C48.8452 88.1128 45.5475 92.1867 41.3187 92.4971Z" fill="#FF89C9"/>
<path d="M75.0322 160.319C70.7258 160.396 67.1177 156.71 67.3505 152.326C67.5833 147.98 69.9111 145.381 74.3726 144.993C78.873 144.605 82.5974 147.903 82.7526 152.21C82.9078 156.4 79.2222 160.28 75.0322 160.319Z" fill="#00FFAE"/>
<path d="M75.0322 160.319C70.7258 160.396 67.1177 156.71 67.3505 152.326C67.5833 147.98 69.9111 145.381 74.3726 144.993C78.873 144.605 82.5974 147.903 82.7526 152.21C82.9078 156.4 79.2222 160.28 75.0322 160.319Z" fill="url(#paint15_linear_2080_11451)"/>
<path d="M75.0322 160.319C70.7258 160.396 67.1177 156.71 67.3505 152.326C67.5833 147.98 69.9111 145.381 74.3726 144.993C78.873 144.605 82.5974 147.903 82.7526 152.21C82.9078 156.4 79.2222 160.28 75.0322 160.319Z" fill="#FF89C9"/>
<path d="M30.9987 163.267C31.0375 167.418 27.2743 171.104 22.9291 170.91C18.5839 170.716 15.907 168.466 15.4802 164.004C15.0923 159.62 18.3899 155.934 22.8127 155.701C27.0803 155.507 30.9987 159.115 30.9987 163.267Z" fill="#00FFAE"/>
<path d="M30.9987 163.267C31.0375 167.418 27.2743 171.104 22.9291 170.91C18.5839 170.716 15.907 168.466 15.4802 164.004C15.0923 159.62 18.3899 155.934 22.8127 155.701C27.0803 155.507 30.9987 159.115 30.9987 163.267Z" fill="url(#paint16_linear_2080_11451)"/>
<path d="M30.9987 163.267C31.0375 167.418 27.2743 171.104 22.9291 170.91C18.5839 170.716 15.907 168.466 15.4802 164.004C15.0923 159.62 18.3899 155.934 22.8127 155.701C27.0803 155.507 30.9987 159.115 30.9987 163.267Z" fill="#FF89C9"/>
<path d="M88.4943 181.581C92.917 181.309 96.7578 184.685 96.8354 188.953C96.913 193.026 92.9946 197.178 88.921 196.906C84.731 196.635 81.8213 194.501 81.3557 189.961C80.8902 185.344 83.9163 181.852 88.4943 181.581Z" fill="#00FFAE"/>
<path d="M88.4943 181.581C92.917 181.309 96.7578 184.685 96.8354 188.953C96.913 193.026 92.9946 197.178 88.921 196.906C84.731 196.635 81.8213 194.501 81.3557 189.961C80.8902 185.344 83.9163 181.852 88.4943 181.581Z" fill="url(#paint17_linear_2080_11451)"/>
<path d="M88.4943 181.581C92.917 181.309 96.7578 184.685 96.8354 188.953C96.913 193.026 92.9946 197.178 88.921 196.906C84.731 196.635 81.8213 194.501 81.3557 189.961C80.8902 185.344 83.9163 181.852 88.4943 181.581Z" fill="#FF89C9"/>
<path d="M82.0161 80.9742C81.7445 85.1257 79.6883 87.958 75.2268 88.4624C70.8428 88.9668 67.0408 85.5137 67.1184 80.9742C67.1959 76.5899 69.5237 73.8351 73.8689 73.2143C78.0201 72.6323 81.9385 76.4347 82.0161 80.9742Z" fill="#00FFAE"/>
<path d="M82.0161 80.9742C81.7445 85.1257 79.6883 87.958 75.2268 88.4624C70.8428 88.9668 67.0408 85.5137 67.1184 80.9742C67.1959 76.5899 69.5237 73.8351 73.8689 73.2143C78.0201 72.6323 81.9385 76.4347 82.0161 80.9742Z" fill="url(#paint18_linear_2080_11451)"/>
<path d="M82.0161 80.9742C81.7445 85.1257 79.6883 87.958 75.2268 88.4624C70.8428 88.9668 67.0408 85.5137 67.1184 80.9742C67.1959 76.5899 69.5237 73.8351 73.8689 73.2143C78.0201 72.6323 81.9385 76.4347 82.0161 80.9742Z" fill="#FF89C9"/>
<path d="M68.4753 99.7146C68.5917 104.254 65.2552 107.668 60.7936 107.397C56.4872 107.125 53.8879 104.758 53.4223 100.413C52.9568 96.0287 56.2933 92.2264 60.5996 92.0324C64.906 91.8384 68.3589 95.2139 68.4753 99.7146Z" fill="#00FFAE"/>
<path d="M68.4753 99.7146C68.5917 104.254 65.2552 107.668 60.7936 107.397C56.4872 107.125 53.8879 104.758 53.4223 100.413C52.9568 96.0287 56.2933 92.2264 60.5996 92.0324C64.906 91.8384 68.3589 95.2139 68.4753 99.7146Z" fill="url(#paint19_linear_2080_11451)"/>
<path d="M68.4753 99.7146C68.5917 104.254 65.2552 107.668 60.7936 107.397C56.4872 107.125 53.8879 104.758 53.4223 100.413C52.9568 96.0287 56.2933 92.2264 60.5996 92.0324C64.906 91.8384 68.3589 95.2139 68.4753 99.7146Z" fill="#FF89C9"/>
<path d="M70.1052 126.33C70.0276 130.482 66.2255 134.012 62.0743 133.896C57.8843 133.78 54.3151 130.055 54.4315 125.903C54.5479 121.752 58.3111 118.182 62.4623 118.299C66.5359 118.454 70.1827 122.256 70.1052 126.33Z" fill="#00FFAE"/>
<path d="M70.1052 126.33C70.0276 130.482 66.2255 134.012 62.0743 133.896C57.8843 133.78 54.3151 130.055 54.4315 125.903C54.5479 121.752 58.3111 118.182 62.4623 118.299C66.5359 118.454 70.1827 122.256 70.1052 126.33Z" fill="url(#paint20_linear_2080_11451)"/>
<path d="M70.1052 126.33C70.0276 130.482 66.2255 134.012 62.0743 133.896C57.8843 133.78 54.3151 130.055 54.4315 125.903C54.5479 121.752 58.3111 118.182 62.4623 118.299C66.5359 118.454 70.1827 122.256 70.1052 126.33Z" fill="#FF89C9"/>
<path d="M17.6528 131.49C16.9932 135.293 14.5103 137.854 10.2039 138.086C6.13028 138.319 2.05668 134.012 2.56103 130.016C3.10417 125.748 5.70352 123.187 10.0487 122.955C14.1611 122.722 17.9243 126.873 17.6528 131.49Z" fill="#00FFAE"/>
<path d="M17.6528 131.49C16.9932 135.293 14.5103 137.854 10.2039 138.086C6.13028 138.319 2.05668 134.012 2.56103 130.016C3.10417 125.748 5.70352 123.187 10.0487 122.955C14.1611 122.722 17.9243 126.873 17.6528 131.49Z" fill="url(#paint21_linear_2080_11451)"/>
<path d="M17.6528 131.49C16.9932 135.293 14.5103 137.854 10.2039 138.086C6.13028 138.319 2.05668 134.012 2.56103 130.016C3.10417 125.748 5.70352 123.187 10.0487 122.955C14.1611 122.722 17.9243 126.873 17.6528 131.49Z" fill="#FF89C9"/>
<path d="M51.755 188.991C51.9878 193.104 48.3797 197.1 44.2673 197.216C40.1549 197.372 36.0813 193.531 36.3917 189.457C36.6633 185.228 39.0686 182.55 43.3362 181.968C47.565 181.348 51.4834 184.723 51.755 188.991Z" fill="#00FFAE"/>
<path d="M51.755 188.991C51.9878 193.104 48.3797 197.1 44.2673 197.216C40.1549 197.372 36.0813 193.531 36.3917 189.457C36.6633 185.228 39.0686 182.55 43.3362 181.968C47.565 181.348 51.4834 184.723 51.755 188.991Z" fill="url(#paint22_linear_2080_11451)"/>
<path d="M51.755 188.991C51.9878 193.104 48.3797 197.1 44.2673 197.216C40.1549 197.372 36.0813 193.531 36.3917 189.457C36.6633 185.228 39.0686 182.55 43.3362 181.968C47.565 181.348 51.4834 184.723 51.755 188.991Z" fill="#FF89C9"/>
<path d="M86.0113 104.486C90.6668 104.564 93.4213 106.853 93.8481 111.237C94.2749 115.66 91.8307 118.454 87.4855 119.152C83.1015 119.89 79.0667 116.398 79.1831 111.975C79.2995 107.513 81.8601 105.146 86.0113 104.486Z" fill="#00FFAE"/>
<path d="M86.0113 104.486C90.6668 104.564 93.4213 106.853 93.8481 111.237C94.2749 115.66 91.8307 118.454 87.4855 119.152C83.1015 119.89 79.0667 116.398 79.1831 111.975C79.2995 107.513 81.8601 105.146 86.0113 104.486Z" fill="url(#paint23_linear_2080_11451)"/>
<path d="M86.0113 104.486C90.6668 104.564 93.4213 106.853 93.8481 111.237C94.2749 115.66 91.8307 118.454 87.4855 119.152C83.1015 119.89 79.0667 116.398 79.1831 111.975C79.2995 107.513 81.8601 105.146 86.0113 104.486Z" fill="#FF89C9"/>
<path d="M135.283 160.59C134.817 164.626 132.916 167.536 128.455 168.001C124.148 168.467 120.23 164.82 120.502 160.552C120.812 156.129 123.489 153.607 127.795 153.568C132.14 153.529 134.623 156.167 135.283 160.59Z" fill="#00FFAE"/>
<path d="M135.283 160.59C134.817 164.626 132.916 167.536 128.455 168.001C124.148 168.467 120.23 164.82 120.502 160.552C120.812 156.129 123.489 153.607 127.795 153.568C132.14 153.529 134.623 156.167 135.283 160.59Z" fill="url(#paint24_linear_2080_11451)"/>
<path d="M135.283 160.59C134.817 164.626 132.916 167.536 128.455 168.001C124.148 168.467 120.23 164.82 120.502 160.552C120.812 156.129 123.489 153.607 127.795 153.568C132.14 153.529 134.623 156.167 135.283 160.59Z" fill="#FF89C9"/>
<path d="M108.32 165.711C107.815 169.902 105.643 172.618 101.22 172.889C96.9525 173.161 92.9952 169.32 93.4996 165.207C94.0427 160.9 96.6809 158.456 101.065 158.572C105.526 158.689 107.699 161.405 108.32 165.711Z" fill="#00FFAE"/>
<path d="M108.32 165.711C107.815 169.902 105.643 172.618 101.22 172.889C96.9525 173.161 92.9952 169.32 93.4996 165.207C94.0427 160.9 96.6809 158.456 101.065 158.572C105.526 158.689 107.699 161.405 108.32 165.711Z" fill="url(#paint25_linear_2080_11451)"/>
<path d="M108.32 165.711C107.815 169.902 105.643 172.618 101.22 172.889C96.9525 173.161 92.9952 169.32 93.4996 165.207C94.0427 160.9 96.6809 158.456 101.065 158.572C105.526 158.689 107.699 161.405 108.32 165.711Z" fill="#FF89C9"/>
<path d="M63.1214 58.8199C62.3067 62.9326 59.9013 65.4933 55.5174 65.5321C51.2886 65.5709 47.7581 61.303 48.5728 57.1515C49.3876 52.8836 52.2197 50.478 56.5261 51.0212C60.7937 51.4868 63.0826 54.3192 63.1214 58.8199Z" fill="#00FFAE"/>
<path d="M63.1214 58.8199C62.3067 62.9326 59.9013 65.4933 55.5174 65.5321C51.2886 65.5709 47.7581 61.303 48.5728 57.1515C49.3876 52.8836 52.2197 50.478 56.5261 51.0212C60.7937 51.4868 63.0826 54.3192 63.1214 58.8199Z" fill="url(#paint26_linear_2080_11451)"/>
<path d="M63.1214 58.8199C62.3067 62.9326 59.9013 65.4933 55.5174 65.5321C51.2886 65.5709 47.7581 61.303 48.5728 57.1515C49.3876 52.8836 52.2197 50.478 56.5261 51.0212C60.7937 51.4868 63.0826 54.3192 63.1214 58.8199Z" fill="#FF89C9"/>
<path d="M122.557 129.706C126.786 129.978 129.502 132.112 129.929 136.496C130.316 140.919 127.872 143.596 123.721 144.372C119.686 145.148 115.496 141.307 115.613 137.155C115.768 132.81 118.251 130.443 122.557 129.706Z" fill="#00FFAE"/>
<path d="M122.557 129.706C126.786 129.978 129.502 132.112 129.929 136.496C130.316 140.919 127.872 143.596 123.721 144.372C119.686 145.148 115.496 141.307 115.613 137.155C115.768 132.81 118.251 130.443 122.557 129.706Z" fill="url(#paint27_linear_2080_11451)"/>
<path d="M122.557 129.706C126.786 129.978 129.502 132.112 129.929 136.496C130.316 140.919 127.872 143.596 123.721 144.372C119.686 145.148 115.496 141.307 115.613 137.155C115.768 132.81 118.251 130.443 122.557 129.706Z" fill="#FF89C9"/>
<path d="M119.959 180.727C124.071 181.309 126.748 183.559 126.942 187.943C127.136 192.25 123.218 195.819 118.95 195.276C114.527 194.733 112.316 191.823 112.51 187.594C112.704 183.21 115.575 181.037 119.959 180.727Z" fill="#00FFAE"/>
<path d="M119.959 180.727C124.071 181.309 126.748 183.559 126.942 187.943C127.136 192.25 123.218 195.819 118.95 195.276C114.527 194.733 112.316 191.823 112.51 187.594C112.704 183.21 115.575 181.037 119.959 180.727Z" fill="url(#paint28_linear_2080_11451)"/>
<path d="M119.959 180.727C124.071 181.309 126.748 183.559 126.942 187.943C127.136 192.25 123.218 195.819 118.95 195.276C114.527 194.733 112.316 191.823 112.51 187.594C112.704 183.21 115.575 181.037 119.959 180.727Z" fill="#FF89C9"/>
<path d="M117.902 66.8904C117.825 70.8867 115.536 73.6803 111.307 74.1847C107.001 74.6891 104.169 72.2447 103.354 67.9768C102.578 63.8641 106.186 59.635 110.376 59.5186C113.984 59.4022 117.592 62.7389 117.902 66.8904Z" fill="#00FFAE"/>
<path d="M117.902 66.8904C117.825 70.8867 115.536 73.6803 111.307 74.1847C107.001 74.6891 104.169 72.2447 103.354 67.9768C102.578 63.8641 106.186 59.635 110.376 59.5186C113.984 59.4022 117.592 62.7389 117.902 66.8904Z" fill="url(#paint29_linear_2080_11451)"/>
<path d="M117.902 66.8904C117.825 70.8867 115.536 73.6803 111.307 74.1847C107.001 74.6891 104.169 72.2447 103.354 67.9768C102.578 63.8641 106.186 59.635 110.376 59.5186C113.984 59.4022 117.592 62.7389 117.902 66.8904Z" fill="#FF89C9"/>
<path d="M137.921 97.037C137.416 101.033 135.477 103.943 131.015 104.37C126.825 104.797 122.713 100.995 123.101 96.8818C123.489 92.5363 126.166 89.9756 130.433 89.9756C134.74 89.9756 137.261 92.6139 137.921 97.037Z" fill="#00FFAE"/>
<path d="M137.921 97.037C137.416 101.033 135.477 103.943 131.015 104.37C126.825 104.797 122.713 100.995 123.101 96.8818C123.489 92.5363 126.166 89.9756 130.433 89.9756C134.74 89.9756 137.261 92.6139 137.921 97.037Z" fill="url(#paint30_linear_2080_11451)"/>
<path d="M137.921 97.037C137.416 101.033 135.477 103.943 131.015 104.37C126.825 104.797 122.713 100.995 123.101 96.8818C123.489 92.5363 126.166 89.9756 130.433 89.9756C134.74 89.9756 137.261 92.6139 137.921 97.037Z" fill="#FF89C9"/>
<path d="M57.846 27.1596C57.5744 31.5827 55.4406 34.4538 51.0954 34.7642C46.7891 35.1134 43.9569 32.8243 43.2974 28.4788C42.6379 24.2108 46.1683 20.2145 50.4359 20.2921C54.9363 20.4085 57.1089 23.1245 57.846 27.1596Z" fill="#00FFAE"/>
<path d="M57.846 27.1596C57.5744 31.5827 55.4406 34.4538 51.0954 34.7642C46.7891 35.1134 43.9569 32.8243 43.2974 28.4788C42.6379 24.2108 46.1683 20.2145 50.4359 20.2921C54.9363 20.4085 57.1089 23.1245 57.846 27.1596Z" fill="url(#paint31_linear_2080_11451)"/>
<path d="M57.846 27.1596C57.5744 31.5827 55.4406 34.4538 51.0954 34.7642C46.7891 35.1134 43.9569 32.8243 43.2974 28.4788C42.6379 24.2108 46.1683 20.2145 50.4359 20.2921C54.9363 20.4085 57.1089 23.1245 57.846 27.1596Z" fill="#FF89C9"/>
<path d="M110.065 14.6276C105.836 14.2396 103.004 12.1832 102.539 7.79893C102.073 3.64742 105.992 -0.310097 110.182 0.0390951C114.566 0.388288 116.893 3.14303 117.204 7.37214C117.475 10.9805 113.79 14.5112 110.065 14.6276Z" fill="#00FFAE"/>
<path d="M110.065 14.6276C105.836 14.2396 103.004 12.1832 102.539 7.79893C102.073 3.64742 105.992 -0.310097 110.182 0.0390951C114.566 0.388288 116.893 3.14303 117.204 7.37214C117.475 10.9805 113.79 14.5112 110.065 14.6276Z" fill="url(#paint32_linear_2080_11451)"/>
<path d="M110.065 14.6276C105.836 14.2396 103.004 12.1832 102.539 7.79893C102.073 3.64742 105.992 -0.310097 110.182 0.0390951C114.566 0.388288 116.893 3.14303 117.204 7.37214C117.475 10.9805 113.79 14.5112 110.065 14.6276Z" fill="#FF89C9"/>
<path d="M12.9194 57.8115C17.1482 58.5875 19.7475 60.9155 19.7863 65.2998C19.8251 69.4901 15.5963 73.0596 11.4451 72.2836C7.13875 71.5076 4.84977 68.6365 5.23774 64.3686C5.70329 60.0619 8.65181 57.9667 12.9194 57.8115Z" fill="#00FFAE"/>
<path d="M12.9194 57.8115C17.1482 58.5875 19.7475 60.9155 19.7863 65.2998C19.8251 69.4901 15.5963 73.0596 11.4451 72.2836C7.13875 71.5076 4.84977 68.6365 5.23774 64.3686C5.70329 60.0619 8.65181 57.9667 12.9194 57.8115Z" fill="url(#paint33_linear_2080_11451)"/>
<path d="M12.9194 57.8115C17.1482 58.5875 19.7475 60.9155 19.7863 65.2998C19.8251 69.4901 15.5963 73.0596 11.4451 72.2836C7.13875 71.5076 4.84977 68.6365 5.23774 64.3686C5.70329 60.0619 8.65181 57.9667 12.9194 57.8115Z" fill="#FF89C9"/>
<path d="M102.268 133.663C102.229 138.009 100.25 140.88 95.8274 141.268C91.5598 141.656 88.6501 139.56 87.9129 135.176C87.1758 130.792 90.3959 126.951 94.8187 126.99C99.2026 127.028 101.647 129.356 102.268 133.663Z" fill="#00FFAE"/>
<path d="M102.268 133.663C102.229 138.009 100.25 140.88 95.8274 141.268C91.5598 141.656 88.6501 139.56 87.9129 135.176C87.1758 130.792 90.3959 126.951 94.8187 126.99C99.2026 127.028 101.647 129.356 102.268 133.663Z" fill="url(#paint34_linear_2080_11451)"/>
<path d="M102.268 133.663C102.229 138.009 100.25 140.88 95.8274 141.268C91.5598 141.656 88.6501 139.56 87.9129 135.176C87.1758 130.792 90.3959 126.951 94.8187 126.99C99.2026 127.028 101.647 129.356 102.268 133.663Z" fill="#FF89C9"/>
<defs>
<linearGradient id="paint0_linear_2080_11451" x1="122.596" y1="210.384" x2="138.554" y2="210.384" gradientUnits="userSpaceOnUse">
<stop stop-color="#009AE5"/>
<stop offset="0.9851" stop-color="#FF89C9"/>
</linearGradient>
<linearGradient id="paint1_linear_2080_11451" x1="38.5623" y1="149.219" x2="54.8221" y2="149.219" gradientUnits="userSpaceOnUse">
<stop stop-color="#009AE5"/>
<stop offset="0.9851" stop-color="#FF89C9"/>
</linearGradient>
<linearGradient id="paint2_linear_2080_11451" x1="-0.00412189" y1="100.085" x2="15.8708" y2="100.085" gradientUnits="userSpaceOnUse">
<stop stop-color="#009AE5"/>
<stop offset="0.9851" stop-color="#FF89C9"/>
</linearGradient>
<linearGradient id="paint3_linear_2080_11451" x1="27.2996" y1="117.018" x2="43.2611" y2="117.018" gradientUnits="userSpaceOnUse">
<stop stop-color="#009AE5"/>
<stop offset="0.9851" stop-color="#FF89C9"/>
</linearGradient>
<linearGradient id="paint4_linear_2080_11451" x1="105.089" y1="112.649" x2="120.557" y2="112.649" gradientUnits="userSpaceOnUse">
<stop stop-color="#009AE5"/>
<stop offset="0.9851" stop-color="#FF89C9"/>
</linearGradient>
<linearGradient id="paint5_linear_2080_11451" x1="56.7976" y1="172.339" x2="72.3924" y2="172.339" gradientUnits="userSpaceOnUse">
<stop stop-color="#009AE5"/>
<stop offset="0.9851" stop-color="#FF89C9"/>
</linearGradient>
<linearGradient id="paint6_linear_2080_11451" x1="69.8406" y1="14.3004" x2="85.1188" y2="14.3004" gradientUnits="userSpaceOnUse">
<stop stop-color="#009AE5"/>
<stop offset="0.9851" stop-color="#FF89C9"/>
</linearGradient>
<linearGradient id="paint7_linear_2080_11451" x1="61.0242" y1="208.575" x2="76.5303" y2="208.575" gradientUnits="userSpaceOnUse">
<stop stop-color="#009AE5"/>
<stop offset="0.9851" stop-color="#FF89C9"/>
</linearGradient>
<linearGradient id="paint8_linear_2080_11451" x1="90.7742" y1="213.237" x2="106.309" y2="213.237" gradientUnits="userSpaceOnUse">
<stop stop-color="#009AE5"/>
<stop offset="0.9851" stop-color="#FF89C9"/>
</linearGradient>
<linearGradient id="paint9_linear_2080_11451" x1="93.4597" y1="91.6768" x2="109.057" y2="91.6768" gradientUnits="userSpaceOnUse">
<stop stop-color="#009AE5"/>
<stop offset="0.9851" stop-color="#FF89C9"/>
</linearGradient>
<linearGradient id="paint10_linear_2080_11451" x1="82.1219" y1="69.2564" x2="97.5805" y2="69.2564" gradientUnits="userSpaceOnUse">
<stop stop-color="#009AE5"/>
<stop offset="0.9851" stop-color="#FF89C9"/>
</linearGradient>
<linearGradient id="paint11_linear_2080_11451" x1="70.5838" y1="42.103" x2="86.2218" y2="42.103" gradientUnits="userSpaceOnUse">
<stop stop-color="#009AE5"/>
<stop offset="0.9851" stop-color="#FF89C9"/>
</linearGradient>
<linearGradient id="paint12_linear_2080_11451" x1="100.792" y1="39.4587" x2="116.278" y2="39.4587" gradientUnits="userSpaceOnUse">
<stop stop-color="#009AE5"/>
<stop offset="0.9851" stop-color="#FF89C9"/>
</linearGradient>
<linearGradient id="paint13_linear_2080_11451" x1="21.3767" y1="43.8249" x2="36.6243" y2="43.8249" gradientUnits="userSpaceOnUse">
<stop stop-color="#009AE5"/>
<stop offset="0.9851" stop-color="#FF89C9"/>
</linearGradient>
<linearGradient id="paint14_linear_2080_11451" x1="32.9773" y1="84.7392" x2="48.3604" y2="84.7392" gradientUnits="userSpaceOnUse">
<stop stop-color="#009AE5"/>
<stop offset="0.9851" stop-color="#FF89C9"/>
</linearGradient>
<linearGradient id="paint15_linear_2080_11451" x1="67.3396" y1="152.641" x2="82.757" y2="152.641" gradientUnits="userSpaceOnUse">
<stop stop-color="#009AE5"/>
<stop offset="0.9851" stop-color="#FF89C9"/>
</linearGradient>
<linearGradient id="paint16_linear_2080_11451" x1="15.449" y1="163.305" x2="30.9987" y2="163.305" gradientUnits="userSpaceOnUse">
<stop stop-color="#009AE5"/>
<stop offset="0.9851" stop-color="#FF89C9"/>
</linearGradient>
<linearGradient id="paint17_linear_2080_11451" x1="81.3084" y1="189.242" x2="96.8363" y2="189.242" gradientUnits="userSpaceOnUse">
<stop stop-color="#009AE5"/>
<stop offset="0.9851" stop-color="#FF89C9"/>
</linearGradient>
<linearGradient id="paint18_linear_2080_11451" x1="67.117" y1="80.8333" x2="82.0158" y2="80.8333" gradientUnits="userSpaceOnUse">
<stop stop-color="#009AE5"/>
<stop offset="0.9851" stop-color="#FF89C9"/>
</linearGradient>
<linearGradient id="paint19_linear_2080_11451" x1="53.3787" y1="99.7181" x2="68.4779" y2="99.7181" gradientUnits="userSpaceOnUse">
<stop stop-color="#009AE5"/>
<stop offset="0.9851" stop-color="#FF89C9"/>
</linearGradient>
<linearGradient id="paint20_linear_2080_11451" x1="54.4285" y1="126.097" x2="70.1061" y2="126.097" gradientUnits="userSpaceOnUse">
<stop stop-color="#009AE5"/>
<stop offset="0.9851" stop-color="#FF89C9"/>
</linearGradient>
<linearGradient id="paint21_linear_2080_11451" x1="2.51835" y1="130.52" x2="17.6663" y2="130.52" gradientUnits="userSpaceOnUse">
<stop stop-color="#009AE5"/>
<stop offset="0.9851" stop-color="#FF89C9"/>
</linearGradient>
<linearGradient id="paint22_linear_2080_11451" x1="36.3748" y1="189.558" x2="51.7654" y2="189.558" gradientUnits="userSpaceOnUse">
<stop stop-color="#009AE5"/>
<stop offset="0.9851" stop-color="#FF89C9"/>
</linearGradient>
<linearGradient id="paint23_linear_2080_11451" x1="79.1805" y1="111.869" x2="93.8958" y2="111.869" gradientUnits="userSpaceOnUse">
<stop stop-color="#009AE5"/>
<stop offset="0.9851" stop-color="#FF89C9"/>
</linearGradient>
<linearGradient id="paint24_linear_2080_11451" x1="120.488" y1="160.804" x2="135.283" y2="160.804" gradientUnits="userSpaceOnUse">
<stop stop-color="#009AE5"/>
<stop offset="0.9851" stop-color="#FF89C9"/>
</linearGradient>
<linearGradient id="paint25_linear_2080_11451" x1="93.4559" y1="165.736" x2="108.319" y2="165.736" gradientUnits="userSpaceOnUse">
<stop stop-color="#009AE5"/>
<stop offset="0.9851" stop-color="#FF89C9"/>
</linearGradient>
<linearGradient id="paint26_linear_2080_11451" x1="48.4549" y1="58.2388" x2="63.1211" y2="58.2388" gradientUnits="userSpaceOnUse">
<stop stop-color="#009AE5"/>
<stop offset="0.9851" stop-color="#FF89C9"/>
</linearGradient>
<linearGradient id="paint27_linear_2080_11451" x1="115.61" y1="137.089" x2="129.968" y2="137.089" gradientUnits="userSpaceOnUse">
<stop stop-color="#009AE5"/>
<stop offset="0.9851" stop-color="#FF89C9"/>
</linearGradient>
<linearGradient id="paint28_linear_2080_11451" x1="112.498" y1="188.029" x2="126.949" y2="188.029" gradientUnits="userSpaceOnUse">
<stop stop-color="#009AE5"/>
<stop offset="0.9851" stop-color="#FF89C9"/>
</linearGradient>
<linearGradient id="paint29_linear_2080_11451" x1="103.248" y1="66.8828" x2="117.902" y2="66.8828" gradientUnits="userSpaceOnUse">
<stop stop-color="#009AE5"/>
<stop offset="0.9851" stop-color="#FF89C9"/>
</linearGradient>
<linearGradient id="paint30_linear_2080_11451" x1="123.075" y1="97.1892" x2="137.921" y2="97.1892" gradientUnits="userSpaceOnUse">
<stop stop-color="#009AE5"/>
<stop offset="0.9851" stop-color="#FF89C9"/>
</linearGradient>
<linearGradient id="paint31_linear_2080_11451" x1="43.2176" y1="27.545" x2="57.8457" y2="27.545" gradientUnits="userSpaceOnUse">
<stop stop-color="#009AE5"/>
<stop offset="0.9851" stop-color="#FF89C9"/>
</linearGradient>
<linearGradient id="paint32_linear_2080_11451" x1="102.501" y1="7.32253" x2="117.218" y2="7.32253" gradientUnits="userSpaceOnUse">
<stop stop-color="#009AE5"/>
<stop offset="0.9851" stop-color="#FF89C9"/>
</linearGradient>
<linearGradient id="paint33_linear_2080_11451" x1="5.19511" y1="65.1009" x2="19.7863" y2="65.1009" gradientUnits="userSpaceOnUse">
<stop stop-color="#009AE5"/>
<stop offset="0.9851" stop-color="#FF89C9"/>
</linearGradient>
<linearGradient id="paint34_linear_2080_11451" x1="87.8074" y1="134.151" x2="102.267" y2="134.151" gradientUnits="userSpaceOnUse">
<stop stop-color="#009AE5"/>
<stop offset="0.9851" stop-color="#FF89C9"/>
</linearGradient>
</defs>
</svg>
