<svg width="126" height="126" viewBox="0 0 126 126" fill="none" xmlns="http://www.w3.org/2000/svg">
<g clip-path="url(#clip0_2046_7287)">
<path d="M66.7525 39.2972C69.6969 21.1548 57.3765 4.06055 39.2341 1.11615C21.0916 -1.82825 3.99739 10.4922 1.05299 28.6346C-1.89141 46.777 10.429 63.8713 28.5715 66.8157C46.7139 69.7601 63.8081 57.4396 66.7525 39.2972Z" fill="#FFF15D"/>
<path d="M33.907 67.9186C15.1744 67.9186 0 52.6395 0 33.907C0 15.1744 15.1744 0 33.907 0C52.6395 0 67.814 15.1744 67.814 33.907C67.814 52.6395 52.6395 67.9186 33.907 67.9186ZM33.907 1.36046C16.0116 1.36046 1.36047 16.0116 1.36047 33.907C1.36047 51.8023 15.907 66.4535 33.907 66.4535C51.8023 66.4535 66.4535 51.907 66.4535 33.907C66.4535 15.907 51.907 1.36046 33.907 1.36046Z" fill="#0C3ACF"/>
<path d="M33.9069 56.8258C21.2441 56.8258 10.9883 46.57 10.9883 33.9072H12.3487C12.3487 45.7328 21.9767 55.4654 33.9069 55.4654C45.7325 55.4654 55.465 45.8375 55.465 33.9072H56.8255C56.8255 46.57 46.5697 56.8258 33.9069 56.8258Z" fill="#0C3ACF"/>
<path d="M31.1925 24.3317C31.9054 19.9388 28.9222 15.7996 24.5292 15.0866C20.1362 14.3737 15.997 17.3569 15.2841 21.7499C14.5711 26.1429 17.5544 30.2821 21.9474 30.995C26.3403 31.708 30.4795 28.7247 31.1925 24.3317Z" fill="white"/>
<path d="M23.2324 31.3956C18.6278 31.3956 14.8604 27.6281 14.8604 23.0235C14.8604 18.4188 18.6278 14.6514 23.2324 14.6514C27.8371 14.6514 31.6045 18.4188 31.6045 23.0235C31.4999 27.7328 27.8371 31.3956 23.2324 31.3956ZM23.2324 15.3839C18.9417 15.3839 15.4883 18.8374 15.4883 23.1281C15.4883 27.4188 18.9417 30.8723 23.2324 30.8723C27.5231 30.8723 30.9766 27.4188 30.9766 23.1281C30.872 18.8374 27.4185 15.3839 23.2324 15.3839Z" fill="#0C3ACF"/>
<path d="M27.627 23.1279C27.627 25.6396 25.6386 27.6279 23.127 27.6279C20.6153 27.6279 18.627 25.6396 18.627 23.1279C18.627 20.6163 20.6153 18.6279 23.127 18.6279C25.6386 18.6279 27.627 20.6163 27.627 23.1279Z" fill="#0C3ACF"/>
<path d="M51.9669 24.3942C52.6798 20.0013 49.6966 15.8621 45.3036 15.1491C40.9106 14.4362 36.7714 17.4194 36.0585 21.8124C35.3455 26.2054 38.3288 30.3446 42.7218 31.0575C47.1147 31.7705 51.2539 28.7872 51.9669 24.3942Z" fill="white"/>
<path d="M43.9531 31.3956C39.3485 31.3956 35.5811 27.6281 35.5811 23.0235C35.5811 18.4188 39.3485 14.6514 43.9531 14.6514C48.5578 14.6514 52.3252 18.4188 52.3252 23.0235C52.3252 27.7328 48.5578 31.3956 43.9531 31.3956ZM43.9531 15.3839C39.6625 15.3839 36.209 18.8374 36.209 23.1281C36.209 27.4188 39.6625 30.8723 43.9531 30.8723C48.2438 30.8723 51.6973 27.4188 51.6973 23.1281C51.6973 18.8374 48.2438 15.3839 43.9531 15.3839Z" fill="#0C3ACF"/>
<path d="M48.7666 23.6514C48.7666 26.163 46.7782 28.1514 44.2666 28.1514C41.755 28.1514 39.7666 26.163 39.7666 23.6514C39.7666 21.1397 41.755 19.1514 44.2666 19.1514C46.7782 19.1514 48.7666 21.2444 48.7666 23.6514Z" fill="#0C3ACF"/>
<path d="M27.8371 19.1514L23.8604 22.8142H28.5697L27.8371 19.1514Z" fill="white"/>
<path d="M48.348 19.1514L44.2666 22.8142H49.0806L48.348 19.1514Z" fill="white"/>
<path d="M95.2832 70.5368C99.5069 52.6498 88.4305 34.7257 70.5436 30.502C52.6566 26.2784 34.7325 37.3548 30.5089 55.2417C26.2852 73.1287 37.3616 91.0528 55.2485 95.2764C73.1355 99.5001 91.0596 88.4237 95.2832 70.5368Z" fill="#FFF15D"/>
<path d="M62.8953 96.8022C44.1627 96.8022 28.9883 81.6278 28.9883 62.8953C28.9883 44.1627 44.1627 28.9883 62.8953 28.9883C81.6278 28.9883 96.8022 44.1627 96.8022 62.8953C96.8022 81.6278 81.6278 96.8022 62.8953 96.8022ZM62.8953 30.3487C44.8953 30.3487 30.3487 44.8953 30.3487 62.8953C30.3487 80.7906 44.8953 95.4418 62.8953 95.4418C80.7906 95.4418 95.4418 80.8953 95.4418 62.8953C95.4418 44.8953 80.7906 30.3487 62.8953 30.3487Z" fill="#0C3ACF"/>
<path d="M62.8953 85.8141C50.2325 85.8141 39.8721 75.5583 39.8721 62.8955H41.2325C41.2325 74.7211 50.8604 84.4536 62.7907 84.4536C74.7209 84.4536 84.3488 74.8257 84.3488 62.8955H85.8139C85.8139 75.5583 75.4535 85.8141 62.8953 85.8141Z" fill="#0C3ACF"/>
<path d="M52.1158 60.0694C56.5661 60.0694 60.1739 56.4617 60.1739 52.0113C60.1739 47.5609 56.5661 43.9531 52.1158 43.9531C47.6654 43.9531 44.0576 47.5609 44.0576 52.0113C44.0576 56.4617 47.6654 60.0694 52.1158 60.0694Z" fill="white"/>
<path d="M52.1162 60.3838C47.5116 60.3838 43.7441 56.6164 43.7441 52.0117C43.7441 47.4071 47.5116 43.6396 52.1162 43.6396C56.7209 43.6396 60.4883 47.4071 60.4883 52.0117C60.4883 56.6164 56.7209 60.3838 52.1162 60.3838ZM52.1162 44.2676C47.8255 44.2676 44.372 47.721 44.372 52.0117C44.372 56.3024 47.8255 59.7559 52.1162 59.7559C56.4069 59.7559 59.8604 56.3024 59.8604 52.0117C59.8604 47.721 56.4069 44.2676 52.1162 44.2676Z" fill="#0C3ACF"/>
<path d="M56.6162 52.0117C56.6162 54.5233 54.6278 56.5117 52.1162 56.5117C49.6046 56.5117 47.6162 54.5233 47.6162 52.0117C47.6162 49.5001 49.6046 47.5117 52.1162 47.5117C54.6278 47.5117 56.6162 49.6047 56.6162 52.0117Z" fill="#0C3ACF"/>
<path d="M72.9409 60.0694C77.3913 60.0694 80.9991 56.4617 80.9991 52.0113C80.9991 47.5609 77.3913 43.9531 72.9409 43.9531C68.4906 43.9531 64.8828 47.5609 64.8828 52.0113C64.8828 56.4617 68.4906 60.0694 72.9409 60.0694Z" fill="white"/>
<path d="M72.9414 60.3838C68.3368 60.3838 64.5693 56.6164 64.5693 52.0117C64.5693 47.4071 68.3368 43.6396 72.9414 43.6396C77.5461 43.6396 81.3135 47.4071 81.3135 52.0117C81.3135 56.6164 77.5461 60.3838 72.9414 60.3838ZM72.9414 44.2676C68.6507 44.2676 65.1972 47.721 65.1972 52.0117C65.1972 56.3024 68.6507 59.7559 72.9414 59.7559C77.2321 59.7559 80.6856 56.3024 80.6856 52.0117C80.6856 47.721 77.1275 44.2676 72.9414 44.2676Z" fill="#0C3ACF"/>
<path d="M73.2559 57.1396C75.7411 57.1396 77.7559 55.1249 77.7559 52.6396C77.7559 50.1544 75.7411 48.1396 73.2559 48.1396C70.7706 48.1396 68.7559 50.1544 68.7559 52.6396C68.7559 55.1249 70.7706 57.1396 73.2559 57.1396Z" fill="#0C3ACF"/>
<path d="M56.8255 48.1396L52.7441 51.6978H57.5581L56.8255 48.1396Z" fill="white"/>
<path d="M77.3373 48.1396L73.2559 51.6978H78.0698L77.3373 48.1396Z" fill="white"/>
<path d="M124.365 99.7243C128.589 81.8373 117.513 63.9132 99.6256 59.6896C81.7387 55.4659 63.8145 66.5423 59.5909 84.4292C55.3673 102.316 66.4436 120.24 84.3306 124.464C102.218 128.688 120.142 117.611 124.365 99.7243Z" fill="#FFF15D"/>
<path d="M91.988 126C73.2555 126 58.0811 110.826 58.0811 92.0935C58.0811 73.3609 73.2555 58.1865 91.988 58.1865C110.721 58.1865 125.895 73.3609 125.895 92.0935C126 110.721 110.721 126 91.988 126ZM91.988 59.547C74.0927 59.547 59.4415 74.0935 59.4415 92.0935C59.4415 110.094 74.0927 124.535 91.988 124.535C109.883 124.535 124.535 109.989 124.535 91.9889C124.535 73.9889 109.988 59.547 91.988 59.547Z" fill="#0C3ACF"/>
<path d="M91.9879 115.012C79.3252 115.012 69.0693 104.651 69.0693 91.9883H70.4298C70.4298 103.814 80.0577 113.546 91.9879 113.546C103.814 113.546 113.546 103.919 113.546 91.9883H114.907C114.907 104.651 104.651 115.012 91.9879 115.012Z" fill="#0C3ACF"/>
<path d="M89.2735 82.4401C89.9865 78.0472 87.0032 73.908 82.6102 73.195C78.2173 72.4821 74.0781 75.4653 73.3651 79.8583C72.6522 84.2513 75.6354 88.3905 80.0284 89.1034C84.4214 89.8164 88.5606 86.8331 89.2735 82.4401Z" fill="white"/>
<path d="M81.3135 89.4776C76.7088 89.4776 72.9414 85.7101 72.9414 81.1055C72.9414 76.5008 76.7088 72.7334 81.3135 72.7334C85.9182 72.7334 89.6856 76.5008 89.6856 81.1055C89.5809 85.8148 85.9182 89.4776 81.3135 89.4776ZM81.3135 73.466C77.0228 73.466 73.5693 76.9194 73.5693 81.2101C73.5693 85.5008 77.0228 88.9543 81.3135 88.9543C85.6042 88.9543 89.0577 85.5008 89.0577 81.2101C89.0577 76.9194 85.4995 73.466 81.3135 73.466Z" fill="#0C3ACF"/>
<path d="M85.709 81.21C85.709 83.7216 83.7206 85.71 81.209 85.71C78.6974 85.71 76.709 83.7216 76.709 81.21C76.709 78.6983 78.6974 76.71 81.209 76.71C83.7206 76.71 85.709 78.6983 85.709 81.21Z" fill="#0C3ACF"/>
<path d="M110.048 82.5026C110.761 78.1097 107.778 73.9705 103.385 73.2575C98.9917 72.5446 94.8525 75.5278 94.1395 79.9208C93.4266 84.3138 96.4098 88.453 100.803 89.1659C105.196 89.8789 109.335 86.8956 110.048 82.5026Z" fill="white"/>
<path d="M102.034 89.4776C97.4296 89.4776 93.6621 85.7101 93.6621 81.1055C93.6621 76.5008 97.4296 72.7334 102.034 72.7334C106.639 72.7334 110.406 76.5008 110.406 81.1055C110.406 85.8148 106.639 89.4776 102.034 89.4776ZM102.034 73.466C97.7435 73.466 94.29 76.9194 94.29 81.2101C94.29 85.5008 97.7435 88.9543 102.034 88.9543C106.325 88.9543 109.778 85.5008 109.778 81.2101C109.778 76.9194 106.325 73.466 102.034 73.466Z" fill="#0C3ACF"/>
<path d="M102.349 86.2334C104.834 86.2334 106.849 84.2187 106.849 81.7334C106.849 79.2481 104.834 77.2334 102.349 77.2334C99.8634 77.2334 97.8486 79.2481 97.8486 81.7334C97.8486 84.2187 99.8634 86.2334 102.349 86.2334Z" fill="#0C3ACF"/>
<path d="M86.0228 77.3379L81.9414 80.896H86.7554L86.0228 77.3379Z" fill="white"/>
<path d="M106.43 77.3379L102.453 80.896H107.162L106.43 77.3379Z" fill="white"/>
</g>
<defs>
<clipPath id="clip0_2046_7287">
<rect width="126" height="126" fill="white"/>
</clipPath>
</defs>
</svg>
