<svg width="35" height="38" viewBox="0 0 35 38" fill="none" xmlns="http://www.w3.org/2000/svg">
<path d="M31.5345 1.70456V5.14776C27.5799 1.92615 22.5344 0 17.0457 0C11.557 0 6.51144 1.92615 2.55685 5.14776V1.70456H0V10.2273H8.52283V7.67051H3.56254C7.15917 4.50003 11.8808 2.55684 17.0457 2.55684C22.2105 2.55684 26.9151 4.50003 30.5288 7.67051H25.5685V10.2273H34.0913V1.70456H31.5345Z" fill="white"/>
<path d="M28.7902 21.7671L22.3128 18.9205C22.0912 18.8182 21.8355 18.75 21.5628 18.75H20.4548V11.3011C20.4548 9.05107 18.8185 7.03969 16.5855 6.83514C15.9957 6.78273 15.4014 6.85341 14.8403 7.04271C14.2793 7.23201 13.7636 7.53581 13.3261 7.93484C12.8887 8.33387 12.5388 8.81944 12.2988 9.36076C12.0588 9.90208 11.9339 10.4874 11.932 11.0795V24.9716L8.74447 24.2898C8.4206 24.2387 7.00581 24.0341 5.79557 25.2444L3.40918 27.6478L12.1366 36.4944C12.7672 37.1422 13.6366 37.5001 14.54 37.5001H25.7049C27.3754 37.5001 28.7902 36.3069 29.0629 34.6535L30.6311 25.3807C30.7516 24.6607 30.6378 23.9209 30.3064 23.2704C29.975 22.6198 29.4435 22.0929 28.7902 21.7671ZM27.2731 24.8182L25.7049 34.091H14.54L8.2331 27.6478L15.3411 29.1648V11.0795C15.3411 10.6022 15.7161 10.2272 16.1934 10.2272C16.6707 10.2272 17.0457 10.6022 17.0457 11.0795V21.6137H20.0457L27.2731 24.8182Z" fill="white"/>
</svg>
