<svg width="106" height="110" viewBox="0 0 106 110" fill="none" xmlns="http://www.w3.org/2000/svg">
<path d="M83.7046 6.58572C87.2454 9.75376 89.4816 13.8536 92.277 17.3943C93.0224 18.1398 93.3951 19.2579 93.5814 20.1897C94.1405 22.6123 94.8859 24.8485 96.5631 26.8985C97.1222 27.4575 97.6813 28.3893 97.4949 29.3211C97.1222 30.4392 97.4949 31.1846 98.054 32.1164C98.4267 32.8618 98.613 33.7936 98.613 34.539C98.054 37.7071 99.3585 40.5024 100.477 43.4841C101.222 45.3476 102.34 47.2112 101.967 49.4475C101.967 49.8202 101.967 50.1929 102.154 50.3793C104.017 52.9882 103.645 55.5972 103.086 58.3925C102.713 60.6288 103.458 62.8651 104.017 64.915C105.322 68.4557 104.949 72.1828 105.508 75.7236L105.508 76.0963C105.695 77.7735 103.831 78.5189 104.39 80.1961C104.763 81.687 105.322 82.9915 104.949 84.4823C104.576 85.9731 104.949 87.464 103.831 88.5821C102.899 89.5139 103.272 90.632 103.272 92.1229C103.272 93.6137 103.086 94.9182 101.595 96.0363C100.29 97.3408 99.3585 98.6453 99.5448 100.695C99.7312 102 99.1721 102.931 97.6813 103.304C96.5631 103.677 95.8177 104.422 94.8859 105.354C93.5814 106.659 92.0906 107.777 90.5998 108.895C89.8543 109.268 88.9226 109.454 87.9908 109.268C85.3818 108.895 83.1455 109.268 80.5366 109.64C78.1139 110.199 75.5049 109.827 73.2687 108.709C71.0324 107.59 68.7961 107.218 66.5599 106.845C59.8511 106.1 53.1423 104.236 46.8062 101.627C46.6198 101.441 46.6198 101.441 46.4335 101.254C42.52 101.068 40.2837 98.459 37.6748 96.2227C36.1839 94.7318 34.134 93.4274 32.0841 92.8683C30.7796 92.6819 29.4751 92.1229 28.7297 91.0047C26.4934 88.3958 23.6981 86.7186 20.3437 85.6004C18.2938 85.0414 16.6166 84.1096 15.4984 82.246C15.1257 81.5006 14.5667 80.9415 14.194 80.5688C11.0259 78.1462 8.41693 75.1645 5.80795 72.1828C4.68982 71.0647 3.57169 69.9466 2.45355 68.8284C0.776351 67.524 0.589995 66.2195 0.776351 64.1696C1.14906 60.8152 2.63991 57.8335 3.38533 54.4791C3.75804 52.9882 4.50346 51.8701 6.36702 51.8701C7.85786 51.8701 8.976 51.1247 9.90778 50.1929C11.2123 49.6338 12.144 48.7021 13.2622 47.9566C14.5667 47.0249 15.6848 47.0249 16.9893 47.9566C18.4801 49.4475 20.3437 49.4475 22.2072 48.7021C23.6981 47.9566 25.5616 47.5839 27.0525 48.7021C27.2388 48.8884 27.6116 48.8884 27.9843 48.8884C30.966 48.143 33.7613 49.4475 36.5566 49.6338C38.7929 50.0065 40.8428 50.1929 42.52 51.8701C43.4518 52.8019 44.7563 53.3609 46.2471 52.9882C49.4152 52.4292 52.0241 53.5473 54.6331 55.0381C55.1922 55.2245 55.7513 55.4109 56.3103 55.5972C56.8694 55.7836 57.2421 55.4108 57.0557 54.8518C57.0557 52.9882 56.3103 51.4974 55.7513 49.8202C55.1922 48.5157 54.6331 46.8385 55.5649 45.534C56.683 44.0432 55.7513 42.7387 55.0058 41.6205C53.515 39.3843 52.5832 36.9617 52.2105 34.3527C51.8378 32.4891 51.6514 30.4392 51.4651 28.3893C51.2787 27.0848 51.8378 25.7803 52.7696 24.8486C54.0741 23.5441 54.6331 22.2396 53.8877 20.376C53.3286 19.0715 53.515 17.7671 53.8877 16.6489C54.4468 14.9717 54.4468 13.1082 54.2604 11.431C54.2604 9.56741 54.8195 8.26292 56.4967 7.33114C57.9875 6.58572 59.4784 5.8403 60.2238 4.34945C63.0191 3.79039 64.6963 1.36776 68.0507 1.36776C71.0324 1.36777 73.8277 -0.682141 76.6231 2.11319C79.9775 2.11319 81.6547 4.53581 83.7046 6.58572Z" fill="#F9A894"/>
</svg>
