<svg width="1185" height="498" viewBox="0 0 1185 498" fill="none" xmlns="http://www.w3.org/2000/svg">
<g clip-path="url(#clip0_2028_3911)">
<g opacity="0.65">
<path d="M784.244 297.734C783.781 297.964 784.475 299.81 785.4 299.118C785.862 298.887 785.169 297.272 784.244 297.734ZM613.102 174.782C613.796 172.014 612.639 170.63 609.633 170.399C608.245 173.629 612.177 173.167 613.102 174.782ZM783.55 578.238C783.087 578.469 783.781 580.315 784.706 579.622C785.169 579.392 784.475 577.777 783.55 578.238ZM778.924 215.151C778.23 215.151 777.305 215.843 778.693 216.535C779.387 216.535 780.543 215.612 778.924 215.151ZM782.856 541.791C783.318 541.561 782.625 539.715 781.7 540.407C781.237 540.638 781.931 542.253 782.856 541.791ZM787.019 298.195C786.556 298.426 787.25 300.271 788.175 299.579C788.638 299.348 787.713 297.734 787.019 298.195ZM621.428 403.154C620.965 403.384 621.659 405.23 622.584 404.538C622.815 404.538 622.121 402.692 621.428 403.154ZM616.571 179.165C617.033 178.934 616.34 177.089 615.415 177.781C614.952 178.012 615.646 179.626 616.571 179.165ZM595.062 434.295C595.525 434.064 594.831 432.219 593.906 432.911C593.444 433.142 594.369 434.987 595.062 434.295ZM750.478 113.422C752.097 113.883 753.253 116.19 754.641 114.114C753.022 113.652 751.865 111.346 750.478 113.422ZM749.784 166.708C748.165 166.247 747.009 163.94 745.621 166.016C747.24 166.478 748.396 168.784 749.784 166.708ZM759.035 347.329C758.572 347.56 759.266 349.406 760.191 348.713C760.654 348.483 759.96 346.637 759.035 347.329ZM319.386 360.709C318.923 360.939 319.617 362.785 320.542 362.093C321.004 361.862 320.079 360.017 319.386 360.709ZM613.333 393.004C612.871 393.234 613.564 395.08 614.489 394.388C614.952 394.157 614.258 392.542 613.333 393.004ZM769.211 222.763C763.198 219.764 768.517 216.304 769.211 222.763V222.763ZM806.908 555.863C802.977 551.941 809.452 560.476 806.908 555.863V555.863ZM625.359 388.39C625.822 388.159 625.128 386.314 624.203 387.006C623.74 387.006 624.434 388.852 625.359 388.39ZM656.581 318.956C655.887 318.495 651.956 315.034 651.031 318.033C651.956 318.725 655.887 321.955 656.581 318.956ZM829.804 568.319C829.342 568.55 830.036 570.395 830.961 569.703C831.423 569.473 830.729 567.858 829.804 568.319ZM356.852 109.039C356.158 108.808 355.233 109.731 356.62 110.192C357.545 110.423 358.471 109.5 356.852 109.039ZM603.62 497.962C604.082 497.732 603.388 495.886 602.463 496.578C602.001 496.809 602.926 498.654 603.62 497.962ZM831.886 255.519C831.423 255.75 832.117 257.596 833.042 256.904C833.505 256.673 832.811 255.058 831.886 255.519ZM839.98 306.269L839.518 308.806L842.293 309.267L842.756 306.73L839.98 306.269ZM844.606 587.466C843.912 587.466 842.987 588.158 844.374 588.619C845.3 588.85 846.225 587.927 844.606 587.466ZM806.908 473.972C802.977 470.281 809.684 478.816 806.908 473.972V473.972ZM656.119 322.647C656.812 322.878 657.737 321.955 656.35 321.493C655.425 321.263 654.5 322.185 656.119 322.647ZM808.065 532.564C807.602 532.795 808.296 534.64 809.221 533.948C809.684 533.717 808.99 532.103 808.065 532.564ZM808.99 519.646C809.452 519.415 808.758 517.57 807.833 518.262C807.371 518.493 808.065 520.338 808.99 519.646ZM809.915 562.783C809.452 563.014 810.146 564.859 811.071 564.167C811.534 563.936 810.84 562.091 809.915 562.783ZM820.091 560.245C819.628 560.476 820.322 562.322 821.247 561.63C821.71 561.63 820.785 559.784 820.091 560.245ZM813.384 517.801C811.996 517.57 809.915 517.801 811.765 518.954C813.384 519.185 815.465 518.723 813.384 517.801ZM745.159 388.159C744.465 387.929 743.54 388.852 744.927 389.313C745.621 389.544 746.546 388.621 745.159 388.159ZM622.353 389.082C622.121 391.389 621.428 393.004 620.04 393.926C623.509 396.695 624.897 389.082 622.353 389.082ZM819.628 505.805C820.322 506.728 822.404 506.267 821.247 504.652C820.553 503.96 818.472 504.191 819.628 505.805ZM681.327 305.807C680.633 305.807 679.708 306.499 681.096 307.191C681.79 307.191 682.715 306.269 681.327 305.807ZM691.735 300.732C690.347 300.502 688.265 300.732 690.116 301.886C691.734 302.116 693.816 301.886 691.735 300.732ZM686.184 383.085C685.49 382.854 684.565 383.777 685.953 384.238C686.647 384.469 687.572 383.546 686.184 383.085ZM689.653 296.58C682.484 297.272 687.803 283.662 682.946 286.43C683.871 286.661 684.565 286.892 684.102 287.814C683.64 288.737 682.715 289.198 681.096 288.737C681.096 291.736 682.484 293.812 680.865 297.734C686.878 298.426 683.64 302.809 681.096 304.193C687.803 306.499 684.796 296.58 689.653 296.58ZM693.122 375.011C689.422 371.089 696.129 379.394 693.122 375.011V375.011ZM699.135 234.297C699.829 234.528 700.754 233.605 699.366 233.144C698.441 232.913 697.516 233.836 699.135 234.297ZM445.198 366.476C444.967 365.553 445.66 363.938 444.273 363.708C444.273 364.861 443.81 366.245 445.198 366.476ZM696.36 461.284C697.979 460.823 699.598 460.362 700.985 459.439C699.135 458.978 693.122 460.131 696.36 461.284ZM679.94 362.785C680.402 362.554 679.708 360.709 678.783 361.401C678.321 361.401 679.014 363.246 679.94 362.785ZM664.444 322.647C663.75 322.647 662.825 323.339 664.213 323.8C664.907 324.031 665.832 323.108 664.444 322.647ZM660.281 281.817C656.118 278.126 662.825 286.661 660.281 281.817V281.817ZM665.369 268.207C664.907 268.437 665.601 270.283 666.526 269.591C666.988 269.36 666.295 267.745 665.369 268.207ZM685.953 229.914C685.028 222.994 675.545 222.071 674.62 215.151C673.233 221.148 665.601 219.072 661.206 220.918C666.757 223.455 668.145 222.071 673.695 221.379C679.708 222.763 682.252 226.685 685.953 229.914ZM705.611 464.053C704.223 463.822 702.142 464.053 703.992 465.206C705.611 465.206 707.692 464.975 705.611 464.053ZM675.777 289.429C674.389 289.198 672.308 289.429 674.158 290.583C675.545 290.583 677.627 290.352 675.777 289.429ZM679.708 469.128C679.94 470.05 679.246 471.665 680.633 471.896C680.402 470.973 681.096 469.358 679.708 469.128ZM725.963 394.388L723.188 393.926C722.956 395.311 721.8 395.311 721.337 396.233C723.65 396.464 726.194 397.156 725.963 394.388ZM715.556 195.312C715.787 198.542 716.481 201.541 719.95 202.463C720.875 199.926 730.588 200.849 726.425 196.927C724.807 199.234 716.712 196.927 715.556 195.312ZM735.214 486.659C733.595 486.659 734.057 488.043 734.751 489.197C736.139 489.427 736.833 487.12 735.214 486.659ZM726.425 229.453C725.038 229.222 722.956 229.453 724.806 230.606C726.194 230.606 728.276 230.376 726.425 229.453ZM727.813 399.693C727.582 398.771 728.276 397.156 726.888 396.925C727.119 398.079 726.425 399.463 727.813 399.693ZM706.073 226.223C705.38 226.223 704.455 226.915 705.842 227.377C706.536 227.607 707.461 226.685 706.073 226.223ZM738.683 384.469C737.064 384.469 737.527 385.853 738.22 387.006C739.608 387.237 740.533 385.161 738.683 384.469ZM734.982 155.405C734.289 155.174 733.364 156.097 734.751 156.558C735.445 156.789 736.37 155.866 734.982 155.405ZM739.377 494.964C738.914 495.194 739.608 497.04 740.533 496.348C740.996 496.117 740.071 494.502 739.377 494.964ZM520.361 114.114C520.361 112.73 522.674 112.499 520.824 111.576C519.436 111.346 518.743 113.422 520.361 114.114ZM737.064 158.173C737.758 158.635 741.689 162.095 742.615 159.096C739.839 159.788 738.683 154.713 737.064 158.173ZM710.93 514.11C711.393 513.879 710.699 512.034 709.774 512.726C709.311 512.956 710.236 514.571 710.93 514.11ZM689.653 191.391C693.816 192.775 696.129 191.391 699.366 191.622C701.679 193.236 705.611 199.234 708.155 196.927C705.38 190.699 696.36 186.777 689.653 191.391ZM717.868 408.69C717.174 408.69 716.249 409.382 717.637 410.074C718.562 410.074 719.487 409.151 717.868 408.69ZM709.542 473.741C711.393 474.433 711.393 476.048 713.243 476.971C714.862 474.433 710.699 470.512 709.542 473.741ZM716.018 477.201C715.324 477.201 714.399 477.893 715.787 478.355C716.481 478.585 717.406 477.663 716.018 477.201ZM717.868 481.354C718.562 481.815 722.494 485.275 723.188 482.276C722.725 481.815 718.793 478.355 717.868 481.354ZM926.939 424.376C925.782 422.069 922.776 417.225 920.463 422.069C922.545 422.531 925.089 427.605 926.939 424.376ZM927.401 454.364C923.47 450.673 929.945 458.978 927.401 454.364V454.364ZM927.864 427.144C927.401 427.375 928.095 429.22 929.02 428.528C929.483 428.298 928.789 426.683 927.864 427.144ZM923.238 462.899C922.776 463.13 923.47 464.975 924.395 464.283C924.857 464.053 923.932 462.207 923.238 462.899ZM700.292 186.547L703.067 187.008L703.529 184.471L700.754 184.009L700.292 186.547ZM687.803 275.588C687.34 275.819 688.034 277.665 688.959 276.973C689.422 276.742 688.728 274.896 687.803 275.588ZM913.756 444.445C912.369 448.136 920.694 455.287 922.545 449.751C920.001 447.905 915.375 447.213 913.756 444.445ZM710.005 413.995C709.542 414.226 710.236 416.072 711.161 415.379C711.624 415.149 710.93 413.534 710.005 413.995ZM689.653 273.282C690.116 273.051 689.422 271.206 688.497 271.898C688.034 272.128 688.728 273.743 689.653 273.282ZM681.096 242.14C685.721 243.755 693.816 242.14 691.272 239.833C688.959 242.14 682.946 239.372 681.096 242.14ZM914.681 512.264C913.988 512.264 913.062 512.956 914.45 513.648C915.144 513.648 916.3 512.726 914.681 512.264ZM807.371 415.61C806.908 415.841 807.602 417.686 808.527 416.994C808.758 416.764 808.065 414.918 807.371 415.61ZM712.78 187.008C710.699 186.547 706.536 181.702 704.917 184.471C706.536 185.393 712.318 189.084 712.78 187.008ZM564.766 350.559C560.834 346.868 567.31 355.403 564.766 350.559V350.559ZM561.065 356.557C560.603 360.478 566.616 358.402 562.684 355.403C561.759 354.942 561.065 355.865 561.065 356.557ZM998.171 212.844C998.865 213.075 999.79 212.152 998.402 211.691C997.477 211.691 996.552 212.383 998.171 212.844ZM927.633 258.288C927.401 257.365 928.095 255.75 926.708 255.519C926.708 256.442 926.245 258.057 927.633 258.288ZM805.752 311.344C807.14 311.574 809.221 311.344 807.371 310.19C805.752 309.96 803.67 310.421 805.752 311.344ZM710.005 178.934C710.468 178.704 709.774 176.858 708.849 177.55C708.386 177.781 709.08 179.396 710.005 178.934ZM907.743 545.021C907.281 545.251 907.974 547.097 908.9 546.405C909.362 546.174 908.437 544.329 907.743 545.021ZM758.11 409.382C757.878 408.459 758.572 406.844 757.185 406.614C757.416 407.767 756.953 409.151 758.11 409.382ZM763.892 359.786C764.354 359.555 763.66 357.71 762.735 358.402C762.273 358.633 763.198 360.247 763.892 359.786ZM880.453 557.708C879.759 557.247 877.446 557.708 877.446 558.631C877.446 559.784 884.847 560.245 880.453 557.708ZM673.926 209.845C674.158 210.768 673.464 212.383 674.852 212.613C674.852 211.46 675.314 210.076 673.926 209.845ZM884.616 557.016C884.153 557.247 884.847 559.092 885.772 558.4C886.235 558.169 885.541 556.555 884.616 557.016ZM398.249 363.246C401.719 363.246 396.399 360.247 394.549 360.017L393.624 365.092C395.012 366.706 398.249 367.168 401.487 367.629C404.494 363.477 397.324 366.245 398.249 363.246ZM663.288 271.898C662.825 272.128 663.519 273.974 664.444 273.282C664.907 273.051 664.213 271.436 663.288 271.898ZM594.137 488.735C593.444 488.735 592.518 489.427 593.906 489.889C594.6 490.119 595.525 489.197 594.137 488.735ZM413.513 364.4C412.82 363.938 410.507 364.4 410.507 365.322C410.507 366.245 417.908 366.937 413.513 364.4ZM850.619 544.098C850.156 544.329 850.85 546.174 851.775 545.482C852.238 545.251 851.544 543.637 850.619 544.098ZM664.907 255.289C662.825 255.75 658.2 252.751 657.969 255.519C660.281 255.519 664.444 260.594 664.907 255.289ZM658.894 216.766C659.588 216.996 660.513 216.073 659.125 215.612C658.431 215.381 657.275 216.073 658.894 216.766ZM388.767 361.862C387.148 361.862 387.611 363.246 388.305 364.4C389.692 364.63 390.386 362.554 388.767 361.862ZM857.788 291.967C857.557 291.736 852.7 285.969 853.857 290.121C853.625 289.429 860.795 295.196 857.788 291.967ZM686.415 283.201C686.184 282.278 686.878 280.663 685.49 280.433C685.721 281.355 685.259 282.97 686.415 283.201ZM895.023 521.03C891.554 516.878 898.261 525.413 895.023 521.03V521.03ZM906.124 496.578C905.43 496.348 904.505 497.27 905.893 497.732C906.818 497.962 907.743 497.04 906.124 496.578ZM680.633 187.469C681.096 187.239 680.402 185.393 679.477 186.085C679.014 186.316 679.708 187.931 680.633 187.469ZM901.961 497.27C901.499 497.501 902.193 499.346 903.118 498.654C903.58 498.424 902.655 496.809 901.961 497.27ZM678.783 189.776C682.021 190.93 683.177 192.083 685.721 189.545C683.64 190.007 679.014 187.008 678.783 189.776ZM907.974 543.637C908.437 543.406 907.743 541.561 906.818 542.253C906.356 542.483 907.049 544.098 907.974 543.637ZM892.479 471.204C892.017 472.588 890.629 473.049 889.241 473.28C889.473 471.896 887.16 471.434 886.466 472.818C888.779 475.125 895.717 474.433 892.479 471.204ZM453.755 439.139C453.524 438.217 454.68 438.217 453.755 437.525C452.599 437.755 451.211 437.755 451.211 438.909C451.442 439.139 452.599 439.139 453.755 439.139ZM453.986 498.193C451.905 498.885 449.129 500.038 449.129 501.423C449.129 504.421 454.911 504.191 456.53 501.653C455.836 500.5 455.836 498.654 453.986 498.193ZM460.231 406.844C458.612 406.383 456.761 406.152 455.374 405.691C455.143 406.844 453.755 405.691 453.061 406.614V407.767C454.68 408.228 456.299 408.459 457.455 408.921C457.918 407.998 460.231 408.228 460.231 406.844ZM451.673 590.234C453.061 590.234 452.136 591.848 453.524 591.848C453.292 590.926 454.68 590.926 455.374 590.464C455.374 589.772 454.911 589.772 454.911 589.311C453.524 590.003 452.599 589.311 451.673 590.234ZM426.927 587.466C428.084 587.004 428.084 584.697 427.39 584.005C424.383 584.697 427.39 586.543 426.927 587.466ZM486.364 558.631C483.589 558.631 486.596 558.169 486.827 557.708C485.439 557.708 483.82 557.708 484.283 559.092C484.977 558.631 486.596 559.092 486.364 558.631ZM457.918 569.934C458.38 569.934 458.149 570.395 457.918 570.626H459.768V569.934C459.999 569.473 457.455 569.473 457.918 569.934ZM453.292 469.358C452.599 468.205 450.055 465.437 448.898 467.513C449.823 468.436 450.98 469.589 453.292 469.358ZM445.429 392.312C445.198 391.389 446.123 391.389 445.892 390.466C444.735 390.236 444.041 392.081 445.429 392.312ZM478.039 386.083V387.467C479.195 387.467 478.964 387.006 479.889 387.467C480.12 386.314 479.195 386.314 478.039 386.083ZM495.384 585.62C494.459 585.62 494.921 584.697 493.996 584.697C494.459 585.851 493.303 585.851 492.609 585.389C492.377 586.312 490.99 586.312 491.221 587.696C492.609 587.235 492.377 587.466 493.534 587.927C493.996 587.004 494.921 586.543 495.384 585.62ZM486.133 493.118C485.902 493.81 485.208 493.81 485.208 494.733H488.677C488.677 493.81 489.833 493.81 490.527 493.349C488.677 492.426 488.677 493.579 486.133 493.118ZM487.521 603.382C486.596 603.382 486.364 602.69 485.671 602.46C484.977 602.921 485.439 603.844 484.745 604.305C486.827 603.613 486.364 606.612 487.289 605.458C486.133 605.228 488.215 604.536 487.521 603.382ZM459.768 421.608C461.387 421.146 459.999 422.761 461.156 422.531C461.387 421.146 461.849 423.223 462.543 421.839C463.006 422.761 461.156 423.453 462.543 423.684C463.237 422.992 464.162 422.761 464.393 421.839C462.543 421.377 461.618 420.454 459.999 420.685L459.768 421.608ZM475.032 410.074C475.032 410.766 475.032 411.689 475.495 411.919C477.113 411.919 478.501 411.458 478.039 410.074C476.882 409.382 476.651 409.843 475.032 410.074ZM468.556 591.156C469.25 592.31 467.4 591.848 467.631 592.771C468.556 592.771 469.25 592.771 469.944 592.54C469.944 591.618 469.25 591.387 468.556 591.156ZM446.817 496.117C444.273 496.117 443.348 497.04 443.81 498.885C445.66 499.577 447.511 498.885 448.667 498.193C448.436 497.27 447.973 496.809 447.279 496.348C447.511 497.501 446.585 496.809 446.817 496.117ZM416.751 444.445C417.445 443.522 419.295 443.522 418.833 441.908C418.139 441.215 416.52 441.215 414.901 441.215C413.282 442.83 414.67 443.984 416.751 444.445ZM428.315 579.392C428.084 580.315 428.777 580.776 429.703 581.007C430.165 580.314 430.165 579.622 429.703 579.161C429.471 579.392 429.009 579.392 428.315 579.392ZM432.015 449.52C430.628 449.289 430.396 449.981 430.165 450.904C430.859 450.904 431.09 451.135 431.553 451.135C432.015 450.673 432.247 450.212 432.015 449.52ZM428.777 482.046C427.621 483.43 428.315 486.198 430.628 486.198C432.015 485.275 432.709 481.584 428.777 482.046ZM418.833 526.105C418.37 526.566 417.908 526.336 416.983 526.105V527.72C418.37 527.72 419.295 527.489 419.527 526.797C419.064 526.797 419.295 526.336 418.833 526.105ZM460.231 407.767C460.231 408.228 459.999 408.921 460.693 408.921C460.924 408.459 462.312 409.151 463.237 408.69C463.237 407.998 463.006 407.306 462.312 407.075C462.081 407.536 461.387 407.306 460.924 407.075C461.156 408.228 461.849 407.767 460.231 407.767ZM427.852 467.513H426.465C426.465 468.436 427.159 468.666 427.852 469.128C427.621 468.205 428.546 468.205 427.852 467.513ZM428.084 434.987C430.165 430.835 422.996 428.298 419.295 430.835C418.833 433.142 419.989 434.295 421.145 435.679C424.152 436.141 425.308 435.449 428.084 434.987ZM424.383 498.885C424.383 499.577 423.689 498.654 423.458 499.116C424.615 499.346 422.764 499.808 422.071 499.808C422.071 500.5 422.533 500.73 423.458 500.73C423.458 500.269 423.227 500.038 422.996 499.808C423.921 500.038 425.308 499.116 424.383 498.885ZM419.989 501.192C419.295 499.808 416.983 499.577 415.595 498.654C412.82 499.346 410.738 501.884 412.126 504.652C414.207 504.191 412.588 503.96 414.439 503.499C417.676 504.191 419.527 503.037 421.145 504.652C424.846 503.729 422.533 503.268 422.533 500.5C420.914 500.269 421.377 501.423 419.989 501.192ZM443.116 463.822C441.266 463.822 440.804 464.514 440.804 465.667C441.96 465.437 442.654 464.975 443.348 464.745C443.116 464.745 443.116 464.283 443.116 463.822ZM444.735 484.583C445.66 484.122 446.354 483.43 446.585 482.276C445.429 482.046 445.66 482.968 444.273 482.507C444.504 483.199 443.579 484.583 444.735 484.583ZM445.198 520.338C446.585 520.107 447.511 518.954 446.585 518.031C444.735 518.031 445.198 519.415 445.198 520.338ZM437.566 499.808C437.103 500.269 437.103 500.961 437.103 501.653C437.335 501.653 438.028 501.653 438.028 501.884C439.185 501.884 439.647 501.423 439.879 500.5C439.647 500.269 438.722 500.038 437.566 499.808ZM432.015 452.749C430.628 452.519 431.09 453.672 430.165 453.672C428.777 452.519 426.233 452.057 424.383 451.135C424.615 451.827 423.689 451.827 423.458 452.057C425.54 452.519 422.996 454.133 422.996 455.748C424.383 459.208 431.321 456.671 433.172 457.594C433.172 456.671 435.022 455.748 436.178 455.287C436.641 452.98 433.172 453.672 432.015 452.749ZM444.967 463.361C444.967 462.438 444.735 461.515 444.041 461.054C444.041 461.746 443.348 461.977 443.579 462.899C444.273 463.13 444.504 463.361 444.967 463.361ZM432.478 432.45C432.247 433.142 430.165 432.45 430.165 433.372C431.321 434.526 433.403 432.911 432.478 432.45ZM427.852 477.432C430.628 476.74 431.553 478.816 434.559 477.663V475.817C432.247 473.972 426.233 474.202 427.852 477.432ZM668.145 74.437C668.145 74.8983 667.913 75.129 667.682 75.3597H668.607C668.607 75.5904 668.607 75.8211 669.07 75.5904C668.838 73.5143 667.22 73.2836 668.145 71.2075C667.913 70.9768 666.063 70.5155 665.832 71.2075C667.22 72.3609 664.907 70.9768 664.907 71.4382C666.294 71.8995 663.519 71.8995 663.519 72.3609C664.444 73.5143 662.363 75.129 661.669 76.2824C664.213 75.5904 665.369 74.2063 668.145 74.437ZM926.245 125.417C926.014 125.417 925.782 125.648 926.245 125.648C927.17 124.263 925.32 124.494 926.708 123.11C925.782 123.11 925.782 123.571 925.32 123.802C924.626 122.649 923.007 121.957 921.388 121.495C921.388 123.571 920.694 124.263 919.538 126.34C921.851 125.878 923.47 124.725 926.245 125.417ZM928.326 154.252C925.782 154.021 926.245 155.866 925.32 156.789C927.401 156.789 927.633 155.405 928.326 154.252ZM929.945 254.827C929.252 253.443 928.789 251.829 926.014 252.059C925.782 252.982 924.626 253.213 924.626 254.366C926.476 254.597 928.558 256.211 929.945 254.827ZM932.489 138.335C932.721 137.181 932.258 136.489 932.027 135.797C929.945 136.028 929.483 134.875 927.633 134.875C923.47 137.874 928.558 141.334 932.489 138.335ZM928.326 100.734C928.789 101.657 927.633 101.426 927.401 101.888C928.095 101.888 928.326 102.118 928.789 102.118C929.483 101.888 929.483 100.734 928.326 100.734ZM491.684 445.598C490.99 444.214 485.208 442.83 484.283 445.829C485.902 446.982 489.833 446.752 491.684 445.598ZM921.388 388.159C921.388 387.467 920.694 387.006 919.538 387.006C919.076 387.467 918.382 387.929 918.15 388.621C920.463 388.852 919.769 387.467 921.388 388.159ZM783.781 473.28C782.856 473.28 782.856 472.357 781.931 472.357C781.7 473.28 781.468 473.972 781.931 474.202C782.162 473.741 784.012 474.202 783.781 473.28ZM805.752 97.9662C805.289 97.9662 804.827 97.9662 804.827 98.1968C805.521 98.1968 806.214 98.1968 806.677 97.9662C806.677 96.8128 805.289 96.5821 804.364 96.1207C804.596 97.0435 804.596 96.8128 804.364 97.7355C805.058 97.7355 805.752 97.7355 805.752 97.9662ZM861.72 105.117C861.951 106.04 859.407 104.887 859.638 105.809C860.101 106.271 861.72 106.04 862.182 106.501C862.182 105.809 862.414 105.117 861.72 105.117ZM929.945 131.184C930.177 130.492 932.027 130.953 931.796 129.8H929.945C930.177 130.492 929.02 131.876 929.945 131.184ZM971.112 336.026C969.956 336.026 969.724 336.488 969.262 336.949C969.724 337.41 970.881 337.18 971.343 336.718C971.112 336.718 970.881 336.488 971.112 336.026ZM1015.05 248.599C1016.44 247.907 1014.82 245.831 1013.67 246.984C1015.05 247.215 1012.74 247.446 1013.2 248.138C1013.9 248.368 1014.13 248.83 1015.05 248.599ZM946.597 202.233C947.06 201.31 948.216 200.618 949.604 200.387C949.604 199.695 949.372 199.234 948.678 199.234C948.216 200.387 944.284 201.079 946.597 202.233ZM1004.88 206.154C1004.42 206.154 1004.65 205.693 1004.88 205.462C1003.26 206.154 1002.33 205.462 1001.87 207.077C1003.26 207.308 1004.42 206.846 1004.88 206.154ZM1017.83 537.87C1017.6 539.484 1017.6 537.639 1016.9 537.639C1015.98 538.331 1017.37 538.562 1017.37 539.484C1018.52 539.484 1020.37 539.715 1020.37 538.792C1018.99 539.023 1019.68 537.639 1018.52 537.87C1018.75 539.023 1018.52 537.87 1017.83 537.87ZM1016.21 472.818V473.972C1017.6 474.433 1018.52 472.818 1017.6 472.357C1017.37 473.049 1016.9 473.049 1016.21 472.818ZM980.363 338.794C981.519 339.025 982.444 339.256 982.907 338.564C982.213 337.872 981.982 337.18 981.982 336.026C981.057 336.488 980.363 335.103 980.131 336.026C981.519 336.488 979.669 337.641 980.363 338.794ZM949.835 54.5987C949.604 53.4453 947.753 53.2146 946.366 52.9839V53.9066C948.216 53.4453 948.216 55.5214 949.835 54.5987ZM963.249 583.544C963.711 582.621 962.555 582.621 962.786 581.929C964.867 582.16 966.255 580.084 965.33 579.161C965.33 579.622 964.174 579.392 963.48 579.392C963.711 581.007 962.786 581.699 961.398 581.929C962.324 582.391 962.092 583.544 963.249 583.544ZM970.881 515.725C971.574 512.726 967.18 513.418 964.174 512.956C964.405 513.879 963.017 513.879 962.786 514.571C964.405 516.417 968.799 516.186 970.881 515.725ZM743.308 39.1432C742.614 39.1432 742.846 38.6819 742.383 38.4512C742.383 39.1432 740.764 38.6819 740.533 39.3739C741.921 39.8352 738.683 40.758 740.996 40.9886C741.458 40.0659 743.54 40.2966 743.308 39.1432ZM904.274 292.197C905.43 291.044 904.968 289.891 903.349 288.968C903.118 289.66 901.73 289.198 901.961 290.121C903.118 290.813 903.118 291.967 904.274 292.197ZM579.105 269.129C579.105 268.207 579.799 268.437 579.105 267.745C577.255 267.515 577.255 269.36 579.105 269.129ZM524.293 167.631C525.449 167.631 525.681 167.17 525.681 166.247C524.524 166.247 523.831 166.478 523.831 167.17C524.062 167.4 524.293 167.4 524.293 167.631ZM525.912 497.962C525.681 498.654 524.524 498.654 524.062 499.346C524.987 499.346 524.987 499.808 525.912 499.577C526.143 499.346 526.837 497.962 525.912 497.962ZM591.131 47.909C592.056 46.7556 588.818 46.5249 589.281 47.6783C590.206 47.4476 590.437 47.909 591.131 47.909ZM588.356 478.124C587.893 478.124 587.199 478.124 587.431 477.432C585.812 477.432 584.887 477.663 585.349 479.047C586.043 479.508 587.893 478.816 588.356 478.124ZM516.199 58.7509C516.199 57.8281 515.736 57.1361 514.348 57.1361C513.886 58.0588 513.655 58.5202 513.423 58.9815C513.423 58.7509 512.961 58.5202 512.961 58.9815C514.348 59.9043 514.811 58.7509 516.199 58.7509ZM518.049 146.87C516.199 146.87 515.273 147.562 515.505 148.715C516.661 148.946 516.661 148.254 517.817 148.485C517.124 149.177 515.736 150.33 516.892 151.253C518.743 151.022 520.13 150.561 520.824 149.638C518.974 149.177 516.892 148.254 518.049 146.87ZM499.316 306.961C499.547 305.115 501.166 303.962 499.778 302.809C494.921 301.655 495.153 308.806 499.316 306.961ZM595.988 312.036C594.831 311.113 594.137 311.113 593.444 312.036C594.369 312.266 595.525 313.189 595.988 312.036ZM516.892 385.391C518.28 385.391 518.511 384.469 518.974 383.777C517.586 383.546 517.355 384.699 516.892 385.391ZM520.13 114.114C517.355 114.114 517.586 116.19 516.661 117.343C518.28 116.651 519.436 115.728 520.13 114.114ZM678.552 64.2871C679.014 63.8258 680.171 63.8258 680.402 62.9031C679.246 62.9031 678.552 63.1337 678.089 63.5951C679.015 63.3644 677.396 65.2099 678.552 64.2871ZM683.409 69.5927C683.409 68.9007 682.715 68.67 682.946 67.7473C682.252 67.7473 682.021 67.5166 681.559 67.5166C680.402 68.4394 682.484 69.3621 683.409 69.5927ZM685.028 203.848C686.184 203.848 686.415 203.386 686.415 202.694C685.259 202.463 684.796 202.925 685.028 203.848ZM691.966 116.882C691.966 116.42 692.66 116.651 692.891 116.19C691.966 115.498 691.734 115.036 690.347 115.498C690.347 116.42 691.041 116.651 691.966 116.882ZM687.572 97.5048C689.653 96.3514 689.884 93.814 692.891 93.3526C692.66 91.9685 692.891 91.2765 691.966 89.8924C690.578 89.6618 690.347 90.1231 689.422 90.1231C690.116 91.2765 689.422 91.0458 688.497 91.7379C690.578 92.8913 685.721 95.6594 687.572 97.5048ZM700.985 69.3621C701.911 70.9768 700.754 69.5927 700.06 70.0541C696.823 72.5916 705.842 71.4382 700.985 69.3621ZM626.978 81.8187C629.522 80.896 631.141 78.5892 634.379 79.2812C635.535 78.3585 635.304 77.8972 635.767 76.9744C634.379 76.5131 632.76 77.8972 633.222 76.7438C630.91 77.8972 621.428 79.2812 626.978 81.8187ZM661.9 87.1243C662.594 86.6629 661.206 85.5095 662.363 84.8175C661.669 84.8175 660.744 84.8175 660.513 85.0482C662.594 84.8175 660.513 87.1243 661.9 87.1243ZM630.91 533.717C630.91 534.179 631.604 533.717 631.835 533.487C630.216 533.717 628.597 531.872 628.366 533.717C629.522 533.487 630.447 534.871 630.91 533.948C630.678 533.948 630.447 533.717 630.91 533.717ZM499.084 601.537C499.778 601.537 500.241 601.076 499.547 600.845C497.928 601.768 497.465 602.69 493.765 602.69C492.84 603.613 493.303 604.305 492.84 604.997C493.765 605.458 495.384 605.228 496.309 605.689C496.772 604.305 496.309 604.536 495.847 603.382C498.391 603.152 496.772 601.768 499.778 602.46C500.009 601.768 499.316 601.768 499.084 601.537ZM678.552 69.1314C679.246 69.1314 681.096 70.7461 680.865 68.9007C679.94 68.2087 679.014 70.0541 678.321 68.67C677.858 69.8234 677.396 68.9007 676.008 68.9007C676.008 69.1314 676.008 69.5927 675.545 69.5927C675.314 68.67 676.239 68.67 677.396 68.67C677.164 68.2087 677.858 67.0553 676.933 67.0553C676.239 68.2087 674.389 66.3632 673.464 67.978C674.389 67.978 674.389 68.67 674.389 69.5927C673.233 69.5927 673.001 70.0541 671.845 69.8234C671.383 69.3621 671.383 69.1314 671.845 68.67C670.457 69.1314 670.226 68.67 669.301 68.9007C669.07 69.5927 669.301 70.0541 669.764 70.5155C673.233 70.9768 676.008 69.3621 678.552 69.1314ZM475.263 514.341C475.495 515.263 475.495 516.186 476.188 516.647C475.495 515.494 477.576 516.417 477.576 515.725C475.957 515.725 476.188 514.571 475.263 514.341ZM906.356 297.272C906.587 295.657 902.886 295.888 902.886 297.272C903.812 297.272 903.118 298.426 904.274 298.195C904.505 297.734 904.968 297.042 906.356 297.272ZM903.812 579.622C903.118 580.084 904.043 581.007 904.737 581.468C905.662 580.776 904.274 580.084 903.812 579.622ZM910.981 501.192C910.518 500.961 907.281 500.269 907.512 501.423C908.668 501.884 910.518 501.884 910.981 501.192ZM897.798 327.491C897.336 328.644 893.404 329.106 895.254 330.721C895.717 329.336 900.805 329.567 900.111 327.952C899.186 329.337 899.186 327.26 897.798 327.491ZM501.628 599.922C502.091 600.845 500.472 600.614 500.241 601.076C500.935 601.076 500.472 601.998 501.166 601.998C501.397 601.537 502.785 600.383 501.628 599.922ZM891.785 539.484C892.248 539.484 892.248 539.946 892.248 540.407C893.867 540.638 894.561 540.176 894.792 539.484C894.098 539.484 892.248 538.562 891.785 539.484ZM912.369 536.486C910.981 536.486 910.056 537.639 910.981 538.331C912.369 538.331 911.675 537.178 912.831 536.947C912.6 537.178 912.369 536.947 912.369 536.486ZM932.258 361.401C933.877 360.709 937.346 359.555 935.727 357.71C934.34 357.71 929.945 359.786 932.258 361.401ZM934.571 537.408C933.877 538.562 933.414 536.947 932.258 537.178C931.102 537.408 930.87 538.1 931.333 539.023C932.489 538.792 935.496 538.1 934.571 537.408ZM933.414 591.618C933.646 591.618 934.34 591.618 934.34 591.848C934.802 592.54 932.952 593.002 934.34 593.232C934.571 592.079 936.652 592.31 936.652 590.695H933.646L933.414 591.618ZM880.684 632.448C882.072 632.909 885.078 633.371 885.541 631.756C883.46 631.294 881.147 631.756 880.684 632.448ZM913.988 299.81C913.988 300.271 913.294 300.271 913.988 300.502C914.913 299.81 913.987 298.887 913.062 298.656C913.062 298.887 913.062 299.118 912.6 298.887V299.579C913.062 299.579 913.756 299.579 913.988 299.81ZM929.945 593.232C928.095 593.232 930.408 592.079 928.558 592.31C927.633 592.771 927.864 595.309 929.483 595.078C929.02 594.155 928.789 593.463 929.945 593.232ZM929.252 363.938C927.401 363.938 926.708 364.63 926.708 365.784C927.864 366.476 929.252 365.553 929.714 364.861C929.252 364.861 929.252 364.4 929.252 363.938ZM826.798 426.452C827.26 426.683 829.11 426.683 829.11 425.76C827.954 425.76 826.798 425.76 826.798 426.452ZM827.492 50.4464C827.723 51.1385 827.492 51.5998 827.029 52.0612C830.729 53.2146 833.736 50.4464 833.736 50.4464C832.117 50.6771 829.804 49.2931 827.492 50.4464ZM820.785 105.809C823.329 106.732 819.628 106.963 821.71 108.116C821.71 107.193 823.56 107.193 823.097 105.809H820.785ZM945.903 526.336C945.672 526.797 943.128 527.489 944.516 528.181C944.978 527.489 945.441 530.719 946.366 528.873C944.284 529.104 947.291 526.566 945.903 526.336ZM819.86 69.5927C818.934 72.3609 813.153 73.0529 814.54 76.5131C819.166 75.129 824.254 72.3609 823.791 68.67C822.866 69.3621 821.478 70.2848 819.86 69.5927ZM800.895 99.5809C797.195 99.1196 797.889 102.349 798.814 102.81C798.814 102.349 801.358 103.272 801.82 102.58C802.283 100.965 800.433 101.196 800.895 99.5809ZM808.065 116.651C809.452 115.959 813.615 117.805 812.921 115.036C810.609 115.267 808.758 115.498 808.065 116.651ZM821.247 100.273C821.478 100.273 821.71 100.042 821.247 100.042C821.247 100.734 819.86 100.273 819.86 100.965C820.322 100.965 821.016 100.965 821.247 101.196C820.322 101.657 819.628 100.965 818.703 101.888C817.778 101.196 817.084 101.196 816.159 101.888C815.465 100.504 815.697 100.734 814.772 101.888C814.772 101.426 813.615 101.657 813.846 100.965C814.078 100.965 814.309 100.734 813.846 100.734C813.384 101.426 813.153 102.118 811.996 102.349C810.146 101.426 807.602 102.81 804.827 102.118C804.596 102.349 803.902 103.733 804.827 103.733C811.071 103.272 816.622 103.272 822.404 103.733C823.56 101.657 821.478 101.657 821.247 100.273ZM849.462 108.347C849.925 109.961 848.537 109.961 848.075 110.884C849.925 110.884 851.313 108.808 849.462 108.347ZM856.401 617.454C855.244 618.376 855.938 618.607 856.401 619.76C857.557 619.53 858.713 619.53 858.713 618.376C858.251 617.684 857.326 617.454 856.401 617.454ZM857.788 527.258C858.482 527.72 858.02 528.873 858.713 529.565C860.795 529.104 861.026 527.489 860.101 526.336C858.713 526.336 858.251 526.797 857.788 527.258ZM861.951 135.567C861.72 136.489 859.87 134.875 859.87 136.259C860.564 136.951 863.108 135.797 861.951 135.567ZM848.537 91.9685C846.456 91.7379 846.918 91.5072 845.993 91.0458C846.225 92.1992 845.993 92.6606 846.456 92.8913C846.687 92.1992 848.306 92.6606 848.537 91.9685ZM842.756 76.7438H844.606C844.837 75.5904 842.293 75.5904 842.756 76.7438ZM864.033 574.778C864.495 575.24 865.883 575.009 867.039 575.009C867.27 574.086 868.658 572.933 867.964 572.241C865.883 572.471 863.57 572.471 864.033 574.778ZM793.032 470.281C792.338 470.973 790.488 470.742 790.95 472.126C792.338 472.357 792.338 471.665 793.494 471.896C793.263 471.204 793.957 470.05 793.032 470.281ZM1007.19 635.908C1007.19 634.524 1006.27 632.909 1004.88 631.756C1003.95 632.678 1005.11 635.447 1007.19 635.908ZM1017.37 631.756C1017.37 632.448 1016.67 632.678 1016.9 633.601C1017.6 633.601 1017.83 633.832 1018.29 633.832C1018.29 632.909 1018.06 632.217 1017.37 631.756ZM1014.82 267.515C1015.05 267.515 1015.75 267.515 1015.75 267.284C1015.28 266.823 1014.36 266.361 1013.2 266.361C1012.97 267.515 1015.05 268.668 1015.52 268.207C1014.82 268.207 1014.82 267.976 1014.82 267.515ZM1012.51 636.139C1012.05 637.061 1011.58 638.907 1012.97 639.368C1012.97 639.137 1013.43 638.907 1013.43 639.368C1012.74 639.599 1010.89 639.599 1011.58 640.291C1011.58 640.06 1011.58 639.829 1012.05 640.06C1012.51 640.06 1012.74 640.521 1013.43 640.291C1013.9 638.445 1015.98 637.984 1014.36 636.139C1014.36 637.061 1012.74 636.369 1012.51 636.139ZM988.226 513.879H989.614C989.845 513.418 988.92 512.956 989.614 512.956C989.614 513.187 990.076 513.418 990.076 512.956C989.614 512.956 989.382 512.495 988.689 512.726C988.689 513.187 988.226 513.187 988.226 513.879ZM1003.95 290.813C1002.1 290.813 1000.48 292.197 1002.1 292.659C1002.1 291.505 1004.18 291.967 1003.95 290.813ZM995.396 278.126C996.783 278.126 996.089 279.741 996.321 280.663C997.708 280.433 997.708 281.125 998.865 280.894C1000.71 279.049 997.477 276.281 995.396 278.126ZM1036.79 190.007C1036.1 190.468 1035.87 191.16 1035.87 192.314C1037.02 192.314 1038.41 192.544 1038.41 191.622C1037.49 191.391 1038.41 189.776 1036.79 190.007ZM1056.68 284.816C1058.07 284.124 1057.38 282.278 1057.15 281.125C1055.3 280.894 1054.83 282.047 1054.83 283.432C1055.53 283.662 1055.99 282.97 1056.22 283.432C1054.83 283.432 1051.59 284.354 1050.9 283.432C1051.59 285.738 1054.37 282.97 1056.68 284.816ZM1018.52 569.703C1017.83 570.165 1017.6 572.01 1018.99 572.01C1019.22 571.087 1020.84 571.318 1021.07 570.395C1019.91 569.934 1019.91 569.242 1018.52 569.703ZM1049.28 366.476C1048.36 367.168 1046.74 367.398 1045.81 368.09V369.705C1048.13 369.936 1049.05 369.244 1050.21 368.782C1048.82 367.86 1051.13 366.937 1049.28 366.476ZM1055.06 367.629C1059.46 368.321 1060.38 363.938 1061.31 360.939C1058.07 362.785 1056.45 365.092 1055.06 367.629ZM1025 635.447C1023.84 636.369 1024.07 637.292 1025.46 637.984C1027.31 637.753 1027.08 635.677 1025 635.447ZM987.532 572.471C987.532 573.394 987.995 574.086 988.92 574.317C988.92 573.856 989.845 574.086 990.308 574.317C990.308 573.394 989.614 573.625 990.308 573.163C989.151 572.933 988.457 572.702 987.532 572.471ZM964.405 527.72C965.33 527.72 964.174 528.181 964.868 528.412C965.33 527.489 965.33 529.335 966.255 529.104C966.255 528.643 967.18 528.643 967.643 528.412C967.411 527.72 967.643 527.258 968.105 526.797C967.412 526.566 966.949 526.336 966.255 526.105C966.255 527.258 964.868 527.258 964.405 527.72ZM970.881 516.417C970.881 517.801 969.724 517.57 970.418 518.954C972.037 519.185 973.193 519.185 974.35 518.723C973.887 517.339 972.037 517.339 970.881 516.417ZM966.024 584.697C967.18 585.159 966.949 585.389 968.337 584.928C968.568 583.775 966.486 584.005 966.024 584.697ZM947.985 405.23C947.291 405.691 945.903 406.383 947.06 407.075C948.216 407.306 948.91 405.46 947.985 405.23ZM963.249 636.139C963.017 636.831 962.323 637.061 961.861 637.523C963.48 638.215 964.868 640.291 967.18 639.368C966.718 637.523 964.868 636.831 963.249 636.139ZM983.832 640.983C983.601 641.675 982.907 641.675 982.907 642.598C985.451 642.598 984.988 642.367 987.764 642.367C987.07 640.983 985.913 640.522 983.832 640.983ZM950.76 182.394C951.685 181.01 954.46 181.472 955.154 180.549C953.535 179.396 949.835 181.472 950.76 182.394ZM951.685 619.53C952.841 619.53 953.998 619.53 953.535 618.607C952.61 618.838 951.454 618.838 951.685 619.53ZM951.222 530.488C950.529 531.872 948.91 530.719 948.91 532.795C950.529 532.333 951.454 532.564 952.379 532.795C951.685 531.641 952.148 531.411 951.222 530.488ZM981.057 514.802C981.057 514.571 981.057 514.571 981.057 514.571V514.802ZM980.594 514.11C980.594 514.34 980.825 514.34 981.057 514.571C981.057 514.34 981.057 514.11 980.594 514.11ZM971.574 273.051C970.881 273.512 970.187 273.282 969.262 273.051C969.493 274.204 970.187 275.127 971.574 275.588C972.037 274.896 972.731 274.435 973.425 273.974C972.037 274.204 972.5 273.282 971.574 273.051ZM984.757 518.031C984.988 516.647 985.451 517.109 986.607 516.647C987.301 515.494 985.913 513.879 984.757 512.956C984.294 514.571 982.213 514.11 981.288 514.802C982.675 515.955 984.294 516.417 984.757 518.031ZM976.2 521.722C977.356 521.492 975.969 523.337 977.125 523.337C978.05 522.876 978.975 522.414 978.975 521.03C977.588 521.03 976.662 521.261 976.2 521.722ZM978.513 518.262C980.363 518.723 979.669 517.339 980.363 517.109C979.206 517.109 978.513 517.57 978.513 518.262ZM884.616 178.704C884.385 179.396 883.46 180.088 884.153 180.549C884.847 180.549 885.078 180.318 885.541 180.318C885.541 179.626 885.31 178.934 884.616 178.704ZM580.03 499.346C582.574 499.346 583.961 498.424 583.961 496.578C581.417 497.27 580.724 497.962 580.03 499.346ZM580.492 594.617C579.336 594.155 579.105 594.847 577.948 594.386C578.873 595.309 577.948 596.001 580.261 596.231C579.567 595.078 578.873 595.309 580.492 594.617ZM569.623 315.957C568.235 316.188 565.691 314.342 566.616 315.034C567.541 315.957 567.772 317.341 568.929 318.264C568.929 317.803 569.854 318.033 570.316 318.264C569.854 317.341 569.16 316.88 569.623 315.957ZM572.86 189.084C573.785 189.776 575.173 190.007 575.867 190.699C576.329 189.315 573.323 188.623 572.86 189.084ZM561.991 581.007C561.065 582.391 561.528 584.697 564.766 584.236C565.691 583.313 565.691 581.007 561.991 581.007ZM567.772 504.421V502.807C565.922 502.576 566.385 504.421 567.772 504.421ZM563.147 543.637C562.916 543.867 561.991 544.79 563.147 544.79C563.378 544.329 563.609 545.021 564.072 545.021C564.072 544.329 565.46 544.79 565.46 544.098C564.535 544.098 564.535 543.406 563.147 543.637ZM781.931 564.398C783.318 564.167 783.55 564.859 784.937 564.628C785.169 563.475 786.094 562.552 785.862 561.168C782.856 561.168 782.162 562.783 781.931 564.398ZM595.294 612.609C596.45 613.301 599.688 613.532 599.688 611.917C598.763 611.456 597.144 611.687 596.219 611.225C596.45 612.148 595.294 611.917 595.294 612.609ZM596.913 590.695C596.913 591.387 597.607 591.848 598.763 591.848C599.688 591.618 599.919 590.926 600.151 590.234C598.532 590.234 598.3 590.926 596.913 590.695ZM592.75 477.201C592.056 476.971 589.049 478.124 590.437 478.124C590.437 477.893 590.9 477.893 590.9 478.355C595.063 477.893 596.681 481.123 600.151 480.2C598.3 479.739 596.681 479.047 595.756 477.893C594.831 479.047 593.212 477.663 592.75 477.201ZM584.655 636.369C584.655 637.061 585.349 637.523 586.505 637.523C586.505 637.061 586.737 636.831 586.968 636.6C585.58 636.831 585.812 636.139 584.655 636.369ZM561.759 518.723C561.528 517.801 564.535 516.878 562.222 516.417C562.222 516.878 562.453 517.109 562.684 517.339C561.528 517.109 560.603 518.493 561.759 518.723ZM601.769 585.389C603.157 586.081 603.62 585.851 605.239 586.543C605.47 585.159 602.232 584.236 601.769 585.389ZM588.587 608.457C588.587 609.149 588.587 610.072 589.512 610.072C589.743 608.919 591.131 608.227 592.519 607.765C591.593 606.612 589.975 608.227 588.587 608.457ZM514.811 422.992C514.348 423.915 514.348 424.376 514.811 425.299C516.43 425.529 516.892 424.837 517.817 424.607C517.586 423.453 516.892 422.761 514.811 422.992ZM518.743 589.08C518.28 591.156 519.899 591.618 521.518 592.31C522.674 590.695 522.674 587.927 518.743 589.08ZM523.599 572.241C522.212 573.625 522.212 576.162 524.524 577.085C530.769 579.161 531.231 570.857 523.599 572.241ZM500.935 528.643C502.785 528.643 503.71 527.72 506.716 527.258V526.105C503.479 525.182 502.091 527.489 500.935 528.643ZM563.378 312.728C563.609 311.805 562.684 311.805 562.916 310.882C561.065 311.805 561.991 309.96 559.909 310.19C560.603 311.344 561.065 312.728 563.378 312.728ZM531.231 596.923C530.306 597.385 530.537 598.538 529.844 599.23C530.769 599.922 532.156 599.691 533.313 599.461C533.775 597.846 532.85 597.154 531.231 596.923ZM506.023 118.035C501.397 117.574 500.703 125.186 506.948 124.956C508.567 123.11 509.492 118.497 506.023 118.035ZM512.498 123.802C512.267 124.494 510.879 125.186 509.954 124.494C509.029 125.878 510.417 127.032 511.804 127.724C512.036 125.648 514.58 124.956 512.498 123.802ZM557.828 541.561C557.828 541.33 557.365 541.099 557.365 541.561C558.521 541.33 557.828 542.714 558.753 542.714C559.678 541.33 560.603 540.176 559.215 539.023C558.29 539.946 559.678 541.099 557.828 541.561ZM557.134 234.528C558.521 234.528 558.753 233.836 559.215 233.144C558.059 233.374 556.903 233.374 557.134 234.528ZM541.407 329.567C542.101 329.798 542.564 330.029 542.795 330.49C542.101 330.721 541.639 330.029 541.407 330.49C543.72 332.105 543.489 328.183 541.407 329.567ZM552.046 249.06C552.046 248.138 552.74 249.522 553.896 249.06C553.665 247.907 554.821 247.907 554.821 246.754C554.127 246.754 553.896 246.523 553.433 246.523C552.971 247.446 551.121 248.599 552.046 249.06ZM547.189 241.679C546.958 242.371 544.645 241.679 545.108 243.063C546.033 243.755 548.577 242.371 547.189 241.679ZM545.57 583.544C543.72 584.005 543.489 585.389 545.108 586.312C545.108 585.62 546.958 586.312 547.42 585.62C547.652 584.467 546.727 584.005 545.57 583.544ZM593.906 599.23V598.307C593.212 598.538 592.056 598.538 591.593 598.999C592.75 598.769 592.518 599.461 593.906 599.23ZM717.174 109.039C717.406 108.577 717.868 108.347 718.1 107.885C717.174 106.963 713.705 107.885 715.093 108.577C715.787 107.424 716.481 109.039 717.174 109.039ZM704.917 608.688C703.529 608.688 701.91 608.457 701.448 608.919C701.448 609.611 701.91 609.611 701.91 610.072C701.217 610.303 700.754 610.533 700.06 610.764C700.292 608.457 698.21 608.227 696.591 607.304C697.285 607.073 698.441 607.073 698.904 606.612C697.054 607.073 697.285 606.15 696.591 605.689C696.591 607.073 695.897 606.381 694.279 606.381C694.279 607.765 694.972 608.688 696.129 609.149C694.972 610.764 696.591 610.764 697.054 611.917C699.598 612.379 699.135 611.687 701.448 611.687C700.985 612.609 701.217 613.071 701.91 614.224H703.761C703.529 611.917 705.38 611.687 705.611 609.149C705.148 609.38 704.917 609.149 704.917 608.688ZM710.93 197.389C712.318 197.619 712.78 196.927 713.243 196.466C712.318 195.774 710.468 196.004 710.93 197.389ZM709.542 615.147C709.08 615.608 709.08 616.07 709.08 616.762C710.699 617.454 710.699 616.531 712.086 616.531C711.855 615.378 710.93 615.147 709.542 615.147ZM690.116 444.214C689.19 444.445 688.497 444.676 688.265 445.598C688.728 446.06 689.884 445.829 690.578 445.368C690.116 445.137 690.116 444.676 690.116 444.214ZM702.142 200.387C701.448 199.695 700.523 198.773 699.598 198.081C696.823 202.233 709.08 205.462 705.842 202.925C705.148 202.694 704.686 202.233 704.223 202.002C704.223 202.002 704.454 202.002 704.454 201.771C703.067 201.771 703.298 200.618 702.142 200.387ZM697.516 439.139C696.591 439.37 695.897 439.831 694.51 439.831C694.741 440.523 695.435 440.985 696.36 441.446C697.516 440.293 698.441 438.678 702.604 438.217C703.298 437.294 703.761 436.141 705.148 435.679C702.373 434.295 696.823 435.91 697.516 439.139ZM694.51 422.3C692.891 423.223 694.278 424.376 695.897 424.837C696.129 424.376 697.285 424.376 697.285 423.453C696.591 422.992 695.666 422.531 694.51 422.3ZM767.129 419.301C766.898 419.762 766.204 419.993 765.279 419.993C765.279 420.454 765.048 421.146 765.742 421.146C766.898 420.685 768.98 420.224 767.129 419.301ZM728.969 637.753C728.507 638.676 727.582 637.292 726.425 637.753C726.425 638.215 725.732 638.215 725.5 638.676C726.425 638.907 726.888 639.599 728.044 639.599C728.507 639.368 730.357 638.215 728.969 637.753ZM765.51 631.525C762.504 631.294 762.735 633.37 762.041 634.755C764.354 634.755 765.279 633.601 766.436 632.909C765.048 633.14 765.742 632.217 765.51 631.525ZM770.83 630.372C771.755 631.525 770.136 631.986 769.905 633.14C770.367 633.14 770.598 633.601 770.83 633.832C772.911 633.601 774.53 633.14 775.686 632.217C775.455 631.525 773.374 629.218 770.83 630.372ZM756.722 538.1C757.879 537.87 757.647 538.792 758.572 538.792C758.572 538.331 758.572 537.87 759.035 537.639C758.11 537.408 756.26 536.947 756.722 538.1ZM751.403 637.753C749.784 638.676 749.321 640.06 750.015 641.906C751.403 642.136 752.559 642.598 753.484 643.059C754.178 641.675 756.26 641.214 755.566 638.907C753.716 638.907 753.947 637.292 751.403 637.753ZM610.789 567.396C609.17 566.935 608.939 567.627 607.783 567.627C608.245 568.55 607.089 568.55 607.32 569.242C610.789 568.55 609.633 570.165 613.102 569.934C612.871 567.858 608.708 569.011 610.789 567.396ZM611.483 513.879C611.945 512.956 612.408 513.648 613.796 513.187C613.796 512.495 613.796 511.572 612.871 511.572C612.177 512.034 610.095 513.187 611.483 513.879ZM613.564 648.365C613.564 649.057 613.102 649.057 613.102 649.518C613.796 649.518 614.027 649.749 614.489 649.749C614.489 648.365 615.877 649.979 616.34 649.057C615.877 648.826 615.183 648.595 614.027 648.826C613.796 648.595 613.796 648.365 613.564 648.365ZM661.669 599.691C660.281 599.691 660.744 598.307 659.819 597.846C659.125 599.691 660.05 596.693 658.431 597.154C658.894 598.077 658.894 597.846 657.969 598.307C660.05 599.23 660.281 603.613 661.438 603.613C662.594 602.921 660.513 601.537 661.669 599.691ZM614.721 560.707C614.952 559.092 614.027 558.169 613.333 557.016C612.177 556.785 612.408 557.708 611.02 557.247C608.476 559.784 611.483 562.091 614.721 560.707ZM607.783 184.471C607.783 183.779 608.939 184.009 608.708 183.317C607.32 182.856 605.47 183.086 605.239 183.317C606.164 183.317 606.164 184.471 607.783 184.471ZM608.939 179.165C608.476 179.165 607.783 179.165 607.551 178.934C604.313 180.78 601.076 181.01 597.838 182.394C597.838 184.009 597.838 184.471 597.375 185.163C598.763 184.701 598.3 184.701 600.382 184.932C601.307 184.471 601.076 183.086 602.232 182.625C602.232 183.317 603.62 182.164 604.776 182.625C604.082 179.626 609.633 181.702 608.939 179.165ZM613.333 509.727C612.177 508.112 617.958 508.804 615.877 506.267C613.796 506.497 614.258 508.574 612.408 508.112C612.639 508.804 611.714 509.958 613.333 509.727ZM630.679 487.582C633.223 488.274 636.923 488.966 639.004 490.119C637.848 491.042 639.467 491.503 639.467 492.426C641.317 492.426 642.473 491.503 642.936 490.581C639.236 488.043 635.304 487.812 630.679 486.89V487.582ZM653.806 490.811C653.575 491.503 651.724 491.042 651.493 491.734C652.649 491.734 652.881 492.195 653.806 492.426C654.037 492.195 654.731 491.042 653.806 490.811ZM615.646 572.01C615.877 572.01 616.108 571.779 615.646 571.779C615.646 572.241 615.183 572.01 614.721 571.779C614.489 572.471 615.646 572.471 615.183 573.394C616.108 573.394 616.108 573.855 617.033 573.625C617.033 573.163 617.265 572.933 617.496 572.702C617.265 572.241 615.877 572.702 615.646 572.01ZM655.656 453.441C657.044 453.903 656.581 453.441 658.2 453.441C658.894 452.288 655.193 452.288 655.656 453.441ZM610.558 481.123C609.17 480.892 609.864 482.276 608.708 481.354C608.708 481.123 608.245 480.892 608.245 481.354C611.714 484.122 618.884 483.891 622.815 486.428C624.203 486.428 626.053 486.659 626.747 486.198C623.74 481.584 614.721 484.352 610.558 481.123ZM629.753 563.475C632.76 563.244 633.685 560.938 635.535 559.553C629.291 554.479 620.04 563.936 629.753 563.475Z" fill="white" fill-opacity="0.5"/>
<path d="M277.986 319.421C278.217 319.882 280.067 319.19 279.605 318.268C279.374 318.037 277.523 318.729 277.986 319.421ZM146.16 479.05C143.154 478.358 141.766 479.512 141.535 482.28C145.004 483.664 144.542 479.973 146.16 479.05ZM578.872 320.344C579.103 320.805 580.953 320.113 580.491 319.19C580.028 318.96 578.178 319.652 578.872 320.344ZM189.408 324.496C189.408 325.188 190.334 326.111 190.796 324.727C191.027 323.804 190.102 323.112 189.408 324.496ZM539.787 321.036C539.555 320.574 537.705 321.266 538.168 322.189C538.399 322.42 540.249 321.728 539.787 321.036ZM278.448 316.884C278.68 317.345 280.53 316.653 280.067 315.73C279.836 315.499 277.986 316.191 278.448 316.884ZM391.309 471.669C391.541 472.13 393.391 471.438 392.928 470.515C392.697 470.054 390.847 470.746 391.309 471.669ZM151.017 475.821C150.786 475.36 148.936 476.052 149.398 476.974C149.63 477.205 151.48 476.513 151.017 475.821ZM424.844 496.121C424.613 495.659 422.763 496.351 423.225 497.274C423.456 497.505 425.307 496.813 424.844 496.121ZM80.479 351.024C80.9415 349.64 83.4855 348.486 81.1728 347.333C80.7103 348.486 78.1663 349.64 80.479 351.024ZM137.372 351.716C136.91 353.1 134.366 354.253 136.678 355.637C137.141 354.023 139.685 352.869 137.372 351.716ZM331.179 342.95C331.41 343.412 333.26 342.719 332.797 341.797C332.335 341.566 330.485 342.258 331.179 342.95ZM380.208 479.05C380.44 479.512 382.29 478.82 381.827 477.897C381.596 477.436 379.746 478.358 380.208 479.05ZM197.734 333.492C190.565 334.184 194.496 339.029 197.734 333.492V333.492ZM554.819 298.66C550.656 302.351 559.907 296.353 554.819 298.66V298.66ZM375.352 467.747C375.12 467.286 373.27 467.978 373.733 468.901C373.964 469.362 375.814 468.67 375.352 467.747ZM300.882 438.451C300.419 439.143 296.719 442.834 299.957 443.526C300.651 442.834 304.12 439.143 300.882 438.451ZM568.233 277.207C568.464 277.668 570.315 276.976 569.852 276.053C569.389 275.823 567.539 276.515 568.233 277.207ZM493.069 488.047C492.838 487.585 490.988 488.277 491.451 489.2C491.682 489.662 493.532 488.97 493.069 488.047ZM232.888 275.131C233.119 275.592 234.969 274.9 234.507 273.977C234.044 273.516 232.194 274.208 232.888 275.131ZM287.005 267.518L289.781 267.98L290.243 265.442L287.468 264.981L287.005 267.518ZM588.585 263.366C588.354 264.058 589.51 264.981 589.973 263.597C590.204 262.905 589.048 261.982 588.585 263.366ZM466.936 298.429C463.004 302.12 472.024 296.122 466.936 298.429V298.429ZM305.045 439.143C305.276 438.451 304.12 437.528 303.657 438.912C303.426 439.604 304.351 440.527 305.045 439.143ZM529.842 297.507C530.073 297.968 531.923 297.276 531.461 296.353C530.998 296.122 529.148 296.815 529.842 297.507ZM515.966 296.814C515.734 296.353 513.884 297.045 514.347 297.968C514.809 298.199 516.659 297.507 515.966 296.814ZM562.22 295.892C562.451 296.353 564.301 295.661 563.839 294.738C563.376 294.277 561.526 295.2 562.22 295.892ZM559.676 286.434C559.907 286.895 561.757 286.203 561.295 285.281C560.832 284.819 558.982 285.511 559.676 286.434ZM513.884 292.432C513.653 293.816 513.884 295.661 515.04 293.816C515.503 292.662 515.04 290.586 513.884 292.432ZM374.889 356.099C374.658 356.791 375.814 357.714 376.277 356.329C376.508 355.637 375.352 354.715 374.889 356.099ZM376.277 470.515C378.589 470.746 380.44 471.438 381.596 472.591C384.14 469.362 376.046 468.208 376.277 470.515ZM501.164 286.665C502.089 285.973 501.627 284.127 500.008 285.281C499.083 285.742 499.314 287.818 501.164 286.665ZM286.774 415.614C286.774 416.306 287.699 417.229 288.162 415.845C288.162 415.152 287.237 414.23 286.774 415.614ZM281.455 405.695C281.224 407.079 281.455 408.924 282.611 407.079C282.843 405.925 282.38 403.849 281.455 405.695ZM369.57 411.231C369.339 411.923 370.495 412.846 370.957 411.462C371.189 410.77 370.264 409.847 369.57 411.231ZM276.829 407.54C277.523 414.23 262.953 409.385 265.96 413.768C266.191 413.076 266.422 412.384 267.579 412.615C268.504 413.076 268.966 413.999 268.504 415.383C271.742 415.383 273.823 414.23 278.217 415.614C278.911 409.847 283.536 413.076 285.155 415.383C287.468 409.385 276.829 412.154 276.829 407.54ZM361.013 404.772C356.619 408.001 365.638 401.773 361.013 404.772V404.772ZM210.223 399.005C210.454 398.313 209.298 397.39 208.835 398.774C208.604 399.466 209.529 400.389 210.223 399.005ZM351.993 635.912C350.837 636.142 349.218 635.45 348.987 636.834C350.143 636.604 351.762 637.065 351.993 635.912ZM453.522 401.542C453.059 399.928 452.597 398.544 451.44 397.39C450.978 399.005 452.366 404.772 453.522 401.542ZM347.83 416.998C347.599 416.537 345.749 417.229 346.211 418.151C346.443 418.382 348.293 417.69 347.83 416.998ZM304.814 431.3C304.582 431.992 305.739 432.915 306.201 431.531C306.432 430.839 305.507 429.916 304.814 431.3ZM261.103 435.221C256.94 438.912 266.191 432.684 261.103 435.221V435.221ZM246.533 430.377C246.764 430.839 248.614 430.147 248.152 429.224C247.689 428.993 245.839 429.685 246.533 430.377ZM205.366 411.231C197.966 411.923 197.04 420.919 189.64 421.842C195.884 423.226 193.803 430.147 195.884 434.529C198.659 429.224 197.272 428.07 196.578 422.996C197.734 416.998 201.897 414.691 205.366 411.231ZM456.297 393.007C456.066 394.391 456.297 396.237 457.453 394.391C457.685 393.238 457.453 391.162 456.297 393.007ZM269.198 420.689C268.966 422.073 269.198 423.918 270.354 422.073C270.585 420.919 270.123 418.843 269.198 420.689ZM462.079 417.229C463.235 416.998 464.854 417.69 465.086 416.306C463.698 416.537 462.31 416.075 462.079 417.229ZM381.596 374.092L381.134 376.629C382.521 376.86 382.521 377.783 383.677 378.244C383.909 376.168 384.603 373.861 381.596 374.092ZM168.131 383.55C171.6 383.319 174.838 382.858 175.763 379.397C172.988 378.475 174.144 369.478 169.75 373.4C172.526 375.014 169.75 382.396 168.131 383.55ZM480.581 365.557C480.581 367.171 481.968 366.479 483.356 366.018C483.587 364.634 481.275 363.942 480.581 365.557ZM204.672 373.4C204.441 374.784 204.672 376.629 205.829 374.784C206.291 373.63 205.829 371.554 204.672 373.4ZM387.378 372.246C386.221 372.477 384.603 371.785 384.371 373.169C385.528 372.938 387.147 373.4 387.378 372.246ZM201.435 392.546C201.203 393.238 202.36 394.161 202.822 392.777C203.054 391.854 201.897 390.931 201.435 392.546ZM371.189 362.096C371.189 363.711 372.576 363.019 373.964 362.558C373.964 361.174 371.651 360.482 371.189 362.096ZM125.346 365.326C125.115 366.018 126.271 366.941 126.734 365.557C126.734 364.865 125.808 363.942 125.346 365.326ZM489.6 361.635C489.832 362.096 491.682 361.404 491.219 360.482C490.757 360.02 488.907 360.943 489.6 361.635ZM81.1728 565.324C79.5539 565.324 79.3226 563.248 78.3975 564.863C78.3975 566.247 80.7103 566.939 81.1728 565.324ZM128.584 363.25C129.046 362.558 132.747 358.867 129.509 358.175C130.203 360.712 124.652 361.866 128.584 363.25ZM510.184 388.163C509.952 387.702 508.102 388.394 508.565 389.317C508.796 389.547 510.646 388.855 510.184 388.163ZM163.968 407.54C165.356 403.619 163.968 401.542 164.2 398.544C165.819 396.468 172.526 392.777 169.75 390.239C163.275 392.777 159.112 401.312 163.968 407.54ZM397.091 381.473C397.091 382.165 398.016 383.088 398.479 381.704C398.479 381.012 397.554 380.089 397.091 381.473ZM466.704 389.317C467.398 387.471 469.248 387.471 470.173 385.856C467.398 384.472 463.467 388.394 466.704 389.317ZM470.636 383.319C470.405 384.011 471.561 384.934 472.024 383.55C472.024 382.858 471.099 381.935 470.636 383.319ZM475.03 381.473C475.493 380.781 479.193 377.091 475.955 376.399C475.493 377.091 471.792 380.781 475.03 381.473ZM413.743 186.55C411.199 187.473 406.111 190.472 411.199 192.779C411.661 190.702 417.212 188.165 413.743 186.55ZM445.89 186.089C441.727 190.01 450.978 183.782 445.89 186.089V186.089ZM416.749 185.628C416.981 186.089 418.831 185.397 418.368 184.474C417.906 184.244 416.056 184.936 416.749 185.628ZM454.909 190.241C455.141 190.702 456.991 190.01 456.528 189.088C456.066 188.626 454.216 189.318 454.909 190.241ZM158.88 397.621L159.343 395.083L156.568 394.622L156.105 397.16L158.88 397.621ZM254.396 409.386C254.627 409.847 256.478 409.155 256.015 408.232C255.552 408.001 253.702 408.693 254.396 409.386ZM435.251 199.007C439.414 200.16 446.815 192.548 440.802 190.702C438.72 193.009 438.258 197.392 435.251 199.007ZM402.642 388.855C402.873 389.316 404.723 388.624 404.261 387.702C404.03 387.471 402.179 388.163 402.642 388.855ZM251.852 407.771C251.621 407.309 249.771 408.001 250.233 408.924C250.464 409.155 252.315 408.463 251.852 407.771ZM218.318 415.845C219.936 411.692 218.318 404.08 215.774 406.387C218.318 408.232 215.311 413.999 218.318 415.845ZM507.871 198.084C507.871 198.776 508.796 199.699 509.259 198.315C509.49 197.623 508.333 196.7 507.871 198.084ZM404.261 298.199C404.492 298.66 406.342 297.968 405.88 297.045C405.648 296.584 403.798 297.507 404.261 298.199ZM159.343 386.087C158.88 388.163 153.561 391.854 156.568 393.469C157.724 392.085 161.424 386.548 159.343 386.087ZM334.879 524.263C330.947 527.954 339.967 521.726 334.879 524.263V524.263ZM341.355 527.723C345.518 528.185 343.205 522.418 340.198 526.339C339.504 527.031 340.661 527.723 341.355 527.723ZM186.864 120.115C187.096 119.423 185.939 118.5 185.477 119.884C185.477 120.576 186.402 121.499 186.864 120.115ZM235.432 185.858C234.275 186.089 232.656 185.397 232.425 186.781C233.813 186.55 235.2 187.012 235.432 185.858ZM292.556 299.583C292.787 298.199 292.556 296.353 291.4 298.199C291.168 299.583 291.631 301.428 292.556 299.583ZM150.555 388.624C150.323 388.163 148.473 388.855 148.936 389.778C149.398 390.239 151.248 389.547 150.555 388.624ZM543.024 204.543C543.256 205.005 545.106 204.313 544.643 203.39C544.181 203.159 542.331 203.851 543.024 204.543ZM397.785 343.873C396.629 344.104 395.01 343.412 394.779 344.796C396.166 344.796 397.554 345.257 397.785 343.873ZM344.592 338.567C344.361 338.106 342.511 338.798 342.974 339.721C343.205 339.951 345.055 339.259 344.592 338.567ZM556.669 230.148C556.207 230.841 556.669 232.917 557.595 232.917C558.982 232.917 559.676 225.996 556.669 230.148ZM183.858 422.303C185.014 422.073 186.633 422.765 186.864 421.381C185.708 421.611 184.089 421.15 183.858 422.303ZM555.976 225.996C556.207 226.458 558.057 225.766 557.595 224.843C557.363 224.612 555.513 225.304 555.976 225.996ZM348.755 679.51C348.755 676.28 345.518 681.125 345.286 682.97L350.837 683.893C352.687 682.739 353.149 679.74 353.612 676.511C348.987 673.512 351.993 680.432 348.755 679.51ZM250.464 432.223C250.696 432.684 252.546 431.992 252.083 431.069C251.621 430.839 249.771 431.531 250.464 432.223ZM483.125 497.043C482.893 497.735 484.05 498.658 484.512 497.274C484.512 496.582 483.587 495.659 483.125 497.043ZM349.68 665.438C349.218 666.13 349.68 668.207 350.606 668.207C351.993 667.976 352.456 661.286 349.68 665.438ZM542.331 257.83C542.562 258.291 544.412 257.599 543.949 256.676C543.487 256.215 541.637 257.138 542.331 257.83ZM232.425 430.839C232.888 432.684 229.65 437.067 232.656 437.298C232.888 435.221 238.207 431.3 232.425 430.839ZM191.259 436.375C191.49 435.683 190.334 434.76 189.871 436.144C189.64 436.836 190.565 437.759 191.259 436.375ZM347.136 688.276C347.136 689.89 348.524 689.198 349.912 688.737C350.143 687.583 347.83 686.891 347.136 688.276ZM271.742 250.91C271.51 251.14 265.266 255.523 269.66 254.6C269.198 254.831 275.442 248.141 271.742 250.91ZM262.491 410.77C261.334 411 259.715 410.308 259.484 411.692C260.64 411.462 262.259 411.923 262.491 410.77ZM517.353 216.308C512.959 219.768 521.979 213.54 517.353 216.308V216.308ZM491.219 205.927C490.988 206.619 492.144 207.542 492.607 206.158C492.607 205.466 491.682 204.543 491.219 205.927ZM159.806 416.075C159.574 415.614 157.724 416.306 158.187 417.229C158.649 417.459 160.499 416.767 159.806 416.075ZM491.913 210.079C492.144 210.541 493.995 209.849 493.532 208.926C493.069 208.465 491.219 209.157 491.913 210.079ZM162.35 417.69C163.737 414.46 164.894 413.538 162.118 411.231C162.581 413.076 159.343 417.459 162.35 417.69ZM541.637 204.543C541.405 204.082 539.555 204.774 540.018 205.697C540.249 205.927 542.331 205.235 541.637 204.543ZM463.929 218.845C465.317 219.307 465.779 220.46 466.242 221.844C464.854 221.613 464.16 223.689 465.779 224.382C468.323 222.075 467.398 215.846 463.929 218.845ZM429.932 627.838C428.776 628.069 428.776 627.146 428.313 627.838C428.544 628.761 428.544 630.145 429.701 630.375C429.932 629.914 429.932 628.991 429.932 627.838ZM493.301 627.607C493.995 629.453 495.151 632.221 496.77 632.221C500.008 632.221 499.776 626.915 497.001 625.3C495.845 625.992 493.763 625.992 493.301 627.607ZM395.241 621.84C394.779 623.455 394.547 625.07 393.854 626.454C395.241 626.684 393.853 627.838 394.779 628.53H396.166C396.629 627.146 396.86 625.531 397.554 624.378C396.629 623.916 396.86 621.609 395.241 621.84ZM592.054 629.914C592.054 628.761 593.673 629.453 593.673 628.299C592.517 628.53 592.748 627.376 592.285 626.684C591.592 626.684 591.592 627.146 590.898 627.146C591.823 628.299 590.898 628.991 592.054 629.914ZM589.048 652.982C588.585 652.059 586.272 651.828 585.347 652.52C586.041 655.519 587.891 652.751 589.048 652.982ZM558.057 597.388C558.057 599.926 557.595 597.158 557.132 596.927C557.132 598.311 557.132 599.695 558.52 599.464C558.057 599.003 558.751 597.388 558.057 597.388ZM570.315 624.147C570.315 623.686 570.777 623.916 571.008 624.147V622.532H570.315C569.852 622.302 569.852 624.378 570.315 624.147ZM462.31 628.299C461.154 628.761 457.916 631.298 460.229 632.451C461.385 631.529 462.541 630.606 462.31 628.299ZM379.746 635.45C378.821 635.681 378.821 634.758 377.664 634.989C377.664 636.373 379.515 636.834 379.746 635.45ZM373.039 605.001H374.427C374.427 603.847 373.964 604.078 374.427 603.386C373.27 603.155 373.27 604.078 373.039 605.001ZM587.197 589.084C587.197 590.007 586.272 589.545 586.272 590.237C587.429 589.776 587.429 590.929 586.966 591.391C587.891 591.621 588.123 592.775 589.279 592.544C588.816 591.16 589.048 591.391 589.51 590.468C588.585 590.468 588.123 589.545 587.197 589.084ZM487.75 597.619C488.444 597.85 488.675 598.542 489.369 598.542V595.312C488.444 595.312 488.444 594.159 487.981 593.697C487.056 595.312 488.213 595.312 487.75 597.619ZM606.162 596.466C606.162 597.388 605.468 597.619 605.237 598.08C605.699 598.772 606.856 598.311 607.318 599.003C606.624 597.158 609.631 597.619 608.706 596.466C608.012 597.619 607.087 596.004 606.162 596.466ZM411.199 622.302C410.736 620.917 412.355 622.071 412.124 621.148C410.736 620.917 412.818 620.456 411.43 619.995C412.355 619.533 413.049 621.148 413.512 619.995C412.818 619.303 412.587 618.38 411.43 618.38C410.968 619.995 409.811 620.917 410.043 622.532L411.199 622.302ZM398.941 607.769C399.867 607.769 400.56 607.769 401.023 607.307C401.023 605.693 400.56 604.539 398.941 604.77C398.016 606.385 398.479 606.385 398.941 607.769ZM592.979 614.228C594.367 613.536 593.673 615.381 594.598 615.151C594.598 614.228 594.598 613.536 594.136 613.074C593.442 612.844 593.211 613.536 592.979 614.228ZM490.988 634.297C490.988 636.604 491.913 637.526 493.995 637.065C494.688 635.45 493.995 633.605 493.301 632.451C492.376 632.682 491.682 633.143 491.219 633.605C492.607 633.605 491.682 634.758 490.988 634.297ZM435.714 662.44C434.789 661.748 434.789 660.133 432.939 660.363C432.245 661.056 432.245 662.44 432.245 664.054C433.864 665.669 435.251 664.285 435.714 662.44ZM580.259 651.598C581.416 651.828 581.647 651.136 581.878 650.444C581.184 649.983 580.491 649.983 579.797 650.444C580.259 650.444 580.259 651.136 580.259 651.598ZM441.033 648.138C440.802 649.522 441.496 649.752 442.421 649.752C442.421 649.291 442.652 648.83 442.652 648.599C442.421 648.138 441.958 647.907 441.033 648.138ZM476.187 651.136C477.805 652.059 480.581 651.598 480.581 649.522C479.424 648.138 475.493 647.445 476.187 651.136ZM523.366 660.594C523.829 661.056 523.597 661.517 523.366 662.209H524.985C524.985 661.055 524.754 660.133 524.06 659.671C524.06 660.133 523.366 660.133 523.366 660.594ZM396.166 621.84C396.629 621.84 397.323 622.071 397.554 621.379C397.091 621.148 397.785 619.764 397.091 618.841C396.166 618.841 395.704 619.072 395.472 619.764C395.935 619.764 395.704 620.687 395.472 620.917C396.86 620.917 396.397 620.456 396.166 621.84ZM460.46 652.059V653.212C461.385 653.212 461.616 652.52 462.079 652.059C461.154 652.29 461.154 651.367 460.46 652.059ZM425.538 651.828C421.144 649.983 418.368 656.673 421.144 660.133C423.688 660.594 424.844 659.441 426.232 658.518C426.694 655.519 426 654.366 425.538 651.828ZM493.995 655.289C494.688 655.289 493.763 655.981 494.226 656.211C494.457 655.058 494.92 656.903 494.92 657.365C495.613 657.365 496.076 657.134 495.845 656.211C495.382 656.211 495.151 656.442 494.92 656.673C495.382 655.75 494.226 654.366 493.995 655.289ZM496.539 659.441C494.92 659.902 494.688 662.209 493.763 663.593C494.688 666.13 497.232 667.976 500.239 666.822C499.545 664.977 499.545 666.361 498.851 664.746C499.545 661.517 498.389 659.902 500.239 658.518C499.083 655.058 498.62 657.134 495.845 657.365C495.613 658.518 496.77 658.057 496.539 659.441ZM456.297 637.757C456.297 639.372 456.991 640.064 458.379 639.833C458.147 638.91 457.685 638.218 457.453 637.296C457.222 637.757 456.76 637.757 456.297 637.757ZM478.731 636.373C478.037 635.681 477.343 634.989 476.418 634.758C476.187 635.681 477.112 635.681 476.649 636.834C477.343 636.604 478.731 637.296 478.731 636.373ZM517.122 635.912C516.891 634.758 515.503 633.835 514.809 634.758C514.578 636.373 515.966 635.912 517.122 635.912ZM495.151 642.832C495.613 643.293 496.307 643.293 497.232 643.293C497.232 643.063 497.232 642.371 497.464 642.371C497.464 641.217 497.001 640.756 496.076 640.756C495.382 641.217 495.151 641.909 495.151 642.832ZM444.502 648.138C444.271 649.522 445.427 649.06 445.427 649.752C444.04 651.136 443.577 653.443 442.652 655.058C443.346 654.827 443.346 655.519 443.577 655.981C444.271 654.135 445.89 656.442 447.74 656.442C451.44 655.289 448.896 648.599 449.822 646.984C448.896 646.984 447.971 645.139 447.509 644.216C444.965 643.985 445.659 646.984 444.502 648.138ZM456.066 636.142C454.909 636.142 454.216 636.373 453.753 637.065C454.447 637.065 454.678 637.757 455.835 637.526C455.603 636.834 455.835 636.373 456.066 636.142ZM422.763 647.676C423.456 647.907 422.763 649.983 423.688 649.752C425.075 648.83 423.225 646.753 422.763 647.676ZM471.099 652.059C470.405 649.522 472.486 648.599 471.33 645.831H469.248C467.398 647.907 467.629 653.674 471.099 652.059ZM38.6186 427.609C39.0812 427.609 39.3125 427.84 39.5437 428.07V427.148C39.775 427.148 40.0063 427.148 39.775 426.686C37.6935 426.917 37.231 428.532 34.9183 427.609C34.687 427.84 34.2245 429.455 34.9183 429.685C36.3059 428.301 34.4557 430.608 35.1495 430.608C35.6121 429.455 35.6121 431.992 36.0746 431.761C37.231 430.839 39.0812 432.915 40.2375 433.376C40.0063 431.069 38.6186 430.147 38.6186 427.609ZM93.199 187.012C93.199 187.242 93.4303 187.473 93.4303 187.012C92.0426 186.089 92.0426 187.934 90.655 186.55C90.655 187.473 91.1175 187.473 91.3488 187.704C90.1924 188.396 89.4986 189.78 89.0361 191.395C91.1175 191.395 92.0426 192.087 94.1241 193.009C93.6615 191.164 92.5052 189.549 93.199 187.012ZM123.958 185.166C123.727 187.473 125.808 187.012 126.734 187.934C126.734 185.858 125.346 185.628 123.958 185.166ZM231.963 183.551C230.575 184.244 228.725 184.705 228.956 187.242C229.881 187.473 230.112 188.626 231.269 188.396C231.5 186.781 233.35 184.936 231.963 183.551ZM107.075 181.014C105.919 180.783 105.225 181.245 104.3 181.475C104.531 183.551 103.375 183.782 103.375 185.628C106.382 189.549 110.313 184.936 107.075 181.014ZM66.6026 184.936C67.759 184.474 67.5277 185.628 67.9903 185.858C67.9903 185.397 68.2215 184.936 68.2215 184.705C67.9903 184.013 66.6026 183.782 66.6026 184.936ZM436.87 592.544C435.251 593.236 433.864 598.542 437.333 599.464C438.489 597.85 438.027 594.159 436.87 592.544ZM374.889 191.625C373.964 191.625 373.501 192.317 373.501 193.24C374.195 193.701 374.427 194.163 375.12 194.393C375.583 192.548 374.195 193.24 374.889 191.625ZM466.473 320.113C466.473 321.036 465.548 321.036 465.548 321.728C466.473 321.958 467.167 322.189 467.629 321.728C466.704 321.728 467.398 319.882 466.473 320.113ZM63.8274 299.352C63.8274 299.583 63.8274 300.275 64.0586 300.275C64.0586 299.583 64.0586 298.891 63.8274 298.66C62.671 298.66 62.4397 299.813 61.7459 300.736C62.9023 300.505 62.4397 300.505 63.3648 300.736C63.5961 300.044 63.3648 299.352 63.8274 299.352ZM71.4594 246.988C72.3844 246.757 71.2281 249.295 72.1532 249.064C72.6157 248.603 72.3844 247.219 72.847 246.527C72.1532 246.757 71.4594 246.527 71.4594 246.988ZM99.2121 183.551C98.5183 183.321 98.9808 181.706 97.8244 181.937V183.551C98.5183 183.321 100.137 184.474 99.2121 183.551ZM318.921 145.49C318.921 146.412 319.384 146.874 319.846 147.104C320.309 146.643 320.078 145.49 319.384 145.028C319.615 145.259 319.384 145.49 318.921 145.49ZM225.024 104.198C224.331 103.045 222.018 104.429 223.406 105.352C223.637 104.198 223.868 106.274 224.793 105.813C224.793 105.352 225.256 105.121 225.024 104.198ZM175.532 168.096C174.376 167.635 173.913 166.481 173.451 165.328C172.757 165.328 172.294 165.559 172.063 166.251C173.451 166.712 174.144 170.172 175.532 168.096ZM179.695 113.887C179.695 114.348 179.232 114.117 179.001 113.887C179.695 115.271 179.001 116.424 180.62 116.655C180.851 115.271 180.389 114.117 179.695 113.887ZM535.161 101.891C536.78 102.122 534.699 102.122 534.93 102.814C535.624 103.737 535.855 102.353 537.011 102.353C537.011 101.199 537.243 99.5846 536.317 99.5846C536.549 100.969 535.161 100.046 535.392 101.199C536.549 101.199 535.392 101.43 535.161 101.891ZM465.779 103.506H467.167C467.629 102.122 465.779 101.43 465.548 102.353C465.779 102.122 465.779 102.814 465.779 103.506ZM321.928 136.724C322.159 135.57 322.39 134.878 321.465 134.186C320.771 134.878 319.846 134.878 318.69 135.109C319.152 136.032 317.765 136.724 318.69 136.724C319.384 135.801 320.771 137.416 321.928 136.724ZM17.1103 164.867C15.9539 165.097 15.7226 166.712 15.4914 168.096H16.4165C15.9539 166.481 18.2666 166.481 17.1103 164.867ZM584.422 152.871C583.497 152.641 583.497 153.563 582.803 153.333C583.035 151.257 580.722 150.103 579.797 150.795C580.259 150.795 580.028 151.718 580.028 152.41C581.647 152.179 582.341 153.102 582.803 154.486C583.035 153.794 584.191 154.025 584.422 152.871ZM511.571 145.72C508.333 145.259 509.027 149.18 508.565 151.949C509.721 151.718 509.49 153.102 510.184 153.102C512.265 151.718 512.034 147.796 511.571 145.72ZM0.689912 357.483C0.689912 357.944 -0.00390625 357.944 -0.00390625 358.406C0.689912 358.406 0.227366 360.02 0.921185 360.02C1.38373 358.636 2.30882 361.635 2.54009 359.559C1.615 359.328 2.07755 357.252 0.689912 357.483ZM271.973 207.773C270.816 206.619 269.429 207.081 268.504 208.695C269.198 208.926 268.735 210.31 269.891 209.849C270.354 208.695 271.742 208.695 271.973 207.773ZM247.458 510.884C246.533 510.884 246.764 510.192 246.07 510.884C245.839 512.499 247.689 512.499 247.458 510.884ZM138.76 561.864C138.76 560.71 138.297 560.48 137.372 560.71C137.372 561.864 137.603 562.556 138.297 562.325C138.528 562.095 138.528 561.864 138.76 561.864ZM493.069 560.71C493.763 560.941 493.763 562.095 494.457 562.325C494.457 561.633 494.92 561.402 494.688 560.71C494.457 560.48 493.069 559.788 493.069 560.71ZM10.1721 499.35C9.01573 498.427 8.55318 501.426 9.94082 500.965C9.70955 500.273 10.1721 500.042 10.1721 499.35ZM471.561 502.349C471.561 502.81 471.561 503.272 470.867 503.272C470.867 504.656 471.099 505.578 472.486 505.348C473.18 504.425 472.486 502.81 471.561 502.349ZM21.967 569.246C20.8106 569.246 20.3481 569.707 20.3481 570.86C21.2732 571.322 21.967 571.552 22.4295 571.783C22.1983 571.783 21.967 572.014 22.4295 572.244C23.3546 571.091 21.967 570.399 21.967 569.246ZM116.326 567.631C116.326 569.246 117.02 570.168 118.408 570.168C118.639 569.015 117.945 569.015 117.945 568.092C118.639 568.784 120.027 569.938 120.952 569.015C120.72 567.4 120.258 566.016 119.333 565.324C118.87 566.708 117.945 568.554 116.326 567.631ZM288.162 585.162C286.312 584.932 284.924 583.548 283.768 584.701C282.611 589.315 290.012 589.084 288.162 585.162ZM293.481 495.198C292.556 496.121 292.325 496.813 293.481 497.735C293.712 496.813 294.869 495.659 293.481 495.198ZM372.114 568.784C372.114 567.4 371.189 567.169 370.495 566.708C370.495 568.323 371.42 568.554 372.114 568.784ZM81.4041 565.785C81.4041 568.323 83.4855 568.092 84.8732 569.015C84.1794 567.4 83.023 566.247 81.4041 565.785ZM27.7488 417.921C27.055 417.459 27.2863 416.306 26.3612 416.306C26.3612 417.229 26.5925 417.921 27.055 418.382C26.8237 417.459 28.9052 418.843 27.7488 417.921ZM33.5306 413.307C32.8368 413.307 32.6055 413.999 31.4492 413.768C31.4492 414.23 31.2179 414.691 31.2179 414.922C32.143 416.075 33.0681 414.23 33.5306 413.307ZM177.382 411.923C177.382 410.77 176.92 410.539 175.995 410.77C175.995 411.923 176.457 412.154 177.382 411.923ZM83.9481 405.233C83.4855 405.233 83.7168 404.541 83.2543 404.311C82.5604 405.003 82.0979 405.464 82.5604 406.848C83.4855 406.848 83.9481 406.387 83.9481 405.233ZM63.3648 409.616C62.2085 407.771 59.4332 407.309 58.9706 404.772C57.583 405.003 56.6579 404.772 55.2703 405.695C55.039 406.848 55.7328 407.079 55.7328 408.232C56.8892 407.54 56.6579 408.232 57.3517 409.155C58.5081 406.617 61.2834 411.231 63.3648 409.616ZM33.0681 396.929C34.9183 396.006 33.2994 397.16 33.7619 397.852C36.7685 400.85 35.3808 392.546 33.0681 396.929ZM46.7132 465.902C45.7881 463.595 43.2441 462.211 43.9379 458.981C43.0128 458.059 42.319 458.059 41.6252 457.828C41.1626 458.981 42.5503 460.596 41.3939 460.365C42.319 462.211 43.7066 470.977 46.7132 465.902ZM52.2637 433.376C51.8012 432.684 50.6448 434.068 49.951 432.915C49.951 433.607 49.951 434.529 50.4135 434.529C49.7197 432.915 52.2637 434.529 52.2637 433.376ZM531.229 462.672C531.692 462.672 531.229 461.98 530.767 461.749C530.998 463.364 529.148 464.748 531.229 464.979C530.998 463.826 532.617 463.134 531.461 462.442C531.461 462.903 531.229 463.134 531.229 462.672ZM604.08 585.854C604.08 585.162 603.618 584.701 603.387 585.393C604.312 586.777 605.468 587.469 605.468 590.699C606.393 591.391 607.087 591.16 607.781 591.621C608.243 590.699 608.012 589.315 608.475 588.392C607.087 587.93 607.318 588.392 606.162 588.853C605.931 586.546 604.312 587.93 605.237 585.162C604.312 584.932 604.312 585.624 604.08 585.854ZM32.8368 417.921C32.8368 417.229 34.687 415.614 32.6055 415.845C31.9117 416.767 33.7619 417.459 32.3743 418.382C33.5306 418.843 32.6055 419.074 32.8368 420.458C33.0681 420.458 33.5306 420.458 33.5306 420.919C32.6055 421.15 32.3743 420.458 32.6055 419.305C32.143 419.535 30.7554 418.843 30.9866 419.766C32.3743 420.458 30.2928 422.073 31.9117 422.996C31.9117 422.073 32.8368 422.073 33.5306 422.073C33.5306 422.996 34.2245 423.226 33.9932 424.61C33.5306 425.072 33.0681 425.072 32.6055 424.61C33.0681 425.764 32.6055 426.225 33.0681 427.148C33.7619 427.378 34.4557 427.148 34.687 426.686C35.1495 422.765 33.0681 420.227 32.8368 417.921ZM510.415 608C511.34 607.769 512.265 607.769 512.728 607.077C511.571 607.769 512.496 605.693 511.803 605.923C512.034 607.307 510.877 607.077 510.415 608ZM277.523 205.697C275.673 205.466 275.904 208.926 277.523 208.926C277.523 208.234 278.68 208.695 278.448 207.773C277.755 207.542 277.292 207.081 277.523 205.697ZM580.259 208.234C580.722 208.926 581.878 208.003 582.341 207.311C581.416 206.619 580.722 207.773 580.259 208.234ZM496.076 201.544C495.845 202.006 495.151 205.005 496.539 204.774C497.001 203.851 496.77 201.775 496.076 201.544ZM309.67 213.77C310.827 214.232 311.289 217.923 313.139 216.308C311.752 215.846 311.983 211.233 310.133 211.694C311.752 212.386 309.439 212.386 309.67 213.77ZM602.23 583.317C603.387 582.856 602.924 584.47 603.618 584.47C603.618 583.778 604.543 584.24 604.543 583.548C604.08 583.548 602.924 582.164 602.23 583.317ZM537.243 219.537C537.243 219.076 537.705 219.076 538.168 219.076C538.399 217.692 537.936 217 537.243 216.538C537.243 217.461 536.318 219.076 537.243 219.537ZM534.005 200.16C534.005 201.544 535.161 202.236 536.086 201.314C536.318 200.16 534.93 200.622 534.699 199.699C534.699 200.16 534.467 200.391 534.005 200.16ZM346.211 181.475C345.517 179.861 344.361 176.631 342.048 178.246C342.28 179.63 344.361 183.782 346.211 181.475ZM534.93 179.63C536.086 180.322 534.236 180.783 534.699 181.706C535.161 182.859 535.624 183.09 536.78 182.629C536.318 181.475 535.624 178.938 534.93 179.63ZM592.979 180.783C592.979 180.553 592.979 179.861 593.211 179.861C593.904 179.399 594.367 181.014 594.598 179.861C593.442 179.63 593.442 177.554 591.823 177.785V180.553L592.979 180.783ZM636.921 229.918C637.384 228.534 638.077 225.766 636.227 225.304C635.765 227.38 635.996 229.456 636.921 229.918ZM280.067 198.546C280.53 198.546 280.53 199.238 280.761 198.546C280.067 197.854 278.911 198.546 278.68 199.468C278.911 199.468 279.142 199.468 278.911 199.93H279.605C279.836 199.468 279.836 198.776 280.067 198.546ZM594.598 184.013C594.598 185.628 593.442 183.551 593.673 185.166C594.136 185.858 596.911 185.858 596.68 184.244C595.755 184.705 595.061 185.166 594.598 184.013ZM348.987 184.474C348.987 186.089 349.68 187.012 351.068 187.012C351.762 186.089 350.837 184.474 350.143 184.244C349.912 184.474 349.449 184.474 348.987 184.474ZM416.056 279.975C416.518 279.514 416.287 277.899 415.362 277.899C415.131 279.052 415.131 279.975 416.056 279.975ZM12.9474 278.822C13.6412 278.591 14.335 278.822 14.5663 279.283C15.7226 275.823 12.9474 273.055 12.9474 273.055C13.1786 274.669 11.5597 276.745 12.9474 278.822ZM72.1532 285.281C73.3095 282.974 73.5408 286.203 74.4659 284.358C73.3095 284.358 73.5408 282.743 72.1532 283.204V285.281ZM522.904 169.019C523.597 169.249 524.06 171.556 524.985 170.172C524.06 169.711 527.76 169.48 525.679 168.557C525.91 170.403 523.135 167.865 522.904 169.019ZM33.2994 286.203C36.3059 286.895 37.231 292.432 40.7001 291.048C39.3125 286.665 36.3059 282.051 32.143 282.512C33.0681 283.435 33.9932 284.589 33.2994 286.203ZM65.4463 303.735C64.9837 307.195 68.4528 306.503 68.9154 305.811C68.4528 305.811 69.3779 303.504 68.4528 303.043C67.0652 302.581 67.2964 304.196 65.4463 303.735ZM83.9481 297.276C83.2543 296.122 85.1044 292.201 82.3292 292.662C82.0979 294.738 82.5604 296.353 83.9481 297.276ZM66.1401 284.819C66.1401 284.589 65.9088 284.358 65.9088 284.819C66.6026 284.819 66.1401 286.203 66.8339 285.973C66.8339 285.511 66.8339 284.819 67.0652 284.819C67.5277 285.742 66.8339 286.434 67.759 287.357C67.0652 288.279 67.0652 288.971 67.759 289.894C66.1401 290.586 66.6026 290.356 67.759 291.048C67.2964 291.048 67.5277 292.201 66.8339 291.97C66.8339 291.74 66.6026 291.509 66.6026 291.97C67.2964 292.432 67.9903 292.662 68.2215 293.585C67.2964 295.43 68.9154 297.737 67.9903 300.275C68.2215 300.505 69.6092 301.197 69.6092 300.275C69.1466 294.277 68.9154 289.202 69.6092 283.897C67.759 282.743 67.759 284.589 66.1401 284.819ZM74.9285 258.522C76.5474 258.061 76.5474 259.445 77.7037 259.675C77.7037 258.061 75.1597 256.907 74.9285 258.522ZM620.732 252.524C621.888 253.447 621.888 252.986 623.045 252.524C622.813 251.602 622.813 250.448 621.657 250.448C621.195 250.91 620.963 251.602 620.732 252.524ZM524.06 251.371C524.523 250.679 525.91 251.14 526.373 250.448C525.91 248.372 524.06 248.141 522.904 249.295C523.135 250.217 523.597 250.679 524.06 251.371ZM104.069 246.988C104.994 247.219 103.375 248.833 104.763 249.064C105.688 248.372 104.3 245.835 104.069 246.988ZM57.1205 259.445C56.8892 261.29 56.6579 260.829 56.1954 261.982C57.3517 261.751 58.0455 261.982 58.2768 261.521C57.583 261.29 58.0455 259.445 57.1205 259.445ZM40.9314 264.75V263.135C39.5437 262.905 39.5437 265.212 40.9314 264.75ZM574.94 245.373C575.403 244.912 575.171 243.528 575.171 242.605C574.246 242.374 572.859 240.99 572.165 241.682C572.627 243.528 572.627 245.835 574.94 245.373ZM463.004 311.578C463.698 312.27 463.467 314.115 465.086 313.654C465.317 312.501 464.392 312.501 464.623 311.117C464.16 311.347 462.773 310.655 463.004 311.578ZM640.39 111.811C638.771 111.811 637.152 112.503 635.996 113.887C637.152 115.04 640.159 113.887 640.39 111.811ZM635.996 102.353C636.69 102.353 636.921 103.045 638.077 102.814C638.077 102.353 638.309 101.891 638.309 101.661C637.384 101.661 636.459 101.891 635.996 102.353ZM245.376 104.429C245.376 104.198 245.376 103.737 244.914 103.506C244.451 103.967 243.989 104.89 243.989 106.044C245.145 106.274 246.533 104.429 246.07 103.967C246.07 104.429 245.839 104.66 245.376 104.429ZM640.853 106.966C641.778 107.428 643.859 107.658 644.322 106.505C644.091 106.505 643.859 106.274 644.322 106.044C644.553 106.505 644.553 108.581 645.247 107.658C645.016 107.658 644.784 107.658 645.016 107.197C645.016 106.736 645.478 106.736 645.247 106.044C643.165 105.582 642.703 103.737 640.853 105.121C641.547 105.352 640.853 106.736 640.853 106.966ZM509.49 129.573V128.419C508.796 128.189 508.565 129.111 508.565 128.419C508.796 128.419 509.027 128.189 508.565 127.958C508.565 128.419 508.102 128.419 508.333 129.111C508.796 129.111 509.027 129.573 509.49 129.573ZM270.354 114.809C270.354 116.655 271.742 118.039 272.435 116.424C271.048 116.424 271.742 114.348 270.354 114.809ZM256.709 122.652C256.709 121.268 258.328 121.96 259.484 121.73C259.253 120.576 260.178 120.576 259.715 119.192C257.634 117.808 254.627 120.576 256.709 122.652ZM162.35 83.8985C162.812 84.5905 163.737 84.8212 164.662 84.8212C164.662 83.6678 164.894 82.2837 163.968 82.2837C163.737 83.4371 162.118 82.2837 162.35 83.8985ZM263.878 65.4442C263.184 64.0601 261.103 64.7522 259.715 64.9828C259.484 66.8283 260.64 67.2896 262.028 67.0589C262.259 66.3669 261.566 65.9056 262.028 65.9056C262.028 67.0589 262.953 70.0578 262.028 70.7498C265.035 70.0578 262.028 67.5203 263.878 65.4442ZM569.389 101.43C569.852 101.891 571.702 102.122 571.702 100.969C570.777 100.738 570.777 99.1232 570.083 98.8926C569.852 100.046 568.927 100.046 569.389 101.43ZM351.531 72.5952C352.224 73.5179 352.456 74.902 353.15 75.8247H354.768C355 73.7486 354.306 72.8259 353.843 71.6725C352.918 72.8259 351.993 70.7498 351.531 72.5952ZM352.918 67.0589C353.612 62.9067 348.987 61.984 345.749 61.292C347.368 64.0601 350.143 65.6749 352.918 67.0589ZM639.928 95.4324C640.853 96.5858 642.009 96.1244 642.703 94.971C642.24 93.3563 640.159 93.587 639.928 95.4324ZM572.396 130.265C573.321 130.265 574.015 129.803 574.477 129.111C574.015 129.111 574.246 128.189 574.477 127.958C573.552 127.958 573.784 128.65 573.09 127.958C572.859 128.65 572.627 129.342 572.396 130.265ZM524.523 151.718C524.523 151.026 524.985 151.949 525.216 151.257C524.06 150.795 526.141 150.795 525.91 150.103C525.448 150.103 525.448 149.18 525.216 148.95C524.523 149.18 523.829 148.95 523.597 148.488C523.366 149.18 523.135 149.642 522.904 150.103C524.06 149.872 523.829 151.257 524.523 151.718ZM512.265 145.72C513.884 145.72 513.421 146.874 515.04 146.182C515.272 144.798 515.272 143.644 514.578 142.491C513.422 142.721 513.19 144.798 512.265 145.72ZM585.579 150.334C586.041 149.411 586.272 149.642 585.81 148.258C584.654 148.027 584.885 149.872 585.579 150.334ZM392.928 166.943C393.391 167.635 394.085 168.788 395.01 167.865C395.241 166.712 393.391 166.02 392.928 166.943ZM640.621 153.102C641.315 153.333 641.547 154.025 642.009 154.255C642.703 152.871 645.016 151.487 644.091 149.411C642.24 149.642 641.547 151.487 640.621 153.102ZM645.941 133.725C646.635 133.956 646.866 134.648 647.56 134.648C647.56 132.341 647.097 132.802 647.097 130.034C645.941 130.726 645.478 131.88 645.941 133.725ZM154.024 164.174C152.636 163.252 152.867 160.714 151.942 160.022C151.017 161.637 153.099 164.867 154.024 164.174ZM623.045 163.713C623.045 162.56 623.045 161.637 622.12 162.098C622.12 162.79 622.12 163.944 623.045 163.713ZM527.298 164.174C528.685 164.867 527.529 166.481 529.611 166.251C529.148 164.636 529.379 163.944 529.611 163.021C528.685 163.713 528.454 163.021 527.298 164.174ZM510.646 136.262C510.646 136.032 510.646 136.032 510.646 136.262V136.262ZM509.952 136.493C510.184 136.493 510.184 136.262 510.415 136.262C510.184 136.262 509.952 136.262 509.952 136.493ZM251.39 144.798C251.852 145.49 251.621 146.182 251.39 146.874C252.777 146.643 253.702 145.951 254.165 144.798C253.471 144.336 253.008 143.875 252.546 143.183C252.777 144.567 251.621 144.105 251.39 144.798ZM513.884 132.802C512.496 132.572 512.959 132.11 512.496 131.188C511.109 130.726 509.49 131.88 508.333 132.802C509.952 133.264 509.49 135.34 510.184 136.032C511.803 134.878 512.496 133.264 513.884 132.802ZM518.047 140.645C517.816 139.492 519.897 140.876 519.666 139.723C518.972 139.031 518.741 137.877 517.353 138.108C517.353 139.261 517.584 140.184 518.047 140.645ZM514.347 138.569C514.809 136.954 513.422 137.416 512.959 136.954C512.959 138.108 513.421 138.569 514.347 138.569ZM150.323 225.766C151.017 225.996 151.942 226.919 152.405 226.227C152.405 225.766 152.174 225.304 151.942 225.074C151.248 224.843 150.555 225.074 150.323 225.766ZM494.457 510.192C494.457 507.885 493.532 506.501 491.451 506.501C492.144 508.808 492.838 509.5 494.457 510.192ZM596.448 509.731C595.755 510.884 596.68 510.884 596.217 512.268C597.142 511.345 597.836 512.268 598.299 510.192C596.911 510.653 597.142 511.345 596.448 509.731ZM297.644 519.88C297.875 521.264 296.025 523.571 296.719 522.649C297.644 521.726 299.263 521.726 300.188 520.572C299.726 520.572 299.957 519.65 300.188 519.419C299.263 519.419 298.8 520.111 297.644 519.88ZM161.656 516.42C162.35 515.728 162.581 514.344 163.275 513.652C161.887 513.421 161.193 515.959 161.656 516.42ZM582.109 527.031C583.728 527.954 586.041 527.493 585.579 524.494C584.422 523.571 581.878 523.802 582.109 527.031ZM500.008 521.495H498.389C497.926 523.341 500.008 522.879 500.008 521.495ZM542.099 525.878C542.331 526.109 543.487 526.801 543.487 525.878C542.793 525.647 543.718 525.417 543.718 524.955C543.024 524.955 543.487 523.571 542.793 523.802C542.562 524.725 541.637 524.725 542.099 525.878ZM564.07 321.958C563.839 320.574 564.764 320.574 564.301 319.19C562.914 318.96 562.22 318.268 560.601 318.268C560.37 321.036 562.22 321.728 564.07 321.958ZM615.875 496.121C616.8 494.967 617.032 491.968 615.181 491.968C614.719 492.891 614.95 494.275 614.488 495.198C615.413 494.967 615.181 496.121 615.875 496.121ZM592.517 494.506C593.442 494.506 593.904 493.814 593.904 492.891C593.673 491.968 592.979 491.738 592.285 491.738C591.823 493.122 592.517 493.122 592.517 494.506ZM470.636 498.197C470.405 498.658 471.792 501.657 471.561 500.273C471.099 500.273 471.33 499.811 471.792 499.811C471.33 495.89 474.799 494.275 473.874 491.276C473.411 493.122 472.717 494.506 471.561 495.429C472.717 496.351 471.099 497.735 470.636 498.197ZM641.315 505.809C642.24 505.809 642.703 505.117 642.703 504.194C642.24 504.194 642.009 503.964 641.778 503.733C642.009 504.886 641.084 504.886 641.315 505.809ZM515.272 527.262C514.347 527.493 513.422 524.494 512.959 526.801C513.422 526.801 513.653 526.57 513.884 526.339C513.421 527.493 515.04 528.185 515.272 527.262ZM586.735 490.123C587.429 488.97 587.198 488.277 588.123 486.893C586.504 486.432 585.347 489.431 586.735 490.123ZM611.481 502.349C612.406 502.349 613.1 502.349 613.1 501.426C611.712 501.195 611.25 499.811 610.787 498.658C609.4 499.581 611.25 500.965 611.481 502.349ZM412.587 570.86C413.512 571.322 413.974 571.322 414.899 570.86C415.131 569.476 414.437 568.784 414.206 568.092C413.049 568.092 412.355 569.015 412.587 570.86ZM590.667 567.4C592.748 567.862 593.442 566.247 594.136 564.863C592.285 563.94 589.51 563.709 590.667 567.4ZM572.627 562.787C574.246 563.94 576.79 564.171 577.715 561.864C580.028 556.097 571.24 555.866 572.627 562.787ZM525.91 584.009C525.91 582.394 524.985 581.241 524.523 578.703H523.135C521.979 581.471 524.754 582.856 525.91 584.009ZM294.406 525.647C293.481 525.417 293.481 526.339 292.325 526.109C293.25 527.954 291.4 526.801 291.631 528.877C292.787 528.185 294.175 527.723 294.406 525.647ZM599.224 555.866C599.686 556.558 600.843 556.558 601.536 557.02C602.23 556.097 601.999 554.713 601.768 553.79C600.149 553.329 599.224 554.251 599.224 555.866ZM85.567 578.934C85.1044 583.317 93.199 583.778 92.9677 578.011C91.1175 576.397 86.0295 575.474 85.567 578.934ZM91.5801 572.706C92.2739 572.936 92.9677 574.32 92.2739 575.243C93.8928 576.166 95.0492 574.782 95.743 573.628C93.6615 573.167 92.9677 570.86 91.5801 572.706ZM539.555 530.953C539.324 530.953 539.093 531.184 539.555 531.414C539.324 530.261 540.712 530.953 540.943 530.261C539.555 529.569 538.168 528.415 536.78 529.8C537.936 530.492 539.093 529.108 539.555 530.953ZM210.454 531.184C210.454 530.03 209.76 529.569 209.067 529.108C209.298 530.261 209.298 531.414 210.454 531.184ZM312.446 545.947C312.677 545.255 312.908 545.024 313.371 544.794C313.602 545.486 312.908 545.947 313.371 545.947C314.99 543.871 310.827 544.102 312.446 545.947ZM226.181 536.028C225.256 536.028 226.643 535.336 226.181 534.413C225.024 534.644 224.793 533.49 223.868 533.49C223.868 533.952 223.637 534.413 223.637 534.644C224.331 535.105 225.487 536.951 226.181 536.028ZM218.086 540.641C218.78 540.872 218.086 542.948 219.474 542.718C220.399 541.795 218.78 539.257 218.086 540.641ZM584.885 542.256C585.347 544.102 586.966 544.102 587.891 542.718C587.197 542.718 587.891 540.872 587.197 540.641C585.81 540.411 585.347 541.333 584.885 542.256ZM601.536 497.274H600.611C600.843 497.966 600.843 498.889 601.305 499.35C601.074 498.427 601.768 498.658 601.536 497.274ZM75.8535 381.935C75.391 381.704 74.9285 381.243 74.4659 381.012C73.5408 381.704 74.4659 384.934 75.1597 383.78C73.7721 383.088 75.8535 382.627 75.8535 381.935ZM611.712 393.699C611.712 394.853 611.481 396.468 612.175 396.929C612.869 396.929 612.869 396.468 613.563 396.468C613.794 397.16 614.025 397.39 614.256 398.082C611.944 397.852 611.481 399.928 610.556 401.312C610.325 400.62 610.325 399.697 609.862 399.236C610.325 400.85 609.168 400.62 608.937 401.312C610.325 401.312 609.631 402.004 609.631 403.388C611.25 403.388 612.175 402.927 612.637 401.773C614.488 402.927 614.488 401.312 615.644 400.85C616.107 398.544 615.413 399.005 615.181 396.698C616.107 397.16 616.569 396.929 617.957 396.237V394.622C615.644 394.853 615.181 393.007 612.406 393.007C612.175 393.699 611.944 393.699 611.712 393.699ZM170.444 387.702C170.675 386.318 169.982 386.087 169.519 385.626C168.825 386.548 169.056 388.163 170.444 387.702ZM618.419 389.547C618.882 389.778 619.344 390.009 620.038 390.009C620.732 388.624 619.807 388.394 619.576 387.24C618.882 387.471 618.419 388.163 618.419 389.547ZM435.251 407.54C435.483 408.463 435.945 408.924 436.639 409.155C437.102 408.693 436.87 407.54 436.176 407.079C436.176 407.54 435.714 407.54 435.251 407.54ZM173.682 396.006C172.757 396.698 172.063 397.39 171.369 398.313C175.995 400.85 179.232 389.316 176.457 392.546C176.226 393.007 175.763 393.469 175.532 393.93C175.532 393.93 175.532 393.93 175.301 393.699C175.07 395.083 173.913 394.853 173.682 396.006ZM429.701 400.389C429.932 401.312 430.395 402.004 430.395 403.157C431.32 402.927 431.551 402.234 432.013 401.542C430.857 400.389 429.007 399.466 428.544 395.775C427.619 395.083 426.232 394.622 425.769 393.238C424.613 396.006 426.463 401.081 429.701 400.389ZM411.893 403.388C412.818 405.003 414.206 403.619 414.668 402.234C414.206 402.004 414.205 400.85 413.28 401.081C412.355 401.312 411.893 402.234 411.893 403.388ZM408.424 335.568C408.886 335.799 409.117 336.491 409.117 337.183C409.58 337.183 410.274 337.414 410.505 336.722C410.043 335.799 409.349 333.723 408.424 335.568ZM642.703 371.324C643.628 371.785 642.24 372.708 642.703 373.861C643.165 373.861 643.165 374.553 643.628 374.784C643.859 373.861 644.553 373.63 644.553 372.246C644.322 371.785 643.397 370.17 642.703 371.324ZM635.996 337.183C635.765 340.182 638.077 339.721 639.465 340.413C639.465 338.337 638.309 337.414 637.384 336.26C637.846 337.645 636.69 337.183 635.996 337.183ZM634.84 332.339C635.996 331.416 636.459 333.031 637.846 333.262C637.846 332.8 638.309 332.57 638.54 332.339C638.309 330.263 637.846 328.879 636.921 327.725C635.996 327.956 633.683 330.032 634.84 332.339ZM535.624 345.488C535.392 344.334 536.317 344.565 536.317 343.873C535.624 343.873 535.161 343.873 534.93 343.411C535.161 344.104 534.467 345.949 535.624 345.488ZM642.703 350.332C643.859 351.716 645.247 352.177 647.097 351.485C647.328 350.101 648.022 349.178 648.485 348.256C646.866 347.564 646.403 345.718 644.091 346.18C644.091 348.256 642.24 348.025 642.703 350.332ZM567.308 481.357C566.845 482.972 567.539 482.972 567.771 484.125C568.696 483.895 568.696 484.817 569.389 484.587C568.696 481.357 570.546 482.511 570.083 479.281C567.771 479.742 569.158 483.664 567.308 481.357ZM509.952 480.896C508.796 480.434 509.721 479.973 509.259 478.82C508.333 478.82 507.64 478.82 507.64 479.742C507.871 480.204 509.027 482.049 509.952 480.896ZM654.035 479.05C654.729 479.05 654.729 479.512 655.423 479.512C655.423 479.05 655.654 478.589 655.654 478.358C654.267 478.358 655.885 476.974 654.96 476.744C654.729 477.205 654.498 477.897 654.729 478.82C654.498 478.82 654.035 478.82 654.035 479.05ZM601.999 434.068C601.999 435.452 600.38 434.991 599.917 435.683C601.999 436.144 598.53 435.452 599.224 436.836C600.38 436.375 599.917 436.375 600.611 437.298C601.536 435.452 606.393 435.221 606.393 434.068C605.468 433.145 603.849 435.221 601.999 434.068ZM560.139 477.897C558.288 477.666 557.363 478.589 555.976 479.05C555.744 479.973 556.669 479.973 556.207 481.126C559.214 483.664 561.757 480.896 560.139 477.897ZM156.568 484.125C155.874 484.125 156.105 482.972 155.18 483.203C154.718 484.356 154.718 486.201 155.18 486.432C155.643 485.509 156.799 485.509 156.568 484.125ZM151.017 482.741C151.017 483.203 151.017 483.895 150.786 483.895C152.636 486.893 153.099 489.892 154.486 492.891C156.105 492.891 156.799 492.891 157.493 493.352C157.03 491.968 157.03 492.43 157.03 490.584C156.568 489.662 155.18 489.892 154.718 488.97C155.411 488.97 154.255 487.585 154.718 486.432C151.711 487.585 153.792 482.28 151.017 482.741ZM505.558 479.281C503.708 480.204 504.633 475.129 501.858 476.744C502.089 478.589 504.402 478.128 503.939 479.973C504.402 479.742 505.789 480.665 505.558 479.281ZM481.737 462.903C482.431 460.365 483.125 457.136 484.512 455.06C485.438 456.213 485.9 454.598 486.825 454.598C486.825 452.753 485.9 451.83 484.744 451.369C481.968 454.829 481.737 458.52 480.812 462.903H481.737ZM485.206 441.45C485.9 441.68 485.437 443.295 486.131 443.526C486.131 442.603 486.594 442.142 486.825 441.45C486.825 441.219 485.438 440.527 485.206 441.45ZM572.396 476.974C572.396 476.744 572.165 476.513 572.165 476.974C572.627 476.974 572.396 477.436 572.165 477.897C573.09 478.128 572.859 477.205 573.784 477.436C573.784 476.744 574.246 476.513 574.015 475.821C573.552 475.821 573.321 475.59 573.09 475.359C572.627 475.59 572.859 476.744 572.396 476.974ZM445.196 439.604C445.659 438.22 445.196 438.682 445.196 437.067C443.808 436.606 443.808 440.066 445.196 439.604ZM475.03 481.818C474.799 483.203 476.187 482.28 475.493 483.433C475.262 483.433 475.03 483.664 475.493 483.895C478.499 480.665 478.268 473.975 480.812 470.285C480.812 468.901 481.043 467.286 480.349 466.594C475.493 469.362 478.268 477.666 475.03 481.818ZM563.145 463.826C562.914 461.057 560.37 460.135 558.982 458.52C553.432 464.287 563.839 473.053 563.145 463.826Z" fill="white" fill-opacity="0.5"/>
</g>
</g>
<defs>
<clipPath id="clip0_2028_3911">
<rect width="1185" height="727" fill="white"/>
</clipPath>
</defs>
</svg>
