<svg width="235" height="303" viewBox="0 0 235 303" fill="none" xmlns="http://www.w3.org/2000/svg">
<g clip-path="url(#clip0_2046_14360)">
<path d="M40.9108 72.5142C40.9108 72.5142 72.7258 82.4949 88.9496 114.786L93.8104 115.615C93.7737 115.643 82.601 82.527 40.9108 72.5142Z" fill="#D6E39D"/>
<path d="M40.9113 72.5138C40.9113 72.5138 72.7263 82.4946 88.95 114.785L93.8108 115.614C93.7741 115.642 82.6014 82.5266 40.9113 72.5138ZM40.212 71.5948C40.4689 71.3993 40.8465 71.2862 41.1978 71.3672C50.832 73.6721 59.6467 77.4131 67.3919 82.4902C73.5972 86.5333 79.1261 91.4393 83.8669 97.061C91.9238 106.66 94.765 114.888 94.9154 115.238C95.029 115.616 94.9679 116.069 94.6936 116.394C94.6202 116.45 94.5747 116.542 94.538 116.57C94.2811 116.765 93.9403 116.851 93.6536 116.779L88.7929 115.95C88.4049 115.897 88.1077 115.658 87.9573 115.308C79.7371 98.8682 67.3175 88.409 58.3575 82.573C48.5532 76.1604 40.6615 73.6326 40.5968 73.6237C39.9955 73.4427 39.6494 72.8355 39.8014 72.1974C39.8643 71.9755 40.0285 71.7344 40.212 71.5948Z" fill="#001AAF"/>
<path d="M57.8975 65.9754C57.8975 65.9754 79.9951 79.6348 102.059 117.697L107.782 118.974C107.782 118.974 90.5732 82.2663 57.8975 65.9754Z" fill="#D6E39D"/>
<path d="M57.8972 65.9753C57.8972 65.9753 79.9948 79.6347 102.059 117.697L107.781 118.973C107.781 118.973 90.5729 82.2662 57.8972 65.9753ZM57.198 65.0562C57.5283 64.8049 57.9985 64.7374 58.4337 64.9287C75.5266 73.4573 88.3154 87.5244 96.0368 97.9014C104.374 109.087 108.811 118.422 108.867 118.496C109.045 118.883 109.012 119.372 108.701 119.725C108.655 119.818 108.582 119.873 108.508 119.929C108.252 120.125 107.911 120.21 107.559 120.129L101.837 118.853C101.514 118.809 101.244 118.607 101.085 118.322C79.4235 80.94 57.574 67.1499 57.3328 66.9851C56.7857 66.6469 56.6143 65.9647 56.9149 65.4458C56.9691 65.2885 57.0879 65.14 57.198 65.0562Z" fill="#001AAF"/>
<path d="M38.6847 112.922C38.1132 113.009 26.3076 119.959 24.126 131.486C24.126 131.486 22.8019 123.73 33.3924 113.582L38.6847 112.922Z" fill="#D6E39D"/>
<path d="M33.3925 113.582C22.7653 123.757 24.1261 131.486 24.1261 131.486C25.5985 123.749 31.4425 118.026 35.2594 115.122C37.0944 113.726 38.4821 112.96 38.6848 112.922L33.3925 113.582ZM32.6653 112.626C32.8121 112.515 33.0236 112.412 33.2263 112.374L38.5466 111.75C39.1828 111.673 39.7771 112.149 39.8558 112.786C39.8961 113.219 39.7144 113.59 39.384 113.841C39.2739 113.925 39.1359 113.972 38.9978 114.019C38.685 114.141 37.5367 114.84 35.9586 116.041C32.5821 118.61 26.7084 124.066 25.2534 131.673C25.1818 131.96 25.0176 132.201 24.7974 132.369C24.6138 132.508 24.3377 132.602 24.107 132.604C23.5442 132.626 23.0425 132.195 22.9551 131.623C22.8694 131.282 21.6344 123.109 32.5639 112.646C32.6286 112.654 32.6653 112.626 32.6653 112.626Z" fill="#001AAF"/>
<path d="M107.782 118.973C107.782 118.973 72.9515 122.546 63.4621 146.25C63.4621 146.25 67.9441 123.048 100.496 117.319L107.782 118.973Z" fill="#D6E39D"/>
<path d="M76.8168 127.094C65.4763 135.722 63.4257 146.279 63.4257 146.279C65.9523 140.003 70.2338 135.12 75.1517 131.379C88.9144 120.908 107.745 119.001 107.745 119.001L100.451 117.412C89.8982 119.23 82.2852 122.933 76.8168 127.094ZM76.0896 126.138C82.5489 121.223 90.6724 117.887 100.248 116.231C100.414 116.221 100.581 116.211 100.71 116.228L108.004 117.818C108.549 117.925 108.941 118.44 108.927 119.031C108.911 119.391 108.738 119.697 108.481 119.893C108.298 120.032 108.123 120.107 107.892 120.108C107.726 120.119 89.21 122.134 75.8876 132.27C70.5293 136.347 66.718 141.162 64.5269 146.66C64.436 146.845 64.3085 147.058 64.1617 147.17C63.8681 147.393 63.4993 147.442 63.1479 147.361C62.5746 147.216 62.2285 146.609 62.3438 145.999C62.3962 145.611 64.5289 134.934 76.0896 126.138Z" fill="#001AAF"/>
<path d="M47.558 84.7529C47.558 84.7529 67.5204 89.5893 81.7839 114.201L76.8882 113.63C76.8602 113.594 68.1101 95.4672 47.558 84.7529Z" fill="#D6E39D"/>
<path d="M47.558 84.7533C68.1749 95.4764 76.897 113.566 76.897 113.566L81.7927 114.136C67.5204 89.5897 47.558 84.7533 47.558 84.7533ZM46.8588 83.8343L46.8955 83.8064C47.0423 83.6947 47.2171 83.6197 47.3831 83.6095C47.4845 83.5904 47.6505 83.5802 47.7432 83.6258L47.8078 83.6346C48.1592 83.7156 53.1528 85.0239 59.9226 89.276C66.2013 93.2633 75.2751 100.696 82.7854 113.613C83.0284 114.009 82.9952 114.498 82.7488 114.86C82.6667 114.981 82.5566 115.064 82.4832 115.12C82.263 115.288 81.9501 115.41 81.6268 115.365L76.7311 114.795C76.3431 114.742 75.9812 114.495 75.8309 114.145C75.7557 113.97 66.9812 96.2685 47.0496 85.8367C46.8643 85.7455 46.7437 85.6631 46.6038 85.4793C46.2122 84.9647 46.3083 84.2531 46.8588 83.8343C46.8221 83.8622 46.8221 83.8622 46.8588 83.8343Z" fill="#001AAF"/>
<path d="M81.3892 114.444C81.3892 114.444 65.2525 121.034 59.4902 137.374C59.4902 137.374 63.2249 120.196 76.5302 113.846L81.3892 114.444Z" fill="#D6E39D"/>
<path d="M72.2589 116.457C62.3865 123.968 59.4902 137.374 59.4902 137.374C62.4622 129.018 68.1209 123.204 72.9654 119.518C77.5897 116 81.426 114.416 81.426 114.416L76.5303 113.846C74.9765 114.622 73.5434 115.48 72.2589 116.457ZM71.5597 115.538C72.9543 114.477 74.4608 113.563 76.0145 112.787C76.226 112.684 76.4287 112.646 76.6507 112.709L81.5464 113.28C82.0638 113.35 82.5008 113.772 82.5603 114.308C82.6005 114.741 82.4468 115.148 82.1165 115.4C82.0431 115.456 81.9697 115.511 81.8316 115.558C81.7949 115.586 78.032 117.114 73.628 120.465C69.2973 123.76 63.49 129.455 60.5547 137.783C60.4918 138.005 60.3363 138.181 60.1528 138.321C59.8592 138.544 59.4904 138.593 59.1391 138.512C58.5378 138.331 58.1917 137.724 58.3349 137.15C58.4782 136.577 61.467 123.217 71.5597 115.538Z" fill="#001AAF"/>
<path d="M43.5313 93.8543C43.5313 93.8543 59.9157 96.6535 66.7638 112.28L72.2031 112.727C72.2398 112.699 62.0896 93.7226 43.5313 93.8543Z" fill="#D6E39D"/>
<path d="M43.531 93.8543C43.531 93.8543 59.9153 96.6535 66.7635 112.28L72.2027 112.727C72.2394 112.699 62.0892 93.7226 43.531 93.8543ZM42.8317 92.9353C43.0152 92.7957 43.2914 92.7017 43.5221 92.7002C51.4309 92.6612 59.0798 96.0123 65.6262 102.408C70.5451 107.197 73.129 111.964 73.2321 112.176C73.4472 112.535 73.414 113.025 73.1676 113.386C73.0855 113.507 72.9754 113.59 72.902 113.646C72.6818 113.814 72.4056 113.908 72.1102 113.9L66.671 113.453C66.2463 113.428 65.8565 113.145 65.6781 112.758C62.9263 106.552 58.3482 101.677 52.0556 98.2804C47.3292 95.7239 43.3091 95.0098 43.3091 95.0098C42.6991 94.8935 42.3076 94.3788 42.3582 93.7599C42.4385 93.4086 42.6115 93.1028 42.8317 92.9353Z" fill="#001AAF"/>
<path d="M51.8966 132.878C51.8966 132.878 57.3219 119.522 68.9021 113.265L63.0573 112.894C63.0573 112.894 56.362 117.118 51.8966 132.878Z" fill="#D6E39D"/>
<path d="M62.8003 113.089C61.4791 114.094 55.8046 119.05 51.9611 132.887C51.9611 132.887 56.1546 122.557 64.9994 115.827C66.2105 114.906 67.5143 114.03 68.9299 113.301L63.0852 112.931C63.0572 112.894 62.9838 112.95 62.8003 113.089ZM62.0731 112.133C62.2933 111.966 62.4034 111.882 62.4401 111.854C62.6236 111.715 62.891 111.685 63.1217 111.684L68.9665 112.054C69.4559 112.088 69.9296 112.483 70.0258 112.99C70.1307 113.432 69.9682 113.904 69.6012 114.183C69.5645 114.211 69.4911 114.267 69.4544 114.295C68.1768 114.977 66.9098 115.825 65.6987 116.746C57.1841 123.225 53.0343 133.231 52.9889 133.323C52.898 133.509 52.8071 133.694 52.6236 133.833C52.33 134.057 51.9246 134.133 51.5453 134.015C50.9807 133.807 50.6345 133.199 50.8145 132.598C54.7121 118.605 60.4216 113.39 62.0731 112.133Z" fill="#001AAF"/>
<path d="M40.8119 101.552C40.8119 101.552 51.201 102.412 58.0292 111.844L61.9618 111.986C61.9618 111.986 54.9028 101.337 40.8119 101.552Z" fill="#D6E39D"/>
<path d="M40.8114 101.553C40.8114 101.553 51.2006 102.413 58.0287 111.844L61.9613 111.986C61.9613 111.986 54.9023 101.337 40.8114 101.553ZM40.1122 100.634C40.2957 100.494 40.5351 100.428 40.8026 100.399C55.3548 100.181 62.6358 110.893 62.9348 111.362C63.1498 111.72 63.218 112.191 62.9716 112.553C62.8895 112.673 62.7707 112.822 62.6606 112.905C62.4404 113.073 62.2009 113.139 61.9055 113.131L57.9729 112.989C57.6129 112.973 57.307 112.799 57.0832 112.505C50.7026 103.662 40.8203 102.707 40.7277 102.661C40.109 102.61 39.6527 102.086 39.6386 101.458C39.6456 101.163 39.8553 100.829 40.1122 100.634Z" fill="#001AAF"/>
<path d="M41.6965 131.352C41.6965 131.352 49.0199 117.596 57.6046 113.038L51.6515 112.982C51.6515 112.982 46.2337 116.524 41.6965 131.352Z" fill="#D6E39D"/>
<path d="M51.4763 113.057C50.6321 113.699 45.7912 117.847 41.696 131.352C41.696 131.352 47.5271 120.357 54.8672 114.772C55.7481 114.102 56.6481 113.533 57.5394 113.029L51.5864 112.973C51.651 112.982 51.5864 112.973 51.4763 113.057ZM50.777 112.138C50.8871 112.054 50.9605 111.998 50.9605 111.998C51.144 111.859 51.3835 111.793 51.6142 111.791L57.5672 111.847C58.0933 111.853 58.5391 112.211 58.6999 112.727C58.8049 113.169 58.6424 113.641 58.2754 113.92C58.2387 113.948 58.1653 114.004 58.1286 114.032C57.3106 114.48 56.4473 115.021 55.6032 115.663C48.5566 121.024 42.7972 131.733 42.7151 131.854C42.6609 132.011 42.5141 132.123 42.3673 132.234C42.037 132.486 41.6035 132.525 41.1963 132.371C40.6317 132.162 40.3223 131.527 40.5302 130.962C44.7896 117.216 49.8228 112.864 50.777 112.138Z" fill="#001AAF"/>
<path d="M31.1278 107.179C31.1278 107.179 40.7705 106.982 45.422 111.801L50.1464 111.689C50.1831 111.661 42.3274 104.23 31.1278 107.179Z" fill="#D6E39D"/>
<path d="M31.128 107.179C31.128 107.179 40.7706 106.982 45.4222 111.801L50.1465 111.689C50.1832 111.661 42.3276 104.23 31.128 107.179ZM30.4287 106.26C30.5388 106.177 30.7136 106.102 30.8517 106.055C42.5302 102.973 50.6358 110.504 50.9889 110.816C51.342 111.128 51.4381 111.635 51.2757 112.107C51.2128 112.329 51.0572 112.505 50.9104 112.617C50.7269 112.757 50.4875 112.823 50.2201 112.852L45.4957 112.964C45.1636 112.984 44.849 112.876 44.6532 112.618C40.374 108.212 31.2662 108.351 31.2015 108.342C30.6108 108.327 30.1091 107.897 30.0216 107.325C29.9447 106.919 30.0984 106.512 30.4287 106.26Z" fill="#001AAF"/>
<path d="M47.0564 113.111C47.0564 113.111 36.6788 120.949 35.9582 130.436C35.9582 130.436 34.8419 120.895 42.0559 113.317L47.0564 113.111Z" fill="#D6E39D"/>
<path d="M42.056 113.318C34.8419 120.896 35.9582 130.436 35.9582 130.436C36.6614 121.079 46.7261 113.363 47.0564 113.112L42.056 113.318ZM41.3567 112.399C41.5402 112.259 41.7797 112.193 42.0104 112.192L47.0109 111.986C47.509 111.955 47.9914 112.284 48.161 112.736C48.3586 113.224 48.1874 113.76 47.7836 114.068C47.3799 114.375 37.8203 121.764 37.131 130.531C37.1153 130.891 36.9144 131.16 36.6575 131.355C36.474 131.495 36.2345 131.561 35.9671 131.59C35.3396 131.603 34.8747 131.144 34.7872 130.573C34.747 130.139 33.7215 120.413 41.2099 112.51C41.2466 112.482 41.2833 112.454 41.3567 112.399Z" fill="#001AAF"/>
<path d="M72.8234 63.9632C72.8234 63.9632 100.368 85.0866 117.842 121.534L123.327 123.107C123.262 123.098 106.367 86.2688 72.8234 63.9632Z" fill="#D6E39D"/>
<path d="M72.8237 63.9632C72.8237 63.9632 100.368 85.0866 117.842 121.534L123.327 123.107C123.263 123.098 106.367 86.2687 72.8237 63.9632ZM72.0965 63.0074C72.4635 62.7281 73.0263 62.7062 73.4528 62.9621C90.9481 74.6091 103.831 90.1713 111.595 101.213C119.993 113.165 124.301 122.482 124.385 122.593C124.591 123.016 124.493 123.497 124.219 123.822C124.145 123.877 124.1 123.97 124.063 123.998C123.77 124.221 123.401 124.27 123.049 124.189L117.565 122.616C117.25 122.507 116.981 122.305 116.822 122.02C107.883 103.341 96.1794 88.7961 87.9985 79.8715C79.0922 70.2219 72.2313 64.9362 72.2034 64.8995C71.6929 64.5333 71.595 63.7952 71.9602 63.2852C71.941 63.1837 71.9864 63.0911 72.0965 63.0074Z" fill="#001AAF"/>
<path d="M86.9454 139.644C86.9454 139.644 100.236 124.134 119.082 121.868L111.037 119.747C111.037 119.747 96.3097 122.478 86.9454 139.644Z" fill="#D6E39D"/>
<path d="M98.5874 125.852C94.6604 128.84 90.412 133.233 86.9172 139.607C86.9172 139.607 89.8898 136.126 94.9912 132.245C100.716 127.889 109.077 123.037 119.017 121.859L110.972 119.738C111.036 119.747 105.194 120.826 98.5874 125.852ZM97.8881 124.933C104.678 119.767 110.529 118.624 110.797 118.594C110.963 118.584 111.129 118.574 111.323 118.6L119.368 120.721C119.905 120.893 120.268 121.371 120.227 121.925C120.211 122.285 120.038 122.591 119.781 122.787C119.634 122.898 119.423 123.001 119.22 123.039C109.345 124.226 100.995 129.244 95.7464 133.237C90.7918 137.007 87.8646 140.395 87.8279 140.423C87.7545 140.479 87.7091 140.571 87.6724 140.599C87.2687 140.907 86.7059 140.928 86.3161 140.645C85.8336 140.315 85.6623 139.633 85.9628 139.114C89.0103 133.371 93.0437 128.619 97.8881 124.933Z" fill="#001AAF"/>
<path d="M92.1916 155.908C92.1916 155.908 102.306 129.523 145.395 130.636L137.778 127.783C137.778 127.783 110.036 121.785 92.1916 155.908Z" fill="#D6E39D"/>
<path d="M108.364 135.884C103.776 139.375 99.1624 144.278 94.9598 151.016C96.7947 148.401 99.6117 145.097 103.832 141.886C111.87 135.771 124.922 130.077 145.404 130.571L137.787 127.718C137.778 127.783 123.191 124.603 108.364 135.884ZM94.9511 151.081C92.9519 153.937 92.1919 155.908 92.1919 155.908C93.083 154.185 94.0214 152.601 94.9511 151.081ZM107.664 134.965C115.518 128.99 123.357 127.031 128.539 126.454C134.155 125.838 137.936 126.619 138.065 126.636C138.13 126.645 138.158 126.682 138.222 126.691L145.84 129.543C146.376 129.716 146.694 130.286 146.588 130.831C146.516 131.118 146.352 131.359 146.132 131.527C145.911 131.694 145.672 131.76 145.377 131.753C128.475 131.321 114.734 135.042 104.532 142.805C101.118 145.402 98.1789 148.393 95.9247 151.675C94.995 153.195 94.0933 154.752 93.2109 156.41C93.1567 156.567 93.0099 156.679 92.8631 156.79C92.5328 157.042 92.0627 157.109 91.6921 156.927C91.1363 156.653 90.8915 156.027 91.0715 155.426C91.1169 155.333 91.8857 153.297 93.9302 150.348C97.9057 144.073 102.49 138.903 107.664 134.965Z" fill="#001AAF"/>
<path d="M90.7627 58.9047C90.7627 58.9047 115.619 77.2561 135.447 127.003L145.424 130.672C145.396 130.636 125.241 79.1641 90.7627 58.9047Z" fill="#D6E39D"/>
<path d="M90.7626 58.9049C90.7626 58.9049 115.619 77.2563 135.447 127.003L145.424 130.673C145.396 130.636 125.241 79.1643 90.7626 58.9049ZM90.0634 57.9859C90.4304 57.7066 90.9285 57.6759 91.355 57.9318C99.3186 62.6106 107.169 69.349 114.738 77.9265C120.762 84.7776 126.564 92.7842 132.032 101.799C141.324 117.134 146.453 130.121 146.501 130.26C146.67 130.711 146.572 131.192 146.233 131.508C146.197 131.536 146.16 131.564 146.087 131.619C145.756 131.871 145.351 131.947 144.98 131.765L135.003 128.095C134.689 127.987 134.456 127.757 134.334 127.444C124.151 101.875 112.65 84.8548 104.749 75.079C96.2602 64.5312 90.0968 59.9338 90.0688 59.8971C89.5584 59.5309 89.4517 58.8575 89.789 58.3107C89.8799 58.1255 89.99 58.0417 90.0634 57.9859Z" fill="#001AAF"/>
<path d="M102.444 161.69C102.444 161.69 112.778 136.125 157.969 135.812L152.738 133.582C152.738 133.582 117.828 129.206 102.444 161.69Z" fill="#D6E39D"/>
<path d="M116.886 143.505C111.674 147.47 106.816 152.966 102.998 160.514C104.181 158.337 107.29 153.36 113.712 148.473C122.007 142.163 135.756 135.939 157.941 135.776L152.709 133.546C152.737 133.582 133.144 131.135 116.886 143.505ZM103.026 160.551C102.626 161.32 102.472 161.727 102.472 161.727C102.626 161.32 102.844 160.921 103.026 160.551ZM116.186 142.586C124.811 136.024 134.326 133.602 140.733 132.732C147.712 131.776 152.636 132.383 152.83 132.409C152.959 132.427 153.052 132.472 153.144 132.518L158.376 134.748C158.876 134.948 159.194 135.519 159.06 136.028C158.988 136.314 158.824 136.555 158.603 136.723C158.42 136.862 158.144 136.956 157.913 136.958C139.982 137.076 124.945 141.379 114.412 149.392C108.062 154.223 105.027 159.144 103.98 161.044C103.799 161.414 103.617 161.785 103.435 162.155C103.344 162.34 103.225 162.489 103.079 162.6C102.748 162.852 102.278 162.919 101.908 162.737C101.315 162.491 101.042 161.828 101.287 161.236C101.296 161.171 101.486 160.736 101.886 159.967C105.505 152.918 110.314 147.054 116.186 142.586Z" fill="#001AAF"/>
<path d="M110.342 54.8623C110.342 54.8623 139.558 92.8813 154.357 134.266L160.144 136.77C160.079 136.761 150.577 96.3965 110.342 54.8623Z" fill="#D6E39D"/>
<path d="M110.343 54.8619C110.343 54.8619 139.559 92.8809 154.357 134.266L160.145 136.769C160.08 136.761 150.577 96.3961 110.343 54.8619ZM109.643 53.9429C110.12 53.5799 110.776 53.6036 111.176 54.0536C132.07 75.6515 144.554 96.8576 151.353 110.897C158.715 126.132 161.127 136.08 161.232 136.523C161.337 136.965 161.211 137.409 160.844 137.688L160.807 137.716C160.477 137.968 160.007 138.035 159.636 137.853L153.849 135.349C153.571 135.212 153.338 134.983 153.216 134.67C138.662 93.9113 109.696 55.9923 109.388 55.5879C109.025 55.11 109.056 54.3897 109.57 53.9987C109.607 53.9708 109.643 53.9429 109.643 53.9429Z" fill="#001AAF"/>
<path d="M118.558 170.152C118.558 170.152 125.871 146.71 172.946 142.933L166.619 139.795C166.619 139.795 130.051 139.409 118.558 170.152Z" fill="#D6E39D"/>
<path d="M132.807 150.952C127.155 155.252 122.07 161.211 118.848 169.466C119.627 167.597 122.346 162.336 129.429 156.946C137.356 150.915 150.7 144.767 172.974 142.97L166.647 139.832C166.619 139.795 147.707 139.615 132.807 150.952ZM118.848 169.466C118.657 169.902 118.586 170.188 118.586 170.188C118.657 169.902 118.72 169.68 118.848 169.466ZM132.08 149.996C147.127 138.548 165.825 138.6 166.61 138.641C166.776 138.631 166.933 138.685 167.118 138.777L173.446 141.914C173.909 142.142 174.171 142.639 174.065 143.185C173.993 143.471 173.829 143.712 173.609 143.88C173.425 144.019 173.25 144.094 172.983 144.124C154.537 145.621 140.083 150.234 130.064 157.857C123.274 163.022 120.627 167.997 119.839 169.931C119.776 170.153 119.648 170.366 119.585 170.588C119.522 170.81 119.367 170.987 119.22 171.098C118.926 171.322 118.521 171.398 118.142 171.28C117.54 171.099 117.203 170.428 117.383 169.826C117.42 169.798 117.491 169.512 117.69 169.012C120.769 161.33 125.584 154.939 132.08 149.996Z" fill="#001AAF"/>
<path d="M132.289 60.8588C132.289 60.8588 160.68 98.4027 172.984 142.905L180.452 146.857C180.452 146.857 176.262 114.465 132.289 60.8588Z" fill="#D6E39D"/>
<path d="M132.289 60.8587C132.289 60.8587 160.68 98.4026 172.983 142.905L180.452 146.857C180.452 146.857 176.262 114.465 132.289 60.8587ZM131.59 59.9397C132.103 59.5487 132.815 59.646 133.178 60.1239C156.003 87.9147 167.921 109.9 173.923 123.5C180.46 138.261 181.537 146.38 181.623 146.721C181.663 147.155 181.51 147.562 181.179 147.813L181.143 147.841C180.812 148.092 180.314 148.123 179.916 147.904L172.447 143.951C172.169 143.815 171.945 143.521 171.851 143.244C165.519 120.376 154.883 99.389 147.035 85.7996C138.514 71.0971 131.419 61.695 131.335 61.5847C130.943 61.07 131.039 60.3585 131.59 59.9397Z" fill="#001AAF"/>
<path d="M127.448 188.462C127.448 188.462 135.552 158.673 194.859 155.282L187.367 150.767C187.367 150.767 137.796 150.349 127.448 188.462Z" fill="#D6E39D"/>
<path d="M143.699 164.43C136.469 169.931 130.355 177.66 127.448 188.462C127.448 188.462 129.736 180.046 140.783 171.641C150.509 164.241 167.082 156.855 194.867 155.217L187.376 150.702C187.367 150.767 161.94 150.552 143.699 164.43ZM143 163.511C152.616 156.195 164.135 152.829 172.152 151.256C180.777 149.57 187.127 149.614 187.358 149.613C187.589 149.611 187.746 149.666 187.959 149.794L195.451 154.309C195.877 154.565 196.103 155.09 195.968 155.598C195.897 155.885 195.769 156.098 195.549 156.266C195.366 156.405 195.154 156.508 194.923 156.51C171.824 157.832 153.833 163.279 141.502 172.661C130.969 180.675 128.622 188.787 128.614 188.851C128.514 189.101 128.386 189.315 128.203 189.454C127.909 189.678 127.568 189.763 127.189 189.645C126.588 189.464 126.214 188.82 126.394 188.219C129.039 178.139 134.669 169.85 143 163.511Z" fill="#001AAF"/>
<path d="M151.818 68.1717C151.818 68.1717 180.9 106.699 189.954 152.339L197.446 156.854C197.446 156.854 189.517 113.609 151.818 68.1717Z" fill="#D6E39D"/>
<path d="M151.819 68.1716C151.819 68.1716 180.9 106.699 189.954 152.338L197.446 156.854C197.446 156.854 189.518 113.608 151.819 68.1716ZM151.119 67.2525C151.633 66.8616 152.345 66.9588 152.708 67.4367C172.28 91.0279 183.698 114.032 189.859 129.136C196.501 145.558 198.57 156.579 198.589 156.681C198.694 157.123 198.504 157.558 198.137 157.838L198.1 157.866C197.733 158.145 197.207 158.139 196.845 157.892L189.39 153.348C189.084 153.175 188.925 152.89 188.867 152.585C184.22 129.189 174.18 107.691 166.542 93.7682C158.304 78.6762 151.013 69.0167 150.929 68.9064C150.51 68.355 150.606 67.6435 151.119 67.2525Z" fill="#001AAF"/>
<path d="M148.177 188.593C148.177 188.593 159.955 157.692 211.241 166.151L202.863 160.394C202.891 160.431 161.163 152.653 148.177 188.593Z" fill="#D6E39D"/>
<path d="M162.101 169.119C156.412 173.447 151.421 179.682 148.214 188.566C148.214 188.566 150.918 181.458 159.433 174.98C168.645 167.971 184.6 161.752 211.305 166.16L202.927 160.403C202.89 160.431 179.314 156.023 162.101 169.119ZM161.365 168.228C170.504 161.275 181.35 159.233 188.859 158.744C196.967 158.205 202.882 159.277 203.104 159.341C203.261 159.395 203.418 159.449 203.539 159.532L211.925 165.224C212.38 165.516 212.56 166.134 212.361 166.634C212.27 166.819 212.179 167.004 211.996 167.144C211.739 167.339 211.435 167.396 211.111 167.352C184.184 162.881 168.528 169.569 160.16 175.936C152.049 182.107 149.343 188.984 149.334 189.048C149.271 189.27 149.116 189.447 148.969 189.558C148.675 189.782 148.233 189.886 147.862 189.704C147.27 189.458 146.96 188.823 147.177 188.194C150.112 179.866 154.942 173.115 161.365 168.228Z" fill="#001AAF"/>
<path d="M177.022 83.7044C177.022 83.7044 193.061 103.947 211.241 166.15L219.177 172.011C219.205 172.048 205.471 117.896 177.022 83.7044Z" fill="#D6E39D"/>
<path d="M177.022 83.7049C177.022 83.7049 193.061 103.948 211.241 166.151L219.177 172.011C219.205 172.048 205.47 117.897 177.022 83.7049ZM176.323 82.7859C176.8 82.4229 177.548 82.4922 177.912 82.9701C192.704 100.737 203.468 123.948 209.86 140.27C216.798 157.918 220.281 171.635 220.328 171.774C220.433 172.216 220.271 172.688 219.904 172.967L219.867 172.995C219.435 173.266 218.909 173.26 218.52 172.976L210.584 167.115C210.37 166.987 210.239 166.738 210.173 166.499C200.79 134.517 192.012 113.916 186.339 102.271C180.141 89.632 176.161 84.4765 176.133 84.4397C175.704 83.953 175.772 83.2047 176.323 82.7859C176.286 82.8138 176.286 82.8138 176.323 82.7859Z" fill="#001AAF"/>
<path d="M157.554 198.176C163.85 187.64 193.827 169.766 225.426 176.951L219.205 172.049C219.205 172.049 179.71 161.875 157.554 198.176Z" fill="#D6E39D"/>
<path d="M172.01 181.837C166.872 185.747 161.947 191.003 157.653 197.926C159.158 195.562 161.767 192.823 165.364 190.086C177.695 180.704 201.019 171.375 225.398 176.914L219.177 172.012C219.205 172.049 193.553 165.446 172.01 181.837ZM157.681 197.963C157.636 198.055 157.599 198.083 157.554 198.176C157.599 198.083 157.608 198.019 157.681 197.963ZM171.31 180.918C182.688 172.262 195.176 170.016 203.626 169.623C212.769 169.226 219.205 170.83 219.491 170.902C219.649 170.956 219.806 171.011 219.926 171.093L226.148 175.995C226.565 176.316 226.717 176.896 226.482 177.424C226.391 177.609 226.272 177.758 226.125 177.869C225.868 178.065 225.527 178.15 225.176 178.069C201.305 172.666 178.422 181.66 166.091 191.042C162.715 193.611 160.086 196.249 158.655 198.557L158.527 198.77C158.445 198.891 158.363 199.011 158.253 199.095C157.886 199.374 157.351 199.433 156.925 199.177C156.378 198.839 156.178 198.12 156.516 197.573C156.561 197.48 156.634 197.424 156.643 197.36C160.764 190.742 165.659 185.219 171.31 180.918Z" fill="#001AAF"/>
<path d="M183.216 203.725C183.216 203.725 200.399 175.967 239.574 188.996L231.537 181.936C231.565 181.972 196.689 172.463 183.216 203.725Z" fill="#D6E39D"/>
<path d="M194.956 188.235C190.368 191.725 186.272 196.699 183.179 203.753C183.179 203.753 186.005 199.166 192.024 194.586C200.795 187.913 216.277 181.3 239.538 189.024L231.5 181.964C231.565 181.973 210.664 176.283 194.956 188.235ZM194.257 187.316C202.624 180.949 212.396 179.551 219.124 179.482C226.377 179.419 231.621 180.827 231.843 180.891C232 180.945 232.185 181.036 232.306 181.119L240.343 188.179C240.752 188.565 240.868 189.173 240.576 189.627C240.494 189.748 240.375 189.896 240.265 189.98C239.971 190.204 239.566 190.28 239.186 190.162C216.555 182.655 201.412 188.952 192.751 195.542C187.026 199.898 184.218 204.356 184.181 204.384C184.099 204.505 184.017 204.625 183.907 204.709C183.54 204.988 183.069 205.056 182.643 204.8C182.087 204.526 181.879 203.872 182.087 203.308C185.035 196.596 189.119 191.225 194.257 187.316Z" fill="#001AAF"/>
<path d="M206.498 110.033C206.498 110.033 223.52 136.899 230.316 181.703L239.601 189.032C239.574 188.996 228.688 133.257 206.498 110.033Z" fill="#D6E39D"/>
<path d="M206.499 110.033C206.499 110.033 223.521 136.899 230.317 181.703L239.602 189.032C239.574 188.996 228.689 133.257 206.499 110.033ZM205.772 109.077C206.249 108.714 206.932 108.775 207.305 109.188C216.683 119.001 225.115 135.338 232.477 157.887C237.931 174.574 240.706 188.656 240.754 188.795C240.859 189.237 240.668 189.672 240.301 189.951C240.264 189.979 240.228 190.007 240.191 190.035C239.759 190.306 239.242 190.235 238.852 189.951L229.567 182.621C229.326 182.457 229.167 182.171 229.137 181.904C222.476 137.81 205.657 110.906 205.525 110.658C205.199 110.152 205.323 109.477 205.772 109.077Z" fill="#001AAF"/>
<path d="M199.55 213.237C199.405 213.58 214.117 188.515 253.698 202.686L246.444 195.436C246.444 195.436 210.457 186.598 199.55 213.237Z" fill="#D6E39D"/>
<path d="M208.703 201.049C204.96 203.897 201.732 207.804 199.522 213.2C199.559 213.172 201.71 209.678 206.444 206.076C214.261 200.129 229.229 193.907 253.698 202.686L246.443 195.436C246.443 195.436 223.494 189.796 208.703 201.049ZM208.004 200.13C215.895 194.126 226.009 192.874 233.125 192.858C240.766 192.848 246.471 194.254 246.693 194.317C246.915 194.38 247.1 194.471 247.212 194.619L254.467 201.868C254.876 202.254 254.926 202.854 254.635 203.308C254.552 203.428 254.47 203.549 254.36 203.633C254.067 203.856 253.661 203.932 253.282 203.815C229.72 195.39 215.209 200.917 207.135 207.06C203.391 209.908 201.263 212.746 200.56 213.803C200.478 213.924 200.396 214.044 200.249 214.156C199.845 214.463 199.255 214.448 198.837 214.128C198.419 213.807 198.267 213.226 198.494 212.763C200.577 207.58 203.82 203.313 208.004 200.13Z" fill="#001AAF"/>
<path d="M224.491 120.431C224.491 120.431 240.906 142.767 246.443 195.436L253.697 202.685C253.697 202.685 252.989 158.648 224.491 120.431Z" fill="#D6E39D"/>
<path d="M224.492 120.431C224.492 120.431 240.906 142.767 246.443 195.435L253.697 202.685C253.697 202.685 252.989 158.648 224.492 120.431ZM223.792 119.512C224.306 119.121 225.046 119.255 225.437 119.769C240.273 139.65 247.481 161.156 250.924 175.659C254.663 191.387 254.896 202.586 254.879 202.715C254.891 203.112 254.718 203.418 254.425 203.641C254.351 203.697 254.278 203.753 254.177 203.772C253.726 203.941 253.245 203.842 252.892 203.53L245.638 196.281C245.433 196.088 245.302 195.839 245.272 195.572C242.443 168.472 236.65 149.662 232.31 138.627C227.623 126.755 223.565 121.193 223.574 121.129C223.183 120.614 223.279 119.902 223.792 119.512Z" fill="#001AAF"/>
<path d="M22.9701 115.65C28.479 114.361 34.1034 113.68 39.7208 113.295L41.8514 113.125C42.5523 113.056 43.2444 113.052 43.9733 113.02C45.3942 112.983 46.7872 112.91 48.2082 112.874C51.0414 112.866 53.8833 112.793 56.6991 112.914C62.348 113.027 68.018 113.473 73.6425 114.011L77.8548 114.521C79.2496 114.679 80.6444 114.836 82.0951 115.068L86.2899 115.707C87.0013 115.804 87.7127 115.901 88.3874 116.026L90.4761 116.411C112.803 120.318 134.552 127.046 155.258 136.134C176.009 145.13 195.581 156.764 213.726 170.18C222.758 176.948 231.425 184.226 239.707 191.913L245.834 197.757C246.327 198.253 246.856 198.72 247.349 199.216L248.819 200.767L251.768 203.805L254.717 206.844C255.703 207.835 256.607 208.946 257.556 209.966L263.225 216.274L263.281 216.348C264.11 217.284 265.522 217.313 266.42 216.513C267.355 215.686 267.381 214.273 266.581 213.373L266.553 213.336L260.718 207.038C259.74 205.982 258.8 204.898 257.814 203.907L254.801 200.86L251.787 197.813L250.28 196.29C249.787 195.794 249.23 195.29 248.737 194.794L242.48 188.932C233.959 181.312 225.126 174.044 215.892 167.314C197.34 153.974 177.419 142.49 156.346 133.681C135.319 124.779 113.305 118.312 90.7765 114.673L88.6511 114.317C87.9397 114.219 87.2283 114.122 86.517 114.025L82.2767 113.478C80.8539 113.284 79.4592 113.126 78.0277 112.996L73.8067 112.551C68.1367 112.106 62.43 111.688 56.7356 111.668C53.8832 111.574 51.0325 111.712 48.1993 111.72C46.7783 111.756 45.3486 111.857 43.9556 111.93C43.2268 111.962 42.5347 111.967 41.8338 112.035L39.7032 112.205C34.0404 112.683 28.3705 113.456 22.8162 114.838C22.5767 114.904 22.4492 115.118 22.5156 115.357C22.4894 115.551 22.7306 115.716 22.9701 115.65Z" fill="#001AAF"/>
</g>
<defs>
<clipPath id="clip0_2046_14360">
<rect width="168.46" height="252.302" fill="white" transform="matrix(-0.795841 0.605506 0.605506 0.795841 134.312 0)"/>
</clipPath>
</defs>
</svg>
