<svg width="38" height="38" viewBox="0 0 38 38" fill="none" xmlns="http://www.w3.org/2000/svg">
<circle cx="19" cy="19" r="18" stroke="#151515" stroke-width="2"/>
<path d="M28.7358 11.186C28.6306 11.095 28.5027 11.0345 28.3658 11.011C28.2289 10.9875 28.0882 11.0018 27.9588 11.0525L10.769 17.794C10.5254 17.8889 10.3192 18.0606 10.1813 18.2831C10.0435 18.5057 9.98153 18.7671 10.0048 19.028C10.028 19.2889 10.1352 19.5352 10.3102 19.7298C10.4852 19.9243 10.7186 20.0567 10.9751 20.1068L15.4291 20.9832V25.96C15.4282 26.2311 15.5086 26.4962 15.6598 26.7209C15.8111 26.9457 16.0262 27.1197 16.2773 27.2205C16.528 27.3231 16.8037 27.3478 17.0686 27.2912C17.3335 27.2347 17.5753 27.0996 17.7625 26.9035L19.9102 24.6714L23.3174 27.66C23.5632 27.8785 23.8803 27.9994 24.2089 28C24.3529 27.9999 24.496 27.9772 24.633 27.9328C24.8569 27.8617 25.0582 27.7329 25.217 27.5595C25.3758 27.386 25.4865 27.1739 25.538 26.9443L28.9809 11.9349C29.0117 11.7995 29.0052 11.6583 28.962 11.5264C28.9188 11.3944 28.8406 11.2768 28.7358 11.186ZM24.2106 26.64L17.1976 20.4774L27.2913 13.2277L24.2106 26.64Z" fill="#151515"/>
</svg>
