<svg width="38" height="38" viewBox="0 0 38 38" fill="none" xmlns="http://www.w3.org/2000/svg">
<circle cx="19" cy="19" r="18" stroke="#151515" stroke-width="2"/>
<path d="M14.253 25.494L14.977 25.917C16.198 26.6291 17.5866 27.0029 19 27C20.5823 27 22.129 26.5308 23.4446 25.6518C24.7602 24.7727 25.7855 23.5233 26.3911 22.0615C26.9966 20.5997 27.155 18.9911 26.8463 17.4393C26.5376 15.8874 25.7757 14.462 24.6569 13.3431C23.538 12.2243 22.1126 11.4624 20.5607 11.1537C19.0089 10.845 17.4004 11.0035 15.9385 11.609C14.4767 12.2145 13.2273 13.2398 12.3483 14.5554C11.4692 15.871 11 17.4177 11 19C10.9971 20.4139 11.3713 21.8029 12.084 23.024L12.506 23.748L11.853 26.149L14.253 25.494ZM9.00401 29L10.356 24.032C9.46511 22.5049 8.99706 20.768 9.00001 19C9.00001 13.477 13.477 9 19 9C24.523 9 29 13.477 29 19C29 24.523 24.523 29 19 29C17.2328 29.0029 15.4967 28.5352 13.97 27.645L9.00401 29ZM15.391 14.308C15.525 14.298 15.66 14.298 15.794 14.304C15.848 14.308 15.902 14.314 15.956 14.32C16.115 14.338 16.29 14.435 16.349 14.569C16.647 15.245 16.937 15.926 17.217 16.609C17.279 16.761 17.242 16.956 17.124 17.146C17.064 17.243 16.97 17.379 16.861 17.518C16.748 17.663 16.505 17.929 16.505 17.929C16.505 17.929 16.406 18.047 16.444 18.194C16.458 18.25 16.504 18.331 16.546 18.399L16.605 18.494C16.861 18.921 17.205 19.354 17.625 19.762C17.745 19.878 17.862 19.997 17.988 20.108C18.456 20.521 18.986 20.858 19.558 21.108L19.563 21.11C19.648 21.147 19.691 21.167 19.815 21.22C19.877 21.246 19.941 21.268 20.006 21.286C20.0732 21.3031 20.1439 21.2999 20.2093 21.2767C20.2746 21.2536 20.3316 21.2116 20.373 21.156C21.097 20.279 21.163 20.222 21.169 20.222V20.224C21.2193 20.1771 21.2791 20.1415 21.3443 20.1196C21.4095 20.0977 21.4786 20.09 21.547 20.097C21.607 20.101 21.668 20.112 21.724 20.137C22.255 20.38 23.124 20.759 23.124 20.759L23.706 21.02C23.804 21.067 23.893 21.178 23.896 21.285C23.9 21.352 23.906 21.46 23.883 21.658C23.851 21.917 23.773 22.228 23.695 22.391C23.6416 22.5022 23.5707 22.6042 23.485 22.693C23.3841 22.7989 23.2736 22.8953 23.155 22.981C23.073 23.043 23.03 23.071 23.03 23.071C22.9056 23.1499 22.7778 23.2233 22.647 23.291C22.3895 23.4278 22.1052 23.5063 21.814 23.521C21.629 23.531 21.444 23.545 21.258 23.535C21.25 23.535 20.69 23.448 20.69 23.448C19.2683 23.074 17.9534 22.3735 16.85 21.402C16.624 21.203 16.414 20.989 16.2 20.776C15.312 19.891 14.639 18.936 14.23 18.034C14.0217 17.5915 13.9093 17.11 13.9 16.621C13.8963 16.0137 14.0951 15.4226 14.465 14.941C14.538 14.847 14.607 14.749 14.726 14.636C14.852 14.516 14.933 14.452 15.02 14.408C15.1357 14.35 15.2619 14.316 15.391 14.308Z" fill="#151515"/>
</svg>
